<svg viewBox="0 0 1600 1200" xmlns="http://www.w3.org/2000/svg">
  <!-- Sky -->
  <rect x="0" y="0" width="1600" height="400" fill="#87CEEB"/>
  
  <!-- Trees in background -->
  <ellipse cx="200" cy="250" rx="150" ry="200" fill="#4A5D23" opacity="0.7"/>
  <ellipse cx="500" cy="220" rx="120" ry="180" fill="#6B7F3C" opacity="0.6"/>
  <ellipse cx="800" cy="240" rx="140" ry="190" fill="#5A6B2F" opacity="0.7"/>
  <ellipse cx="1100" cy="230" rx="130" ry="185" fill="#4F5E2A" opacity="0.6"/>
  <ellipse cx="1400" cy="250" rx="145" ry="195" fill="#596A30" opacity="0.7"/>
  
  <!-- Background buildings -->
  <!-- Green building (left) -->
  <rect x="50" y="280" width="120" height="320" fill="#2F5233"/>
  <rect x="60" y="300" width="25" height="40" fill="#1F1F1F" opacity="0.8"/>
  <rect x="95" y="300" width="25" height="40" fill="#1F1F1F" opacity="0.8"/>
  <rect x="60" y="360" width="25" height="40" fill="#1F1F1F" opacity="0.8"/>
  <rect x="95" y="360" width="25" height="40" fill="#1F1F1F" opacity="0.8"/>
  
  <!-- Cream colored house (center) -->
  <rect x="400" y="250" width="180" height="350" fill="#F5E6D3"/>
  <polygon points="390,250 490,180 590,250" fill="#8B7355"/>
  <rect x="420" y="280" width="35" height="50" fill="#2C2C2C" opacity="0.8"/>
  <rect x="470" y="280" width="35" height="50" fill="#2C2C2C" opacity="0.8"/>
  <rect x="520" y="280" width="35" height="50" fill="#2C2C2C" opacity="0.8"/>
  <rect x="420" y="360" width="35" height="50" fill="#2C2C2C" opacity="0.8"/>
  <rect x="470" y="360" width="35" height="50" fill="#2C2C2C" opacity="0.8"/>
  <rect x="520" y="360" width="35" height="50" fill="#2C2C2C" opacity="0.8"/>
  
  <!-- Brick building (right) -->
  <rect x="1200" y="320" width="400" height="280" fill="#B85C4C"/>
  <!-- Brick texture pattern -->
  <pattern id="brickPattern" x="0" y="0" width="40" height="20" patternUnits="userSpaceOnUse">
    <rect x="0" y="0" width="38" height="9" fill="#A54535"/>
    <rect x="0" y="10" width="38" height="9" fill="#A54535"/>
  </pattern>
  <rect x="1200" y="320" width="400" height="280" fill="url(#brickPattern)" opacity="0.3"/>
  
  <!-- Street -->
  <rect x="0" y="600" width="1600" height="600" fill="#3C3C3C"/>
  
  <!-- Yellow center lines -->
  <rect x="0" y="745" width="1600" height="5" fill="#FFD700"/>
  <rect x="0" y="755" width="1600" height="5" fill="#FFD700"/>
  
  <!-- Blue station wagon (main subject) -->
  <g id="blueWagon">
    <!-- Car body -->
    <rect x="600" y="520" width="320" height="80" fill="#4682B4" rx="5"/>
    <rect x="580" y="500" width="360" height="60" fill="#5A91C1" rx="8"/>
    
    <!-- Windows -->
    <rect x="620" y="510" width="70" height="40" fill="#E6F3FF" opacity="0.8"/>
    <rect x="700" y="510" width="70" height="40" fill="#E6F3FF" opacity="0.8"/>
    <rect x="780" y="510" width="70" height="40" fill="#E6F3FF" opacity="0.8"/>
    <rect x="860" y="510" width="60" height="40" fill="#E6F3FF" opacity="0.8"/>
    
    <!-- Wheels -->
    <circle cx="650" cy="600" r="25" fill="#2C2C2C"/>
    <circle cx="650" cy="600" r="15" fill="#C0C0C0"/>
    <circle cx="850" cy="600" r="25" fill="#2C2C2C"/>
    <circle cx="850" cy="600" r="15" fill="#C0C0C0"/>
    
    <!-- Car details -->
    <rect x="570" y="560" width="15" height="20" fill="#FF6B6B" opacity="0.8"/>
    <rect x="935" y="560" width="15" height="20" fill="#FF6B6B" opacity="0.8"/>
    <rect x="590" y="540" width="30" height="8" fill="#C0C0C0"/>
    <rect x="900" y="540" width="30" height="8" fill="#C0C0C0"/>
  </g>
  
  <!-- White sedan (background) -->
  <g id="whiteCar">
    <rect x="350" y="480" width="180" height="60" fill="#F0F0F0" rx="5"/>
    <rect x="340" y="470" width="200" height="50" fill="#FFFFFF" rx="8"/>
    <rect x="355" y="475" width="40" height="35" fill="#E6F3FF" opacity="0.7"/>
    <rect x="400" y="475" width="40" height="35" fill="#E6F3FF" opacity="0.7"/>
    <rect x="445" y="475" width="40" height="35" fill="#E6F3FF" opacity="0.7"/>
    <rect x="490" y="475" width="35" height="35" fill="#E6F3FF" opacity="0.7"/>
    <circle cx="380" cy="540" r="18" fill="#2C2C2C"/>
    <circle cx="380" cy="540" r="10" fill="#C0C0C0"/>
    <circle cx="490" cy="540" r="18" fill="#2C2C2C"/>
    <circle cx="490" cy="540" r="10" fill="#C0C0C0"/>
    <rect x="335" y="505" width="10" height="15" fill="#FF6B6B" opacity="0.8"/>
    <rect x="530" y="505" width="10" height="15" fill="#FF6B6B" opacity="0.8"/>
  </g>
  
  <!-- Chain link fence -->
  <pattern id="chainLink" x="0" y="0" width="20" height="20" patternUnits="userSpaceOnUse">
    <path d="M0,5 L5,0 L10,5 L5,10 Z M10,5 L15,0 L20,5 L15,10 Z M5,10 L10,5 L15,10 L10,15 Z M0,15 L5,10 L10,15 L5,20 Z" 
          fill="none" stroke="#909090" stroke-width="0.5"/>
  </pattern>
  <rect x="0" y="400" width="250" height="200" fill="url(#chainLink)" opacity="0.7"/>
  <rect x="0" y="400" width="250" height="5" fill="#707070"/>
  <rect x="0" y="595" width="250" height="5" fill="#707070"/>
  
  <!-- Foreground elements -->
  <rect x="1100" y="550" width="50" height="100" fill="#2F5233" rx="5"/>
  <ellipse cx="1125" cy="545" rx="30" ry="20" fill="#3A6B35"/>
  
  <!-- Street sign post -->
  <rect x="600" y="200" width="8" height="400" fill="#606060"/>
  <rect x="580" y="200" width="50" height="40" fill="#FF0000" rx="3"/>
  <rect x="590" y="250" width="30" height="30" fill="#0066CC" rx="3"/>
</svg>