<svg viewBox="0 0 500 400" xmlns="http://www.w3.org/2000/svg">
  <rect width="500" height="400" fill="#e0e0e0"/>
  <rect x="0" y="100" width="300" height="300" fill="#d0d0d0"/>
  <rect x="300" y="100" width="200" height="300" fill="#c0c0c0"/>
  <rect x="80" y="150" width="180" height="120" rx="10" fill="#a0a0a0"/>
  <rect x="0" y="170" width="80" height="100" rx="10" fill="#a0a0a0"/>
  <rect x="80" y="270" width="90" height="130" fill="#603010"/>
  <rect x="170" y="270" width="90" height="130" fill="#603010"/>
  <rect x="300" y="200" width="200" height="200" fill="#404040"/>
  <rect x="310" y="210" width="180" height="180" fill="#303030"/>
  <circle cx="330" cy="230" r="10" fill="#505050"/>
  <circle cx="370" cy="230" r="10" fill="#505050"/>
  <circle cx="410" cy="230" r="10" fill="#505050"/>
  <circle cx="450" cy="230" r="10" fill="#505050"/>
  <rect x="320" y="250" width="160" height="100" fill="#202020"/>
  <rect x="330" y="260" width="140" height="80" fill="#101010"/>
  <rect x="340" y="270" width="120" height="60" fill="#000000"/>
  <rect x="350" y="280" width="100" height="40" fill="#101010"/>
  <rect x="360" y="290" width="80" height="20" fill="#202020"/>
  <rect x="370" y="300" width="60" height="10" fill="#303030"/>
  <rect x="380" y="310" width="40" height="5" fill="#404040"/>
  <rect x="390" y="315" width="20" height="3" fill="#505050"/>
  <rect x="400" y="318" width="10" height="2" fill="#606060"/>
  <rect x="410" y="320" width="5" height="1" fill="#707070"/>
  <rect x="415" y="321" width="3" height="1" fill="#808080"/>
  <rect x="418" y="322" width="2" height="1" fill="#909090"/>
  <rect x="420" y="323" width="1" height="1" fill="#a0a0a0"/>
  <rect x="421" y="324" width="1" height="1" fill="#b0b0b0"/>
  <rect x="422" y="325" width="1" height="1" fill="#c0c0c0"/>
  <rect x="423" y="326" width="1" height="1" fill="#d0d0d0"/>
  <rect x="424" y="327" width="1" height="1" fill="#e0e0e0"/>
  <rect x="425" y="328" width="1" height="1" fill="#f0f0f0"/>
  <rect x="426" y="329" width="1" height="1" fill="#ffffff"/>
  <rect x="300" y="200" width="200" height="10" fill="#404040"/>
  <rect x="300" y="210" width="200" height="10" fill="#303030"/>
  <rect x="300" y="220" width="200" height="10" fill="#202020"/>
  <rect x="300" y="230" width="200" height="10" fill="#101010"/>
  <rect x="300" y="240" width="200" height="10" fill="#000000"/>
  <rect x="300" y="250" width="200" height="10" fill="#101010"/>
  <rect x="300" y="260" width="200" height="10" fill="#202020"/>
  <rect x="300" y="270" width="200" height="10" fill="#303030"/>
  <rect x="300" y="280" width="200" height="10" fill="#404040"/>
  <rect x="300" y="290" width="200" height="10" fill="#505050"/>
  <rect x="300" y="300" width="200" height="10" fill="#606060"/>
  <rect x="300" y="310" width="200" height="10" fill="#707070"/>
  <rect x="300" y="320" width="200" height="10" fill="#808080"/>
  <rect x="300" y="330" width="200" height="10" fill="#909090"/>
  <rect x="300" y="340" width="200" height="10" fill="#a0a0a0"/>
  <rect x="300" y="350" width="200" height="10" fill="#b0b0b0"/>
  <rect x="300" y="360" width="200" height="10" fill="#c0c0c0"/>
  <rect x="300" y="370" width="200" height="10" fill="#d0d0d0"/>
  <rect x="300" y="380" width="200" height="10" fill="#e0e0e0"/>
  <rect x="300" y="390" width="200" height="10" fill="#f0f0f0"/>
  <rect x="300" y="400" width="200" height="10" fill="#ffffff"/>
  <rect x="0" y="0" width="500" height="100" fill="#804000"/>
  <rect x="0" y="0" width="500" height="20" fill="#603010"/>
  <rect x="0" y="20" width="500" height="20" fill="#703800"/>
  <rect x="0" y="40" width="500" height="20" fill="#804000"/>
  <rect x="0" y="60" width="500" height="20" fill="#904800"/>
  <rect x="0" y="80" width="500" height="20" fill="#a05000"/>
  <rect x="0" y="100" width="500" height="20" fill="#b05800"/>
  <rect x="0" y="120" width="500" height="20" fill="#c06000"/>
  <rect x="0" y="140" width="500" height="20" fill="#d06800"/>
  <rect x="0" y="160" width="500" height="20" fill="#e07000"/>
  <rect x="0" y="180" width="500" height="20" fill="#f07800"/>
  <rect x="0" y="200" width="500" height="20" fill="#ff8000"/>
  <rect x="0" y="220" width="500" height="20" fill="#ff8800"/>
  <rect x="0" y="240" width="500" height="20" fill="#ff9000"/>
  <rect x="0" y="260" width="500" height="20" fill="#ff9800"/>
  <rect x="0" y="280" width="500" height="20" fill="#ffa000"/>
  <rect x="0" y="300" width="500" height="20" fill="#ffa800"/>
  <rect x="0" y="320" width="500" height="20" fill="#ffb000"/>
  <rect x="0" y="340" width="500" height="20" fill="#ffb800"/>
  <rect x="0" y="360" width="500" height="20" fill="#ffc000"/>
  <rect x="0" y="380" width="500" height="20" fill="#ffc800"/>
  <rect x="0" y="400" width="500" height="20" fill="#ffd000"/>
  <rect x="0" y="420" width="500" height="20" fill="#ffd800"/>
  <rect x="0" y="440" width="500" height="20" fill="#ffe000"/>
  <rect x="0" y="460" width="500" height="20" fill="#ffe800"/>
  <rect x="0" y="480" width="500" height="20" fill="#fff000"/>
  <rect x="0" y="500" width="500" height="20" fill="#fff800"/>
  <rect x="0" y="520" width="500" height="20" fill="#ffff00"/>
  <rect x="0" y="540" width="500" height="20" fill="#ffff80"/>
  <rect x="0" y="560" width="500" height="20" fill="#ffffc0"/>
  <rect x="0" y="580" width="500" height="20" fill="#ffffff"/>
  <rect x="0" y="600" width="500" height="20" fill="#ffffff"/>
  <rect x="0" y="620" width="500" height="20" fill="#ffffff"/>
  <rect x="0" y="640" width="500" height="20" fill="#ffffff"/>
  <rect x="0" y="660" width="500" height="20" fill="#ffffff"/>
  <rect x="0" y="680" width="500" height="20" fill="#ffffff"/>
  <rect x="0" y="700" width="500" height="20" fill="#ffffff"/>
  <rect x="0" y="720" width="500" height="20" fill="#ffffff"/>
  <rect x="0" y="740" width="500" height="20" fill="#ffffff"/>
  <rect x="0" y="760" width="500" height="20" fill="#ffffff"/>
  <rect x="0" y="780" width="500" height="20" fill="#ffffff"/>
  <rect x="0" y="800" width="500" height="20" fill="#ffffff"/>
  <rect x="0" y="820" width="500" height="20" fill="#ffffff"/>
  <rect x="0" y="840" width="500" height="20" fill="#ffffff"/>
  <rect x="0" y="860" width="500" height="20" fill="#ffffff"/>
  <rect x="0" y="880" width="500" height="20" fill="#ffffff"/>
  <rect x="0" y="900" width="500" height="20" fill="#ffffff"/>
  <rect x="0" y="920" width="500" height="20" fill="#ffffff"/>
  <rect x="0" y="940" width="500" height="20" fill="#ffffff"/>
  <rect x="0" y="960" width="500" height="20" fill="#ffffff"/>
  <rect x="0" y="980" width="500" height="20" fill="#ffffff"/>
  <rect x="0" y="1000" width="500" height="20" fill="#ffffff"/>
  <rect x="0" y="1020" width="500" height="20" fill="#ffffff"/>
  <rect x="0" y="1040" width="500" height="20" fill="#ffffff"/>
  <rect x="0" y="1060" width="500" height="20" fill="#ffffff"/>
  <rect x="0" y="1080" width="500" height="20" fill="#ffffff"/>
  <rect x="0" y="1100" width="500" height="20" fill="#ffffff"/>
  <rect x="0" y="1120" width="500" height="20" fill="#ffffff"/>
  <rect x="0" y="1140" width="500" height="20" fill="#ffffff"/>
  <rect x="0" y="1160" width="500" height="20" fill="#ffffff"/>
  <rect x="0" y="1180" width="500" height="20" fill="#ffffff"/>
  <rect x="0" y="1200" width="500" height="20" fill="#ffffff"/>
  <rect x="0" y="1220" width="500" height="20" fill="#ffffff"/>
  <rect x="0" y="1240" width="500" height="20" fill="#ffffff"/>
  <rect x="0" y="1260" width="500" height="20" fill="#ffffff"/>
  <rect x="0" y="1280" width="500" height="20" fill="#ffffff"/>
  <rect x="0" y="1300" width="500" height="20" fill="#ffffff"/>
  <rect x="0" y="1320" width="500" height="20" fill="#ffffff"/>
  <rect x="0" y="1340" width="500" height="20" fill="#ffffff"/>
  <rect x="0" y="1360" width="500" height="20" fill="#ffffff"/>
  <rect x="0" y="1380" width="500" height="20" fill="#ffffff"/>
  <rect x="0" y="1400" width="500" height="20" fill="#ffffff"/>
  <rect x="0" y="1420" width="500" height="20" fill="#ffffff"/>
  <rect x="0" y="1440" width="500" height="20" fill="#ffffff"/>
  <rect x="0" y="1460" width="500" height="20" fill="#ffffff"/>
  <rect x="0" y="1480" width="500" height="20" fill="#ffffff"/>
  <rect x="0" y="1500" width="500" height="20" fill="#ffffff"/>
  <rect x="0" y="1520" width="500" height="20" fill="#ffffff"/>
  <rect x="0" y="1540" width="500" height="20" fill="#ffffff"/>
  <rect x="0" y="1560" width="500" height="20" fill="#ffffff"/>
  <rect x="0" y="1580" width="500" height="20" fill="#ffffff"/>
  <rect x="0" y="1600" width="500" height="20" fill="#ffffff"/>
  <rect x="0" y="1620" width="500" height="20" fill="#ffffff"/>
  <rect x="0" y="1640" width="500" height="20" fill="#ffffff"/>
  <rect x="0" y="1660" width="500" height="20" fill="#ffffff"/>
  <rect x="0" y="1680" width="500" height="20" fill="#ffffff"/>
  <rect x="0" y="1700" width="500" height="20" fill="#ffffff"/>
  <rect x="0" y="1720" width="500" height="20" fill="#ffffff"/>
  <rect x="0" y="1740" width="500" height="20" fill="#ffffff"/>
  <rect x="0" y="1760" width="500" height="20" fill="#ffffff"/>
  <rect x="0" y="1780" width="500" height="20" fill="#ffffff"/>
  <rect x="0" y="1800" width="500" height="20" fill="#ffffff"/>
  <rect x="0" y="1820" width="500" height="20" fill="#ffffff"/>
  <rect x="0" y="1840" width="500" height="20" fill="#ffffff"/>
  <rect x="0" y="1860" width="500" height="20" fill="#ffffff"/>
  <rect x="0" y="1880" width="500" height="20" fill="#ffffff"/>
  <rect x="0" y="1900" width="500" height="20" fill="#ffffff"/>
  <rect x="0" y="1920" width="500" height="20" fill="#ffffff"/>
  <rect x="0" y="1940" width="500" height="20" fill="#ffffff"/>
  <rect x="0" y="1960" width="500" height="20" fill="#ffffff"/>
  <rect x="0" y="1980" width="500" height="20" fill="#ffffff"/>
  <rect x="0" y="2000" width="500" height="20" fill="#ffffff"/>
  <rect x="0" y="2020" width="500" height="20" fill="#ffffff"/>
  <rect x="0" y="2040" width="500" height="20" fill="#ffffff"/>
  <rect x="0" y="2060" width="500" height="20" fill="#ffffff"/>
  <rect x="0" y="2080" width="500" height="20" fill="#ffffff"/>
  <rect x="0" y="2100" width="500" height="20" fill="#ffffff"/>
  <rect x="0" y="2120" width="500" height="20" fill="#ffffff"/>
  <rect x="0" y="2140" width="500" height="20" fill="#ffffff"/>
  <rect x="0" y="2160" width="500" height="20" fill="#ffffff"/>
  <rect x="0" y="2180" width="500" height="20" fill="#ffffff"/>
  <rect x="0" y="2200" width="500" height="20" fill="#ffffff"/>
  <rect x="0" y="2220" width="500" height="20" fill="#ffffff"/>
  <rect x="0" y="2240" width="500" height="20" fill="#ffffff"/>
  <rect x="0" y="2260" width="500" height="20" fill="#ffffff"/>
  <rect x="0" y="2280" width="500" height="20" fill="#ffffff"/>
  <rect x="0" y="2300" width="500" height="20" fill="#ffffff"/>
  <rect x="0" y="2320" width="500" height="20" fill="#ffffff"/>
  <rect x="0" y="2340" width="500" height="20" fill="#ffffff"/>
  <rect x="0" y="2360" width="500" height="20" fill="#ffffff"/>
  <rect x="0" y="2380" width="500" height="20" fill="#ffffff"/>
  <rect x="0" y="2400" width="500" height="20" fill="#ffffff"/>
  <rect x="0" y="2420" width="500" height="20" fill="#ffffff"/>
  <rect x="0" y="2440" width="500" height="20" fill="#ffffff"/>
  <rect x="0" y="2460" width="500" height="20" fill="#ffffff"/>
  <rect x="0" y="2480" width="500" height="20" fill="#ffffff"/>
  <rect x="0" y="2500" width="500" height="20" fill="#ffffff"/>
  <rect x="0" y="2520" width="500" height="20" fill="#ffffff"/>
  <rect x="0" y="2540" width="500" height="20" fill="#ffffff"/>
  <rect x="0" y="2560" width="500" height="20" fill="#ffffff"/>
  <rect x="0" y="2580" width="500" height="20" fill="#ffffff"/>
  <rect x="0" y="2600" width="500" height="20" fill="#ffffff"/>
  <rect x="0" y="2620" width="500" height="20" fill="#ffffff"/>
  <rect x="0" y="2640" width="500" height="20" fill="#ffffff"/>
  <rect x="0" y="2660" width="500" height="20" fill="#ffffff"/>
  <rect x="0" y="2680" width="500" height="20" fill="#ffffff"/>
  <rect x="0" y="2700" width="500" height="20" fill="#ffffff"/>
  <rect x="0" y="2720" width="500" height="20" fill="#ffffff"/>
  <rect x="0" y="2740" width="500" height="20" fill="#ffffff"/>
  <rect x="0" y="2760" width="500" height="20" fill="#ffffff"/>
  <rect x="0" y="2780" width="500" height="20" fill="#ffffff"/>
  <rect x="0" y="2800" width="500" height="20" fill="#ffffff"/>
  <rect x="0" y="2820" width="500" height="20" fill="#ffffff"/>
  <rect x="0" y="2840" width="500" height="20" fill="#ffffff"/>
  <rect x="0" y="2860" width="500" height="20" fill="#ffffff"/>
  <rect x="0" y="2880" width="500" height="20" fill="#ffffff"/>
  <rect x="0" y="2900" width="500" height="20" fill="#ffffff"/>
  <rect x="0" y="2920" width="500" height="20" fill="#ffffff"/>
  <rect x="0" y="2940" width="500" height="20" fill="#ffffff"/>
  <rect x="0" y="2960" width="500" height="20" fill="#ffffff"/>
  <rect x="0" y="2980" width="500" height="20" fill="#ffffff"/>
  <rect x="0" y="3000" width="500" height="20" fill="#ffffff"/>
  <rect x="0" y="3020" width="500" height="20" fill="#ffffff"/>
  <rect x="0" y="3040" width="500" height="20" fill="#ffffff"/>
  <rect x="0" y="3060" width="500" height="20" fill="#ffffff"/>
  <rect x="0" y="3080" width="500" height="20" fill="#ffffff"/>
  <rect x="0" y="3100" width="500" height="20" fill="#ffffff"/>
  <rect x="0" y="3120" width="500" height="20" fill="#ffffff"/>
  <rect x="0" y="3140" width="500" height="20" fill="#ffffff"/>
  <rect x="0" y="3160" width="500" height="20" fill="#ffffff"/>
  <rect x="0" y="3180" width="500" height="20" fill="#ffffff"/>
  <rect x="0" y="3200" width="500" height="20" fill="#ffffff"/>
  <rect x="0" y="3220" width="500" height="20" fill="#ffffff"/>
  <rect x="0" y="3240" width="500" height="20" fill="#ffffff"/>
  <rect x="0" y="3260" width="500" height="20" fill="#ffffff"/>
  <rect x="0" y="3280" width="500" height="20" fill="#ffffff"/>
  <rect x="0" y="3300" width="500" height="20" fill="#ffffff"/>
  <rect x="0" y="3320" width="500" height="20" fill="#ffffff"/>
  <rect x="0" y="3340" width="500" height="20" fill="#ffffff"/>
  <rect x="0" y="3360" width="500" height="20" fill="#ffffff"/>
  <rect x="0" y="3380" width="500" height="20" fill="#ffffff"/>
  <rect x="0" y="3400" width="500" height="20" fill="#ffffff"/>
  <rect x="0" y="3420" width="500" height="20" fill="#ffffff"/>
  <rect x="0" y="3440" width="500" height="20" fill="#ffffff"/>
  <rect x="0" y="3460" width="500" height="20" fill="#ffffff"/>
  <rect x="0" y="3480" width="500" height="20" fill="#ffffff"/>
  <rect x="0" y="3500" width="500" height="20" fill="#ffffff"/>
  <rect x="0" y="3520" width="500" height="20" fill="#ffffff"/>
  <rect x="0" y="3540" width="500" height="20" fill="#ffffff"/>
  <rect x="0" y="3560" width="500" height="20" fill="#ffffff"/>
  <rect x="0" y="3580" width="500" height="20" fill="#ffffff"/>
  <rect x="0" y="3600" width="500" height="20" fill="#ffffff"/>
  <rect x="0" y="3620" width="500" height="20" fill="#ffffff"/>
  <rect x="0" y="3640" width="500" height="20" fill="#ffffff"/>
  <rect x="0" y="3660" width="500" height="20" fill="#ffffff"/>
  <rect x="0" y="3680" width="500" height="20" fill="#ffffff"/>
  <rect x="0" y="3700" width="500" height="20" fill="#ffffff"/>
  <rect x="0" y="3720" width="500" height="20" fill="#ffffff"/>
  <rect x="0" y="3740" width="500" height="20" fill="#ffffff"/>
  <rect x="0" y="3760" width="500" height="20" fill="#ffffff"/>
  <rect x="0" y="3780" width="500" height="20" fill="#ffffff"/>
  <rect x="0" y="3800" width="500" height="20" fill="#ffffff"/>
  <rect x="0" y="3820" width="500" height="20" fill="#ffffff"/>
  <rect x="0" y="3840" width="500" height="20" fill="#ffffff"/>
  <rect x="0" y="3860" width="500" height="20" fill="#ffffff"/>
  <rect x="0" y="3880" width="500" height="20" fill="#ffffff"/>
  <rect x="0" y="3900" width="500" height="20" fill="#ffffff"/>
  <rect x="0" y="3920" width="500" height="20" fill="#ffffff"/>
  <rect x="0" y="3940" width="500" height="20" fill="#ffffff"/>
  <rect x="0" y="3960" width="500" height="20" fill="#ffffff"/>
  <rect x="0" y="3980" width="500" height="20" fill="#ffffff"/>
  <rect x="0" y="4000" width="500" height="20" fill="#ffffff"/>
  <rect x="0" y="4020" width="500" height="20" fill="#ffffff"/>
  <rect x="0" y="4040" width="500" height="20" fill="#ffffff"/>
  <rect x="0" y="4060" width="500" height="20" fill="#ffffff"/>
  <rect x="0" y="4080" width="500" height="20" fill="#ffffff"/>
  <rect x="0" y="4100" width="500" height="20" fill="#ffffff"/>
  <rect x="0" y="4120" width="500" height="20" fill="#ffffff"/>
  <rect x="0" y="4140" width="500" height="20" fill="#ffffff"/>
  <rect x="0" y="4160" width="500" height="20" fill="#ffffff"/>
  <rect x="0" y="4180" width="500" height="20" fill="#ffffff"/>
  <rect x="0" y="4200" width="500" height="20" fill="#ffffff"/>
  <rect x="0" y="4220" width="500" height="20" fill="#ffffff"/>
  <rect x="0" y="4240" width="500" height="20" fill="#ffffff"/>
  <rect x="0" y="4260" width="500" height="20" fill="#ffffff"/>
  <rect x="0" y="4280" width="500" height="20" fill="#ffffff"/>
  <rect x="0" y="4300" width="500" height="20" fill="#ffffff"/>
  <rect x="0" y="4320" width="500" height="20" fill="#ffffff"/>
  <rect x="0" y="4340" width="500" height="20" fill="#ffffff"/>
  <rect x="0" y="4360" width="500" height="20" fill="#ffffff"/>
  <rect x="0" y="4380" width="500" height="20" fill="#ffffff"/>
  <rect x="0" y="4400" width="500" height="20" fill="#ffffff"/>
  <rect x="0" y="4420" width="500" height="20" fill="#ffffff"/>
  <rect x="0" y="4440" width="500" height="20" fill="#ffffff"/>
  <rect x="0" y="4460" width="500" height="20" fill="#ffffff"/>
  <rect x="0" y="4480" width="500" height="20" fill="#ffffff"/>
  <rect x="0" y="4500" width="500" height="20" fill="#ffffff"/>
  <rect x="0" y="4520" width="500" height="20" fill="#ffffff"/>
  <rect x="0" y="4540" width="500" height="20" fill="#ffffff"/>
  <rect x="0" y="4560" width="500" height="20" fill="#ffffff"/>
  <rect x="0" y="4580" width="500" height="20" fill="#ffffff"/>
  <rect x="0" y="4600" width="500" height="20" fill="#ffffff"/>
  <rect x="0" y="4620" width="500" height="20" fill="#ffffff"/>
  <rect x="0" y="4640" width="500" height="20" fill="#ffffff"/>
  <rect x="0" y="4660" width="500" height="20" fill="#ffffff"/>
  <rect x="0" y="4680" width="500" height="20" fill="#ffffff"/>
  <rect x="0" y="4700" width="500" height="20" fill="#ffffff"/>
  <rect x="0" y="4720" width="500" height="20" fill="#ffffff"/>
  <rect x="0" y="4740" width="500" height="20" fill="#ffffff"/>
  <rect x="0" y="4760" width="500" height="20" fill="#ffffff"/>
  <rect x="0" y="4780" width="500" height="20" fill="#ffffff"/>
  <rect x="0" y="4800" width="500" height="20" fill="#ffffff"/>
  <rect x="0" y="4820" width="500" height="20" fill="#ffffff"/>
  <rect x="0" y="4840" width="500" height="20" fill="#ffffff"/>
  <rect x="0" y="4860" width="500" height="20" fill="#ffffff"/>
  <rect x="0" y="4880" width="500" height="20" fill="#ffffff"/>
  <rect x="0" y="4900" width="500" height="20" fill="#ffffff"/>
  <rect x="0" y="4920" width="500" height="20" fill="#ffffff"/>
  <rect x="0" y="4940" width="500" height="20" fill="#ffffff"/>
  <rect x="0" y="4960" width="500" height="20" fill="#ffffff"/>
  <rect x="0" y="4980" width="500" height="20" fill="#ffffff"/>
  <rect x="0" y="5000" width="500" height="20" fill="#ffffff"/>
</svg>