<svg viewBox="0 0 500 500" xmlns="http://www.w3.org/2000/svg">
  <rect x="0" y="0" width="500" height="500" fill="#f0f0f0"/>
  <rect x="10" y="10" width="480" height="480" fill="#e0e0e0"/>
  <rect x="100" y="100" width="300" height="300" fill="#d0d0d0"/>
  <rect x="150" y="150" width="200" height="200" fill="#c0c0c0"/>
  <rect x="200" y="200" width="100" height="100" fill="#b0b0b0"/>
  <rect x="250" y="250" width="50" height="50" fill="#a0a0a0"/>
  <rect x="275" y="275" width="25" height="25" fill="#909090"/>
  <rect x="287.5" y="287.5" width="12.5" height="12.5" fill="#808080"/>
  <rect x="293.75" y="293.75" width="6.25" height="6.25" fill="#707070"/>
  <rect x="296.875" y="296.875" width="3.125" height="3.125" fill="#606060"/>
  <rect x="298.4375" y="298.4375" width="1.5625" height="1.5625" fill="#505050"/>
  <rect x="299.21875" y="299.21875" width="0.78125" height="0.78125" fill="#404040"/>
  <rect x="299.609375" y="299.609375" width="0.390625" height="0.390625" fill="#303030"/>
  <rect x="299.8046875" y="299.8046875" width="0.1953125" height="0.1953125" fill="#202020"/>
  <rect x="299.90234375" y="299.90234375" width="0.09765625" height="0.09765625" fill="#101010"/>
  <rect x="299.951171875" y="299.951171875" width="0.048828125" height="0.048828125" fill="#000000"/>
</svg>