<svg viewBox="0 0 500 500" xmlns="http://www.w3.org/2000/svg">
  <rect x="0" y="0" width="500" height="500" fill="#f0f0f0"/>
  <rect x="120" y="40" width="460" height="440" fill="#c8a878"/>
  <rect x="130" y="50" width="440" height="420" fill="#d2b48c"/>
  <rect x="140" y="60" width="420" height="400" fill="#e0c8a0"/>
  <rect x="150" y="70" width="400" height="380" fill="#f0e0c0"/>
  <rect x="160" y="80" width="380" height="360" fill="#d2b48c"/>
  <rect x="170" y="90" width="360" height="340" fill="#c8a878"/>
  <rect x="180" y="100" width="340" height="320" fill="#d2b48c"/>
  <rect x="190" y="110" width="320" height="300" fill="#e0c8a0"/>
  <rect x="200" y="120" width="300" height="280" fill="#f0e0c0"/>
  <rect x="210" y="130" width="280" height="260" fill="#d2b48c"/>
  <rect x="220" y="140" width="260" height="240" fill="#c8a878"/>
  <rect x="230" y="150" width="240" height="220" fill="#d2b48c"/>
  <rect x="240" y="160" width="220" height="200" fill="#e0c8a0"/>
  <rect x="250" y="170" width="200" height="180" fill="#f0e0c0"/>
  <rect x="260" y="180" width="180" height="160" fill="#d2b48c"/>
  <rect x="270" y="190" width="160" height="140" fill="#c8a878"/>
  <rect x="280" y="200" width="140" height="120" fill="#d2b48c"/>
  <rect x="290" y="210" width="120" height="100" fill="#e0c8a0"/>
  <rect x="300" y="220" width="100" height="80" fill="#f0e0c0"/>
  <rect x="310" y="230" width="80" height="60" fill="#d2b48c"/>
  <rect x="320" y="240" width="60" height="40" fill="#c8a878"/>
  <rect x="330" y="250" width="40" height="20" fill="#d2b48c"/>
  <rect x="340" y="260" width="20" height="10" fill="#e0c8a0"/>
  <rect x="120" y="40" width="460" height="440" fill="none" stroke="#8b4513" stroke-width="2"/>
  <rect x="130" y="50" width="440" height="420" fill="none" stroke="#8b4513" stroke-width="1"/>
  <rect x="140" y="60" width="420" height="400" fill="none" stroke="#8b4513" stroke-width="1"/>
  <rect x="150" y="70" width="400" height="380" fill="none" stroke="#8b4513" stroke-width="1"/>
  <rect x="160" y="80" width="380" height="360" fill="none" stroke="#8b4513" stroke-width="1"/>
  <rect x="170" y="90" width="360" height="340" fill="none" stroke="#8b4513" stroke-width="1"/>
  <rect x="180" y="100" width="340" height="320" fill="none" stroke="#8b4513" stroke-width="1"/>
  <rect x="190" y="110" width="320" height="300" fill="none" stroke="#8b4513" stroke-width="1"/>
  <rect x="200" y="120" width="300" height="280" fill="none" stroke="#8b4513" stroke-width="1"/>
  <rect x="210" y="130" width="280" height="260" fill="none" stroke="#8b4513" stroke-width="1"/>
  <rect x="220" y="140" width="260" height="240" fill="none" stroke="#8b4513" stroke-width="1"/>
  <rect x="230" y="150" width="240" height="220" fill="none" stroke="#8b4513" stroke-width="1"/>
  <rect x="240" y="160" width="220" height="200" fill="none" stroke="#8b4513" stroke-width="1"/>
  <rect x="250" y="170" width="200" height="180" fill="none" stroke="#8b4513" stroke-width="1"/>
  <rect x="260" y="180" width="180" height="160" fill="none" stroke="#8b4513" stroke-width="1"/>
  <rect x="270" y="190" width="160" height="140" fill="none" stroke="#8b4513" stroke-width="1"/>
  <rect x="280" y="200" width="140" height="120" fill="none" stroke="#8b4513" stroke-width="1"/>
  <rect x="290" y="210" width="120" height="100" fill="none" stroke="#8b4513" stroke-width="1"/>
  <rect x="300" y="220" width="100" height="80" fill="none" stroke="#8b4513" stroke-width="1"/>
  <rect x="310" y="230" width="80" height="60" fill="none" stroke="#8b4513" stroke-width="1"/>
  <rect x="320" y="240" width="60" height="40" fill="none" stroke="#8b4513" stroke-width="1"/>
  <rect x="330" y="250" width="40" height="20" fill="none" stroke="#8b4513" stroke-width="1"/>
  <rect x="340" y="260" width="20" height="10" fill="none" stroke="#8b4513" stroke-width="1"/>
  <rect x="150" y="100" width="40" height="200" fill="#ffffff" stroke="#000000" stroke-width="1"/>
  <rect x="155" y="105" width="30" height="190" fill="#f0f0f0" stroke="#8b4513" stroke-width="1"/>
  <circle cx="170" cy="120" r="5" fill="#ffffff" stroke="#000000" stroke-width="1"/>
  <circle cx="170" cy="150" r="5" fill="#ffffff" stroke="#000000" stroke-width="1"/>
  <circle cx="170" cy="180" r="5" fill="#ffffff" stroke="#000000" stroke-width="1"/>
  <circle cx="170" cy="210" r="5" fill="#ffffff" stroke="#000000" stroke-width="1"/>
  <circle cx="170" cy="240" r="5" fill="#ffffff" stroke="#000000" stroke-width="1"/>
  <rect x="150" y="100" width="40" height="200" fill="none" stroke="#ff0000" stroke-width="2"/>
  <rect x="155" y="105" width="30" height="190" fill="none" stroke="#ff0000" stroke-width="1"/>
  <circle cx="170" cy="120" r="5" fill="none" stroke="#ff0000" stroke-width="1"/>
  <circle cx="170" cy="150" r="5" fill="none" stroke="#ff0000" stroke-width="1"/>
  <circle cx="170" cy="180" r="5" fill="none" stroke="#ff0000" stroke-width="1"/>
  <circle cx="170" cy="210" r="5" fill="none" stroke="#ff0000" stroke-width="1"/>
  <circle cx="170" cy="240" r="5" fill="none" stroke="#ff0000" stroke-width="1"/>
</svg>