<svg viewBox="0 0 1000 800" xmlns="http://www.w3.org/2000/svg">
  <rect x="0" y="0" width="1000" height="800" fill="#f5f5dc"/>
  
  <!-- Wall and floor -->
  <rect x="0" y="650" width="1000" height="150" fill="#d4c8b0"/>
  
  <!-- TV with baseball game -->
  <rect x="430" y="290" width="540" height="300" rx="10" fill="#222"/>
  <rect x="440" y="300" width="520" height="280" fill="#000"/>
  <rect x="445" y="305" width="510" height="270" fill="#8a2be2"/>
  <rect x="450" y="310" width="500" height="260" fill="#fff"/>
  <rect x="455" y="315" width="490" height="250" fill="#00ff00"/>
  <rect x="460" y="320" width="480" height="240" fill="#ff0000"/>
  <rect x="465" y="325" width="470" height="230" fill="#0000ff"/>
  <rect x="470" y="330" width="460" height="220" fill="#ffffff"/>
  <rect x="475" y="335" width="450" height="210" fill="#00ff00"/>
  <rect x="480" y="340" width="440" height="200" fill="#ff0000"/>
  <rect x="485" y="345" width="430" height="190" fill="#0000ff"/>
  <rect x="490" y="350" width="420" height="180" fill="#ffffff"/>
  <rect x="495" y="355" width="410" height="170" fill="#00ff00"/>
  <rect x="500" y="360" width="400" height="160" fill="#ff0000"/>
  <rect x="505" y="365" width="390" height="150" fill="#0000ff"/>
  <rect x="510" y="370" width="380" height="140" fill="#ffffff"/>
  <rect x="515" y="375" width="370" height="130" fill="#00ff00"/>
  <rect x="520" y="380" width="360" height="120" fill="#ff0000"/>
  <rect x="525" y="385" width="350" height="110" fill="#0000ff"/>
  <rect x="530" y="390" width="340" height="100" fill="#ffffff"/>
  <rect x="535" y="395" width="330" height="90" fill="#00ff00"/>
  <rect x="540" y="400" width="320" height="80" fill="#ff0000"/>
  <rect x="545" y="405" width="310" height="70" fill="#0000ff"/>
  <rect x="550" y="410" width="300" height="60" fill="#ffffff"/>
  <rect x="555" y="415" width="290" height="50" fill="#00ff00"/>
  <rect x="560" y="420" width="280" height="40" fill="#ff0000"/>
  <rect x="565" y="425" width="270" height="30" fill="#0000ff"/>
  <rect x="570" y="430" width="260" height="20" fill="#ffffff"/>
  <rect x="575" y="435" width="250" height="10" fill="#00ff00"/>
  
  <!-- TV stand -->
  <rect x="600" y="590" width="100" height="150" fill="#8b4513"/>
  <rect x="610" y="590" width="80" height="20" fill="#654321"/>
  
  <!-- Speaker -->
  <rect x="330" y="400" width="60" height="300" fill="#222"/>
  <rect x="340" y="410" width="40" height="280" fill="#333"/>
  
  <!-- Shelf with objects -->
  <rect x="520" y="250" width="400" height="20" fill="#333"/>
  <rect x="620" y="170" width="200" height="80" fill="#222"/>
  <rect x="570" y="60" width="30" height="150" fill="#552222"/>
  <rect x="830" y="160" width="50" height="60" fill="#664422"/>
  <polygon points="840,160 855,160 847.5,170" fill="#228B22"/>
  <circle cx="847.5" cy="175" r="5" fill="#FF69B4"/>
  <circle cx="840" cy="170" r="3" fill="#FF69B4"/>
  <circle cx="855" cy="170" r="3" fill="#FF69B4"/>
  <circle cx="847.5" cy="180" r="3" fill="#FF69B4"/>
  <circle cx="840" cy="175" r="2" fill="#FF69B4"/>
  <circle cx="855" cy="175" r="2" fill="#FF69B4"/>
  
  <!-- Person on left (highlighted) -->
  <rect x="10" y="100" width="280" height="700" fill="none" stroke="red" stroke-width="4"/>
  <ellipse cx="150" cy="150" rx="60" ry="70" fill="#333"/>
  <rect x="100" y="200" width="100" height="150" fill="#8b0000"/>
  <rect x="100" y="350" width="100" height="200" fill="#8b0000"/>
  <rect x="100" y="550" width="100" height="200" fill="#222"/>
  <rect x="120" y="370" width="60" height="30" fill="#fff"/>
  <rect x="130" y="380" width="40" height="20" fill="#ccc"/>
  
  <!-- Person on right -->
  <rect x="780" y="350" width="220" height="450" fill="#333"/>
  <ellipse cx="890" cy="450" rx="60" ry="70" fill="#222"/>
  <rect x="800" y="450" width="180" height="300" fill="#222"/>
  <rect x="800" y="750" width="180" height="50" fill="#222"/>
  <rect x="920" y="100" width="40" height="100" fill="#fff"/>
  <rect x="930" y="100" width="20" height="10" fill="#eee"/>
  
  <!-- Game controller in left person's hand -->
  <rect x="150" y="330" width="20" height="40" fill="#fff"/>
  <rect x="155" y="335" width="10" height="30" fill="#ccc"/>
  
  <!-- Game controller in right person's hand -->
  <rect x="930" y="100" width="20" height="10" fill="#fff"/>
  <rect x="935" y="105" width="10" height="5" fill="#eee"/>
  
  <!-- DVD stack on left -->
  <rect x="0" y="500" width="30" height="200" fill="#333"/>
  <rect x="5" y="510" width="20" height="180" fill="#666"/>
  <rect x="10" y="520" width="10" height="160" fill="#999"/>
</svg>