<svg viewBox="0 0 1000 1000" xmlns="http://www.w3.org/2000/svg">
  <rect x="0" y="0" width="400" height="1000" fill="#FFFACD"/>
  <rect x="400" y="0" width="600" height="1000" fill="#FFFACD"/>
  <rect x="0" y="0" width="120" height="350" fill="#8B4513"/>
  <rect x="400" y="0" width="600" height="1000" fill="none" stroke="#000" stroke-width="2"/>
  <line x1="400" y1="0" x2="400" y2="1000" stroke="#000" stroke-width="10"/>
  <line x1="0" y1="900" x2="200" y2="1000" stroke="#008000" stroke-width="20"/>
  <path d="M0 450 C100 500 200 450 300 500 L500 450" fill="none" stroke="#000" stroke-width="5"/>
  <polygon points="500,450 520,460 510,470" fill="#000"/>
  <rect x="120" y="780" width="200" height="100" fill="#8B4513"/>
  <circle cx="200" cy="500" r="100" fill="#2F4F4F"/>
  <path d="M500,450 Q600,400 700,350 Q800,300 900,250 Q950,200 1000,150" fill="none" stroke="#000" stroke-width="10"/>
  <polygon points="700,350 720,360 710,370" fill="#000"/>
  <rect x="700" y="200" width="100" height="100" fill="#FFA500"/>
  <rect x="800" y="250" width="100" height="100" fill="#FFA500"/>
  <rect x="900" y="300" width="100" height="100" fill="#FFA500"/>
  <rect x="950" y="350" width="50" height="50" fill="#FFA500"/>
  <rect x="700" y="250" width="50" height="50" fill="#FFA500"/>
  <rect x="800" y="300" width="50" height="50" fill="#FFA500"/>
  <rect x="900" y="350" width="50" height="50" fill="#FFA500"/>
  <rect x="750" y="200" width="50" height="50" fill="#FFA500"/>
  <rect x="850" y="250" width="50" height="50" fill="#FFA500"/>
  <rect x="950" y="300" width="50" height="50" fill="#FFA500"/>
</svg>