<svg viewBox="0 0 1000 1000" xmlns="http://www.w3.org/2000/svg">
  <rect width="1000" height="1000" fill="#fff"/>
  <rect x="0" y="520" width="1000" height="460" fill="#d4b88c"/>
  <rect x="0" y="0" width="1000" height="520" fill="#4a4a4a"/>
  <rect x="0" y="960" width="1000" height="40" fill="#000"/>
  <text x="500" y="985" font-family="Arial" font-size="24" fill="#fff" text-anchor="middle">lospadellatore.blogspot.com</text>
  
  <!-- Burger -->
  <ellipse cx="370" cy="500" rx="300" ry="150" fill="#e0c8a0"/>
  <rect x="50" y="650" width="600" height="150" fill="#d4b88c"/>
  <rect x="60" y="660" width="580" height="130" fill="#c0a070"/>
  <rect x="70" y="670" width="560" height="110" fill="#a08050"/>
  <rect x="80" y="680" width="540" height="90" fill="#806030"/>
  <rect x="90" y="690" width="520" height="70" fill="#604010"/>
  <rect x="100" y="700" width="500" height="50" fill="#402000"/>
  <rect x="110" y="710" width="480" height="30" fill="#201000"/>
  <rect x="120" y="720" width="460" height="10" fill="#100800"/>
  
  <!-- Bun top -->
  <ellipse cx="370" cy="500" rx="300" ry="150" fill="#e0c8a0"/>
  <ellipse cx="370" cy="500" rx="280" ry="130" fill="#d4b88c"/>
  <ellipse cx="370" cy="500" rx="260" ry="110" fill="#c0a070"/>
  <ellipse cx="370" cy="500" rx="240" ry="90" fill="#a08050"/>
  <ellipse cx="370" cy="500" rx="220" ry="70" fill="#806030"/>
  <ellipse cx="370" cy="500" rx="200" ry="50" fill="#604010"/>
  <ellipse cx="370" cy="500" rx="180" ry="30" fill="#402000"/>
  <ellipse cx="370" cy="500" rx="160" ry="10" fill="#201000"/>
  
  <!-- Wine glass -->
  <ellipse cx="750" cy="550" rx="150" ry="50" fill="#808080"/>
  <rect x="730" y="400" width="40" height="150" fill="#808080"/>
  <ellipse cx="750" cy="100" rx="200" ry="100" fill="#ffffff"/>
  <ellipse cx="750" cy="100" rx="180" ry="80" fill="#cccccc"/>
  <ellipse cx="750" cy="100" rx="160" ry="60" fill="#aaaaaa"/>
  <ellipse cx="750" cy="100" rx="140" ry="40" fill="#888888"/>
  <ellipse cx="750" cy="100" rx="120" ry="20" fill="#666666"/>
  <ellipse cx="750" cy="100" rx="100" ry="10" fill="#444444"/>
  <ellipse cx="750" cy="100" rx="80" ry="5" fill="#222222"/>
  
  <!-- Bottle -->
  <rect x="50" y="0" width="200" height="480" fill="#ffffff"/>
  <rect x="60" y="10" width="180" height="460" fill="#f0f0f0"/>
  <rect x="70" y="20" width="160" height="440" fill="#e0e0e0"/>
  <rect x="80" y="30" width="140" height="420" fill="#d0d0d0"/>
  <rect x="90" y="40" width="120" height="400" fill="#c0c0c0"/>
  <rect x="100" y="50" width="100" height="380" fill="#b0b0b0"/>
  <rect x="110" y="60" width="80" height="360" fill="#a0a0a0"/>
  <rect x="120" y="70" width="60" height="340" fill="#909090"/>
  <rect x="130" y="80" width="40" height="320" fill="#808080"/>
  <rect x="140" y="90" width="20" height="300" fill="#707070"/>
</svg>