<svg viewBox="0 0 1000 1000" xmlns="http://www.w3.org/2000/svg">
  <rect width="100%" height="100%" fill="#333"/>
  <rect x="480" y="580" width="380" height="380" fill="#000" rx="20"/>
  <rect x="500" y="600" width="340" height="340" fill="#fff" rx="10"/>
  <path d="M0,0 L370,0 L690,690 L0,690 Z" fill="#444"/>
  <rect x="100" y="100" width="600" height="700" rx="50" fill="#f0f0f0"/>
  <circle cx="350" cy="450" r="40" fill="#e0e0e0"/>
  <circle cx="350" cy="550" r="40" fill="#e0e0e0"/>
  <circle cx="450" cy="550" r="40" fill="#e0e0e0"/>
  <circle cx="450" cy="450" r="40" fill="#e0e0e0"/>
  <circle cx="350" cy="350" r="30" fill="#66ccff"/>
  <circle cx="300" cy="500" r="25" fill="#e0e0e0"/>
  <circle cx="380" cy="300" r="25" fill="#e0e0e0"/>
  <path d="M180,250 L220,250 L220,290 L180,290 Z" fill="#e0e0e0"/>
  <path d="M200,260 L210,260 L210,280 L200,280 Z" fill="#d0d0d0"/>
</svg>