<svg viewBox="0 0 1000 800" xmlns="http://www.w3.org/2000/svg">
  <rect x="0" y="0" width="1000" height="800" fill="white"/>
  <rect x="220" y="650" width="100" height="20" fill="gray" stroke="black"/>
  <rect x="220" y="630" width="100" height="20" fill="lightgray" stroke="black"/>
  <rect x="220" y="610" width="100" height="20" fill="white" stroke="black"/>
  <rect x="660" y="510" width="180" height="120" fill="lightgray" stroke="green"/>
  <rect x="660" y="390" width="180" height="40" fill="lightgray" stroke="red"/>
  <rect x="200" y="700" width="20" height="20" fill="gray" stroke="black"/>
  <rect x="180" y="720" width="20" height="20" fill="gray" stroke="black"/>
  <rect x="160" y="740" width="20" height="20" fill="gray" stroke="black"/>
  <rect x="140" y="760" width="20" height="20" fill="gray" stroke="black"/>
  <rect x="120" y="780" width="20" height="20" fill="gray" stroke="black"/>
  <rect x="100" y="800" width="20" height="20" fill="gray" stroke="black"/>
  <rect x="80" y="820" width="20" height="20" fill="gray" stroke="black"/>
  <rect x="60" y="840" width="20" height="20" fill="gray" stroke="black"/>
  <rect x="40" y="860" width="20" height="20" fill="gray" stroke="black"/>
  <rect x="20" y="880" width="20" height="20" fill="gray" stroke="black"/>
  <rect x="0" y="900" width="20" height="20" fill="gray" stroke="black"/>
  <rect x="0" y="920" width="20" height="20" fill="gray" stroke="black"/>
  <rect x="0" y="940" width="20" height="20" fill="gray" stroke="black"/>
  <rect x="0" y="960" width="20" height="20" fill="gray" stroke="black"/>
  <rect x="0" y="980" width="20" height="20" fill="gray" stroke="black"/>
  <rect x="0" y="1000" width="20" height="20" fill="gray" stroke="black"/>
  <rect x="0" y="1020" width="20" height="20" fill="gray" stroke="black"/>
  <rect x="0" y="1040" width="20" height="20" fill="gray" stroke="black"/>
  <rect x="0" y="1060" width="20" height="20" fill="gray" stroke="black"/>
  <rect x="0" y="1080" width="20" height="20" fill="gray" stroke="black"/>
  <rect x="0" y="1100" width="20" height="20" fill="gray" stroke="black"/>
  <rect x="0" y="1120" width="20" height="20" fill="gray" stroke="black"/>
  <rect x="0" y="1140" width="20" height="20" fill="gray" stroke="black"/>
  <rect x="0" y="1160" width="20" height="20" fill="gray" stroke="black"/>
  <rect x="0" y="1180" width="20" height="20" fill="gray" stroke="black"/>
  <rect x="0" y="1200" width="20" height="20" fill="gray" stroke="black"/>
  <rect x="0" y="1220" width="20" height="20" fill="gray" stroke="black"/>
  <rect x="0" y="1240" width="20" height="20" fill="gray" stroke="black"/>
  <rect x="0" y="1260" width="20" height="20" fill="gray" stroke="black"/>
  <rect x="0" y="1280" width="20" height="20" fill="gray" stroke="black"/>
  <rect x="0" y="1300" width="20" height="20" fill="gray" stroke="black"/>
  <rect x="0" y="1320" width="20" height="20" fill="gray" stroke="black"/>
  <rect x="0" y="1340" width="20" height="20" fill="gray" stroke="black"/>
  <rect x="0" y="1360" width="20" height="20" fill="gray" stroke="black"/>
  <rect x="0" y="1380" width="20" height="20" fill="gray" stroke="black"/>
  <rect x="0" y="1400" width="20" height="20" fill="gray" stroke="black"/>
  <rect x="0" y="1420" width="20" height="20" fill="gray" stroke="black"/>
  <rect x="0" y="1440" width="20" height="20" fill="gray" stroke="black"/>
  <rect x="0" y="1460" width="20" height="20" fill="gray" stroke="black"/>
  <rect x="0" y="1480" width="20" height="20" fill="gray" stroke="black"/>
  <rect x="0" y="1500" width="20" height="20" fill="gray" stroke="black"/>
  <rect x="0" y="1520" width="20" height="20" fill="gray" stroke="black"/>
  <rect x="0" y="1540" width="20" height="20" fill="gray" stroke="black"/>
  <rect x="0" y="1560" width="20" height="20" fill="gray" stroke="black"/>
  <rect x="0" y="1580" width="20" height="20" fill="gray" stroke="black"/>
  <rect x="0" y="1600" width="20" height="20" fill="gray" stroke="black"/>
  <rect x="0" y="1620" width="20" height="20" fill="gray" stroke="black"/>
  <rect x="0" y="1640" width="20" height="20" fill="gray" stroke="black"/>
  <rect x="0" y="1660" width="20" height="20" fill="gray" stroke="black"/>
  <rect x="0" y="1680" width="20" height="20" fill="gray" stroke="black"/>
  <rect x="0" y="1700" width="20" height="20" fill="gray" stroke="black"/>
  <rect x="0" y="1720" width="20" height="20" fill="gray" stroke="black"/>
  <rect x="0" y="1740" width="20" height="20" fill="gray" stroke="black"/>
  <rect x="0" y="1760" width="20" height="20" fill="gray" stroke="black"/>
  <rect x="0" y="1780" width="20" height="20" fill="gray" stroke="black"/>
  <rect x="0" y="1800" width="20" height="20" fill="gray" stroke="black"/>
  <rect x="0" y="1820" width="20" height="20" fill="gray" stroke="black"/>
  <rect x="0" y="1840" width="20" height="20" fill="gray" stroke="black"/>
  <rect x="0" y="1860" width="20" height="20" fill="gray" stroke="black"/>
  <rect x="0" y="1880" width="20" height="20" fill="gray" stroke="black"/>
  <rect x="0" y="1900" width="20" height="20" fill="gray" stroke="black"/>
  <rect x="0" y="1920" width="20" height="20" fill="gray" stroke="black"/>
  <rect x="0" y="1940" width="20" height="20" fill="gray" stroke="black"/>
  <rect x="0" y="1960" width="20" height="20" fill="gray" stroke="black"/>
  <rect x="0" y="1980" width="20" height="20" fill="gray" stroke="black"/>
  <rect x="0" y="2000" width="20" height="20" fill="gray" stroke="black"/>
  <rect x="0" y="2020" width="20" height="20" fill="gray" stroke="black"/>
  <rect x="0" y="2040" width="20" height="20" fill="gray" stroke="black"/>
  <rect x="0" y="2060" width="20" height="20" fill="gray" stroke="black"/>
  <rect x="0" y="2080" width="20" height="20" fill="gray" stroke="black"/>
  <rect x="0" y="2100" width="20" height="20" fill="gray" stroke="black"/>
  <rect x="0" y="2120" width="20" height="20" fill="gray" stroke="black"/>
  <rect x="0" y="2140" width="20" height="20" fill="gray" stroke="black"/>
  <rect x="0" y="2160" width="20" height="20" fill="gray" stroke="black"/>
  <rect x="0" y="2180" width="20" height="20" fill="gray" stroke="black"/>
  <rect x="0" y="2200" width="20" height="20" fill="gray" stroke="black"/>
  <rect x="0" y="2220" width="20" height="20" fill="gray" stroke="black"/>
  <rect x="0" y="2240" width="20" height="20" fill="gray" stroke="black"/>
  <rect x="0" y="2260" width="20" height="20" fill="gray" stroke="black"/>
  <rect x="0" y="2280" width="20" height="20" fill="gray" stroke="black"/>
  <rect x="0" y="2300" width="20" height="20" fill="gray" stroke="black"/>
  <rect x="0" y="2320" width="20" height="20" fill="gray" stroke="black"/>
  <rect x="0" y="2340" width="20" height="20" fill="gray" stroke="black"/>
  <rect x="0" y="2360" width="20" height="20" fill="gray" stroke="black"/>
  <rect x="0" y="2380" width="20" height="20" fill="gray" stroke="black"/>
  <rect x="0" y="2400" width="20" height="20" fill="gray" stroke="black"/>
  <rect x="0" y="2420" width="20" height="20" fill="gray" stroke="black"/>
  <rect x="0" y="2440" width="20" height="20" fill="gray" stroke="black"/>
  <rect x="0" y="2460" width="20" height="20" fill="gray" stroke="black"/>
  <rect x="0" y="2480" width="20" height="20" fill="gray" stroke="black"/>
  <rect x="0" y="2500" width="20" height="20" fill="gray" stroke="black"/>
  <rect x="0" y="2520" width="20" height="20" fill="gray" stroke="black"/>
  <rect x="0" y="2540" width="20" height="20" fill="gray" stroke="black"/>
  <rect x="0" y="2560" width="20" height="20" fill="gray" stroke="black"/>
  <rect x="0" y="2580" width="20" height="20" fill="gray" stroke="black"/>
  <rect x="0" y="2600" width="20" height="20" fill="gray" stroke="black"/>
  <rect x="0" y="2620" width="20" height="20" fill="gray" stroke="black"/>
  <rect x="0" y="2640" width="20" height="20" fill="gray" stroke="black"/>
  <rect x="0" y="2660" width="20" height="20" fill="gray" stroke="black"/>
  <rect x="0" y="2680" width="20" height="20" fill="gray" stroke="black"/>
  <rect x="0" y="2700" width="20" height="20" fill="gray" stroke="black"/>
  <rect x="0" y="2720" width="20" height="20" fill="gray" stroke="black"/>
  <rect x="0" y="2740" width="20" height="20" fill="gray" stroke="black"/>
  <rect x="0" y="2760" width="20" height="20" fill="gray" stroke="black"/>
  <rect x="0" y="2780" width="20" height="20" fill="gray" stroke="black"/>
  <rect x="0" y="2800" width="20" height="20" fill="gray" stroke="black"/>
  <rect x="0" y="2820" width="20" height="20" fill="gray" stroke="black"/>
  <rect x="0" y="2840" width="20" height="20" fill="gray" stroke="black"/>
  <rect x="0" y="2860" width="20" height="20" fill="gray" stroke="black"/>
  <rect x="0" y="2880" width="20" height="20" fill="gray" stroke="black"/>
  <rect x="0" y="2900" width="20" height="20" fill="gray" stroke="black"/>
  <rect x="0" y="2920" width="20" height="20" fill="gray" stroke="black"/>
  <rect x="0" y="2940" width="20" height="20" fill="gray" stroke="black"/>
  <rect x="0" y="2960" width="20" height="20" fill="gray" stroke="black"/>
  <rect x="0" y="2980" width="20" height="20" fill="gray" stroke="black"/>
  <rect x="0" y="3000" width="20" height="20" fill="gray" stroke="black"/>
  <rect x="0" y="3020" width="20" height="20" fill="gray" stroke="black"/>
  <rect x="0" y="3040" width="20" height="20" fill="gray" stroke="black"/>
  <rect x="0" y="3060" width="20" height="20" fill="gray" stroke="black"/>
  <rect x="0" y="3080" width="20" height="20" fill="gray" stroke="black"/>
  <rect x="0" y="3100" width="20" height="20" fill="gray" stroke="black"/>
  <rect x="0" y="3120" width="20" height="20" fill="gray" stroke="black"/>
  <rect x="0" y="3140" width="20" height="20" fill="gray" stroke="black"/>
  <rect x="0" y="3160" width="20" height="20" fill="gray" stroke="black"/>
  <rect x="0" y="3180" width="20" height="20" fill="gray" stroke="black"/>
  <rect x="0" y="3200" width="20" height="20" fill="gray" stroke="black"/>
  <rect x="0" y="3220" width="20" height="20" fill="gray" stroke="black"/>
  <rect x="0" y="3240" width="20" height="20" fill="gray" stroke="black"/>
  <rect x="0" y="3260" width="20" height="20" fill="gray" stroke="black"/>
  <rect x="0" y="3280" width="20" height="20" fill="gray" stroke="black"/>
  <rect x="0" y="3300" width="20" height="20" fill="gray" stroke="black"/>
  <rect x="0" y="3320" width="20" height="20" fill="gray" stroke="black"/>
  <rect x="0" y="3340" width="20" height="20" fill="gray" stroke="black"/>
  <rect x="0" y="3360" width="20" height="20" fill="gray" stroke="black"/>
  <rect x="0" y="3380" width="20" height="20" fill="gray" stroke="black"/>
  <rect x="0" y="3400" width="20" height="20" fill="gray" stroke="black"/>
  <rect x="0" y="3420" width="20" height="20" fill="gray" stroke="black"/>
  <rect x="0" y="3440" width="20" height="20" fill="gray" stroke="black"/>
  <rect x="0" y="3460" width="20" height="20" fill="gray" stroke="black"/>
  <rect x="0" y="3480" width="20" height="20" fill="gray" stroke="black"/>
  <rect x="0" y="3500" width="20" height="20" fill="gray" stroke="black"/>
  <rect x="0" y="3520" width="20" height="20" fill="gray" stroke="black"/>
  <rect x="0" y="3540" width="20" height="20" fill="gray" stroke="black"/>
  <rect x="0" y="3560" width="20" height="20" fill="gray" stroke="black"/>
  <rect x="0" y="3580" width="20" height="20" fill="gray" stroke="black"/>
  <rect x="0" y="3600" width="20" height="20" fill="gray" stroke="black"/>
  <rect x="0" y="3620" width="20" height="20" fill="gray" stroke="black"/>
  <rect x="0" y="3640" width="20" height="20" fill="gray" stroke="black"/>
  <rect x="0" y="3660" width="20" height="20" fill="gray" stroke="black"/>
  <rect x="0" y="3680" width="20" height="20" fill="gray" stroke="black"/>
  <rect x="0" y="3700" width="20" height="20" fill="gray" stroke="black"/>
  <rect x="0" y="3720" width="20" height="20" fill="gray" stroke="black"/>
  <rect x="0" y="3740" width="20" height="20" fill="gray" stroke="black"/>
  <rect x="0" y="3760" width="20" height="20" fill="gray" stroke="black"/>
  <rect x="0" y="3780" width="20" height="20" fill="gray" stroke="black"/>
  <rect x="0" y="3800" width="20" height="20" fill="gray" stroke="black"/>
  <rect x="0" y="3820" width="20" height="20" fill="gray" stroke="black"/>
  <rect x="0" y="3840" width="20" height="20" fill="gray" stroke="black"/>
  <rect x="0" y="3860" width="20" height="20" fill="gray" stroke="black"/>
  <rect x="0" y="3880" width="20" height="20" fill="gray" stroke="black"/>
  <rect x="0" y="3900" width="20" height="20" fill="gray" stroke="black"/>
  <rect x="0" y="3920" width="20" height="20" fill="gray" stroke="black"/>
  <rect x="0" y="3940" width="20" height="20" fill="gray" stroke="black"/>
  <rect x="0" y="3960" width="20" height="20" fill="gray" stroke="black"/>
  <rect x="0" y="3980" width="20" height="20" fill="gray" stroke="black"/>
  <rect x="0" y="4000" width="20" height="20" fill="gray" stroke="black"/>
  <rect x="0" y="4020" width="20" height="20" fill="gray" stroke="black"/>
  <rect x="0" y="4040" width="20" height="20" fill="gray" stroke="black"/>
  <rect x="0" y="4060" width="20" height="20" fill="gray" stroke="black"/>
  <rect x="0" y="4080" width="20" height="20" fill="gray" stroke="black"/>
  <rect x="0" y="4100" width="20" height="20" fill="gray" stroke="black"/>
  <rect x="0" y="4120" width="20" height="20" fill="gray" stroke="black"/>
  <rect x="0" y="4140" width="20" height="20" fill="gray" stroke="black"/>
  <rect x="0" y="4160" width="20" height="20" fill="gray" stroke="black"/>
  <rect x="0" y="4180" width="20" height="20" fill="gray" stroke="black"/>
  <rect x="0" y="4200" width="20" height="20" fill="gray" stroke="black"/>
  <rect x="0" y="4220" width="20" height="20" fill="gray" stroke="black"/>
  <rect x="0" y="4240" width="20" height="20" fill="gray" stroke="black"/>
  <rect x="0" y="4260" width="20" height="20" fill="gray" stroke="black"/>
  <rect x="0" y="4280" width="20" height="20" fill="gray" stroke="black"/>
  <rect x="0" y="4300" width="20" height="20" fill="gray" stroke="black"/>
  <rect x="0" y="4320" width="20" height="20" fill="gray" stroke="black"/>
  <rect x="0" y="4340" width="20" height="20" fill="gray" stroke="black"/>
  <rect x="0" y="4360" width="20" height="20" fill="gray" stroke="black"/>
  <rect x="0" y="4380" width="20" height="20" fill="gray" stroke="black"/>
  <rect x="0" y="4400" width="20" height="20" fill="gray" stroke="black"/>
  <rect x="0" y="4420" width="20" height="20" fill="gray" stroke="black"/>
  <rect x="0" y="4440" width="20" height="20" fill="gray" stroke="black"/>
  <rect x="0" y="4460" width="20" height="20" fill="gray" stroke="black"/>
  <rect x="0" y="4480" width="20" height="20" fill="gray" stroke="black"/>
  <rect x="0" y="4500" width="20" height="20" fill="gray" stroke="black"/>
  <rect x="0" y="4520" width="20" height="20" fill="gray" stroke="black"/>
  <rect x="0" y="4540" width="20" height="20" fill="gray" stroke="black"/>
  <rect x="0" y="4560" width="20" height="20" fill="gray" stroke="black"/>
  <rect x="0" y="4580" width="20" height="20" fill="gray" stroke="black"/>
  <rect x="0" y="4600" width="20" height="20" fill="gray" stroke="black"/>
  <rect x="0" y="4620" width="20" height="20" fill="gray" stroke="black"/>
  <rect x="0" y="4640" width="20" height="20" fill="gray" stroke="black"/>
  <rect x="0" y="4660" width="20" height="20" fill="gray" stroke="black"/>
  <rect x="0" y="4680" width="20" height="20" fill="gray" stroke="black"/>
  <rect x="0" y="4700" width="20" height="20" fill="gray" stroke="black"/>
  <rect x="0" y="4720" width="20" height="20" fill="gray" stroke="black"/>
  <rect x="0" y="4740" width="20" height="20" fill="gray" stroke="black"/>
  <rect x="0" y="4760" width="20" height="20" fill="gray" stroke="black"/>
  <rect x="0" y="4780" width="20" height="20" fill="gray" stroke="black"/>
  <rect x="0" y="4800" width="20" height="20" fill="gray" stroke="black"/>
  <rect x="0" y="4820" width="20" height="20" fill="gray" stroke="black"/>
  <rect x="0" y="4840" width="20" height="20" fill="gray" stroke="black"/>
  <rect x="0" y="4860" width="20" height="20" fill="gray" stroke="black"/>
  <rect x="0" y="4880" width="20" height="20" fill="gray" stroke="black"/>
  <rect x="0" y="4900" width="20" height="20" fill="gray" stroke="black"/>
  <rect x="0" y="4920" width="20" height="20" fill="gray" stroke="black"/>
  <rect x="0" y="4940" width="20" height="20" fill="gray" stroke="black"/>
  <rect x="0" y="4960" width="20" height="20" fill="gray" stroke="black"/>
  <rect x="0" y="4980" width="20" height="20" fill="gray" stroke="black"/>
  <rect x="0" y="5000" width="20" height="20" fill="gray" stroke="black"/>
  <rect x="0" y="5020" width="20" height="20" fill="gray" stroke="black"/>
  <rect x="0" y="5040" width="20" height="20" fill="gray" stroke="black"/>
  <rect x="0" y="5060" width="20" height="20" fill="gray" stroke="black"/>
  <rect x="0" y="5080" width="20" height="20" fill="gray" stroke="black"/>
  <rect x="0" y="5100" width="20" height="20" fill="gray" stroke="black"/>
  <rect x="0" y="5120" width="20" height="20" fill="gray" stroke="black"/>
  <rect x="0" y="5140" width="20" height="20" fill="gray" stroke="black"/>
  <rect x="0" y="5160" width="20" height="20" fill="gray" stroke="black"/>
  <rect x="0" y="5180" width="20" height="20" fill="gray" stroke="black"/>
  <rect x="0" y="5200" width="20" height="20" fill="gray" stroke="black"/>
  <rect x="0" y="5220" width="20" height="20" fill="gray" stroke="black"/>
  <rect x="0" y="5240" width="20" height="20" fill="gray" stroke="black"/>
  <rect x="0" y="5260" width="20" height="20" fill="gray" stroke="black"/>
  <rect x="0" y="5280" width="20" height="20" fill="gray" stroke="black"/>
  <rect x="0" y="5300" width="20" height="20" fill="gray" stroke="black"/>
  <rect x="0" y="5320" width="20" height="20" fill="gray" stroke="black"/>
  <rect x="0" y="5340" width="20" height="20" fill="gray" stroke="black"/>
  <rect x="0" y="5360" width="20" height="20" fill="gray" stroke="black"/>
  <rect x="0" y="5380" width="20" height="20" fill="gray" stroke="black"/>
  <rect x="0" y="5400" width="20" height="20" fill="gray" stroke="black"/>
  <rect x="0" y="5420" width="20" height="20" fill="gray" stroke="black"/>
  <rect x="0" y="5440" width="20" height="20" fill="gray" stroke="black"/>
  <rect x="0" y="5460" width="20" height="20" fill="gray" stroke="black"/>
  <rect x="0" y="5480" width="20" height="20" fill="gray" stroke="black"/>
  <rect x="0" y="5500" width="20" height="20" fill="gray" stroke="black"/>
  <rect x="0" y="5520" width="20" height="20" fill="gray" stroke="black"/>
  <rect x="0" y="5540" width="20" height="20" fill="gray" stroke="black"/>
  <rect x="0" y="5560" width="20" height="20" fill="gray" stroke="black"/>
  <rect x="0" y="5580" width="20" height="20" fill="gray" stroke="black"/>
  <rect x="0" y="5600" width="20" height="20" fill="gray" stroke="black"/>
  <rect x="0" y="5620" width="20" height="20" fill="gray" stroke="black"/>
  <rect x="0" y="5640" width="20" height="20" fill="gray" stroke="black"/>
  <rect x="0" y="5660" width="20" height="20" fill="gray" stroke="black"/>
  <rect x="0" y="5680" width="20" height="20" fill="gray" stroke="black"/>
  <rect x="0" y="5700" width="20" height="20" fill="gray" stroke="black"/>
  <rect x="0" y="5720" width="20" height="20" fill="gray" stroke="black"/>
  <rect x="0" y="5740" width="20" height="20" fill="gray" stroke="black"/>
  <rect x="0" y="5760" width="20" height="20" fill="gray" stroke="black"/>
  <rect x="0" y="5780" width="20" height="20" fill="gray" stroke="black"/>
  <rect x="0" y="5800" width="20" height="20" fill="gray" stroke="black"/>
  <rect x="0" y="5820" width="20" height="20" fill="gray" stroke="black"/>
  <rect x="0" y="5840" width="20" height="20" fill="gray" stroke="black"/>
  <rect x="0" y="5860" width="20" height="20" fill="gray" stroke="black"/>
  <rect x="0" y="5880" width="20" height="20" fill="gray" stroke="black"/>
  <rect x="0" y="5900" width="20" height="20" fill="gray" stroke="black"/>
  <rect x="0" y="5920" width="20" height="20" fill="gray" stroke="black"/>
  <rect x="0" y="5940" width="20" height="20" fill="gray" stroke="black"/>
  <rect x="0" y="5960" width="20" height="20" fill="gray" stroke="black"/>
  <rect x="0" y="5980" width="20" height="20" fill="gray" stroke="black"/>
  <rect x="0" y="6000" width="20" height="20" fill="gray" stroke="black"/>
  <rect x="0" y="6020" width="20" height="20" fill="gray" stroke="black"/>
  <rect x="0" y="6040" width="20" height="20" fill="gray" stroke="black"/>
  <rect x="0" y="6060" width="20" height="20" fill="gray" stroke="black"/>
  <rect x="0" y="6080" width="20" height="20" fill="gray" stroke="black"/>
  <rect x="0" y="6100" width="20" height="20" fill="gray" stroke="black"/>
  <rect x="0" y="6120" width="20" height="20" fill="gray" stroke="black"/>
  <rect x="0" y="6140" width="20" height="20" fill="gray" stroke="black"/>
  <rect x="0" y="6160" width="20" height="20" fill="gray" stroke="black"/>
  <rect x="0" y="6180" width="20" height="20" fill="gray" stroke="black"/>
  <rect x="0" y="6200" width="20" height="20" fill="gray" stroke="black"/>
  <rect x="0" y="6220" width="20" height="20" fill="gray" stroke="black"/>
  <rect x="0" y="6240" width="20" height="20" fill="gray" stroke="black"/>
  <rect x="0" y="6260" width="20" height="20" fill="gray" stroke="black"/>
  <rect x="0" y="6280" width="20" height="20" fill="gray" stroke="black"/>
  <rect x="0" y="6300" width="20" height="20" fill="gray" stroke="black"/>
  <rect x="0" y="6320" width="20" height="20" fill="gray" stroke="black"/>
  <rect x="0" y="6340" width="20" height="20" fill="gray" stroke="black"/>
  <rect x="0" y="6360" width="20" height="20" fill="gray" stroke="black"/>
  <rect x="0" y="6380" width="20" height="20" fill="gray" stroke="black"/>
  <rect x="0" y="6400" width="20" height="20" fill="gray" stroke="black"/>
  <rect x="0" y="6420" width="20" height="20" fill="gray" stroke="black"/>
  <rect x="0" y="6440" width="20" height="20" fill="gray" stroke="black"/>
  <rect x="0" y="6460" width="20" height="20" fill="gray" stroke="black"/>
  <rect x="0" y="6480" width="20" height="20" fill="gray" stroke="black"/>
  <rect x="0" y="6500" width="20" height="20" fill="gray" stroke="black"/>
  <rect x="0" y="6520" width="20" height="20" fill="gray" stroke="black"/>
  <rect x="0" y="6540" width="20" height="20" fill="gray" stroke="black"/>
  <rect x="0" y="6560" width="20" height="20" fill="gray" stroke="black"/>
  <rect x="0" y="6580" width="20" height="20" fill="gray" stroke="black"/>
  <rect x="0" y="6600" width="20" height="20" fill="gray" stroke="black"/>
  <rect x="0" y="6620" width="20" height="20" fill="gray" stroke="black"/>
  <rect x="0" y="6640" width="20" height="20" fill="gray" stroke="black"/>
  <rect x="0" y="6660" width="20" height="20" fill="gray" stroke="black"/>
  <rect x="0" y="6680" width="20" height="20" fill="gray" stroke="black"/>
  <rect x="0" y="6700" width="20" height="20" fill="gray" stroke="black"/>
  <rect x="0" y="6720" width="20" height="20" fill="gray" stroke="black"/>
  <rect x="0" y="6740" width="20" height="20" fill="gray" stroke="black"/>
  <rect x="0" y="6760" width="20" height="20" fill="gray" stroke="black"/>
  <rect x="0" y="6780" width="20" height="20" fill="gray" stroke="black"/>
  <rect x="0" y="6800" width="20" height="20" fill="gray" stroke="black"/>
  <rect x="0" y="6820" width="20" height="20" fill="gray" stroke="black"/>
  <rect x="0" y="6840" width="20" height="20" fill="gray" stroke="black"/>
  <rect x="0" y="6860" width="20" height="20" fill="gray" stroke="black"/>
  <rect x="0" y="6880" width="20" height="20" fill="gray" stroke="black"/>
  <rect x="0" y="6900" width="20" height="20" fill="gray" stroke="black"/>
  <rect x="0" y="6920" width="20" height="20" fill="gray" stroke="black"/>
  <rect x="0" y="6940" width="20" height="20" fill="gray" stroke="black"/>
  <rect x="0" y="6960" width="20" height="20" fill="gray" stroke="black"/>
  <rect x="0" y="6980" width="20" height="20" fill="gray" stroke="black"/>
  <rect x="0" y="7000" width="20" height="20" fill="gray" stroke="black"/>
  <rect x="0" y="7020" width="20" height="20" fill="gray" stroke="black"/>
  <rect x="0" y="7040" width="20" height="20" fill="gray" stroke="black"/>
  <rect x="0" y="7060" width="20" height="20" fill="gray" stroke="black"/>
  <rect x="0" y="7080" width="20" height="20" fill="gray" stroke="black"/>
  <rect x="0" y="7100" width="20" height="20" fill="gray" stroke="black"/>
  <rect x="0" y="7120" width="20" height="20" fill="gray" stroke="black"/>
  <rect x="0" y="7140" width="20" height="20" fill="gray" stroke="black"/>
  <rect x="0" y="7160" width="20" height="20" fill="gray" stroke="black"/>
  <rect x="0" y="7180" width="20" height="20" fill="gray" stroke="black"/>
  <rect x="0" y="7200" width="20" height="20" fill="gray" stroke="black"/>
  <rect x="0" y="7220" width="20" height="20" fill="gray" stroke="black"/>
  <rect x="0" y="7240" width="20" height="20" fill="gray" stroke="black"/>
  <rect x="0" y="7260" width="20" height="20" fill="gray" stroke="black"/>
  <rect x="0" y="7280" width="20" height="20" fill="gray" stroke="black"/>
  <rect x="0" y="7300" width="20" height="20" fill="gray" stroke="black"/>
  <rect x="0" y="7320" width="20" height="20" fill="gray" stroke="black"/>
  <rect x="0" y="7340" width="20" height="20" fill="gray" stroke="black"/>
  <rect x="0" y="7360" width="20" height="20" fill="gray" stroke="black"/>
  <rect x="0" y="7380" width="20" height="20" fill="gray" stroke="black"/>
  <rect x="0" y="7400" width="20" height="20" fill="gray" stroke="black"/>
  <rect x="0" y="7420" width="20" height="20" fill="gray" stroke="black"/>
  <rect x="0" y="7440" width="20" height="20" fill="gray" stroke="black"/>
  <rect x="0" y="7460" width="20" height="20" fill="gray" stroke="black"/>
  <rect x="0" y="7480" width="20" height="20" fill="gray" stroke="black"/>
  <rect x="0" y="7500" width="20" height="20" fill="gray" stroke="black"/>
  <rect x="0" y="7520" width="20" height="20" fill="gray" stroke="black"/>
  <rect x="0" y="7540" width="20" height="20" fill="gray" stroke="black"/>
  <rect x="0" y="7560" width="20" height="20" fill="gray" stroke="black"/>
  <rect x="0" y="7580" width="20" height="20" fill="gray" stroke="black"/>
  <rect x="0" y="7600" width="20" height="20" fill="gray" stroke="black"/>
  <rect x="0" y="7620" width="20" height="20" fill="gray" stroke="black"/>
  <rect x="0" y="7640" width="20" height="20" fill="gray" stroke="black"/>
  <rect x="0" y="7660" width="20" height="20" fill="gray" stroke="black"/>
  <rect x="0" y="7680" width="20" height="20" fill="gray" stroke="black"/>
  <rect x="0" y="7700" width="20" height="20" fill="gray" stroke="black"/>
  <rect x="0" y="7720" width="20" height="20" fill="gray" stroke="black"/>
  <rect x="0" y="7740" width="20" height="20" fill="gray" stroke="black"/>
  <rect x="0" y="7760" width="20" height="20" fill="gray" stroke="black"/>
  <rect x="0" y="7780" width="20" height="20" fill="gray" stroke="black"/>
  <rect x="0" y="7800" width="20" height="20" fill="gray" stroke="black"/>
  <rect x="0" y="7820" width="20" height="20" fill="gray" stroke="black"/>
  <rect x="0" y="7840" width="20" height="20" fill="gray" stroke="black"/>
  <rect x="0" y="7860" width="20" height="20" fill="gray" stroke="black"/>
  <rect x="0" y="7880" width="20" height="20" fill="gray" stroke="black"/>
  <rect x="0" y="7900" width="20" height="20" fill="gray" stroke="black"/>
  <rect x="0" y="7920" width="20" height="20" fill="gray" stroke="black"/>
  <rect x="0" y="7940" width="20" height="20" fill="gray" stroke="black"/>
  <rect x="0" y="7960" width="20" height="20" fill="gray" stroke="black"/>
  <rect x="0" y="7980" width="20" height="20" fill="gray" stroke="black"/>
  <rect x="0" y="8000" width="20" height="20" fill="gray" stroke="black"/>
</svg>