<svg viewBox="0 0 1000 800" xmlns="http://www.w3.org/2000/svg">
  <rect x="0" y="0" width="1000" height="800" fill="white"/>
  <rect x="100" y="460" width="150" height="150" fill="blue" stroke="green" stroke-width="5"/>
  <rect x="570" y="220" width="100" height="100" fill="black" stroke="blue" stroke-width="5"/>
  <rect x="650" y="90" width="150" height="180" fill="white" stroke="red" stroke-width="5"/>
  <rect x="600" y="600" width="250" height="200" fill="white" stroke="black" stroke-width="2"/>
  <rect x="550" y="750" width="100" height="50" fill="black" stroke="black" stroke-width="2"/>
  <rect x="100" y="420" width="200" height="30" fill="gray" stroke="black" stroke-width="1"/>
  <rect x="200" y="450" width="150" height="150" fill="red" stroke="black" stroke-width="2"/>
  <rect x="450" y="350" width="150" height="150" fill="gray" stroke="black" stroke-width="2"/>
  <rect x="700" y="350" width="150" height="150" fill="gray" stroke="black" stroke-width="2"/>
  <rect x="800" y="100" width="200" height="100" fill="gray" stroke="black" stroke-width="2"/>
  <rect x="800" y="200" width="200" height="100" fill="gray" stroke="black" stroke-width="2"/>
  <rect x="800" y="300" width="200" height="100" fill="gray" stroke="black" stroke-width="2"/>
  <rect x="800" y="400" width="200" height="100" fill="gray" stroke="black" stroke-width="2"/>
  <rect x="800" y="500" width="200" height="100" fill="gray" stroke="black" stroke-width="2"/>
  <rect x="800" y="600" width="200" height="100" fill="gray" stroke="black" stroke-width="2"/>
  <rect x="800" y="700" width="200" height="100" fill="gray" stroke="black" stroke-width="2"/>
  <rect x="800" y="800" width="200" height="100" fill="gray" stroke="black" stroke-width="2"/>
  <rect x="800" y="900" width="200" height="100" fill="gray" stroke="black" stroke-width="2"/>
  <rect x="800" y="1000" width="200" height="100" fill="gray" stroke="black" stroke-width="2"/>
  <rect x="800" y="1100" width="200" height="100" fill="gray" stroke="black" stroke-width="2"/>
  <rect x="800" y="1200" width="200" height="100" fill="gray" stroke="black" stroke-width="2"/>
  <rect x="800" y="1300" width="200" height="100" fill="gray" stroke="black" stroke-width="2"/>
  <rect x="800" y="1400" width="200" height="100" fill="gray" stroke="black" stroke-width="2"/>
  <rect x="800" y="1500" width="200" height="100" fill="gray" stroke="black" stroke-width="2"/>
  <rect x="800" y="1600" width="200" height="100" fill="gray" stroke="black" stroke-width="2"/>
  <rect x="800" y="1700" width="200" height="100" fill="gray" stroke="black" stroke-width="2"/>
  <rect x="800" y="1800" width="200" height="100" fill="gray" stroke="black" stroke-width="2"/>
  <rect x="800" y="1900" width="200" height="100" fill="gray" stroke="black" stroke-width="2"/>
  <rect x="800" y="2000" width="200" height="100" fill="gray" stroke="black" stroke-width="2"/>
  <rect x="800" y="2100" width="200" height="100" fill="gray" stroke="black" stroke-width="2"/>
  <rect x="800" y="2200" width="200" height="100" fill="gray" stroke="black" stroke-width="2"/>
  <rect x="800" y="2300" width="200" height="100" fill="gray" stroke="black" stroke-width="2"/>
  <rect x="800" y="2400" width="200" height="100" fill="gray" stroke="black" stroke-width="2"/>
  <rect x="800" y="2500" width="200" height="100" fill="gray" stroke="black" stroke-width="2"/>
  <rect x="800" y="2600" width="200" height="100" fill="gray" stroke="black" stroke-width="2"/>
  <rect x="800" y="2700" width="200" height="100" fill="gray" stroke="black" stroke-width="2"/>
  <rect x="800" y="2800" width="200" height="100" fill="gray" stroke="black" stroke-width="2"/>
  <rect x="800" y="2900" width="200" height="100" fill="gray" stroke="black" stroke-width="2"/>
  <rect x="800" y="3000" width="200" height="100" fill="gray" stroke="black" stroke-width="2"/>
  <rect x="800" y="3100" width="200" height="100" fill="gray" stroke="black" stroke-width="2"/>
  <rect x="800" y="3200" width="200" height="100" fill="gray" stroke="black" stroke-width="2"/>
  <rect x="800" y="3300" width="200" height="100" fill="gray" stroke="black" stroke-width="2"/>
  <rect x="800" y="3400" width="200" height="100" fill="gray" stroke="black" stroke-width="2"/>
  <rect x="800" y="3500" width="200" height="100" fill="gray" stroke="black" stroke-width="2"/>
  <rect x="800" y="3600" width="200" height="100" fill="gray" stroke="black" stroke-width="2"/>
  <rect x="800" y="3700" width="200" height="100" fill="gray" stroke="black" stroke-width="2"/>
  <rect x="800" y="3800" width="200" height="100" fill="gray" stroke="black" stroke-width="2"/>
  <rect x="800" y="3900" width="200" height="100" fill="gray" stroke="black" stroke-width="2"/>
  <rect x="800" y="4000" width="200" height="100" fill="gray" stroke="black" stroke-width="2"/>
  <rect x="800" y="4100" width="200" height="100" fill="gray" stroke="black" stroke-width="2"/>
  <rect x="800" y="4200" width="200" height="100" fill="gray" stroke="black" stroke-width="2"/>
  <rect x="800" y="4300" width="200" height="100" fill="gray" stroke="black" stroke-width="2"/>
  <rect x="800" y="4400" width="200" height="100" fill="gray" stroke="black" stroke-width="2"/>
  <rect x="800" y="4500" width="200" height="100" fill="gray" stroke="black" stroke-width="2"/>
  <rect x="800" y="4600" width="200" height="100" fill="gray" stroke="black" stroke-width="2"/>
  <rect x="800" y="4700" width="200" height="100" fill="gray" stroke="black" stroke-width="2"/>
  <rect x="800" y="4800" width="200" height="100" fill="gray" stroke="black" stroke-width="2"/>
  <rect x="800" y="4900" width="200" height="100" fill="gray" stroke="black" stroke-width="2"/>
  <rect x="800" y="5000" width="200" height="100" fill="gray" stroke="black" stroke-width="2"/>
  <rect x="800" y="5100" width="200" height="100" fill="gray" stroke="black" stroke-width="2"/>
  <rect x="800" y="5200" width="200" height="100" fill="gray" stroke="black" stroke-width="2"/>
  <rect x="800" y="5300" width="200" height="100" fill="gray" stroke="black" stroke-width="2"/>
  <rect x="800" y="5400" width="200" height="100" fill="gray" stroke="black" stroke-width="2"/>
  <rect x="800" y="5500" width="200" height="100" fill="gray" stroke="black" stroke-width="2"/>
  <rect x="800" y="5600" width="200" height="100" fill="gray" stroke="black" stroke-width="2"/>
  <rect x="800" y="5700" width="200" height="100" fill="gray" stroke="black" stroke-width="2"/>
  <rect x="800" y="5800" width="200" height="100" fill="gray" stroke="black" stroke-width="2"/>
  <rect x="800" y="5900" width="200" height="100" fill="gray" stroke="black" stroke-width="2"/>
  <rect x="800" y="6000" width="200" height="100" fill="gray" stroke="black" stroke-width="2"/>
  <rect x="800" y="6100" width="200" height="100" fill="gray" stroke="black" stroke-width="2"/>
  <rect x="800" y="6200" width="200" height="100" fill="gray" stroke="black" stroke-width="2"/>
  <rect x="800" y="6300" width="200" height="100" fill="gray" stroke="black" stroke-width="2"/>
  <rect x="800" y="6400" width="200" height="100" fill="gray" stroke="black" stroke-width="2"/>
  <rect x="800" y="6500" width="200" height="100" fill="gray" stroke="black" stroke-width="2"/>
  <rect x="800" y="6600" width="200" height="100" fill="gray" stroke="black" stroke-width="2"/>
  <rect x="800" y="6700" width="200" height="100" fill="gray" stroke="black" stroke-width="2"/>
  <rect x="800" y="6800" width="200" height="100" fill="gray" stroke="black" stroke-width="2"/>
  <rect x="800" y="6900" width="200" height="100" fill="gray" stroke="black" stroke-width="2"/>
  <rect x="800" y="7000" width="200" height="100" fill="gray" stroke="black" stroke-width="2"/>
  <rect x="800" y="7100" width="200" height="100" fill="gray" stroke="black" stroke-width="2"/>
  <rect x="800" y="7200" width="200" height="100" fill="gray" stroke="black" stroke-width="2"/>
  <rect x="800" y="7300" width="200" height="100" fill="gray" stroke="black" stroke-width="2"/>
  <rect x="800" y="7400" width="200" height="100" fill="gray" stroke="black" stroke-width="2"/>
  <rect x="800" y="7500" width="200" height="100" fill="gray" stroke="black" stroke-width="2"/>
  <rect x="800" y="7600" width="200" height="100" fill="gray" stroke="black" stroke-width="2"/>
  <rect x="800" y="7700" width="200" height="100" fill="gray" stroke="black" stroke-width="2"/>
  <rect x="800" y="7800" width="200" height="100" fill="gray" stroke="black" stroke-width="2"/>
  <rect x="800" y="7900" width="200" height="100" fill="gray" stroke="black" stroke-width="2"/>
  <rect x="800" y="8000" width="200" height="100" fill="gray" stroke="black" stroke-width="2"/>
  <rect x="800" y="8100" width="200" height="100" fill="gray" stroke="black" stroke-width="2"/>
  <rect x="800" y="8200" width="200" height="100" fill="gray" stroke="black" stroke-width="2"/>
  <rect x="800" y="8300" width="200" height="100" fill="gray" stroke="black" stroke-width="2"/>
  <rect x="800" y="8400" width="200" height="100" fill="gray" stroke="black" stroke-width="2"/>
  <rect x="800" y="8500" width="200" height="100" fill="gray" stroke="black" stroke-width="2"/>
  <rect x="800" y="8600" width="200" height="100" fill="gray" stroke="black" stroke-width="2"/>
  <rect x="800" y="8700" width="200" height="100" fill="gray" stroke="black" stroke-width="2"/>
  <rect x="800" y="8800" width="200" height="100" fill="gray" stroke="black" stroke-width="2"/>
  <rect x="800" y="8900" width="200" height="100" fill="gray" stroke="black" stroke-width="2"/>
  <rect x="800" y="9000" width="200" height="100" fill="gray" stroke="black" stroke-width="2"/>
  <rect x="800" y="9100" width="200" height="100" fill="gray" stroke="black" stroke-width="2"/>
  <rect x="800" y="9200" width="200" height="100" fill="gray" stroke="black" stroke-width="2"/>
  <rect x="800" y="9300" width="200" height="100" fill="gray" stroke="black" stroke-width="2"/>
  <rect x="800" y="9400" width="200" height="100" fill="gray" stroke="black" stroke-width="2"/>
  <rect x="800" y="9500" width="200" height="100" fill="gray" stroke="black" stroke-width="2"/>
  <rect x="800" y="9600" width="200" height="100" fill="gray" stroke="black" stroke-width="2"/>
  <rect x="800" y="9700" width="200" height="100" fill="gray" stroke="black" stroke-width="2"/>
  <rect x="800" y="9800" width="200" height="100" fill="gray" stroke="black" stroke-width="2"/>
  <rect x="800" y="9900" width="200" height="100" fill="gray" stroke="black" stroke-width="2"/>
  <rect x="800" y="10000" width="200" height="100" fill="gray" stroke="black" stroke-width="2"/>
</svg>