<svg viewBox="0 0 1200 800" xmlns="http://www.w3.org/2000/svg">
  <rect width="100%" height="100%" fill="#f5f5f5"/>
  <rect x="0" y="0" width="1200" height="800" fill="#f5f5f5"/>
  
  <rect x="150" y="530" width="160" height="90" fill="#333" stroke="#00ff00" stroke-width="2"/>
  <rect x="470" y="630" width="400" height="150" fill="#d4af37" stroke="#0000ff" stroke-width="2"/>
  <rect x="520" y="700" width="100" height="50" fill="#8b4513" stroke="#ff0000" stroke-width="2"/>
  
  <line x1="0" y1="250" x2="1200" y2="250" stroke="#000" stroke-width="4"/>
  <line x1="0" y1="500" x2="1200" y2="500" stroke="#000" stroke-width="4"/>
  <line x1="300" y1="250" x2="300" y2="500" stroke="#000" stroke-width="4"/>
  <line x1="900" y1="250" x2="900" y2="500" stroke="#000" stroke-width="4"/>
  
  <rect x="500" y="600" width="300" height="80" fill="#c0c0c0" rx="10"/>
  <rect x="550" y="620" width="40" height="20" fill="#666"/>
  <rect x="650" y="620" width="40" height="20" fill="#666"/>
  <rect x="750" y="620" width="40" height="20" fill="#666"/>
  
  <circle cx="400" cy="400" r="100" fill="#ffa500" opacity="0.5"/>
  <circle cx="750" cy="400" r="100" fill="#ffa500" opacity="0.5"/>
  
  <text x="600" y="750" font-size="24" text-anchor="middle" fill="#000">Table with fruit</text>
  <text x="600" y="650" font-size="18" text-anchor="middle" fill="#000">Sofa area</text>
  <text x="230" y="580" font-size="18" text-anchor="middle" fill="#000">TV</text>
</svg>