<svg viewBox="0 0 1000 800" xmlns="http://www.w3.org/2000/svg">
  <rect x="0" y="0" width="1000" height="800" fill="#f0e6d2"/>
  <rect x="100" y="100" width="800" height="500" fill="#fff"/>
  <rect x="200" y="400" width="100" height="300" fill="#a00000"/>
  <rect x="300" y="450" width="100" height="300" fill="#a00000"/>
  <rect x="400" y="500" width="100" height="300" fill="#a00000"/>
  <rect x="500" y="550" width="100" height="300" fill="#a00000"/>
  <rect x="750" y="300" width="250" height="200" fill="#8b0000"/>
  <rect x="250" y="100" width="150" height="150" fill="#fff"/>
  <circle cx="325" cy="175" r="25" fill="#000"/>
  <rect x="450" y="250" width="200" height="100" fill="#d2b48c"/>
  <rect x="500" y="300" width="200" height="50" fill="#8b4513"/>
  <rect x="550" y="350" width="150" height="25" fill="#a0522d"/>
  <rect x="20" y="50" width="50" height="100" fill="#fff"/>
  <rect x="930" y="50" width="50" height="100" fill="#fff"/>
  <rect x="650" y="20" width="60" height="80" fill="#fff"/>
  <rect x="750" y="20" width="80" height="100" fill="#fff"/>
  <rect x="650" y="100" width="60" height="80" fill="#fff"/>
  <rect x="800" y="250" width="150" height="50" fill="#fff"/>
  <rect x="900" y="150" width="50" height="50" fill="#fff"/>
  <rect x="950" y="150" width="30" height="30" fill="#fff"/>
  <rect x="100" y="650" width="200" height="150" fill="#000"/>
  <rect x="100" y="650" width="100" height="75" fill="#8b0000"/>
  <rect x="200" y="650" width="100" height="75" fill="#fff"/>
  <rect x="100" y="725" width="100" height="75" fill="#fff"/>
  <rect x="200" y="725" width="100" height="75" fill="#8b0000"/>
</svg>