<svg viewBox="0 0 1000 800" xmlns="http://www.w3.org/2000/svg">
  <rect x="50" y="180" width="760" height="600" fill="#2E2E2E" stroke="black" stroke-width="2"/>
  <rect x="100" y="380" width="580" height="240" fill="#9AC1D4" stroke="black" stroke-width="1"/>
  <rect x="100" y="380" width="580" height="10" fill="#5C4033" stroke="black" stroke-width="1"/>
  <rect x="100" y="460" width="580" height="10" fill="#5C4033" stroke="black" stroke-width="1"/>
  <rect x="480" y="260" width="100" height="60" fill="#D2B48C" stroke="black" stroke-width="1"/>
  <rect x="580" y="260" width="100" height="60" fill="#5C4033" stroke="black" stroke-width="1"/>
  <rect x="450" y="340" width="120" height="40" fill="#696969" stroke="black" stroke-width="1"/>
  <rect x="570" y="340" width="120" height="40" fill="#5C4033" stroke="black" stroke-width="1"/>
  <rect x="500" y="300" width="100" height="40" fill="#FFFFFF" stroke="black" stroke-width="1"/>
  <rect x="500" y="300" width="100" height="40" fill="none" stroke="#5C4033" stroke-width="4"/>
  <rect x="480" y="180" width="100" height="80" fill="#2E2E2E" stroke="black" stroke-width="2"/>
  <rect x="580" y="180" width="100" height="80" fill="#2E2E2E" stroke="black" stroke-width="2"/>
  <rect x="680" y="180" width="100" height="80" fill="#2E2E2E" stroke="black" stroke-width="2"/>
  <rect x="780" y="180" width="100" height="80" fill="#2E2E2E" stroke="black" stroke-width="2"/>
  <rect x="880" y="180" width="100" height="80" fill="#2E2E2E" stroke="black" stroke-width="2"/>
  <rect x="250" y="280" width="200" height="100" fill="#2E2E2E" stroke="black" stroke-width="2"/>
  <rect x="760" y="460" width="180" height="140" fill="#2E2E2E" stroke="black" stroke-width="2"/>
  <rect x="770" y="480" width="160" height="20" fill="#FFFFFF" stroke="black" stroke-width="1"/>
  <rect x="770" y="520" width="160" height="20" fill="#FFFFFF" stroke="black" stroke-width="1"/>
  <rect x="770" y="560" width="160" height="20" fill="#FFFFFF" stroke="black" stroke-width="1"/>
  <rect x="80" y="40" width="140" height="320" fill="#2E2E2E" stroke="black" stroke-width="2"/>
  <rect x="90" y="60" width="120" height="20" fill="#FFFFFF" stroke="black" stroke-width="1"/>
  <rect x="90" y="100" width="120" height="20" fill="#FFFFFF" stroke="black" stroke-width="1"/>
  <rect x="90" y="140" width="120" height="20" fill="#FFFFFF" stroke="black" stroke-width="1"/>
  <rect x="90" y="180" width="120" height="20" fill="#FFFFFF" stroke="black" stroke-width="1"/>
  <rect x="90" y="220" width="120" height="20" fill="#FFFFFF" stroke="black" stroke-width="1"/>
  <rect x="90" y="260" width="120" height="20" fill="#FFFFFF" stroke="black" stroke-width="1"/>
  <rect x="90" y="300" width="120" height="20" fill="#FFFFFF" stroke="black" stroke-width="1"/>
  <rect x="300" y="180" width="100" height="80" fill="#FFFFFF" stroke="black" stroke-width="2"/>
  <rect x="800" y="300" width="120" height="80" fill="#FFFFFF" stroke="black" stroke-width="2"/>
  <rect x="530" y="0" width="200" height="140" fill="#8B4513" stroke="black" stroke-width="2"/>
  <rect x="530" y="0" width="200" height="140" fill="none" stroke="#FFFFFF" stroke-width="4"/>
  <rect x="800" y="300" width="120" height="80" fill="none" stroke="black" stroke-width="2"/>
  <rect x="760" y="460" width="180" height="140" fill="none" stroke="green" stroke-width="4"/>
  <rect x="250" y="280" width="200" height="100" fill="none" stroke="blue" stroke-width="4"/>
  <rect x="80" y="40" width="140" height="320" fill="none" stroke="red" stroke-width="4"/>
</svg>