<svg viewBox="0 0 1000 800" xmlns="http://www.w3.org/2000/svg">
  <rect width="100%" height="100%" fill="#e6e6e6"/>
  <rect x="0" y="0" width="100%" height="100%" fill="#f0f0f0"/>
  <rect x="0" y="0" width="100%" height="100%" fill="#d9d9d9"/>
  <rect x="0" y="0" width="100%" height="100%" fill="#cfcfcf"/>
  <rect x="0" y="0" width="100%" height="100%" fill="#bfbfbf"/>
  <rect x="0" y="0" width="100%" height="100%" fill="#afafaf"/>
  <rect x="0" y="0" width="100%" height="100%" fill="#9f9f9f"/>
  <rect x="0" y="0" width="100%" height="100%" fill="#8f8f8f"/>
  <rect x="0" y="0" width="100%" height="100%" fill="#7f7f7f"/>
  <rect x="0" y="0" width="100%" height="100%" fill="#6f6f6f"/>
  <rect x="0" y="0" width="100%" height="100%" fill="#5f5f5f"/>
  <rect x="0" y="0" width="100%" height="100%" fill="#4f4f4f"/>
  <rect x="0" y="0" width="100%" height="100%" fill="#3f3f3f"/>
  <rect x="0" y="0" width="100%" height="100%" fill="#2f2f2f"/>
  <rect x="0" y="0" width="100%" height="100%" fill="#1f1f1f"/>
  <rect x="0" y="0" width="100%" height="100%" fill="#0f0f0f"/>
  <rect x="0" y="0" width="100%" height="100%" fill="#000000"/>
  <rect x="0" y="0" width="100%" height="100%" fill="#ffffff"/>
  <rect x="0" y="0" width="100%" height="100%" fill="#fefefe"/>
  <rect x="0" y="0" width="100%" height="100%" fill="#fdfdfd"/>
  <rect x="0" y="0" width="100%" height="100%" fill="#fcfcfc"/>
  <rect x="0" y="0" width="100%" height="100%" fill="#fbfbfb"/>
  <rect x="0" y="0" width="100%" height="100%" fill="#fafafa"/>
  <rect x="0" y="0" width="100%" height="100%" fill="#f9f9f9"/>
  <rect x="0" y="0" width="100%" height="100%" fill="#f8f8f8"/>
  <rect x="0" y="0" width="100%" height="100%" fill="#f7f7f7"/>
  <rect x="0" y="0" width="100%" height="100%" fill="#f6f6f6"/>
  <rect x="0" y="0" width="100%" height="100%" fill="#f5f5f5"/>
  <rect x="0" y="0" width="100%" height="100%" fill="#f4f4f4"/>
  <rect x="0" y="0" width="100%" height="100%" fill="#f3f3f3"/>
  <rect x="0" y="0" width="100%" height="100%" fill="#f2f2f2"/>
  <rect x="0" y="0" width="100%" height="100%" fill="#f1f1f1"/>
  <rect x="0" y="0" width="100%" height="100%" fill="#f0f0f0"/>
  <rect x="0" y="0" width="100%" height="100%" fill="#efefef"/>
  <rect x="0" y="0" width="100%" height="100%" fill="#eeeeee"/>
  <rect x="0" y="0" width="100%" height="100%" fill="#ededed"/>
  <rect x="0" y="0" width="100%" height="100%" fill="#ececec"/>
  <rect x="0" y="0" width="100%" height="100%" fill="#ebfbfb"/>
  <rect x="0" y="0" width="100%" height="100%" fill="#eaeaea"/>
  <rect x="0" y="0" width="100%" height="100%" fill="#e9e9e9"/>
  <rect x="0" y="0" width="100%" height="100%" fill="#e8e8e8"/>
  <rect x="0" y="0" width="100%" height="100%" fill="#e7e7e7"/>
  <rect x="0" y="0" width="100%" height="100%" fill="#e6e6e6"/>
  <rect x="0" y="0" width="100%" height="100%" fill="#e5e5e5"/>
  <rect x="0" y="0" width="100%" height="100%" fill="#e4e4e4"/>
  <rect x="0" y="0" width="100%" height="100%" fill="#e3e3e3"/>
  <rect x="0" y="0" width="100%" height="100%" fill="#e2e2e2"/>
  <rect x="0" y="0" width="100%" height="100%" fill="#e1e1e1"/>
  <rect x="0" y="0" width="100%" height="100%" fill="#e0e0e0"/>
  <rect x="0" y="0" width="100%" height="100%" fill="#dfdfdf"/>
  <rect x="0" y="0" width="100%" height="100%" fill="#dedede"/>
  <rect x="0" y="0" width="100%" height="100%" fill="#dddddd"/>
  <rect x="0" y="0" width="100%" height="100%" fill="#dcdcdc"/>
  <rect x="0" y="0" width="100%" height="100%" fill="#dbdbdb"/>
  <rect x="0" y="0" width="100%" height="100%" fill="#dadada"/>
  <rect x="0" y="0" width="100%" height="100%" fill="#d9d9d9"/>
  <rect x="0" y="0" width="100%" height="100%" fill="#d8d8d8"/>
  <rect x="0" y="0" width="100%" height="100%" fill="#d7d7d7"/>
  <rect x="0" y="0" width="100%" height="100%" fill="#d6d6d6"/>
  <rect x="0" y="0" width="100%" height="100%" fill="#d5d5d5"/>
  <rect x="0" y="0" width="100%" height="100%" fill="#d4d4d4"/>
  <rect x="0" y="0" width="100%" height="100%" fill="#d3d3d3"/>
  <rect x="0" y="0" width="100%" height="100%" fill="#d2d2d2"/>
  <rect x="0" y="0" width="100%" height="100%" fill="#d1d1d1"/>
  <rect x="0" y="0" width="100%" height="100%" fill="#d0d0d0"/>
  <rect x="0" y="0" width="100%" height="100%" fill="#cfcfcf"/>
  <rect x="0" y="0" width="100%" height="100%" fill="#cecece"/>
  <rect x="0" y="0" width="100%" height="100%" fill="#cdcdcd"/>
  <rect x="0" y="0" width="100%" height="100%" fill="#cccccc"/>
  <rect x="0" y="0" width="100%" height="100%" fill="#cbcbcb"/>
  <rect x="0" y="0" width="100%" height="100%" fill="#cacaca"/>
  <rect x="0" y="0" width="100%" height="100%" fill="#c9c9c9"/>
  <rect x="0" y="0" width="100%" height="100%" fill="#c8c8c8"/>
  <rect x="0" y="0" width="100%" height="100%" fill="#c7c7c7"/>
  <rect x="0" y="0" width="100%" height="100%" fill="#c6c6c6"/>
  <rect x="0" y="0" width="100%" height="100%" fill="#c5c5c5"/>
  <rect x="0" y="0" width="100%" height="100%" fill="#c4c4c4"/>
  <rect x="0" y="0" width="100%" height="100%" fill="#c3c3c3"/>
  <rect x="0" y="0" width="100%" height="100%" fill="#c2c2c2"/>
  <rect x="0" y="0" width="100%" height="100%" fill="#c1c1c1"/>
  <rect x="0" y="0" width="100%" height="100%" fill="#c0c0c0"/>
  <rect x="0" y="0" width="100%" height="100%" fill="#bfbfbf"/>
  <rect x="0" y="0" width="100%" height="100%" fill="#bebebe"/>
  <rect x="0" y="0" width="100%" height="100%" fill="#bdbdbd"/>
  <rect x="0" y="0" width="100%" height="100%" fill="#bcbcbc"/>
  <rect x="0" y="0" width="100%" height="100%" fill="#bbbbbb"/>
  <rect x="0" y="0" width="100%" height="100%" fill="#bababa"/>
  <rect x="0" y="0" width="100%" height="100%" fill="#b9b9b9"/>
  <rect x="0" y="0" width="100%" height="100%" fill="#b8b8b8"/>
  <rect x="0" y="0" width="100%" height="100%" fill="#b7b7b7"/>
  <rect x="0" y="0" width="100%" height="100%" fill="#b6b6b6"/>
  <rect x="0" y="0" width="100%" height="100%" fill="#b5b5b5"/>
  <rect x="0" y="0" width="100%" height="100%" fill="#b4b4b4"/>
  <rect x="0" y="0" width="100%" height="100%" fill="#b3b3b3"/>
  <rect x="0" y="0" width="100%" height="100%" fill="#b2b2b2"/>
  <rect x="0" y="0" width="100%" height="100%" fill="#b1b1b1"/>
  <rect x="0" y="0" width="100%" height="100%" fill="#b0b0b0"/>
  <rect x="0" y="0" width="100%" height="100%" fill="#afafaf"/>
  <rect x="0" y="0" width="100%" height="100%" fill="#aeaeae"/>
  <rect x="0" y="0" width="100%" height="100%" fill="#adadad"/>
  <rect x="0" y="0" width="100%" height="100%" fill="#acacac"/>
  <rect x="0" y="0" width="100%" height="100%" fill="#ababab"/>
  <rect x="0" y="0" width="100%" height="100%" fill="#aaaaaa"/>
  <rect x="0" y="0" width="100%" height="100%" fill="#a9a9a9"/>
  <rect x="0" y="0" width="100%" height="100%" fill="#a8a8a8"/>
  <rect x="0" y="0" width="100%" height="100%" fill="#a7a7a7"/>
  <rect x="0" y="0" width="100%" height="100%" fill="#a6a6a6"/>
  <rect x="0" y="0" width="100%" height="100%" fill="#a5a5a5"/>
  <rect x="0" y="0" width="100%" height="100%" fill="#a4a4a4"/>
  <rect x="0" y="0" width="100%" height="100%" fill="#a3a3a3"/>
  <rect x="0" y="0" width="100%" height="100%" fill="#a2a2a2"/>
  <rect x="0" y="0" width="100%" height="100%" fill="#a1a1a1"/>
  <rect x="0" y="0" width="100%" height="100%" fill="#a0a0a0"/>
  <rect x="0" y="0" width="100%" height="100%" fill="#9f9f9f"/>
  <rect x="0" y="0" width="100%" height="100%" fill="#9e9e9e"/>
  <rect x="0" y="0" width="100%" height="100%" fill="#9d9d9d"/>
  <rect x="0" y="0" width="100%" height="100%" fill="#9c9c9c"/>
  <rect x="0" y="0" width="100%" height="100%" fill="#9b9b9b"/>
  <rect x="0" y="0" width="100%" height="100%" fill="#9a9a9a"/>
  <rect x="0" y="0" width="100%" height="100%" fill="#999999"/>
  <rect x="0" y="0" width="100%" height="100%" fill="#989898"/>
  <rect x="0" y="0" width="100%" height="100%" fill="#979797"/>
  <rect x="0" y="0" width="100%" height="100%" fill="#969696"/>
  <rect x="0" y="0" width="100%" height="100%" fill="#959595"/>
  <rect x="0" y="0" width="100%" height="100%" fill="#949494"/>
  <rect x="0" y="0" width="100%" height="100%" fill="#939393"/>
  <rect x="0" y="0" width="100%" height="100%" fill="#929292"/>
  <rect x="0" y="0" width="100%" height="100%" fill="#919191"/>
  <rect x="0" y="0" width="100%" height="100%" fill="#909090"/>
  <rect x="0" y="0" width="100%" height="100%" fill="#8f8f8f"/>
  <rect x="0" y="0" width="100%" height="100%" fill="#8e8e8e"/>
  <rect x="0" y="0" width="100%" height="100%" fill="#8d8d8d"/>
  <rect x="0" y="0" width="100%" height="100%" fill="#8c8c8c"/>
  <rect x="0" y="0" width="100%" height="100%" fill="#8b8b8b"/>
  <rect x="0" y="0" width="100%" height="100%" fill="#8a8a8a"/>
  <rect x="0" y="0" width="100%" height="100%" fill="#898989"/>
  <rect x="0" y="0" width="100%" height="100%" fill="#888888"/>
  <rect x="0" y="0" width="100%" height="100%" fill="#878787"/>
  <rect x="0" y="0" width="100%" height="100%" fill="#868686"/>
  <rect x="0" y="0" width="100%" height="100%" fill="#858585"/>
  <rect x="0" y="0" width="100%" height="100%" fill="#848484"/>
  <rect x="0" y="0" width="100%" height="100%" fill="#838383"/>
  <rect x="0" y="0" width="100%" height="100%" fill="#828282"/>
  <rect x="0" y="0" width="100%" height="100%" fill="#818181"/>
  <rect x="0" y="0" width="100%" height="100%" fill="#808080"/>
  <rect x="0" y="0" width="100%" height="100%" fill="#7f7f7f"/>
  <rect x="0" y="0" width="100%" height="100%" fill="#7e7e7e"/>
  <rect x="0" y="0" width="100%" height="100%" fill="#7d7d7d"/>
  <rect x="0" y="0" width="100%" height="100%" fill="#7c7c7c"/>
  <rect x="0" y="0" width="100%" height="100%" fill="#7b7b7b"/>
  <rect x="0" y="0" width="100%" height="100%" fill="#7a7a7a"/>
  <rect x="0" y="0" width="100%" height="100%" fill="#797979"/>
  <rect x="0" y="0" width="100%" height="100%" fill="#787878"/>
  <rect x="0" y="0" width="100%" height="100%" fill="#777777"/>
  <rect x="0" y="0" width="100%" height="100%" fill="#767676"/>
  <rect x="0" y="0" width="100%" height="100%" fill="#757575"/>
  <rect x="0" y="0" width="100%" height="100%" fill="#747474"/>
  <rect x="0" y="0" width="100%" height="100%" fill="#737373"/>
  <rect x="0" y="0" width="100%" height="100%" fill="#727272"/>
  <rect x="0" y="0" width="100%" height="100%" fill="#717171"/>
  <rect x="0" y="0" width="100%" height="100%" fill="#707070"/>
  <rect x="0" y="0" width="100%" height="100%" fill="#6f6f6f"/>
  <rect x="0" y="0" width="100%" height="100%" fill="#6e6e6e"/>
  <rect x="0" y="0" width="100%" height="100%" fill="#6d6d6d"/>
  <rect x="0" y="0" width="100%" height="100%" fill="#6c6c6c"/>
  <rect x="0" y="0" width="100%" height="100%" fill="#6b6b6b"/>
  <rect x="0" y="0" width="100%" height="100%" fill="#6a6a6a"/>
  <rect x="0" y="0" width="100%" height="100%" fill="#696969"/>
  <rect x="0" y="0" width="100%" height="100%" fill="#686868"/>
  <rect x="0" y="0" width="100%" height="100%" fill="#676767"/>
  <rect x="0" y="0" width="100%" height="100%" fill="#666666"/>
  <rect x="0" y="0" width="100%" height="100%" fill="#656565"/>
  <rect x="0" y="0" width="100%" height="100%" fill="#646464"/>
  <rect x="0" y="0" width="100%" height="100%" fill="#636363"/>
  <rect x="0" y="0" width="100%" height="100%" fill="#626262"/>
  <rect x="0" y="0" width="100%" height="100%" fill="#616161"/>
  <rect x="0" y="0" width="100%" height="100%" fill="#606060"/>
  <rect x="0" y="0" width="100%" height="100%" fill="#5f5f5f"/>
  <rect x="0" y="0" width="100%" height="100%" fill="#5e5e5e"/>
  <rect x="0" y="0" width="100%" height="100%" fill="#5d5d5d"/>
  <rect x="0" y="0" width="100%" height="100%" fill="#5c5c5c"/>
  <rect x="0" y="0" width="100%" height="100%" fill="#5b5b5b"/>
  <rect x="0" y="0" width="100%" height="100%" fill="#5a5a5a"/>
  <rect x="0" y="0" width="100%" height="100%" fill="#595959"/>
  <rect x="0" y="0" width="100%" height="100%" fill="#585858"/>
  <rect x="0" y="0" width="100%" height="100%" fill="#575757"/>
  <rect x="0" y="0" width="100%" height="100%" fill="#565656"/>
  <rect x="0" y="0" width="100%" height="100%" fill="#555555"/>
  <rect x="0" y="0" width="100%" height="100%" fill="#545454"/>
  <rect x="0" y="0" width="100%" height="100%" fill="#535353"/>
  <rect x="0" y="0" width="100%" height="100%" fill="#525252"/>
  <rect x="0" y="0" width="100%" height="100%" fill="#515151"/>
  <rect x="0" y="0" width="100%" height="100%" fill="#505050"/>
  <rect x="0" y="0" width="100%" height="100%" fill="#4f4f4f"/>
  <rect x="0" y="0" width="100%" height="100%" fill="#4e4e4e"/>
  <rect x="0" y="0" width="100%" height="100%" fill="#4d4d4d"/>
  <rect x="0" y="0" width="100%" height="100%" fill="#4c4c4c"/>
  <rect x="0" y="0" width="100%" height="100%" fill="#4b4b4b"/>
  <rect x="0" y="0" width="100%" height="100%" fill="#4a4a4a"/>
  <rect x="0" y="0" width="100%" height="100%" fill="#494949"/>
  <rect x="0" y="0" width="100%" height="100%" fill="#484848"/>
  <rect x="0" y="0" width="100%" height="100%" fill="#474747"/>
  <rect x="0" y="0" width="100%" height="100%" fill="#464646"/>
  <rect x="0" y="0" width="100%" height="100%" fill="#454545"/>
  <rect x="0" y="0" width="100%" height="100%" fill="#444444"/>
  <rect x="0" y="0" width="100%" height="100%" fill="#434343"/>
  <rect x="0" y="0" width="100%" height="100%" fill="#424242"/>
  <rect x="0" y="0" width="100%" height="100%" fill="#414141"/>
  <rect x="0" y="0" width="100%" height="100%" fill="#404040"/>
  <rect x="0" y="0" width="100%" height="100%" fill="#3f3f3f"/>
  <rect x="0" y="0" width="100%" height="100%" fill="#3e3e3e"/>
  <rect x="0" y="0" width="100%" height="100%" fill="#3d3d3d"/>
  <rect x="0" y="0" width="100%" height="100%" fill="#3c3c3c"/>
  <rect x="0" y="0" width="100%" height="100%" fill="#3b3b3b"/>
  <rect x="0" y="0" width="100%" height="100%" fill="#3a3a3a"/>
  <rect x="0" y="0" width="100%" height="100%" fill="#393939"/>
  <rect x="0" y="0" width="100%" height="100%" fill="#383838"/>
  <rect x="0" y="0" width="100%" height="100%" fill="#373737"/>
  <rect x="0" y="0" width="100%" height="100%" fill="#363636"/>
  <rect x="0" y="0" width="100%" height="100%" fill="#353535"/>
  <rect x="0" y="0" width="100%" height="100%" fill="#343434"/>
  <rect x="0" y="0" width="100%" height="100%" fill="#333333"/>
  <rect x="0" y="0" width="100%" height="100%" fill="#323232"/>
  <rect x="0" y="0" width="100%" height="100%" fill="#313131"/>
  <rect x="0" y="0" width="100%" height="100%" fill="#303030"/>
  <rect x="0" y="0" width="100%" height="100%" fill="#2f2f2f"/>
  <rect x="0" y="0" width="100%" height="100%" fill="#2e2e2e"/>
  <rect x="0" y="0" width="100%" height="100%" fill="#2d2d2d"/>
  <rect x="0" y="0" width="100%" height="100%" fill="#2c2c2c"/>
  <rect x="0" y="0" width="100%" height="100%" fill="#2b2b2b"/>
  <rect x="0" y="0" width="100%" height="100%" fill="#2a2a2a"/>
  <rect x="0" y="0" width="100%" height="100%" fill="#292929"/>
  <rect x="0" y="0" width="100%" height="100%" fill="#282828"/>
  <rect x="0" y="0" width="100%" height="100%" fill="#272727"/>
  <rect x="0" y="0" width="100%" height="100%" fill="#262626"/>
  <rect x="0" y="0" width="100%" height="100%" fill="#252525"/>
  <rect x="0" y="0" width="100%" height="100%" fill="#242424"/>
  <rect x="0" y="0" width="100%" height="100%" fill="#232323"/>
  <rect x="0" y="0" width="100%" height="100%" fill="#222222"/>
  <rect x="0" y="0" width="100%" height="100%" fill="#212121"/>
  <rect x="0" y="0" width="100%" height="100%" fill="#202020"/>
  <rect x="0" y="0" width="100%" height="100%" fill="#1f1f1f"/>
  <rect x="0" y="0" width="100%" height="100%" fill="#1e1e1e"/>
  <rect x="0" y="0" width="100%" height="100%" fill="#1d1d1d"/>
  <rect x="0" y="0" width="100%" height="100%" fill="#1c1c1c"/>
  <rect x="0" y="0" width="100%" height="100%" fill="#1b1b1b"/>
  <rect x="0" y="0" width="100%" height="100%" fill="#1a1a1a"/>
  <rect x="0" y="0" width="100%" height="100%" fill="#191919"/>
  <rect x="0" y="0" width="100%" height="100%" fill="#181818"/>
  <rect x="0" y="0" width="100%" height="100%" fill="#171717"/>
  <rect x="0" y="0" width="100%" height="100%" fill="#161616"/>
  <rect x="0" y="0" width="100%" height="100%" fill="#151515"/>
  <rect x="0" y="0" width="100%" height="100%" fill="#141414"/>
  <rect x="0" y="0" width="100%" height="100%" fill="#131313"/>
  <rect x="0" y="0" width="100%" height="100%" fill="#121212"/>
  <rect x="0" y="0" width="100%" height="100%" fill="#111111"/>
  <rect x="0" y="0" width="100%" height="100%" fill="#101010"/>
  <rect x="0" y="0" width="100%" height="100%" fill="#0f0f0f"/>
  <rect x="0" y="0" width="100%" height="100%" fill="#0e0e0e"/>
  <rect x="0" y="0" width="100%" height="100%" fill="#0d0d0d"/>
  <rect x="0" y="0" width="100%" height="100%" fill="#0c0c0c"/>
  <rect x="0" y="0" width="100%" height="100%" fill="#0b0b0b"/>
  <rect x="0" y="0" width="100%" height="100%" fill="#0a0a0a"/>
  <rect x="0" y="0" width="100%" height="100%" fill="#090909"/>
  <rect x="0" y="0" width="100%" height="100%" fill="#080808"/>
  <rect x="0" y="0" width="100%" height="100%" fill="#070707"/>
  <rect x="0" y="0" width="100%" height="100%" fill="#060606"/>
  <rect x="0" y="0" width="100%" height="100%" fill="#050505"/>
  <rect x="0" y="0" width="100%" height="100%" fill="#040404"/>
  <rect x="0" y="0" width="100%" height="100%" fill="#030303"/>
  <rect x="0" y="0" width="100%" height="100%" fill="#020202"/>
  <rect x="0" y="0" width="100%" height="100%" fill="#010101"/>
  <rect x="0" y="0" width="100%" height="100%" fill="#000000"/>
</svg>