<svg viewBox="0 0 1000 800" xmlns="http://www.w3.org/2000/svg">
  <rect width="1000" height="800" fill="#f0f0f0"/>
  <rect x="50" y="450" width="500" height="300" rx="20" fill="#1e3a8a"/>
  <rect x="750" y="550" width="250" height="200" rx="20" fill="#ffeb3b"/>
  <rect x="0" y="400" width="200" height="150" rx="15" fill="#4caf50"/>
  <rect x="900" y="400" width="100" height="100" rx="10" fill="#2196f3"/>
  <circle cx="650" cy="500" r="200" fill="#e91e63"/>
  <rect x="100" y="500" width="300" height="40" fill="#ff5722"/>
  <rect x="390" y="550" width="120" height="200" fill="#333"/>
  <rect x="100" y="680" width="150" height="100" fill="#2c3e50"/>
  <rect x="750" y="650" width="100" height="150" fill="#8d6e63"/>
  <rect x="800" y="530" width="80" height="50" fill="#ffc107"/>
  <rect x="680" y="360" width="120" height="40" fill="#006400"/>
  <rect x="70" y="480" width="280" height="120" fill="#1976d2"/>
  <rect x="390" y="550" width="120" height="200" fill="#333"/>
  <rect x="100" y="680" width="150" height="100" fill="#2c3e50"/>
  <rect x="750" y="650" width="100" height="150" fill="#8d6e63"/>
  <rect x="800" y="530" width="80" height="50" fill="#ffc107"/>
  <rect x="680" y="360" width="120" height="40" fill="#006400"/>
  <rect x="70" y="480" width="280" height="120" fill="#1976d2"/>
  <rect x="390" y="550" width="120" height="200" fill="#333"/>
  <rect x="100" y="680" width="150" height="100" fill="#2c3e50"/>
  <rect x="750" y="650" width="100" height="150" fill="#8d6e63"/>
  <rect x="800" y="530" width="80" height="50" fill="#ffc107"/>
  <rect x="680" y="360" width="120" height="40" fill="#006400"/>
  <rect x="70" y="480" width="280" height="120" fill="#1976d2"/>
</svg>