<svg viewBox="0 0 1000 500" xmlns="http://www.w3.org/2000/svg">
    <path d="M69.4 87.7c-5.7 4.8-10.1 10.3-13.3 16.5-3.2 6.1-5.1 12.8-5.7 19.8-.6 7.1-.1 14.2 1.5 21.1 1.7 6.9 4.5 13.4 8.3 19.3 3.8 5.8 8.6 10.9 14.1 15 5.5 4.2 11.8 7.2 18.5 9.1s13.8 2.5 20.8 1.8c7.1-.6 14-2.6 20.3-5.8 6.2-3.2 11.7-7.5 16.2-12.7 4.5-5.3 7.9-11.4 10-18 2.2-6.6 3.1-13.6 2.7-20.6-.4-7.1-2.1-14-5-20.3-2.9-6.4-6.9-12.1-11.8-17-4.9-4.8-10.7-8.7-17.1-11.3s-13.2-3.9-20.1-3.8c-6.9 0-13.7 1.4-20 4.1-6.3 2.8-12 6.7-16.8 11.6z" fill="#5DDB2B"/>
    <path d="M166.5 103.7c-5.7 4.8-10.1 10.3-13.3 16.5-3.2 6.1-5.1 12.8-5.7 19.8-.6 7.1-.1 14.2 1.5 21.1 1.7 6.9 4.5 13.4 8.3 19.3 3.8 5.8 8.6 10.9 14.1 15 5.5 4.2 11.8 7.2 18.5 9.1s13.8 2.5 20.8 1.8c7.1-.6 14-2.6 20.3-5.8 6.2-3.2 11.7-7.5 16.2-12.7 4.5-5.3 7.9-11.4 10-18 2.2-6.6 3.1-13.6 2.7-20.6-.4-7.1-2.1-14-5-20.3-2.9-6.4-6.9-12.1-11.8-17-4.9-4.8-10.7-8.7-17.1-11.3s-13.2-3.9-20.1-3.8c-6.9 0-13.7 1.4-20 4.1-6.3 2.8-12 6.7-16.8 11.6z" fill="#5DDB2B"/>
    <path d="M263.6 119.7c-5.7 4.8-10.1 10.3-13.3 16.5-3.2 6.1-5.1 12.8-5.7 19.8-.6 7.1-.1 14.2 1.5 21.1 1.7 6.9 4.5 13.4 8.3 19.3 3.8 5.8 8.6 10.9 14.1 15 5.5 4.2 11.8 7.2 18.5 9.1s13.8 2.5 20.8 1.8c7.1-.6 14-2.6 20.3-5.8 6.2-3.2 11.7-7.5 16.2-12.7 4.5-5.3 7.9-11.4 10-18 2.2-6.6 3.1-13.6 2.7-20.6-.4-7.1-2.1-14-5-20.3-2.9-6.4-6.9-12.1-11.8-17-4.9-4.8-10.7-8.7-17.1-11.3s-13.2-3.9-20.1-3.8c-6.9 0-13.7 1.4-20 4.1-6.3 2.8-12 6.7-16.8 11.6z" fill="#5DDB2B"/>
    <path d="M360.7 135.7c-5.7 4.8-10.1 10.3-13.3 16.5-3.2 6.1-5.1 12.8-5.7 19.8-.6 7.1-.1 14.2 1.5 21.1 1.7 6.9 4.5 13.4 8.3 19.3 3.8 5.8 8.6 10.9 14.1 15 5.5 4.2 11.8 7.2 18.5 9.1s13.8 2.5 20.8 1.8c7.1-.6 14-2.6 20.3-5.8 6.2-3.2 11.7-7.5 16.2-12.7 4.5-5.3 7.9-11.4 10-18 2.2-6.6 3.1-13.6 2.7-20.6-.4-7.1-2.1-14-5-20.3-2.9-6.4-6.9-12.1-11.8-17-4.9-4.8-10.7-8.7-17.1-11.3s-13.2-3.9-20.1-3.8c-6.9 0-13.7 1.4-20 4.1-6.3 2.8-12 6.7-16.8 11.6z" fill="#5DDB2B"/>
    <path d="M457.8 151.7c-5.7 4.8-10.1 10.3-13.3 16.5-3.2 6.1-5.1 12.8-5.7 19.8-.6 7.1-.1 14.2 1.5 21.1 1.7 6.9 4.5 13.4 8.3 19.3 3.8 5.8 8.6 10.9 14.1 15 5.5 4.2 11.8 7.2 18.5 9.1s13.8 2.5 20.8 1.8c7.1-.6 14-2.6 20.3-5.8 6.2-3.2 11.7-7.5 16.2-12.7 4.5-5.3 7.9-11.4 10-18 2.2-6.6 3.1-13.6 2.7-20.6-.4-7.1-2.1-14-5-20.3-2.9-6.4-6.9-12.1-11.8-17-4.9-4.8-10.7-8.7-17.1-11.3s-13.2-3.9-20.1-3.8c-6.9 0-13.7 1.4-20 4.1-6.3 2.8-12 6.7-16.8 11.6z" fill="#5DDB2B"/>
    <path d="M554.9 167.7c-5.7 4.8-10.1 10.3-13.3 16.5-3.2 6.1-5.1 12.8-5.7 19.8-.6 7.1-.1 14.2 1.5 21.1 1.7 6.9 4.5 13.4 8.3 19.3 3.8 5.8 8.6 10.9 14.1 15 5.5 4.2 11.8 7.2 18.5 9.1s13.8 2.5 20.8 1.8c7.1-.6 14-2.6 20.3-5.8 6.2-3.2 11.7-7.5 16.2-12.7 4.5-5.3 7.9-11.4 10-18 2.2-6.6 3.1-13.6 2.7-20.6-.4-7.1-2.1-14-5-20.3-2.9-6.4-6.9-12.1-11.8-17-4.9-4.8-10.7-8.7-17.1-11.3s-13.2-3.9-20.1-3.8c-6.9 0-13.7 1.4-20 4.1-6.3 2.8-12 6.7-16.8 11.6z" fill="#5DDB2B"/>
    <path d="M652 183.7c-5.7 4.8-10.1 10.3-13.3 16.5-3.2 6.1-5.1 12.8-5.7 19.8-.6 7.1-.1 14.2 1.5 21.1 1.7 6.9 4.5 13.4 8.3 19.3 3.8 5.8 8.6 10.9 14.1 15 5.5 4.2 11.8 7.2 18.5 9.1s13.8 2.5 20.8 1.8c7.1-.6 14-2.6 20.3-5.8 6.2-3.2 11.7-7.5 16.2-12.7 4.5-5.3 7.9-11.4 10-18 2.2-6.6 3.1-13.6 2.7-20.6-.4-7.1-2.1-14-5-20.3-2.9-6.4-6.9-12.1-11.8-17-4.9-4.8-10.7-8.7-17.1-11.3s-13.2-3.9-20.1-3.8c-6.9 0-13.7 1.4-20 4.1-6.3 2.8-12 6.7-16.8 11.6z" fill="#5DDB2B"/>
    <path d="M749.1 199.7c-5.7 4.8-10.1 10.3-13.3 16.5-3.2 6.1-5.1 12.8-5.7 19.8-.6 7.1-.1 14.2 1.5 21.1 1.7 6.9 4.5 13.4 8.3 19.3 3.8 5.8 8.6 10.9 14.1 15 5.5 4.2 11.8 7.2 18.5 9.1s13.8 2.5 20.8 1.8c7.1-.6 14-2.6 20.3-5.8 6.2-3.2 11.7-7.5 16.2-12.7 4.5-5.3 7.9-11.4 10-18 2.2-6.6 3.1-13.6 2.7-20.6-.4-7.1-2.1-14-5-20.3-2.9-6.4-6.9-12.1-11.8-17-4.9-4.8-10.7-8.7-17.1-11.3s-13.2-3.9-20.1-3.8c-6.9 0-13.7 1.4-20 4.1-6.3 2.8-12 6.7-16.8 11.6z" fill="#5DDB2B"/>
    <path d="M846.2 215.7c-5.7 4.8-10.1 10.3-13.3 16.5-3.2 6.1-5.1 12.8-5.7 19.8-.6 7.1-.1 14.2 1.5 21.1 1.7 6.9 4.5 13.4 8.3 19.3 3.8 5.8 8.6 10.9 14.1 15 5.5 4.2 11.8 7.2 18.5 9.1s13.8 2.5 20.8 1.8c7.1-.6 14-2.6 20.3-5.8 6.2-3.2 11.7-7.5 16.2-12.7 4.5-5.3 7.9-11.4 10-18 2.2-6.6 3.1-13.6 2.7-20.6-.4-7.1-2.1-14-5-20.3-2.9-6.4-6.9-12.1-11.8-17-4.9-4.8-10.7-8.7-17.1-11.3s-13.2-3.9-20.1-3.8c-6.9 0-13.7 1.4-20 4.1-6.3 2.8-12 6.7-16.8 11.6z" fill="#5DDB2B"/>
    <path d="M943.3 231.7c-5.7 4.8-10.1 10.3-13.3 16.5-3.2 6.1-5.1 12.8-5.7 19.8-.6 7.1-.1 14.2 1.5 21.1 1.7 6.9 4.5 13.4 8.3 19.3 3.8 5.8 8.6 10.9 14.1 15 5.5 4.2 11.8 7.2 18.5 9.1s13.8 2.5 20.8 1.8c7.1-.6 14-2.6 20.3-5.8 6.2-3.2 11.7-7.5 16.2-12.7 4.5-5.3 7.9-11.4 10-18 2.2-6.6 3.1-13.6 2.7-20.6-.4-7.1-2.1-14-5-20.3-2.9-6.4-6.9-12.1-11.8-17-4.9-4.8-10.7-8.7-17.1-11.3s-13.2-3.9-20.1-3.8c-6.9 0-13.7 1.4-20 4.1-6.3 2.8-12 6.7-16.8 11.6z" fill="#5DDB2B"/>
</svg>