<svg viewBox="0 0 1000 800" xmlns="http://www.w3.org/2000/svg">
  <rect width="100%" height="100%" fill="#8FBC8F"/>
  <rect y="540" width="100%" height="260" fill="#DEB887"/>
  <rect y="530" width="100%" height="10" fill="#90EE90"/>
  <rect y="520" width="100%" height="10" fill="#F5F5DC"/>
  <rect y="510" width="100%" height="10" fill="#ADD8E6"/>
  <rect y="500" width="100%" height="10" fill="#87CEEB"/>
  <rect y="490" width="100%" height="10" fill="#4682B4"/>
  <rect y="480" width="100%" height="10" fill="#2F4F4F"/>
  <rect y="470" width="100%" height="10" fill="#00008B"/>
  <rect y="460" width="100%" height="10" fill="#0000CD"/>
  <rect y="450" width="100%" height="10" fill="#0000FF"/>
  <rect y="440" width="100%" height="10" fill="#000080"/>
  <rect y="430" width="100%" height="10" fill="#000040"/>
  <rect y="420" width="100%" height="10" fill="#000020"/>
  <rect y="410" width="100%" height="10" fill="#000000"/>
  <rect y="400" width="100%" height="10" fill="#000000"/>
  <rect y="390" width="100%" height="10" fill="#000000"/>
  <rect y="380" width="100%" height="10" fill="#000000"/>
  <rect y="370" width="100%" height="10" fill="#000000"/>
  <rect y="360" width="100%" height="10" fill="#000000"/>
  <rect y="350" width="100%" height="10" fill="#000000"/>
  <rect y="340" width="100%" height="10" fill="#000000"/>
  <rect y="330" width="100%" height="10" fill="#000000"/>
  <rect y="320" width="100%" height="10" fill="#000000"/>
  <rect y="310" width="100%" height="10" fill="#000000"/>
  <rect y="300" width="100%" height="10" fill="#000000"/>
  <rect y="290" width="100%" height="10" fill="#000000"/>
  <rect y="280" width="100%" height="10" fill="#000000"/>
  <rect y="270" width="100%" height="10" fill="#000000"/>
  <rect y="260" width="100%" height="10" fill="#000000"/>
  <rect y="250" width="100%" height="10" fill="#000000"/>
  <rect y="240" width="100%" height="10" fill="#000000"/>
  <rect y="230" width="100%" height="10" fill="#000000"/>
  <rect y="220" width="100%" height="10" fill="#000000"/>
  <rect y="210" width="100%" height="10" fill="#000000"/>
  <rect y="200" width="100%" height="10" fill="#000000"/>
  <rect y="190" width="100%" height="10" fill="#000000"/>
  <rect y="180" width="100%" height="10" fill="#000000"/>
  <rect y="170" width="100%" height="10" fill="#000000"/>
  <rect y="160" width="100%" height="10" fill="#000000"/>
  <rect y="150" width="100%" height="10" fill="#000000"/>
  <rect y="140" width="100%" height="10" fill="#000000"/>
  <rect y="130" width="100%" height="10" fill="#000000"/>
  <rect y="120" width="100%" height="10" fill="#000000"/>
  <rect y="110" width="100%" height="10" fill="#000000"/>
  <rect y="100" width="100%" height="10" fill="#000000"/>
  <rect y="90" width="100%" height="10" fill="#000000"/>
  <rect y="80" width="100%" height="10" fill="#000000"/>
  <rect y="70" width="100%" height="10" fill="#000000"/>
  <rect y="60" width="100%" height="10" fill="#000000"/>
  <rect y="50" width="100%" height="10" fill="#000000"/>
  <rect y="40" width="100%" height="10" fill="#000000"/>
  <rect y="30" width="100%" height="10" fill="#000000"/>
  <rect y="20" width="100%" height="10" fill="#000000"/>
  <rect y="10" width="100%" height="10" fill="#000000"/>
  <rect width="100%" height="10" fill="#000000"/>
  <rect x="0" y="0" width="1000" height="800" fill="#8FBC8F"/>
  <rect x="0" y="540" width="1000" height="260" fill="#DEB887"/>
  <rect x="0" y="530" width="1000" height="10" fill="#90EE90"/>
  <rect x="0" y="520" width="1000" height="10" fill="#F5F5DC"/>
  <rect x="0" y="510" width="1000" height="10" fill="#ADD8E6"/>
  <rect x="0" y="500" width="1000" height="10" fill="#87CEEB"/>
  <rect x="0" y="490" width="1000" height="10" fill="#4682B4"/>
  <rect x="0" y="480" width="1000" height="10" fill="#2F4F4F"/>
  <rect x="0" y="470" width="1000" height="10" fill="#00008B"/>
  <rect x="0" y="460" width="1000" height="10" fill="#0000CD"/>
  <rect x="0" y="450" width="1000" height="10" fill="#0000FF"/>
  <rect x="0" y="440" width="1000" height="10" fill="#000080"/>
  <rect x="0" y="430" width="1000" height="10" fill="#000040"/>
  <rect x="0" y="420" width="1000" height="10" fill="#000020"/>
  <rect x="0" y="410" width="1000" height="10" fill="#000000"/>
  <rect x="0" y="400" width="1000" height="10" fill="#000000"/>
  <rect x="0" y="390" width="1000" height="10" fill="#000000"/>
  <rect x="0" y="380" width="1000" height="10" fill="#000000"/>
  <rect x="0" y="370" width="1000" height="10" fill="#000000"/>
  <rect x="0" y="360" width="1000" height="10" fill="#000000"/>
  <rect x="0" y="350" width="1000" height="10" fill="#000000"/>
  <rect x="0" y="340" width="1000" height="10" fill="#000000"/>
  <rect x="0" y="330" width="1000" height="10" fill="#000000"/>
  <rect x="0" y="320" width="1000" height="10" fill="#000000"/>
  <rect x="0" y="310" width="1000" height="10" fill="#000000"/>
  <rect x="0" y="300" width="1000" height="10" fill="#000000"/>
  <rect x="0" y="290" width="1000" height="10" fill="#000000"/>
  <rect x="0" y="280" width="1000" height="10" fill="#000000"/>
  <rect x="0" y="270" width="1000" height="10" fill="#000000"/>
  <rect x="0" y="260" width="1000" height="10" fill="#000000"/>
  <rect x="0" y="250" width="1000" height="10" fill="#000000"/>
  <rect x="0" y="240" width="1000" height="10" fill="#000000"/>
  <rect x="0" y="230" width="1000" height="10" fill="#000000"/>
  <rect x="0" y="220" width="1000" height="10" fill="#000000"/>
  <rect x="0" y="210" width="1000" height="10" fill="#000000"/>
  <rect x="0" y="200" width="1000" height="10" fill="#000000"/>
  <rect x="0" y="190" width="1000" height="10" fill="#000000"/>
  <rect x="0" y="180" width="1000" height="10" fill="#000000"/>
  <rect x="0" y="170" width="1000" height="10" fill="#000000"/>
  <rect x="0" y="160" width="1000" height="10" fill="#000000"/>
  <rect x="0" y="150" width="1000" height="10" fill="#000000"/>
  <rect x="0" y="140" width="1000" height="10" fill="#000000"/>
  <rect x="0" y="130" width="1000" height="10" fill="#000000"/>
  <rect x="0" y="120" width="1000" height="10" fill="#000000"/>
  <rect x="0" y="110" width="1000" height="10" fill="#000000"/>
  <rect x="0" y="100" width="1000" height="10" fill="#000000"/>
  <rect x="0" y="90" width="1000" height="10" fill="#000000"/>
  <rect x="0" y="80" width="1000" height="10" fill="#000000"/>
  <rect x="0" y="70" width="1000" height="10" fill="#000000"/>
  <rect x="0" y="60" width="1000" height="10" fill="#000000"/>
  <rect x="0" y="50" width="1000" height="10" fill="#000000"/>
  <rect x="0" y="40" width="1000" height="10" fill="#000000"/>
  <rect x="0" y="30" width="1000" height="10" fill="#000000"/>
  <rect x="0" y="20" width="1000" height="10" fill="#000000"/>
  <rect x="0" y="10" width="1000" height="10" fill="#000000"/>
  <rect x="0" y="0" width="1000" height="10" fill="#000000"/>
  <rect x="0" y="0" width="1000" height="800" fill="#8FBC8F"/>
  <rect x="0" y="540" width="1000" height="260" fill="#DEB887"/>
  <rect x="0" y="530" width="1000" height="10" fill="#90EE90"/>
  <rect x="0" y="520" width="1000" height="10" fill="#F5F5DC"/>
  <rect x="0" y="510" width="1000" height="10" fill="#ADD8E6"/>
  <rect x="0" y="500" width="1000" height="10" fill="#87CEEB"/>
  <rect x="0" y="490" width="1000" height="10" fill="#4682B4"/>
  <rect x="0" y="480" width="1000" height="10" fill="#2F4F4F"/>
  <rect x="0" y="470" width="1000" height="10" fill="#00008B"/>
  <rect x="0" y="460" width="1000" height="10" fill="#0000CD"/>
  <rect x="0" y="450" width="1000" height="10" fill="#0000FF"/>
  <rect x="0" y="440" width="1000" height="10" fill="#000080"/>
  <rect x="0" y="430" width="1000" height="10" fill="#000040"/>
  <rect x="0" y="420" width="1000" height="10" fill="#000020"/>
  <rect x="0" y="410" width="1000" height="10" fill="#000000"/>
  <rect x="0" y="400" width="1000" height="10" fill="#000000"/>
  <rect x="0" y="390" width="1000" height="10" fill="#000000"/>
  <rect x="0" y="380" width="1000" height="10" fill="#000000"/>
  <rect x="0" y="370" width="1000" height="10" fill="#000000"/>
  <rect x="0" y="360" width="1000" height="10" fill="#000000"/>
  <rect x="0" y="350" width="1000" height="10" fill="#000000"/>
  <rect x="0" y="340" width="1000" height="10" fill="#000000"/>
  <rect x="0" y="330" width="1000" height="10" fill="#000000"/>
  <rect x="0" y="320" width="1000" height="10" fill="#000000"/>
  <rect x="0" y="310" width="1000" height="10" fill="#000000"/>
  <rect x="0" y="300" width="1000" height="10" fill="#000000"/>
  <rect x="0" y="290" width="1000" height="10" fill="#000000"/>
  <rect x="0" y="280" width="1000" height="10" fill="#000000"/>
  <rect x="0" y="270" width="1000" height="10" fill="#000000"/>
  <rect x="0" y="260" width="1000" height="10" fill="#000000"/>
  <rect x="0" y="250" width="1000" height="10" fill="#000000"/>
  <rect x="0" y="240" width="1000" height="10" fill="#000000"/>
  <rect x="0" y="230" width="1000" height="10" fill="#000000"/>
  <rect x="0" y="220" width="1000" height="10" fill="#000000"/>
  <rect x="0" y="210" width="1000" height="10" fill="#000000"/>
  <rect x="0" y="200" width="1000" height="10" fill="#000000"/>
  <rect x="0" y="190" width="1000" height="10" fill="#000000"/>
  <rect x="0" y="180" width="1000" height="10" fill="#000000"/>
  <rect x="0" y="170" width="1000" height="10" fill="#000000"/>
  <rect x="0" y="160" width="1000" height="10" fill="#000000"/>
  <rect x="0" y="150" width="1000" height="10" fill="#000000"/>
  <rect x="0" y="140" width="1000" height="10" fill="#000000"/>
  <rect x="0" y="130" width="1000" height="10" fill="#000000"/>
  <rect x="0" y="120" width="1000" height="10" fill="#000000"/>
  <rect x="0" y="110" width="1000" height="10" fill="#000000"/>
  <rect x="0" y="100" width="1000" height="10" fill="#000000"/>
  <rect x="0" y="90" width="1000" height="10" fill="#000000"/>
  <rect x="0" y="80" width="1000" height="10" fill="#000000"/>
  <rect x="0" y="70" width="1000" height="10" fill="#000000"/>
  <rect x="0" y="60" width="1000" height="10" fill="#000000"/>
  <rect x="0" y="50" width="1000" height="10" fill="#000000"/>
  <rect x="0" y="40" width="1000" height="10" fill="#000000"/>
  <rect x="0" y="30" width="1000" height="10" fill="#000000"/>
  <rect x="0" y="20" width="1000" height="10" fill="#000000"/>
  <rect x="0" y="10" width="1000" height="10" fill="#000000"/>
  <rect x="0" y="0" width="1000" height="10" fill="#000000"/>
</svg>