<svg viewBox="0 0 1000 800" xmlns="http://www.w3.org/2000/svg">
  <rect width="1000" height="800" fill="#d0e0e0"/>
  <rect y="600" width="1000" height="200" fill="#6a9c4a"/>
  <rect y="550" width="1000" height="100" fill="#b8d88a"/>
  <rect y="500" width="1000" height="100" fill="#c7e0a0"/>
  <rect y="400" width="1000" height="150" fill="#8aa060"/>
  <rect y="300" width="1000" height="200" fill="#6a9c4a"/>
  <rect y="200" width="1000" height="200" fill="#8aa060"/>
  <rect y="100" width="1000" height="200" fill="#b8d88a"/>
  <rect y="0" width="1000" height="100" fill="#d0e0e0"/>
  <rect x="0" y="0" width="1000" height="100" fill="#d0e0e0"/>
  <rect x="0" y="100" width="1000" height="100" fill="#b8d88a"/>
  <rect x="0" y="200" width="1000" height="100" fill="#8aa060"/>
  <rect x="0" y="300" width="1000" height="100" fill="#6a9c4a"/>
  <rect x="0" y="400" width="1000" height="100" fill="#8aa060"/>
  <rect x="0" y="500" width="1000" height="100" fill="#c7e0a0"/>
  <rect x="0" y="600" width="1000" height="100" fill="#b8d88a"/>
  <rect x="0" y="700" width="1000" height="100" fill="#6a9c4a"/>
  <rect x="0" y="750" width="1000" height="50" fill="#4a7c3a"/>
  <rect x="0" y="775" width="1000" height="25" fill="#3a6c2a"/>
  <rect x="0" y="790" width="1000" height="10" fill="#2a5c1a"/>
  <rect x="0" y="795" width="1000" height="5" fill="#1a4c0a"/>
  <rect x="0" y="797" width="1000" height="3" fill="#0a3c00"/>
  <rect x="0" y="799" width="1000" height="1" fill="#002c00"/>
  <rect x="0" y="800" width="1000" height="1" fill="#001c00"/>
  <rect x="0" y="801" width="1000" height="1" fill="#000c00"/>
  <rect x="0" y="802" width="1000" height="1" fill="#000000"/>
  <rect x="0" y="803" width="1000" height="1" fill="#000000"/>
  <rect x="0" y="804" width="1000" height="1" fill="#000000"/>
  <rect x="0" y="805" width="1000" height="1" fill="#000000"/>
  <rect x="0" y="806" width="1000" height="1" fill="#000000"/>
  <rect x="0" y="807" width="1000" height="1" fill="#000000"/>
  <rect x="0" y="808" width="1000" height="1" fill="#000000"/>
  <rect x="0" y="809" width="1000" height="1" fill="#000000"/>
  <rect x="0" y="810" width="1000" height="1" fill="#000000"/>
  <rect x="0" y="811" width="1000" height="1" fill="#000000"/>
  <rect x="0" y="812" width="1000" height="1" fill="#000000"/>
  <rect x="0" y="813" width="1000" height="1" fill="#000000"/>
  <rect x="0" y="814" width="1000" height="1" fill="#000000"/>
  <rect x="0" y="815" width="1000" height="1" fill="#000000"/>
  <rect x="0" y="816" width="1000" height="1" fill="#000000"/>
  <rect x="0" y="817" width="1000" height="1" fill="#000000"/>
  <rect x="0" y="818" width="1000" height="1" fill="#000000"/>
  <rect x="0" y="819" width="1000" height="1" fill="#000000"/>
  <rect x="0" y="820" width="1000" height="1" fill="#000000"/>
  <rect x="0" y="821" width="1000" height="1" fill="#000000"/>
  <rect x="0" y="822" width="1000" height="1" fill="#000000"/>
  <rect x="0" y="823" width="1000" height="1" fill="#000000"/>
  <rect x="0" y="824" width="1000" height="1" fill="#000000"/>
  <rect x="0" y="825" width="1000" height="1" fill="#000000"/>
  <rect x="0" y="826" width="1000" height="1" fill="#000000"/>
  <rect x="0" y="827" width="1000" height="1" fill="#000000"/>
  <rect x="0" y="828" width="1000" height="1" fill="#000000"/>
  <rect x="0" y="829" width="1000" height="1" fill="#000000"/>
  <rect x="0" y="830" width="1000" height="1" fill="#000000"/>
  <rect x="0" y="831" width="1000" height="1" fill="#000000"/>
  <rect x="0" y="832" width="1000" height="1" fill="#000000"/>
  <rect x="0" y="833" width="1000" height="1" fill="#000000"/>
  <rect x="0" y="834" width="1000" height="1" fill="#000000"/>
  <rect x="0" y="835" width="1000" height="1" fill="#000000"/>
  <rect x="0" y="836" width="1000" height="1" fill="#000000"/>
  <rect x="0" y="837" width="1000" height="1" fill="#000000"/>
  <rect x="0" y="838" width="1000" height="1" fill="#000000"/>
  <rect x="0" y="839" width="1000" height="1" fill="#000000"/>
  <rect x="0" y="840" width="1000" height="1" fill="#000000"/>
  <rect x="0" y="841" width="1000" height="1" fill="#000000"/>
  <rect x="0" y="842" width="1000" height="1" fill="#000000"/>
  <rect x="0" y="843" width="1000" height="1" fill="#000000"/>
  <rect x="0" y="844" width="1000" height="1" fill="#000000"/>
  <rect x="0" y="845" width="1000" height="1" fill="#000000"/>
  <rect x="0" y="846" width="1000" height="1" fill="#000000"/>
  <rect x="0" y="847" width="1000" height="1" fill="#000000"/>
  <rect x="0" y="848" width="1000" height="1" fill="#000000"/>
  <rect x="0" y="849" width="1000" height="1" fill="#000000"/>
  <rect x="0" y="850" width="1000" height="1" fill="#000000"/>
  <rect x="0" y="851" width="1000" height="1" fill="#000000"/>
  <rect x="0" y="852" width="1000" height="1" fill="#000000"/>
  <rect x="0" y="853" width="1000" height="1" fill="#000000"/>
  <rect x="0" y="854" width="1000" height="1" fill="#000000"/>
  <rect x="0" y="855" width="1000" height="1" fill="#000000"/>
  <rect x="0" y="856" width="1000" height="1" fill="#000000"/>
  <rect x="0" y="857" width="1000" height="1" fill="#000000"/>
  <rect x="0" y="858" width="1000" height="1" fill="#000000"/>
  <rect x="0" y="859" width="1000" height="1" fill="#000000"/>
  <rect x="0" y="860" width="1000" height="1" fill="#000000"/>
  <rect x="0" y="861" width="1000" height="1" fill="#000000"/>
  <rect x="0" y="862" width="1000" height="1" fill="#000000"/>
  <rect x="0" y="863" width="1000" height="1" fill="#000000"/>
  <rect x="0" y="864" width="1000" height="1" fill="#000000"/>
  <rect x="0" y="865" width="1000" height="1" fill="#000000"/>
  <rect x="0" y="866" width="1000" height="1" fill="#000000"/>
  <rect x="0" y="867" width="1000" height="1" fill="#000000"/>
  <rect x="0" y="868" width="1000" height="1" fill="#000000"/>
  <rect x="0" y="869" width="1000" height="1" fill="#000000"/>
  <rect x="0" y="870" width="1000" height="1" fill="#000000"/>
  <rect x="0" y="871" width="1000" height="1" fill="#000000"/>
  <rect x="0" y="872" width="1000" height="1" fill="#000000"/>
  <rect x="0" y="873" width="1000" height="1" fill="#000000"/>
  <rect x="0" y="874" width="1000" height="1" fill="#000000"/>
  <rect x="0" y="875" width="1000" height="1" fill="#000000"/>
  <rect x="0" y="876" width="1000" height="1" fill="#000000"/>
  <rect x="0" y="877" width="1000" height="1" fill="#000000"/>
  <rect x="0" y="878" width="1000" height="1" fill="#000000"/>
  <rect x="0" y="879" width="1000" height="1" fill="#000000"/>
  <rect x="0" y="880" width="1000" height="1" fill="#000000"/>
  <rect x="0" y="881" width="1000" height="1" fill="#000000"/>
  <rect x="0" y="882" width="1000" height="1" fill="#000000"/>
  <rect x="0" y="883" width="1000" height="1" fill="#000000"/>
  <rect x="0" y="884" width="1000" height="1" fill="#000000"/>
  <rect x="0" y="885" width="1000" height="1" fill="#000000"/>
  <rect x="0" y="886" width="1000" height="1" fill="#000000"/>
  <rect x="0" y="887" width="1000" height="1" fill="#000000"/>
  <rect x="0" y="888" width="1000" height="1" fill="#000000"/>
  <rect x="0" y="889" width="1000" height="1" fill="#000000"/>
  <rect x="0" y="890" width="1000" height="1" fill="#000000"/>
  <rect x="0" y="891" width="1000" height="1" fill="#000000"/>
  <rect x="0" y="892" width="1000" height="1" fill="#000000"/>
  <rect x="0" y="893" width="1000" height="1" fill="#000000"/>
  <rect x="0" y="894" width="1000" height="1" fill="#000000"/>
  <rect x="0" y="895" width="1000" height="1" fill="#000000"/>
  <rect x="0" y="896" width="1000" height="1" fill="#000000"/>
  <rect x="0" y="897" width="1000" height="1" fill="#000000"/>
  <rect x="0" y="898" width="1000" height="1" fill="#000000"/>
  <rect x="0" y="899" width="1000" height="1" fill="#000000"/>
  <rect x="0" y="900" width="1000" height="1" fill="#000000"/>
  <rect x="0" y="901" width="1000" height="1" fill="#000000"/>
  <rect x="0" y="902" width="1000" height="1" fill="#000000"/>
  <rect x="0" y="903" width="1000" height="1" fill="#000000"/>
  <rect x="0" y="904" width="1000" height="1" fill="#000000"/>
  <rect x="0" y="905" width="1000" height="1" fill="#000000"/>
  <rect x="0" y="906" width="1000" height="1" fill="#000000"/>
  <rect x="0" y="907" width="1000" height="1" fill="#000000"/>
  <rect x="0" y="908" width="1000" height="1" fill="#000000"/>
  <rect x="0" y="909" width="1000" height="1" fill="#000000"/>
  <rect x="0" y="910" width="1000" height="1" fill="#000000"/>
  <rect x="0" y="911" width="1000" height="1" fill="#000000"/>
  <rect x="0" y="912" width="1000" height="1" fill="#000000"/>
  <rect x="0" y="913" width="1000" height="1" fill="#000000"/>
  <rect x="0" y="914" width="1000" height="1" fill="#000000"/>
  <rect x="0" y="915" width="1000" height="1" fill="#000000"/>
  <rect x="0" y="916" width="1000" height="1" fill="#000000"/>
  <rect x="0" y="917" width="1000" height="1" fill="#000000"/>
  <rect x="0" y="918" width="1000" height="1" fill="#000000"/>
  <rect x="0" y="919" width="1000" height="1" fill="#000000"/>
  <rect x="0" y="920" width="1000" height="1" fill="#000000"/>
  <rect x="0" y="921" width="1000" height="1" fill="#000000"/>
  <rect x="0" y="922" width="1000" height="1" fill="#000000"/>
  <rect x="0" y="923" width="1000" height="1" fill="#000000"/>
  <rect x="0" y="924" width="1000" height="1" fill="#000000"/>
  <rect x="0" y="925" width="1000" height="1" fill="#000000"/>
  <rect x="0" y="926" width="1000" height="1" fill="#000000"/>
  <rect x="0" y="927" width="1000" height="1" fill="#000000"/>
  <rect x="0" y="928" width="1000" height="1" fill="#000000"/>
  <rect x="0" y="929" width="1000" height="1" fill="#000000"/>
  <rect x="0" y="930" width="1000" height="1" fill="#000000"/>
  <rect x="0" y="931" width="1000" height="1" fill="#000000"/>
  <rect x="0" y="932" width="1000" height="1" fill="#000000"/>
  <rect x="0" y="933" width="1000" height="1" fill="#000000"/>
  <rect x="0" y="934" width="1000" height="1" fill="#000000"/>
  <rect x="0" y="935" width="1000" height="1" fill="#000000"/>
  <rect x="0" y="936" width="1000" height="1" fill="#000000"/>
  <rect x="0" y="937" width="1000" height="1" fill="#000000"/>
  <rect x="0" y="938" width="1000" height="1" fill="#000000"/>
  <rect x="0" y="939" width="1000" height="1" fill="#000000"/>
  <rect x="0" y="940" width="1000" height="1" fill="#000000"/>
  <rect x="0" y="941" width="1000" height="1" fill="#000000"/>
  <rect x="0" y="942" width="1000" height="1" fill="#000000"/>
  <rect x="0" y="943" width="1000" height="1" fill="#000000"/>
  <rect x="0" y="944" width="1000" height="1" fill="#000000"/>
  <rect x="0" y="945" width="1000" height="1" fill="#000000"/>
  <rect x="0" y="946" width="1000" height="1" fill="#000000"/>
  <rect x="0" y="947" width="1000" height="1" fill="#000000"/>
  <rect x="0" y="948" width="1000" height="1" fill="#000000"/>
  <rect x="0" y="949" width="1000" height="1" fill="#000000"/>
  <rect x="0" y="950" width="1000" height="1" fill="#000000"/>
  <rect x="0" y="951" width="1000" height="1" fill="#000000"/>
  <rect x="0" y="952" width="1000" height="1" fill="#000000"/>
  <rect x="0" y="953" width="1000" height="1" fill="#000000"/>
  <rect x="0" y="954" width="1000" height="1" fill="#000000"/>
  <rect x="0" y="955" width="1000" height="1" fill="#000000"/>
  <rect x="0" y="956" width="1000" height="1" fill="#000000"/>
  <rect x="0" y="957" width="1000" height="1" fill="#000000"/>
  <rect x="0" y="958" width="1000" height="1" fill="#000000"/>
  <rect x="0" y="959" width="1000" height="1" fill="#000000"/>
  <rect x="0" y="960" width="1000" height="1" fill="#000000"/>
  <rect x="0" y="961" width="1000" height="1" fill="#000000"/>
  <rect x="0" y="962" width="1000" height="1" fill="#000000"/>
  <rect x="0" y="963" width="1000" height="1" fill="#000000"/>
  <rect x="0" y="964" width="1000" height="1" fill="#000000"/>
  <rect x="0" y="965" width="1000" height="1" fill="#000000"/>
  <rect x="0" y="966" width="1000" height="1" fill="#000000"/>
  <rect x="0" y="967" width="1000" height="1" fill="#000000"/>
  <rect x="0" y="968" width="1000" height="1" fill="#000000"/>
  <rect x="0" y="969" width="1000" height="1" fill="#000000"/>
  <rect x="0" y="970" width="1000" height="1" fill="#000000"/>
  <rect x="0" y="971" width="1000" height="1" fill="#000000"/>
  <rect x="0" y="972" width="1000" height="1" fill="#000000"/>
  <rect x="0" y="973" width="1000" height="1" fill="#000000"/>
  <rect x="0" y="974" width="1000" height="1" fill="#000000"/>
  <rect x="0" y="975" width="1000" height="1" fill="#000000"/>
  <rect x="0" y="976" width="1000" height="1" fill="#000000"/>
  <rect x="0" y="977" width="1000" height="1" fill="#000000"/>
  <rect x="0" y="978" width="1000" height="1" fill="#000000"/>
  <rect x="0" y="979" width="1000" height="1" fill="#000000"/>
  <rect x="0" y="980" width="1000" height="1" fill="#000000"/>
  <rect x="0" y="981" width="1000" height="1" fill="#000000"/>
  <rect x="0" y="982" width="1000" height="1" fill="#000000"/>
  <rect x="0" y="983" width="1000" height="1" fill="#000000"/>
  <rect x="0" y="984" width="1000" height="1" fill="#000000"/>
  <rect x="0" y="985" width="1000" height="1" fill="#000000"/>
  <rect x="0" y="986" width="1000" height="1" fill="#000000"/>
  <rect x="0" y="987" width="1000" height="1" fill="#000000"/>
  <rect x="0" y="988" width="1000" height="1" fill="#000000"/>
  <rect x="0" y="989" width="1000" height="1" fill="#000000"/>
  <rect x="0" y="990" width="1000" height="1" fill="#000000"/>
  <rect x="0" y="991" width="1000" height="1" fill="#000000"/>
  <rect x="0" y="992" width="1000" height="1" fill="#000000"/>
  <rect x="0" y="993" width="1000" height="1" fill="#000000"/>
  <rect x="0" y="994" width="1000" height="1" fill="#000000"/>
  <rect x="0" y="995" width="1000" height="1" fill="#000000"/>
  <rect x="0" y="996" width="1000" height="1" fill="#000000"/>
  <rect x="0" y="997" width="1000" height="1" fill="#000000"/>
  <rect x="0" y="998" width="1000" height="1" fill="#000000"/>
  <rect x="0" y="999" width="1000" height="1" fill="#000000"/>
</svg>