<svg viewBox="0 0 1000 1000" xmlns="http://www.w3.org/2000/svg">
  <defs>
    <linearGradient id="wood" x1="0" y1="0" x2="1" y2="1">
      <stop offset="0%" stop-color="#D2B48C"/>
      <stop offset="100%" stop-color="#8B4513"/>
    </linearGradient>
    <linearGradient id="deskTop" x1="0" y1="0" x2="1" y2="1">
      <stop offset="0%" stop-color="#2E1A16"/>
      <stop offset="100%" stop-color="#1A0F0C"/>
    </linearGradient>
    <linearGradient id="metal" x1="0" y1="0" x2="1" y2="1">
      <stop offset="0%" stop-color="#333"/>
      <stop offset="100%" stop-color="#111"/>
    </linearGradient>
    <linearGradient id="white" x1="0" y1="0" x2="1" y2="1">
      <stop offset="0%" stop-color="#FFF"/>
      <stop offset="100%" stop-color="#F0F0F0"/>
    </linearGradient>
    <linearGradient id="silver" x1="0" y1="0" x2="1" y2="1">
      <stop offset="0%" stop-color="#E0E0E0"/>
      <stop offset="100%" stop-color="#C0C0C0"/>
    </linearGradient>
    <linearGradient id="brown" x1="0" y1="0" x2="1" y2="1">
      <stop offset="0%" stop-color="#8B4513"/>
      <stop offset="100%" stop-color="#654321"/>
    </linearGradient>
    <linearGradient id="beige" x1="0" y1="0" x2="1" y2="1">
      <stop offset="0%" stop-color="#F5F5DC"/>
      <stop offset="100%" stop-color="#E6D5C3"/>
    </linearGradient>
    <linearGradient id="gray" x1="0" y1="0" x2="1" y2="1">
      <stop offset="0%" stop-color="#808080"/>
      <stop offset="100%" stop-color="#696969"/>
    </linearGradient>
  </defs>

  <rect width="1000" height="1000" fill="#F5F5F5"/>

  <rect x="0" y="0" width="1000" height="1000" fill="#F5F5F5"/>
  <rect x="0" y="0" width="1000" height="800" fill="#F0E6D2"/>
  <rect x="0" y="540" width="1000" height="460" fill="url(#wood)"/>
  <rect x="0" y="680" width="700" height="320" fill="url(#gray)"/>
  <rect x="0" y="0" width="270" height="600" fill="url(#beige)"/>
  <rect x="100" y="0" width="270" height="590" fill="#D2A288"/>

  <rect x="165" y="240" width="820" height="850" fill="url(#deskTop)"/>
  <rect x="175" y="330" width="20" height="620" fill="url(#metal)"/>
  <rect x="355" y="390" width="20" height="580" fill="url(#metal)"/>
  <rect x="610" y="450" width="20" height="620" fill="url(#metal)"/>
  <rect x="775" y="380" width="20" height="550" fill="url(#metal)"/>

  <rect x="200" y="360" width="300" height="15" fill="url(#metal)"/>
  <rect x="640" y="470" width="150" height="15" fill="url(#metal)"/>
  <rect x="640" y="500" width="150" height="15" fill="url(#metal)"/>

  <rect x="335" y="100" width="420" height="280" fill="url(#metal)"/>
  <rect x="340" y="110" width="30" height="200" fill="url(#metal)"/>
  <rect x="360" y="100" width="100" height="30" fill="url(#metal)"/>
  <rect x="370" y="130" width="80" height="20" fill="url(#metal)"/>

  <rect x="410" y="205" width="620" height="360" fill="url(#silver)"/>
  <rect x="415" y="210" width="610" height="350" fill="url(#white)"/>
  <rect x="420" y="215" width="600" height="340" fill="url(#silver)"/>
  <rect x="425" y="220" width="590" height="330" fill="url(#white)"/>
  <rect x="430" y="225" width="580" height="320" fill="url(#silver)"/>
  <rect x="435" y="230" width="570" height="310" fill="url(#white)"/>
  <rect x="440" y="235" width="560" height="300" fill="url(#silver)"/>
  <rect x="445" y="240" width="550" height="290" fill="url(#white)"/>
  <rect x="450" y="245" width="540" height="280" fill="url(#silver)"/>
  <rect x="455" y="250" width="530" height="270" fill="url(#white)"/>
  <rect x="460" y="255" width="520" height="260" fill="url(#silver)"/>
  <rect x="465" y="260" width="510" height="250" fill="url(#white)"/>
  <rect x="470" y="265" width="500" height="240" fill="url(#silver)"/>
  <rect x="475" y="270" width="490" height="230" fill="url(#white)"/>
  <rect x="480" y="275" width="480" height="220" fill="url(#silver)"/>
  <rect x="485" y="280" width="470" height="210" fill="url(#white)"/>
  <rect x="490" y="285" width="460" height="200" fill="url(#silver)"/>
  <rect x="495" y="290" width="450" height="190" fill="url(#white)"/>
  <rect x="500" y="295" width="440" height="180" fill="url(#silver)"/>
  <rect x="505" y="300" width="430" height="170" fill="url(#white)"/>
  <rect x="510" y="305" width="420" height="160" fill="url(#silver)"/>
  <rect x="515" y="310" width="410" height="150" fill="url(#white)"/>
  <rect x="520" y="315" width="400" height="140" fill="url(#silver)"/>
  <rect x="525" y="320" width="390" height="130" fill="url(#white)"/>
  <rect x="530" y="325" width="380" height="120" fill="url(#silver)"/>
  <rect x="535" y="330" width="370" height="110" fill="url(#white)"/>
  <rect x="540" y="335" width="360" height="100" fill="url(#silver)"/>
  <rect x="545" y="340" width="350" height="90" fill="url(#white)"/>
  <rect x="550" y="345" width="340" height="80" fill="url(#silver)"/>
  <rect x="555" y="350" width="330" height="70" fill="url(#white)"/>
  <rect x="560" y="355" width="320" height="60" fill="url(#silver)"/>
  <rect x="565" y="360" width="310" height="50" fill="url(#white)"/>
  <rect x="570" y="365" width="300" height="40" fill="url(#silver)"/>
  <rect x="575" y="370" width="290" height="30" fill="url(#white)"/>
  <rect x="580" y="375" width="280" height="20" fill="url(#silver)"/>
  <rect x="585" y="380" width="270" height="10" fill="url(#white)"/>

  <rect x="660" y="275" width="770" height="380" fill="url(#brown)"/>
  <rect x="665" y="280" width="760" height="370" fill="url(#white)"/>
  <rect x="670" y="285" width="750" height="360" fill="url(#brown)"/>
  <rect x="675" y="290" width="740" height="350" fill="url(#white)"/>
  <rect x="680" y="295" width="730" height="340" fill="url(#brown)"/>
  <rect x="685" y="300" width="720" height="330" fill="url(#white)"/>
  <rect x="690" y="305" width="710" height="320" fill="url(#brown)"/>
  <rect x="695" y="310" width="700" height="310" fill="url(#white)"/>
  <rect x="700" y="315" width="690" height="300" fill="url(#brown)"/>
  <rect x="705" y="320" width="680" height="290" fill="url(#white)"/>
  <rect x="710" y="325" width="670" height="280" fill="url(#brown)"/>
  <rect x="715" y="330" width="660" height="270" fill="url(#white)"/>
  <rect x="720" y="335" width="650" height="260" fill="url(#brown)"/>
  <rect x="725" y="340" width="640" height="250" fill="url(#white)"/>
  <rect x="730" y="345" width="630" height="240" fill="url(#brown)"/>
  <rect x="735" y="350" width="620" height="230" fill="url(#white)"/>
  <rect x="740" y="355" width="610" height="220" fill="url(#brown)"/>
  <rect x="745" y="360" width="600" height="210" fill="url(#white)"/>
  <rect x="750" y="365" width="590" height="200" fill="url(#brown)"/>
  <rect x="755" y="370" width="580" height="190" fill="url(#white)"/>
  <rect x="760" y="375" width="570" height="180" fill="url(#brown)"/>
  <rect x="765" y="380" width="560" height="170" fill="url(#white)"/>
  <rect x="770" y="385" width="550" height="160" fill="url(#brown)"/>
  <rect x="775" y="390" width="540" height="150" fill="url(#white)"/>
  <rect x="780" y="395" width="530" height="140" fill="url(#brown)"/>
  <rect x="785" y="400" width="520" height="130" fill="url(#white)"/>
  <rect x="790" y="405" width="510" height="120" fill="url(#brown)"/>
  <rect x="795" y="410" width="500" height="110" fill="url(#white)"/>
  <rect x="800" y="415" width="490" height="100" fill="url(#brown)"/>
  <rect x="805" y="420" width="480" height="90" fill="url(#white)"/>
  <rect x="810" y="425" width="470" height="80" fill="url(#brown)"/>
  <rect x="815" y="430" width="460" height="70" fill="url(#white)"/>
  <rect x="820" y="435" width="450" height="60" fill="url(#brown)"/>
  <rect x="825" y="440" width="440" height="50" fill="url(#white)"/>
  <rect x="830" y="445" width="430" height="40" fill="url(#brown)"/>
  <rect x="835" y="450" width="420" height="30" fill="url(#white)"/>
  <rect x="840" y="455" width="410" height="20" fill="url(#brown)"/>
  <rect x="845" y="460" width="400" height="10" fill="url(#white)"/>

  <rect x="560" y="370" width="680" height="420" fill="url(#brown)"/>
  <rect x="565" y="375" width="670" height="410" fill="url(#white)"/>
  <rect x="570" y="380" width="660" height="400" fill="url(#brown)"/>
  <rect x="575" y="385" width="650" height="390" fill="url(#white)"/>
  <rect x="580" y="390" width="640" height="380" fill="url(#brown)"/>
  <rect x="585" y="395" width="630" height="370" fill="url(#white)"/>
  <rect x="590" y="400" width="620" height="360" fill="url(#brown)"/>
  <rect x="595" y="405" width="610" height="350" fill="url(#white)"/>
  <rect x="600" y="410" width="600" height="340" fill="url(#brown)"/>
  <rect x="605" y="415" width="590" height="330" fill="url(#white)"/>
  <rect x="610" y="420" width="580" height="320" fill="url(#brown)"/>
  <rect x="615" y="425" width="570" height="310" fill="url(#white)"/>
  <rect x="620" y="430" width="560" height="300" fill="url(#brown)"/>
  <rect x="625" y="435" width="550" height="290" fill="url(#white)"/>
  <rect x="630" y="440" width="540" height="280" fill="url(#brown)"/>
  <rect x="635" y="445" width="530" height="270" fill="url(#white)"/>
  <rect x="640" y="450" width="520" height="260" fill="url(#brown)"/>
  <rect x="645" y="455" width="510" height="250" fill="url(#white)"/>
  <rect x="650" y="460" width="500" height="240" fill="url(#brown)"/>
  <rect x="655" y="465" width="490" height="230" fill="url(#white)"/>
  <rect x="660" y="470" width="480" height="220" fill="url(#brown)"/>
  <rect x="665" y="475" width="470" height="210" fill="url(#white)"/>
  <rect x="670" y="480" width="460" height="200" fill="url(#brown)"/>
  <rect x="675" y="485" width="450" height="190" fill="url(#white)"/>
  <rect x="680" y="490" width="440" height="180" fill="url(#brown)"/>
  <rect x="685" y="495" width="430" height="170" fill="url(#white)"/>
  <rect x="690" y="500" width="420" height="160" fill="url(#brown)"/>
  <rect x="695" y="505" width="410" height="150" fill="url(#white)"/>
  <rect x="700" y="510" width="400" height="140" fill="url(#brown)"/>
  <rect x="705" y="515" width="390" height="130" fill="url(#white)"/>
  <rect x="710" y="520" width="380" height="120" fill="url(#brown)"/>
  <rect x="715" y="525" width="370" height="110" fill="url(#white)"/>
  <rect x="720" y="530" width="360" height="100" fill="url(#brown)"/>
  <rect x="725" y="535" width="350" height="90" fill="url(#white)"/>
  <rect x="730" y="540" width="340" height="80" fill="url(#brown)"/>
  <rect x="735" y="545" width="330" height="70" fill="url(#white)"/>
  <rect x="740" y="550" width="320" height="60" fill="url(#brown)"/>
  <rect x="745" y="555" width="310" height="50" fill="url(#white)"/>
  <rect x="750" y="560" width="300" height="40" fill="url(#brown)"/>
  <rect x="755" y="565" width="290" height="30" fill="url(#white)"/>
  <rect x="760" y="570" width="280" height="20" fill="url(#brown)"/>
  <rect x="765" y="575" width="270" height="10" fill="url(#white)"/>

  <rect x="265" y="280" width="330" height="320" fill="url(#white)"/>
  <rect x="270" y="285" width="320" height="310" fill="url(#silver)"/>
  <rect x="275" y="290" width="310" height="300" fill="url(#white)"/>
  <rect x="280" y="295" width="300" height="290" fill="url(#silver)"/>
  <rect x="285" y="300" width="290" height="280" fill="url(#white)"/>
  <rect x="290" y="305" width="280" height="270" fill="url(#silver)"/>
  <rect x="295" y="310" width="270" height="260" fill="url(#white)"/>
  <rect x="300" y="315" width="260" height="250" fill="url(#silver)"/>
  <rect x="305" y="320" width="250" height="240" fill="url(#white)"/>
  <rect x="310" y="325" width="240" height="230" fill="url(#silver)"/>
  <rect x="315" y="330" width="230" height="220" fill="url(#white)"/>
  <rect x="320" y="335" width="220" height="210" fill="url(#silver)"/>
  <rect x="325" y="340" width="210" height="200" fill="url(#white)"/>
  <rect x="330" y="345" width="200" height="190" fill="url(#silver)"/>
  <rect x="335" y="350" width="190" height="180" fill="url(#white)"/>
  <rect x="340" y="355" width="180" height="170" fill="url(#silver)"/>
  <rect x="345" y="360" width="170" height="160" fill="url(#white)"/>
  <rect x="350" y="365" width="160" height="150" fill="url(#silver)"/>
  <rect x="355" y="370" width="150" height="140" fill="url(#white)"/>
  <rect x="360" y="375" width="140" height="130" fill="url(#silver)"/>
  <rect x="365" y="380" width="130" height="120" fill="url(#white)"/>
  <rect x="370" y="385" width="120" height="110" fill="url(#silver)"/>
  <rect x="375" y="390" width="110" height="100" fill="url(#white)"/>
  <rect x="380" y="395" width="100" height="90" fill="url(#silver)"/>
  <rect x="385" y="400" width="90" height="80" fill="url(#white)"/>
  <rect x="390" y="405" width="80" height="70" fill="url(#silver)"/>
  <rect x="395" y="410" width="70" height="60" fill="url(#white)"/>
  <rect x="400" y="415" width="60" height="50" fill="url(#silver)"/>
  <rect x="405" y="420" width="50" height="40" fill="url(#white)"/>
  <rect x="410" y="425" width="40" height="30" fill="url(#silver)"/>
  <rect x="415" y="430" width="30" height="20" fill="url(#white)"/>
  <rect x="420" y="435" width="20" height="10" fill="url(#silver)"/>

  <rect x="0" y="500" width="310" height="990" fill="url(#white)"/>
  <rect x="10" y="740" width="50" height="880" fill="url(#metal)"/>
  <rect x="70" y="740" width="50" height="880" fill="url(#metal)"/>
  <rect x="130" y="740" width="50" height="880" fill="url(#metal)"/>
  <rect x="190" y="740" width="50" height="880" fill="url(#metal)"/>

  <rect x="950" y="620" width="50" height="900" fill="url(#white)"/>
  <rect x="955" y="625" width="40" height="890" fill="url(#silver)"/>
  <rect x="960" y="630" width="30" height="880" fill="url(#white)"/>
  <rect x="965" y="635" width="20" height="870" fill="url(#silver)"/>
  <rect x="970" y="640" width="10" height="860" fill="url(#white)"/>
</svg>