<svg viewBox="0 0 1000 800" xmlns="http://www.w3.org/2000/svg">
  <style>
    .state { fill: #f5f5f5; stroke: #999; stroke-width: 0.5; }
    .highlight { fill: #b8d47a; }
    .city { fill: #c8c864; r: 8; }
    .label { font-family: Arial, sans-serif; font-size: 12px; fill: #333; }
  </style>

  <!-- Map outline of USA -->
  <path class="state" d="M100,50 L150,40 L200,45 L250,35 L300,40 L350,30 L400,35 L450,25 L500,30 L550,20 L600,25 L650,15 L700,20 L750,10 L800,15 L850,5 L900,10 L950,20 L980,40 L970,60 L950,80 L930,100 L910,120 L890,140 L870,160 L850,180 L830,200 L810,220 L790,240 L770,260 L750,280 L730,300 L710,320 L690,340 L670,360 L650,380 L630,400 L610,420 L590,440 L570,460 L550,480 L530,500 L510,520 L490,540 L470,560 L450,580 L430,600 L410,620 L390,640 L370,660 L350,680 L330,700 L310,720 L290,740 L270,760 L250,780 L230,790 L210,795 L190,790 L170,780 L150,770 L130,750 L110,730 L90,710 L70,690 L50,670 L30,650 L10,630 L0,610 L10,590 L20,570 L30,550 L40,530 L50,510 L60,490 L70,470 L80,450 L90,430 L100,410 Z"/>
  
  <!-- Highlighted states -->
  <path class="highlight" d="M100,50 L150,40 L200,45 L250,35 L300,40 L350,30 L400,35 L450,25 L500,30 L550,20 L600,25 L650,15 L700,20 L750,10 L800,15 L850,5 L900,10 L950,20 L980,40 L970,60 L950,80 L930,100 L910,120 L890,140 L870,160 L850,180 L830,200 L810,220 L790,240 L770,260 L750,280 L730,300 L710,320 L690,340 L670,360 L650,380 L630,400 L610,420 L590,440 L570,460 L550,480 L530,500 L510,520 L490,540 L470,560 L450,580 L430,600 L410,620 L390,640 L370,660 L350,680 L330,700 L310,720 L290,740 L270,760 L250,780 L230,790 L210,795 L190,790 L170,780 L150,770 L130,750 L110,730 L90,710 L70,690 L50,670 L30,650 L10,630 L0,610 L10,590 L20,570 L30,550 L40,530 L50,510 L60,490 L70,470 L80,450 L90,430 L100,410 Z"/>
  
  <!-- California -->
  <path class="highlight" d="M100,50 L150,40 L200,45 L250,35 L300,40 L350,30 L400,35 L450,25 L500,30 L550,20 L600,25 L650,15 L700,20 L750,10 L800,15 L850,5 L900,10 L950,20 L980,40 L970,60 L950,80 L930,100 L910,120 L890,140 L870,160 L850,180 L830,200 L810,220 L790,240 L770,260 L750,280 L730,300 L710,320 L690,340 L670,360 L650,380 L630,400 L610,420 L590,440 L570,460 L550,480 L530,500 L510,520 L490,540 L470,560 L450,580 L430,600 L410,620 L390,640 L370,660 L350,680 L330,700 L310,720 L290,740 L270,760 L250,780 L230,790 L210,795 L190,790 L170,780 L150,770 L130,750 L110,730 L90,710 L70,690 L50,670 L30,650 L10,630 L0,610 L10,590 L20,570 L30,550 L40,530 L50,510 L60,490 L70,470 L80,450 L90,430 L100,410 Z"/>
  
  <!-- Colorado -->
  <path class="highlight" d="M100,50 L150,40 L200,45 L250,35 L300,40 L350,30 L400,35 L450,25 L500,30 L550,20 L600,25 L650,15 L700,20 L750,10 L800,15 L850,5 L900,10 L950,20 L980,40 L970,60 L950,80 L930,100 L910,120 L890,140 L870,160 L850,180 L830,200 L810,220 L790,240 L770,260 L750,280 L730,300 L710,320 L690,340 L670,360 L650,380 L630,400 L610,420 L590,440 L570,460 L550,480 L530,500 L510,520 L490,540 L470,560 L450,580 L430,600 L410,620 L390,640 L370,660 L350,680 L330,700 L310,720 L290,740 L270,760 L250,780 L230,790 L210,795 L190,790 L170,780 L150,770 L130,750 L110,730 L90,710 L70,690 L50,670 L30,650 L10,630 L0,610 L10,590 L20,570 L30,550 L40,530 L50,510 L60,490 L70,470 L80,450 L90,430 L100,410 Z"/>
  
  <!-- Minnesota -->
  <path class="highlight" d="M100,50 L150,40 L200,45 L250,35 L300,40 L350,30 L400,35 L450,25 L500,30 L550,20 L600,25 L650,15 L700,20 L750,10 L800,15 L850,5 L900,10 L950,20 L980,40 L970,60 L950,80 L930,100 L910,120 L890,140 L870,160 L850,180 L830,200 L810,220 L790,240 L770,260 L750,280 L730,300 L710,320 L690,340 L670,360 L650,380 L630,400 L610,420 L590,440 L570,460 L550,480 L530,500 L510,520 L490,540 L470,560 L450,580 L430,600 L410,620 L390,640 L370,660 L350,680 L330,700 L310,720 L290,740 L270,760 L250,780 L230,790 L210,795 L190,790 L170,780 L150,770 L130,750 L110,730 L90,710 L70,690 L50,670 L30,650 L10,630 L0,610 L10,590 L20,570 L30,550 L40,530 L50,510 L60,490 L70,470 L80,450 L90,430 L100,410 Z"/>
  
  <!-- Iowa -->
  <path class="highlight" d="M100,50 L150,40 L200,45 L250,35 L300,40 L350,30 L400,35 L450,25 L500,30 L550,20 L600,25 L650,15 L700,20 L750,10 L800,15 L850,5 L900,10 L950,20 L980,40 L970,60 L950,80 L930,100 L910,120 L890,140 L870,160 L850,180 L830,200 L810,220 L790,240 L770,260 L750,280 L730,300 L710,320 L690,340 L670,360 L650,380 L630,400 L610,420 L590,440 L570,460 L550,480 L530,500 L510,520 L490,540 L470,560 L450,580 L430,600 L410,620 L390,640 L370,660 L350,680 L330,700 L310,720 L290,740 L270,760 L250,780 L230,790 L210,795 L190,790 L170,780 L150,770 L130,750 L110,730 L90,710 L70,690 L50,670 L30,650 L10,630 L0,610 L10,590 L20,570 L30,550 L40,530 L50,510 L60,490 L70,470 L80,450 L90,430 L100,410 Z"/>
  
  <!-- Pennsylvania -->
  <path class="highlight" d="M100,50 L150,40 L200,45 L250,35 L300,40 L350,30 L400,35 L450,25 L500,30 L550,20 L600,25 L650,15 L700,20 L750,10 L800,15 L850,5 L900,10 L950,20 L980,40 L970,60 L950,80 L930,100 L910,120 L890,140 L870,160 L850,180 L830,200 L810,220 L790,240 L770,260 L750,280 L730,300 L710,320 L690,340 L670,360 L650,380 L630,400 L610,420 L590,440 L570,460 L550,480 L530,500 L510,520 L490,540 L470,560 L450,580 L430,600 L410,620 L390,640 L370,660 L350,680 L330,700 L310,720 L290,740 L270,760 L250,780 L230,790 L210,795 L190,790 L170,780 L150,770 L130,750 L110,730 L90,710 L70,690 L50,670 L30,650 L10,630 L0,610 L10,590 L20,570 L30,550 L40,530 L50,510 L60,490 L70,470 L80,450 L90,430 L100,410 Z"/>
  
  <!-- City markers -->
  <circle class="city" cx="120" cy="600" r="8"/>
  <circle class="city" cx="580" cy="280" r="8"/>
  <circle class="city" cx="700" cy="450" r="8"/>
  <circle class="city" cx="750" cy="550" r="8"/>
  
  <!-- Labels -->
  <text class="label" x="100" y="620">SAN DIEGO</text>
  <text class="label" x="560" y="260">CHICAGO</text>
  <text class="label" x="680" y="430">ATLANTA</text>
  <text class="label" x="730" y="530">ORLANDO</text>
  <text class="label" x="100" y="150">CALIFORNIA</text>
  <text class="label" x="300" y="250">COLORADO</text>
  <text class="label" x="500" y="100">MINNESOTA</text>
  <text class="label" x="500" y="200">IOWA</text>
  <text class="label" x="750" y="150">PENNSYLVANIA</text>
</svg>