<svg viewBox="0 0 1000 800" xmlns="http://www.w3.org/2000/svg">
  <defs>
    <linearGradient id="glassGradient" x1="0" y1="0" x2="1" y2="1">
      <stop offset="0%" stop-color="#FFF" stop-opacity="0.6"/>
      <stop offset="100%" stop-color="#FFF" stop-opacity="0.2"/>
    </linearGradient>
    <linearGradient id="orangeGradient" x1="0" y1="0" x2="1" y2="1">
      <stop offset="0%" stop-color="#FFA500"/>
      <stop offset="100%" stop-color="#FFD700"/>
    </linearGradient>
    <linearGradient id="limeGradient" x1="0" y1="0" x2="1" y2="1">
      <stop offset="0%" stop-color="#32CD32"/>
      <stop offset="100%" stop-color="#98FB98"/>
    </linearGradient>
    <linearGradient id="grapefruitGradient" x1="0" y1="0" x2="1" y2="1">
      <stop offset="0%" stop-color="#FF4500"/>
      <stop offset="100%" stop-color="#FF6347"/>
    </linearGradient>
    <linearGradient id="purpleDrinkGradient" x1="0" y1="0" x2="1" y2="1">
      <stop offset="0%" stop-color="#8B008B"/>
      <stop offset="100%" stop-color="#9400D3"/>
    </linearGradient>
  </defs>

  <rect width="1000" height="800" fill="#F4A460"/>

  <!-- Table tiles -->
  <rect x="0" y="0" width="200" height="150" fill="#DEB887" stroke="#8B4513" stroke-width="2"/>
  <rect x="200" y="0" width="200" height="150" fill="#DEB887" stroke="#8B4513" stroke-width="2"/>
  <rect x="400" y="0" width="200" height="150" fill="#DEB887" stroke="#8B4513" stroke-width="2"/>
  <rect x="600" y="0" width="200" height="150" fill="#DEB887" stroke="#8B4513" stroke-width="2"/>
  <rect x="800" y="0" width="200" height="150" fill="#DEB887" stroke="#8B4513" stroke-width="2"/>
  <rect x="0" y="150" width="200" height="150" fill="#DEB887" stroke="#8B4513" stroke-width="2"/>
  <rect x="200" y="150" width="200" height="150" fill="#DEB887" stroke="#8B4513" stroke-width="2"/>
  <rect x="400" y="150" width="200" height="150" fill="#DEB887" stroke="#8B4513" stroke-width="2"/>
  <rect x="600" y="150" width="200" height="150" fill="#DEB887" stroke="#8B4513" stroke-width="2"/>
  <rect x="800" y="150" width="200" height="150" fill="#DEB887" stroke="#8B4513" stroke-width="2"/>
  <rect x="0" y="300" width="200" height="150" fill="#DEB887" stroke="#8B4513" stroke-width="2"/>
  <rect x="200" y="300" width="200" height="150" fill="#DEB887" stroke="#8B4513" stroke-width="2"/>
  <rect x="400" y="300" width="200" height="150" fill="#DEB887" stroke="#8B4513" stroke-width="2"/>
  <rect x="600" y="300" width="200" height="150" fill="#DEB887" stroke="#8B4513" stroke-width="2"/>
  <rect x="800" y="300" width="200" height="150" fill="#DEB887" stroke="#8B4513" stroke-width="2"/>
  <rect x="0" y="450" width="200" height="150" fill="#DEB887" stroke="#8B4513" stroke-width="2"/>
  <rect x="200" y="450" width="200" height="150" fill="#DEB887" stroke="#8B4513" stroke-width="2"/>
  <rect x="400" y="450" width="200" height="150" fill="#DEB887" stroke="#8B4513" stroke-width="2"/>
  <rect x="600" y="450" width="200" height="150" fill="#DEB887" stroke="#8B4513" stroke-width="2"/>
  <rect x="800" y="450" width="200" height="150" fill="#DEB887" stroke="#8B4513" stroke-width="2"/>
  <rect x="0" y="600" width="200" height="200" fill="#DEB887" stroke="#8B4513" stroke-width="2"/>
  <rect x="200" y="600" width="200" height="200" fill="#DEB887" stroke="#8B4513" stroke-width="2"/>
  <rect x="400" y="600" width="200" height="200" fill="#DEB887" stroke="#8B4513" stroke-width="2"/>
  <rect x="600" y="600" width="200" height="200" fill="#DEB887" stroke="#8B4513" stroke-width="2"/>
  <rect x="800" y="600" width="200" height="200" fill="#DEB887" stroke="#8B4513" stroke-width="2"/>

  <!-- Purple drink bottle -->
  <ellipse cx="200" cy="350" rx="120" ry="30" fill="#8B008B"/>
  <rect x="80" y="250" width="240" height="100" fill="url(#purpleDrinkGradient)"/>
  <rect x="80" y="150" width="240" height="100" fill="url(#purpleDrinkGradient)"/>
  <rect x="80" y="50" width="240" height="100" fill="url(#purpleDrinkGradient)"/>
  <rect x="80" y="0" width="240" height="50" fill="#8B008B"/>

  <!-- Main cocktail glass -->
  <path d="M320 200 L380 200 L440 220 L500 220 L560 200 L620 200 L680 220 L740 220 L740 680 L680 680 L620 700 L560 700 L500 680 L440 680 L380 700 L320 700 Z" fill="url(#glassGradient)" stroke="#000" stroke-width="2"/>
  <rect x="320" y="220" width="420" height="460" fill="#FFD700"/>
  <circle cx="380" cy="300" r="20" fill="#FFF" opacity="0.7"/>
  <circle cx="440" cy="300" r="20" fill="#FFF" opacity="0.7"/>
  <circle cx="500" cy="300" r="20" fill="#FFF" opacity="0.7"/>
  <circle cx="560" cy="300" r="20" fill="#FFF" opacity="0.7"/>
  <circle cx="620" cy="300" r="20" fill="#FFF" opacity="0.7"/>
  <circle cx="380" cy="360" r="20" fill="#FFF" opacity="0.7"/>
  <circle cx="440" cy="360" r="20" fill="#FFF" opacity="0.7"/>
  <circle cx="500" cy="360" r="20" fill="#FFF" opacity="0.7"/>
  <circle cx="560" cy="360" r="20" fill="#FFF" opacity="0.7"/>
  <circle cx="620" cy="360" r="20" fill="#FFF" opacity="0.7"/>
  <circle cx="380" cy="420" r="20" fill="#FFF" opacity="0.7"/>
  <circle cx="440" cy="420" r="20" fill="#FFF" opacity="0.7"/>
  <circle cx="500" cy="420" r="20" fill="#FFF" opacity="0.7"/>
  <circle cx="560" cy="420" r="20" fill="#FFF" opacity="0.7"/>
  <circle cx="620" cy="420" r="20" fill="#FFF" opacity="0.7"/>
  <circle cx="380" cy="480" r="20" fill="#FFF" opacity="0.7"/>
  <circle cx="440" cy="480" r="20" fill="#FFF" opacity="0.7"/>
  <circle cx="500" cy="480" r="20" fill="#FFF" opacity="0.7"/>
  <circle cx="560" cy="480" r="20" fill="#FFF" opacity="0.7"/>
  <circle cx="620" cy="480" r="20" fill="#FFF" opacity="0.7"/>
  <circle cx="380" cy="540" r="20" fill="#FFF" opacity="0.7"/>
  <circle cx="440" cy="540" r="20" fill="#FFF" opacity="0.7"/>
  <circle cx="500" cy="540" r="20" fill="#FFF" opacity="0.7"/>
  <circle cx="560" cy="540" r="20" fill="#FFF" opacity="0.7"/>
  <circle cx="620" cy="540" r="20" fill="#FFF" opacity="0.7"/>
  <circle cx="380" cy="600" r="20" fill="#FFF" opacity="0.7"/>
  <circle cx="440" cy="600" r="20" fill="#FFF" opacity="0.7"/>
  <circle cx="500" cy="600" r="20" fill="#FFF" opacity="0.7"/>
  <circle cx="560" cy="600" r="20" fill="#FFF" opacity="0.7"/>
  <circle cx="620" cy="600" r="20" fill="#FFF" opacity="0.7"/>

  <!-- Garnish: lime wedge and melon balls -->
  <path d="M300 130 L350 180 L400 150 L350 100 Z" fill="url(#limeGradient)" stroke="#000" stroke-width="1"/>
  <circle cx="400" cy="180" r="30" fill="#FFD700" stroke="#000" stroke-width="1"/>
  <circle cx="480" cy="180" r="30" fill="#FFD700" stroke="#000" stroke-width="1"/>
  <circle cx="560" cy="180" r="30" fill="#FFD700" stroke="#000" stroke-width="1"/>
  <line x1="300" y1="130" x2="350" y2="180" stroke="#000" stroke-width="2"/>

  <!-- Orange halves -->
  <path d="M720 140 L820 140 L820 240 L720 240 Z" fill="url(#orangeGradient)" stroke="#000" stroke-width="2"/>
  <path d="M720 140 Q770 100 820 140 Q870 180 820 240 Q770 280 720 240 Z" fill="url(#orangeGradient)" stroke="#000" stroke-width="2"/>
  <path d="M880 200 L980 200 L980 300 L880 300 Z" fill="url(#orangeGradient)" stroke="#000" stroke-width="2"/>
  <path d="M880 200 Q930 160 980 200 Q1030 240 980 300 Q930 340 880 300 Z" fill="url(#orangeGradient)" stroke="#000" stroke-width="2"/>

  <!-- Grapefruit slices -->
  <path d="M840 480 L940 480 L940 580 L840 580 Z" fill="url(#grapefruitGradient)" stroke="#000" stroke-width="2"/>
  <path d="M840 480 Q890 440 940 480 Q990 520 940 580 Q890 620 840 580 Z" fill="url(#grapefruitGradient)" stroke="#000" stroke-width="2"/>
  <path d="M410 680 L510 680 L510 780 L410 780 Z" fill="url(#grapefruitGradient)" stroke="#000" stroke-width="2"/>
  <path d="M410 680 Q460 640 510 680 Q560 720 510 780 Q460 820 410 780 Z" fill="url(#grapefruitGradient)" stroke="#000" stroke-width="2"/>
  <path d="M560 680 L660 680 L660 780 L560 780 Z" fill="url(#grapefruitGradient)" stroke="#000" stroke-width="2"/>
  <path d="M560 680 Q610 640 660 680 Q710 720 660 780 Q610 820 560 780 Z" fill="url(#grapefruitGradient)" stroke="#000" stroke-width="2"/>

  <!-- Lime wedges -->
  <path d="M800 720 L900 720 L900 800 L800 800 Z" fill="url(#limeGradient)" stroke="#000" stroke-width="2"/>
  <path d="M800 720 Q850 680 900 720 Q950 760 900 800 Q850 840 800 800 Z" fill="url(#limeGradient)" stroke="#000" stroke-width="2"/>
  <path d="M940 720 L1000 720 L1000 800 L940 800 Z" fill="url(#limeGradient)" stroke="#000" stroke-width="2"/>
  <path d="M940 720 Q970 680 1000 720 Q1030 760 1000 800 Q970 840 940 800 Z" fill="url(#limeGradient)" stroke="#000" stroke-width="2"/>
</svg>