<svg viewBox="0 0 1000 700" xmlns="http://www.w3.org/2000/svg">
  <rect width="1000" height="700" fill="#000"/>
  <path d="M160 580c-20-10-40-30-50-50s-10-40-10-60c0-20 10-40 20-50s30-20 50-20c20 0 40 10 50 20s20 30 20 50c0 20-10 40-20 50s-30 20-50 20c-10 0-20-10-30-20" fill="#8B4513"/>
  <path d="M200 500c-10-5-20-15-25-25s-5-20-5-30c0-10 5-20 10-25s15-10 25-10c10 0 20 5 25 10s10 15 10 25c0 10-5 20-10 25s-15 10-25 10c-5 0-10-5-15-10" fill="#CD853F"/>
  <path d="M250 450c-5-5-10-10-15-10s-10 5-15 10s-5 10-5 15s5 10 15 10s10-5 15-10s5-10 5-15" fill="#FFD700"/>
  <path d="M300 400c-5-5-10-10-15-10s-10 5-15 10s-5 10-5 15s5 10 15 10s10-5 15-10s5-10 5-15" fill="#FFD700"/>
  <path d="M350 350c-5-5-10-10-15-10s-10 5-15 10s-5 10-5 15s5 10 15 10s10-5 15-10s5-10 5-15" fill="#FFD700"/>
  <path d="M400 300c-5-5-10-10-15-10s-10 5-15 10s-5 10-5 15s5 10 15 10s10-5 15-10s5-10 5-15" fill="#FFD700"/>
  <path d="M450 250c-5-5-10-10-15-10s-10 5-15 10s-5 10-5 15s5 10 15 10s10-5 15-10s5-10 5-15" fill="#FFD700"/>
  <path d="M500 200c-5-5-10-10-15-10s-10 5-15 10s-5 10-5 15s5 10 15 10s10-5 15-10s5-10 5-15" fill="#FFD700"/>
  <path d="M550 150c-5-5-10-10-15-10s-10 5-15 10s-5 10-5 15s5 10 15 10s10-5 15-10s5-10 5-15" fill="#FFD700"/>
  <path d="M600 100c-5-5-10-10-15-10s-10 5-15 10s-5 10-5 15s5 10 15 10s10-5 15-10s5-10 5-15" fill="#FFD700"/>
  <path d="M650 50c-5-5-10-10-15-10s-10 5-15 10s-5 10-5 15s5 10 15 10s10-5 15-10s5-10 5-15" fill="#FFD700"/>
  <path d="M700 0c-5-5-10-10-15-10s-10 5-15 10s-5 10-5 15s5 10 15 10s10-5 15-10s5-10 5-15" fill="#FFD700"/>
  <path d="M750 0c-5-5-10-10-15-10s-10 5-15 10s-5 10-5 15s5 10 15 10s10-5 15-10s5-10 5-15" fill="#FFD700"/>
  <path d="M800 0c-5-5-10-10-15-10s-10 5-15 10s-5 10-5 15s5 10 15 10s10-5 15-10s5-10 5-15" fill="#FFD700"/>
  <path d="M850 0c-5-5-10-10-15-10s-10 5-15 10s-5 10-5 15s5 10 15 10s10-5 15-10s5-10 5-15" fill="#FFD700"/>
  <path d="M900 0c-5-5-10-10-15-10s-10 5-15 10s-5 10-5 15s5 10 15 10s10-5 15-10s5-10 5-15" fill="#FFD700"/>
  <path d="M950 0c-5-5-10-10-15-10s-10 5-15 10s-5 10-5 15s5 10 15 10s10-5 15-10s5-10 5-15" fill="#FFD700"/>
  <path d="M1000 0c-5-5-10-10-15-10s-10 5-15 10s-5 10-5 15s5 10 15 10s10-5 15-10s5-10 5-15" fill="#FFD700"/>
</svg>