<svg viewBox="0 0 1000 700" xmlns="http://www.w3.org/2000/svg">
  <rect width="1000" height="700" fill="#8B0000"/>
  <path d="M0 350 Q500 300 1000 350" stroke="#FFD700" stroke-width="10" fill="none"/>
  <path d="M0 370 Q500 320 1000 370" stroke="#FFD700" stroke-width="10" fill="none"/>
  <g transform="translate(400,150)">
    <rect x="-30" y="-60" width="60" height="120" fill="#4682B4"/>
    <rect x="-20" y="20" width="40" height="30" fill="#000000"/>
    <circle cx="0" cy="-40" r="15" fill="#FFFFFF"/>
    <path d="M-15 -25 Q0 -35 15 -25" stroke="#000000" stroke-width="2" fill="none"/>
    <path d="M-10 -30 Q0 -35 10 -30" stroke="#000000" stroke-width="2" fill="none"/>
    <path d="M-15 -10 Q0 -5 15 -10" stroke="#000000" stroke-width="2" fill="none"/>
    <rect x="-15" y="50" width="10" height="30" fill="#8B4513"/>
    <rect x="5" y="50" width="10" height="30" fill="#8B4513"/>
    <rect x="-15" y="80" width="10" height="10" fill="#000000"/>
    <rect x="5" y="80" width="10" height="10" fill="#000000"/>
    <path d="M-15 50 Q-10 55 0 50 Q10 45 15 50" stroke="#000000" stroke-width="2" fill="none"/>
    <path d="M-15 80 Q-10 85 0 80 Q10 75 15 80" stroke="#000000" stroke-width="2" fill="none"/>
  </g>
  <g transform="translate(200,0)">
    <rect x="0" y="0" width="200" height="350" fill="#228B22"/>
    <rect x="50" y="50" width="100" height="200" fill="#32CD32"/>
    <rect x="80" y="80" width="40" height="140" fill="#2E8B57"/>
    <rect x="100" y="100" width="20" height="100" fill="#006400"/>
    <rect x="120" y="120" width="10" height="60" fill="#228B22"/>
    <rect x="130" y="130" width="5" height="40" fill="#32CD32"/>
    <rect x="135" y="140" width="3" height="20" fill="#2E8B57"/>
  </g>
  <g transform="translate(800,0)">
    <rect x="0" y="0" width="200" height="350" fill="#228B22"/>
    <rect x="50" y="50" width="100" height="200" fill="#32CD32"/>
    <rect x="80" y="80" width="40" height="140" fill="#2E8B57"/>
    <rect x="100" y="100" width="20" height="100" fill="#006400"/>
    <rect x="120" y="120" width="10" height="60" fill="#228B22"/>
    <rect x="130" y="130" width="5" height="40" fill="#32CD32"/>
    <rect x="135" y="140" width="3" height="20" fill="#2E8B57"/>
  </g>
</svg>