<svg viewBox="0 0 1000 1000" xmlns="http://www.w3.org/2000/svg">
  <defs>
    <linearGradient id="grad1" x1="0" y1="0" x2="1" y2="1">
      <stop offset="0%" stop-color="#e6e6fa"/>
      <stop offset="100%" stop-color="#d8bfd8"/>
    </linearGradient>
    <linearGradient id="grad2" x1="0" y1="0" x2="1" y2="1">
      <stop offset="0%" stop-color="#c9a0dc"/>
      <stop offset="100%" stop-color="#e6e6fa"/>
    </linearGradient>
    <linearGradient id="grad3" x1="0" y1="0" x2="1" y2="1">
      <stop offset="0%" stop-color="#e6e6fa"/>
      <stop offset="100%" stop-color="#c9a0dc"/>
    </linearGradient>
    <linearGradient id="grad4" x1="0" y1="0" x2="1" y2="1">
      <stop offset="0%" stop-color="#c9a0dc"/>
      <stop offset="100%" stop-color="#e6e6fa"/>
    </linearGradient>
  </defs>
  <rect width="1000" height="1000" fill="url(#grad1)"/>
  <path d="M0,0 Q500,1000 1000,0 T0,0" fill="url(#grad1)" opacity="0.3"/>
  <path d="M0,1000 Q500,0 1000,1000 T0,1000" fill="url(#grad1)" opacity="0.3"/>
  <path d="M100,100 Q400,400 700,100 T100,100" fill="url(#grad1)" opacity="0.5"/>
  <path d="M300,300 Q600,600 900,300 T300,300" fill="url(#grad1)" opacity="0.5"/>
  <path d="M200,800 Q500,500 800,800 T200,800" fill="url(#grad1)" opacity="0.5"/>
  <path d="M100,500 Q500,900 900,500 T100,500" fill="url(#grad1)" opacity="0.5"/>
  
  <!-- Shampoo Tube -->
  <g transform="rotate(-30 200 700)">
    <rect x="100" y="600" rx="20" ry="20" width="150" height="300" fill="url(#grad2)"/>
    <text x="175" y="650" font-family="Arial" font-size="20" fill="#333" text-anchor="middle">CHARLES WORTHINGTON LONDON</text>
    <text x="175" y="700" font-family="Arial" font-size="30" fill="#ff69b4" text-anchor="middle">THICKER &amp; FULLER</text>
    <text x="175" y="750" font-family="Arial" font-size="15" fill="#333" text-anchor="middle">DENSIFYING SHAMPOO</text>
    <text x="175" y="770" font-family="Arial" font-size="10" fill="#333" text-anchor="middle">HAIR FEELS THICKER IN JUST ONE WEEK WHILST REDUCING BREAKAGE BY 90%*</text>
    <text x="175" y="800" font-family="Arial" font-size="12" fill="#333" text-anchor="middle">FOR FINE &amp; THIN HAIR</text>
    <text x="175" y="850" font-family="Arial" font-size="10" fill="#333" text-anchor="middle">250ml e 8.45 fl oz</text>
    <rect x="120" y="870" rx="10" ry="10" width="110" height="30" fill="#000"/>
  </g>
  
  <!-- Conditioner Tube -->
  <g transform="rotate(15 500 400)">
    <rect x="400" y="300" rx="20" ry="20" width="150" height="300" fill="url(#grad3)"/>
    <text x="475" y="350" font-family="Arial" font-size="20" fill="#333" text-anchor="middle">CHARLES WORTHINGTON LONDON</text>
    <text x="475" y="400" font-family="Arial" font-size="30" fill="#ff69b4" text-anchor="middle">THICKER &amp; FULLER</text>
    <text x="475" y="450" font-family="Arial" font-size="15" fill="#333" text-anchor="middle">DENSIFYING CONDITIONER</text>
    <text x="475" y="470" font-family="Arial" font-size="10" fill="#333" text-anchor="middle">HAIR FEELS THICKER IN JUST ONE WEEK WHILST REDUCING BREAKAGE BY UP TO 90%*</text>
    <text x="475" y="500" font-family="Arial" font-size="12" fill="#333" text-anchor="middle">FOR FINE &amp; THIN HAIR</text>
    <rect x="420" y="570" rx="10" ry="10" width="110" height="30" fill="#000"/>
  </g>
  
  <!-- Mousse Bottle -->
  <g transform="rotate(10 800 500)">
    <rect x="700" y="400" rx="20" ry="20" width="120" height="250" fill="url(#grad4)"/>
    <text x="760" y="450" font-family="Arial" font-size="20" fill="#333" text-anchor="middle">CHARLES WORTHINGTON LONDON</text>
    <text x="760" y="500" font-family="Arial" font-size="30" fill="#ff69b4" text-anchor="middle">THICKER &amp; FULLER</text>
    <text x="760" y="550" font-family="Arial" font-size="15" fill="#333" text-anchor="middle">DENSIFYING MOUSSE</text>
    <text x="760" y="570" font-family="Arial" font-size="10" fill="#333" text-anchor="middle">INCREASE HAIR DENSITY BY UP TO 80% WITH THERMAL PROTECTION</text>
    <rect x="730" y="620" rx="10" ry="10" width="60" height="30" fill="#000"/>
  </g>
  
  <!-- Logos -->
  <circle cx="175" cy="630" r="20" fill="none" stroke="#ffd700" stroke-width="2"/>
  <path d="M165,620 Q175,630 185,620" stroke="#ffd700" stroke-width="2" fill="none"/>
  <path d="M165,640 Q175,630 185,640" stroke="#ffd700" stroke-width="2" fill="none"/>
  
  <circle cx="475" cy="330" r="20" fill="none" stroke="#ffd700" stroke-width="2"/>
  <path d="M465,320 Q475,330 485,320" stroke="#ffd700" stroke-width="2" fill="none"/>
  <path d="M465,340 Q475,330 485,340" stroke="#ffd700" stroke-width="2" fill="none"/>
  
  <circle cx="760" cy="430" r="20" fill="none" stroke="#ffd700" stroke-width="2"/>
  <path d="M750,420 Q760,430 770,420" stroke="#ffd700" stroke-width="2" fill="none"/>
  <path d="M750,440 Q760,430 770,440" stroke="#ffd700" stroke-width="2" fill="none"/>
</svg>