<svg viewBox="0 0 1000 1000" xmlns="http://www.w3.org/2000/svg">
  <rect x="0" y="0" width="1000" height="1000" fill="#8B4513"/>
  <rect x="0" y="0" width="1000" height="500" fill="#DEB887"/>
  <rect x="0" y="500" width="1000" height="500" fill="#228B22"/>
  <rect x="0" y="0" width="1000" height="50" fill="#DEB887"/>
  <rect x="0" y="50" width="1000" height="50" fill="#DEB887"/>
  <rect x="0" y="100" width="1000" height="50" fill="#DEB887"/>
  <rect x="0" y="150" width="1000" height="50" fill="#DEB887"/>
  <rect x="0" y="200" width="1000" height="50" fill="#DEB887"/>
  <rect x="0" y="250" width="1000" height="50" fill="#DEB887"/>
  <rect x="0" y="300" width="1000" height="50" fill="#DEB887"/>
  <rect x="0" y="350" width="1000" height="50" fill="#DEB887"/>
  <rect x="0" y="400" width="1000" height="50" fill="#DEB887"/>
  <rect x="0" y="450" width="1000" height="50" fill="#DEB887"/>
  <rect x="0" y="500" width="1000" height="50" fill="#DEB887"/>
  <rect x="0" y="550" width="1000" height="50" fill="#DEB887"/>
  <rect x="0" y="600" width="1000" height="50" fill="#DEB887"/>
  <rect x="0" y="650" width="1000" height="50" fill="#DEB887"/>
  <rect x="0" y="700" width="1000" height="50" fill="#DEB887"/>
  <rect x="0" y="750" width="1000" height="50" fill="#DEB887"/>
  <rect x="0" y="800" width="1000" height="50" fill="#DEB887"/>
  <rect x="0" y="850" width="1000" height="50" fill="#DEB887"/>
  <rect x="0" y="900" width="1000" height="50" fill="#DEB887"/>
  <rect x="0" y="950" width="1000" height="50" fill="#DEB887"/>
  <rect x="0" y="0" width="50" height="500" fill="#DEB887"/>
  <rect x="50" y="0" width="50" height="500" fill="#DEB887"/>
  <rect x="100" y="0" width="50" height="500" fill="#DEB887"/>
  <rect x="150" y="0" width="50" height="500" fill="#DEB887"/>
  <rect x="200" y="0" width="50" height="500" fill="#DEB887"/>
  <rect x="250" y="0" width="50" height="500" fill="#DEB887"/>
  <rect x="300" y="0" width="50" height="500" fill="#DEB887"/>
  <rect x="350" y="0" width="50" height="500" fill="#DEB887"/>
  <rect x="400" y="0" width="50" height="500" fill="#DEB887"/>
  <rect x="450" y="0" width="50" height="500" fill="#DEB887"/>
  <rect x="500" y="0" width="50" height="500" fill="#DEB887"/>
  <rect x="550" y="0" width="50" height="500" fill="#DEB887"/>
  <rect x="600" y="0" width="50" height="500" fill="#DEB887"/>
  <rect x="650" y="0" width="50" height="500" fill="#DEB887"/>
  <rect x="700" y="0" width="50" height="500" fill="#DEB887"/>
  <rect x="750" y="0" width="50" height="500" fill="#DEB887"/>
  <rect x="800" y="0" width="50" height="500" fill="#DEB887"/>
  <rect x="850" y="0" width="50" height="500" fill="#DEB887"/>
  <rect x="900" y="0" width="50" height="500" fill="#DEB887"/>
  <rect x="950" y="0" width="50" height="500" fill="#DEB887"/>
  <rect x="1000" y="0" width="50" height="500" fill="#DEB887"/>
  <rect x="500" y="100" width="300" height="700" fill="#8B4513"/>
  <rect x="500" y="100" width="300" height="50" fill="#DEB887"/>
  <rect x="500" y="150" width="300" height="50" fill="#DEB887"/>
  <rect x="500" y="200" width="300" height="50" fill="#DEB887"/>
  <rect x="500" y="250" width="300" height="50" fill="#DEB887"/>
  <rect x="500" y="300" width="300" height="50" fill="#DEB887"/>
  <rect x="500" y="350" width="300" height="50" fill="#DEB887"/>
  <rect x="500" y="400" width="300" height="50" fill="#DEB887"/>
  <rect x="500" y="450" width="300" height="50" fill="#DEB887"/>
  <rect x="500" y="500" width="300" height="50" fill="#DEB887"/>
  <rect x="500" y="550" width="300" height="50" fill="#DEB887"/>
  <rect x="500" y="600" width="300" height="50" fill="#DEB887"/>
  <rect x="500" y="650" width="300" height="50" fill="#DEB887"/>
  <rect x="500" y="700" width="300" height="50" fill="#DEB887"/>
  <rect x="500" y="750" width="300" height="50" fill="#DEB887"/>
  <rect x="500" y="800" width="300" height="50" fill="#DEB887"/>
  <rect x="500" y="850" width="300" height="50" fill="#DEB887"/>
  <rect x="500" y="900" width="300" height="50" fill="#DEB887"/>
  <rect x="500" y="950" width="300" height="50" fill="#DEB887"/>
  <rect x="500" y="100" width="50" height="700" fill="#DEB887"/>
  <rect x="550" y="100" width="50" height="700" fill="#DEB887"/>
  <rect x="600" y="100" width="50" height="700" fill="#DEB887"/>
  <rect x="650" y="100" width="50" height="700" fill="#DEB887"/>
  <rect x="700" y="100" width="50" height="700" fill="#DEB887"/>
  <rect x="750" y="100" width="50" height="700" fill="#DEB887"/>
  <rect x="800" y="100" width="50" height="700" fill="#DEB887"/>
  <rect x="850" y="100" width="50" height="700" fill="#DEB887"/>
  <rect x="900" y="100" width="50" height="700" fill="#DEB887"/>
  <rect x="950" y="100" width="50" height="700" fill="#DEB887"/>
  <rect x="1000" y="100" width="50" height="700" fill="#DEB887"/>
  <rect x="500" y="100" width="300" height="50" fill="#DEB887"/>
  <rect x="500" y="150" width="300" height="50" fill="#DEB887"/>
  <rect x="500" y="200" width="300" height="50" fill="#DEB887"/>
  <rect x="500" y="250" width="300" height="50" fill="#DEB887"/>
  <rect x="500" y="300" width="300" height="50" fill="#DEB887"/>
  <rect x="500" y="350" width="300" height="50" fill="#DEB887"/>
  <rect x="500" y="400" width="300" height="50" fill="#DEB887"/>
  <rect x="500" y="450" width="300" height="50" fill="#DEB887"/>
  <rect x="500" y="500" width="300" height="50" fill="#DEB887"/>
  <rect x="500" y="550" width="300" height="50" fill="#DEB887"/>
  <rect x="500" y="600" width="300" height="50" fill="#DEB887"/>
  <rect x="500" y="650" width="300" height="50" fill="#DEB887"/>
  <rect x="500" y="700" width="300" height="50" fill="#DEB887"/>
  <rect x="500" y="750" width="300" height="50" fill="#DEB887"/>
  <rect x="500" y="800" width="300" height="50" fill="#DEB887"/>
  <rect x="500" y="850" width="300" height="50" fill="#DEB887"/>
  <rect x="500" y="900" width="300" height="50" fill="#DEB887"/>
  <rect x="500" y="950" width="300" height="50" fill="#DEB887"/>
  <rect x="500" y="100" width="50" height="700" fill="#DEB887"/>
  <rect x="550" y="100" width="50" height="700" fill="#DEB887"/>
  <rect x="600" y="100" width="50" height="700" fill="#DEB887"/>
  <rect x="650" y="100" width="50" height="700" fill="#DEB887"/>
  <rect x="700" y="100" width="50" height="700" fill="#DEB887"/>
  <rect x="750" y="100" width="50" height="700" fill="#DEB887"/>
  <rect x="800" y="100" width="50" height="700" fill="#DEB887"/>
  <rect x="850" y="100" width="50" height="700" fill="#DEB887"/>
  <rect x="900" y="100" width="50" height="700" fill="#DEB887"/>
  <rect x="950" y="100" width="50" height="700" fill="#DEB887"/>
  <rect x="1000" y="100" width="50" height="700" fill="#DEB887"/>
</svg>