<svg viewBox="0 0 1000 1000" xmlns="http://www.w3.org/2000/svg">
  <rect width="1000" height="1000" fill="#f0f0f0"/>
  <rect x="0" y="150" width="1000" height="850" fill="#fff"/>
  <rect x="760" y="280" width="240" height="120" fill="#a0a0a0"/>
  <rect x="690" y="315" width="70" height="100" fill="#2080e0"/>
  <rect x="770" y="345" width="150" height="30" fill="#d0d0d0"/>
  <rect x="80" y="335" width="120" height="380" fill="#808080"/>
  <rect x="0" y="0" width="300" height="380" fill="#606060"/>
  <rect x="150" y="100" width="850" height="250" fill="#404040"/>
  <rect x="100" y="380" width="150" height="450" fill="#4080c0"/>
  <rect x="200" y="550" width="300" height="300" fill="#202020"/>
  <rect x="340" y="530" width="450" height="320" fill="#e0e0e0"/>
  <rect x="520" y="560" width="300" height="300" fill="#e0e0e0"/>
  <rect x="720" y="410" width="150" height="350" fill="#b04040"/>
  <rect x="790" y="360" width="200" height="400" fill="#606060"/>
  <rect x="650" y="370" width="150" height="350" fill="#406080"/>
  <rect x="210" y="390" width="150" height="300" fill="#e0e0e0"/>
  <rect x="280" y="360" width="150" height="300" fill="#e0e0e0"/>
  <rect x="360" y="390" width="150" height="300" fill="#e0e0e0"/>
  <rect x="420" y="360" width="150" height="300" fill="#e0e0e0"/>
  <rect x="490" y="390" width="150" height="300" fill="#e0e0e0"/>
  <rect x="550" y="390" width="150" height="300" fill="#e0e0e0"/>
  <rect x="600" y="390" width="150" height="300" fill="#e0e0e0"/>
  <rect x="420" y="470" width="580" height="200" fill="#00a000"/>
  <text x="500" y="550" font-family="Arial" font-size="20" fill="#fff">SPARTAN</text>
  <text x="500" y="580" font-family="Arial" font-size="24" fill="#fff">SKI</text>
  <text x="500" y="610" font-family="Arial" font-size="16" fill="#fff">CLUB</text>
  <circle cx="500" cy="570" r="40" fill="#fff"/>
  <path d="M500,530 L520,550 L540,530 L560,550 L580,530 L560,510 L580,490 L560,470 L540,490 L520,470 L500,490 L480,470 L460,490 L440,470 L420,490 L440,510 L420,530 L440,550 L460,530 Z" fill="#fff"/>
  <rect x="10" y="760" width="120" height="20" fill="#404040"/>
  <rect x="800" y="520" width="150" height="20" fill="#404040"/>
  <rect x="120" y="830" width="40" height="40" fill="#404040"/>
  <rect x="860" y="830" width="40" height="40" fill="#404040"/>
  <rect x="420" y="790" width="40" height="40" fill="#404040"/>
  <rect x="600" y="780" width="40" height="40" fill="#404040"/>
  <rect x="730" y="780" width="40" height="40" fill="#404040"/>
  <rect x="670" y="750" width="40" height="40" fill="#404040"/>
  <rect x="500" y="730" width="40" height="40" fill="#404040"/>
  <rect x="470" y="710" width="40" height="40" fill="#404040"/>
  <rect x="170" y="800" width="40" height="40" fill="#404040"/>
  <rect x="310" y="860" width="40" height="40" fill="#404040"/>
  <rect x="220" y="860" width="40" height="40" fill="#404040"/>
  <rect x="800" y="770" width="40" height="40" fill="#404040"/>
  <rect x="770" y="770" width="40" height="40" fill="#404040"/>
  <rect x="710" y="770" width="40" height="40" fill="#404040"/>
  <rect x="680" y="760" width="40" height="40" fill="#404040"/>
  <rect x="540" y="720" width="40" height="40" fill="#404040"/>
  <rect x="520" y="710" width="40" height="40" fill="#404040"/>
  <rect x="480" y="700" width="40" height="40" fill="#404040"/>
  <rect x="450" y="690" width="40" height="40" fill="#404040"/>
  <rect x="350" y="770" width="40" height="40" fill="#404040"/>
  <rect x="320" y="750" width="40" height="40" fill="#404040"/>
  <rect x="290" y="730" width="40" height="40" fill="#404040"/>
  <rect x="260" y="710" width="40" height="40" fill="#404040"/>
  <rect x="230" y="690" width="40" height="40" fill="#404040"/>
  <rect x="200" y="670" width="40" height="40" fill="#404040"/>
  <rect x="170" y="650" width="40" height="40" fill="#404040"/>
  <rect x="140" y="630" width="40" height="40" fill="#404040"/>
  <rect x="110" y="610" width="40" height="40" fill="#404040"/>
  <rect x="80" y="590" width="40" height="40" fill="#404040"/>
  <rect x="50" y="570" width="40" height="40" fill="#404040"/>
  <rect x="20" y="550" width="40" height="40" fill="#404040"/>
  <rect x="0" y="530" width="40" height="40" fill="#404040"/>
  <rect x="0" y="510" width="40" height="40" fill="#404040"/>
  <rect x="0" y="490" width="40" height="40" fill="#404040"/>
  <rect x="0" y="470" width="40" height="40" fill="#404040"/>
  <rect x="0" y="450" width="40" height="40" fill="#404040"/>
  <rect x="0" y="430" width="40" height="40" fill="#404040"/>
  <rect x="0" y="410" width="40" height="40" fill="#404040"/>
  <rect x="0" y="390" width="40" height="40" fill="#404040"/>
  <rect x="0" y="370" width="40" height="40" fill="#404040"/>
  <rect x="0" y="350" width="40" height="40" fill="#404040"/>
  <rect x="0" y="330" width="40" height="40" fill="#404040"/>
  <rect x="0" y="310" width="40" height="40" fill="#404040"/>
  <rect x="0" y="290" width="40" height="40" fill="#404040"/>
  <rect x="0" y="270" width="40" height="40" fill="#404040"/>
  <rect x="0" y="250" width="40" height="40" fill="#404040"/>
  <rect x="0" y="230" width="40" height="40" fill="#404040"/>
  <rect x="0" y="210" width="40" height="40" fill="#404040"/>
  <rect x="0" y="190" width="40" height="40" fill="#404040"/>
  <rect x="0" y="170" width="40" height="40" fill="#404040"/>
  <rect x="0" y="150" width="40" height="40" fill="#404040"/>
  <rect x="0" y="130" width="40" height="40" fill="#404040"/>
  <rect x="0" y="110" width="40" height="40" fill="#404040"/>
  <rect x="0" y="90" width="40" height="40" fill="#404040"/>
  <rect x="0" y="70" width="40" height="40" fill="#404040"/>
  <rect x="0" y="50" width="40" height="40" fill="#404040"/>
  <rect x="0" y="30" width="40" height="40" fill="#404040"/>
  <rect x="0" y="10" width="40" height="40" fill="#404040"/>
  <rect x="0" y="0" width="40" height="40" fill="#404040"/>
</svg>