<svg viewBox="220 0 780 999" xmlns="http://www.w3.org/2000/svg">
  <rect width="100%" height="100%" fill="#fff"/>
  <rect x="220" y="0" width="560" height="999" fill="#333"/>
  <rect x="220" y="0" width="560" height="999" fill="#444"/>
  <rect x="220" y="0" width="560" height="999" fill="#555"/>
  <rect x="220" y="0" width="560" height="999" fill="#666"/>
  <rect x="220" y="0" width="560" height="999" fill="#777"/>
  <rect x="220" y="0" width="560" height="999" fill="#888"/>
  <rect x="220" y="0" width="560" height="999" fill="#999"/>
  <rect x="220" y="0" width="560" height="999" fill="#aaa"/>
  <rect x="220" y="0" width="560" height="999" fill="#bbb"/>
  <rect x="220" y="0" width="560" height="999" fill="#ccc"/>
  <rect x="220" y="0" width="560" height="999" fill="#ddd"/>
  <rect x="220" y="0" width="560" height="999" fill="#eee"/>
  <rect x="220" y="0" width="560" height="999" fill="#fff"/>
  <rect x="220" y="0" width="560" height="999" fill="#f0f0f0"/>
  <rect x="220" y="0" width="560" height="999" fill="#e0e0e0"/>
  <rect x="220" y="0" width="560" height="999" fill="#d0d0d0"/>
  <rect x="220" y="0" width="560" height="999" fill="#c0c0c0"/>
  <rect x="220" y="0" width="560" height="999" fill="#b0b0b0"/>
  <rect x="220" y="0" width="560" height="999" fill="#a0a0a0"/>
  <rect x="220" y="0" width="560" height="999" fill="#909090"/>
  <rect x="220" y="0" width="560" height="999" fill="#808080"/>
  <rect x="220" y="0" width="560" height="999" fill="#707070"/>
  <rect x="220" y="0" width="560" height="999" fill="#606060"/>
  <rect x="220" y="0" width="560" height="999" fill="#505050"/>
  <rect x="220" y="0" width="560" height="999" fill="#404040"/>
  <rect x="220" y="0" width="560" height="999" fill="#303030"/>
  <rect x="220" y="0" width="560" height="999" fill="#202020"/>
  <rect x="220" y="0" width="560" height="999" fill="#101010"/>
  <rect x="220" y="0" width="560" height="999" fill="#000"/>
</svg>