<svg viewBox="0 0 800 1000" xmlns="http://www.w3.org/2000/svg">
  <rect width="100%" height="100%" fill="#fff"/>
  <g transform="translate(200,0)">
    <rect x="0" y="0" width="400" height="1000" fill="#5a5a5a"/>
    <path d="M200 80 C180 120 160 160 140 200 C120 240 100 280 80 320 C60 360 40 400 20 440 C0 480 -20 520 -40 560 C-60 600 -80 640 -100 680 C-120 720 -140 760 -160 800 C-180 840 -200 880 -220 920 C-240 960 -260 1000 -280 1040 C-300 1080 -320 1120 -340 1160 C-360 1200 -380 1240 -400 1280" fill="none" stroke="#333" stroke-width="2"/>
    <path d="M200 80 C220 120 240 160 260 200 C280 240 300 280 320 320 C340 360 360 400 380 440 C400 480 420 520 440 560 C460 600 480 640 500 680 C520 720 540 760 560 800 C580 840 600 880 620 920 C640 960 660 1000 680 1040 C700 1080 720 1120 740 1160 C760 1200 780 1240 800 1280" fill="none" stroke="#333" stroke-width="2"/>
    <path d="M200 80 C220 100 240 120 260 140 C280 160 300 180 320 200 C340 220 360 240 380 260 C400 280 420 300 440 320 C460 340 480 360 500 380 C520 400 540 420 560 440 C580 460 600 480 620 500 C640 520 660 540 680 560 C700 580 720 600 740 620 C760 640 780 660 800 680" fill="none" stroke="#333" stroke-width="2"/>
    <path d="M200 80 C180 100 160 120 140 140 C120 160 100 180 80 200 C60 220 40 240 20 260 C0 280 -20 300 -40 320 C-60 340 -80 360 -100 380 C-120 400 -140 420 -160 440 C-180 460 -200 480 -220 500 C-240 520 -260 540 -280 560 C-300 580 -320 600 -340 620 C-360 640 -380 660 -400 680" fill="none" stroke="#333" stroke-width="2"/>
    <path d="M200 80 C210 100 220 120 230 140 C240 160 250 180 260 200 C270 220 280 240 290 260 C300 280 310 300 320 320 C330 340 340 360 350 380 C360 400 370 420 380 440 C390 460 400 480 410 500 C420 520 430 540 440 560 C450 580 460 600 470 620 C480 640 490 660 500 680" fill="none" stroke="#333" stroke-width="2"/>
    <path d="M200 80 C190 100 180 120 170 140 C160 160 150 180 140 200 C130 220 120 240 110 260 C100 280 90 300 80 320 C70 340 60 360 50 380 C40 400 30 420 20 440 C10 460 0 480 -10 500 C-20 520 -30 540 -40 560 C-50 580 -60 600 -70 620 C-80 640 -90 660 -100 680" fill="none" stroke="#333" stroke-width="2"/>
    <path d="M200 80 C205 100 210 120 215 140 C220 160 225 180 230 200 C235 220 240 240 245 260 C250 280 255 300 260 320 C265 340 270 360 275 380 C280 400 285 420 290 440 C295 460 300 480 305 500 C310 520 315 540 320 560 C325 580 330 600 335 620 C340 640 345 660 350 680" fill="none" stroke="#333" stroke-width="2"/>
    <path d="M200 80 C195 100 190 120 185 140 C180 160 175 180 170 200 C165 220 160 240 155 260 C150 280 145 300 140 320 C135 340 130 360 125 380 C120 400 115 420 110 440 C105 460 100 480 95 500 C90 520 85 540 80 560 C75 580 70 600 65 620 C60 640 55 660 50 680" fill="none" stroke="#333" stroke-width="2"/>
    <path d="M200 80 C202.5 100 205 120 207.5 140 C210 160 212.5 180 215 200 C217.5 220 220 240 222.5 260 C225 280 227.5 300 230 320 C232.5 340 235 360 237.5 380 C240 400 242.5 420 245 440 C247.5 460 250 480 252.5 500 C255 520 257.5 540 260 560 C262.5 580 265 600 267.5 620 C270 640 272.5 660 275 680" fill="none" stroke="#333" stroke-width="2"/>
    <path d="M200 80 C197.5 100 195 120 192.5 140 C190 160 187.5 180 185 200 C182.5 220 180 240 177.5 260 C175 280 172.5 300 170 320 C167.5 340 165 360 162.5 380 C160 400 157.5 420 155 440 C152.5 460 150 480 147.5 500 C145 520 142.5 540 140 560 C137.5 580 135 600 132.5 620 C130 640 127.5 660 125 680" fill="none" stroke="#333" stroke-width="2"/>
    <path d="M200 80 C201.25 100 202.5 120 203.75 140 C205 160 206.25 180 207.5 200 C208.75 220 210 240 211.25 260 C212.5 280 213.75 300 215 320 C216.25 340 217.5 360 218.75 380 C220 400 221.25 420 222.5 440 C223.75 460 225 480 226.25 500 C227.5 520 228.75 540 230 560 C231.25 580 232.5 600 233.75 620 C235 640 236.25 660 237.5 680" fill="none" stroke="#333" stroke-width="2"/>
    <path d="M200 80 C198.75 100 197.5 120 196.25 140 C195 160 193.75 180 192.5 200 C191.25 220 190 240 188.75 260 C187.5 280 186.25 300 185 320 C183.75 340 182.5 360 181.25 380 C180 400 178.75 420 177.5 440 C176.25 460 175 480 173.75 500 C172.5 520 171.25 540 170 560 C168.75 580 167.5 600 166.25 620 C165 640 163.75 660 162.5 680" fill="none" stroke="#333" stroke-width="2"/>
    <path d="M200 80 C200.625 100 201.25 120 201.875 140 C202.5 160 203.125 180 203.75 200 C204.375 220 205 240 205.625 260 C206.25 280 206.875 300 207.5 320 C208.125 340 208.75 360 209.375 380 C210 400 210.625 420 211.25 440 C211.875 460 212.5 480 213.125 500 C213.75 520 214.375 540 215 560 C215.625 580 216.25 600 216.875 620 C217.5 640 218.125 660 218.75 680" fill="none" stroke="#333" stroke-width="2"/>
    <path d="M200 80 C199.375 100 198.75 120 198.125 140 C197.5 160 196.875 180 196.25 200 C195.625 220 195 240 194.375 260 C193.75 280 193.125 300 192.5 320 C191.875 340 191.25 360 190.625 380 C190 400 189.375 420 188.75 440 C188.125 460 187.5 480 186.875 500 C186.25 520 185.625 540 185 560 C184.375 580 183.75 600 183.125 620 C182.5 640 181.875 660 181.25 680" fill="none" stroke="#333" stroke-width="2"/>
  </g>
</svg>