<svg viewBox="0 0 1000 1000" xmlns="http://www.w3.org/2000/svg">
  <rect width="1000" height="1000" fill="#2d2d2d"/>
  <rect x="10" y="100" width="970" height="750" rx="30" fill="#4a8f9e" stroke="#ffffff" stroke-width="2"/>
  <rect x="20" y="120" width="950" height="720" rx="20" fill="#ffffff"/>
  <polygon points="50,300 900,350 850,600 100,550" fill="#ffeb3b" opacity="0.8"/>
  <polygon points="150,400 800,450 750,650 200,600" fill="#ff9800" opacity="0.7"/>
  <polygon points="100,250 850,300 800,500 150,450" fill="#ffeb3b" opacity="0.6"/>
  <polygon points="200,200 700,250 650,450 250,400" fill="#ff9800" opacity="0.5"/>
  <path d="M100,350 Q300,250 500,300 Q700,350 800,500 Q700,650 500,600 Q300,550 100,500 Z" fill="#d7ccc8" stroke="#8d6e63" stroke-width="2"/>
  <path d="M150,400 Q350,300 550,350 Q750,400 850,550 Q750,700 550,650 Q350,600 150,550 Z" fill="#bcaaa4" stroke="#8d6e63" stroke-width="1.5"/>
  <path d="M200,450 Q400,350 600,400 Q800,450 900,600 Q800,750 600,700 Q400,650 200,600 Z" fill="#a1887f" stroke="#6d4c41" stroke-width="1"/>
  <circle cx="600" cy="700" r="3" fill="#ffd700"/>
  <circle cx="700" cy="650" r="3" fill="#ffd700"/>
  <circle cx="800" cy="600" r="3" fill="#ffd700"/>
  <circle cx="750" cy="700" r="3" fill="#ffd700"/>
  <circle cx="650" cy="750" r="3" fill="#ffd700"/>
  <circle cx="550" cy="800" r="3" fill="#ffd700"/>
  <circle cx="450" cy="850" r="3" fill="#ffd700"/>
  <circle cx="350" cy="900" r="3" fill="#ffd700"/>
  <circle cx="250" cy="950" r="3" fill="#ffd700"/>
  <circle cx="850" cy="550" r="3" fill="#ffd700"/>
  <circle cx="900" cy="500" r="3" fill="#ffd700"/>
  <circle cx="950" cy="450" r="3" fill="#ffd700"/>
  <circle cx="800" cy="500" r="3" fill="#ffd700"/>
  <circle cx="700" cy="550" r="3" fill="#ffd700"/>
  <circle cx="600" cy="600" r="3" fill="#ffd700"/>
  <circle cx="500" cy="650" r="3" fill="#ffd700"/>
  <circle cx="400" cy="700" r="3" fill="#ffd700"/>
  <circle cx="300" cy="750" r="3" fill="#ffd700"/>
  <circle cx="200" cy="800" r="3" fill="#ffd700"/>
  <circle cx="100" cy="850" r="3" fill="#ffd700"/>
  <rect x="850" y="300" width="150" height="700" fill="#333" rx="10"/>
  <rect x="860" y="310" width="130" height="680" fill="#eee" rx="5"/>
  <rect x="870" y="320" width="110" height="660" fill="#ddd" rx="3"/>
  <rect x="880" y="330" width="90" height="640" fill="#ccc" rx="2"/>
  <rect x="890" y="340" width="70" height="620" fill="#bbb" rx="1"/>
  <rect x="900" y="350" width="50" height="600" fill="#aaa"/>
  <rect x="910" y="360" width="30" height="580" fill="#999"/>
  <rect x="920" y="370" width="10" height="560" fill="#888"/>
  <rect x="930" y="380" width="10" height="540" fill="#777"/>
  <rect x="940" y="390" width="10" height="520" fill="#666"/>
  <rect x="950" y="400" width="10" height="500" fill="#555"/>
  <rect x="960" y="410" width="10" height="480" fill="#444"/>
  <rect x="970" y="420" width="10" height="460" fill="#333"/>
  <rect x="980" y="430" width="10" height="440" fill="#222"/>
  <rect x="990" y="440" width="10" height="420" fill="#111"/>
  <rect x="850" y="300" width="150" height="700" fill="none" stroke="#000" stroke-width="2"/>
  <rect x="860" y="310" width="130" height="680" fill="none" stroke="#000" stroke-width="1"/>
  <rect x="870" y="320" width="110" height="660" fill="none" stroke="#000" stroke-width="1"/>
  <rect x="880" y="330" width="90" height="640" fill="none" stroke="#000" stroke-width="1"/>
  <rect x="890" y="340" width="70" height="620" fill="none" stroke="#000" stroke-width="1"/>
  <rect x="900" y="350" width="50" height="600" fill="none" stroke="#000" stroke-width="1"/>
  <rect x="910" y="360" width="30" height="580" fill="none" stroke="#000" stroke-width="1"/>
  <rect x="920" y="370" width="10" height="560" fill="none" stroke="#000" stroke-width="1"/>
  <rect x="930" y="380" width="10" height="540" fill="none" stroke="#000" stroke-width="1"/>
  <rect x="940" y="390" width="10" height="520" fill="none" stroke="#000" stroke-width="1"/>
  <rect x="950" y="400" width="10" height="500" fill="none" stroke="#000" stroke-width="1"/>
  <rect x="960" y="410" width="10" height="480" fill="none" stroke="#000" stroke-width="1"/>
  <rect x="970" y="420" width="10" height="460" fill="none" stroke="#000" stroke-width="1"/>
  <rect x="980" y="430" width="10" height="440" fill="none" stroke="#000" stroke-width="1"/>
  <rect x="990" y="440" width="10" height="420" fill="none" stroke="#000" stroke-width="1"/>
  <rect x="850" y="300" width="150" height="700" fill="none" stroke="#fff" stroke-width="0.5"/>
  <rect x="860" y="310" width="130" height="680" fill="none" stroke="#fff" stroke-width="0.5"/>
  <rect x="870" y="320" width="110" height="660" fill="none" stroke="#fff" stroke-width="0.5"/>
  <rect x="880" y="330" width="90" height="640" fill="none" stroke="#fff" stroke-width="0.5"/>
  <rect x="890" y="340" width="70" height="620" fill="none" stroke="#fff" stroke-width="0.5"/>
  <rect x="900" y="350" width="50" height="600" fill="none" stroke="#fff" stroke-width="0.5"/>
  <rect x="910" y="360" width="30" height="580" fill="none" stroke="#fff" stroke-width="0.5"/>
  <rect x="920" y="370" width="10" height="560" fill="none" stroke="#fff" stroke-width="0.5"/>
  <rect x="930" y="380" width="10" height="540" fill="none" stroke="#fff" stroke-width="0.5"/>
  <rect x="940" y="390" width="10" height="520" fill="none" stroke="#fff" stroke-width="0.5"/>
  <rect x="950" y="400" width="10" height="500" fill="none" stroke="#fff" stroke-width="0.5"/>
  <rect x="960" y="410" width="10" height="480" fill="none" stroke="#fff" stroke-width="0.5"/>
  <rect x="970" y="420" width="10" height="460" fill="none" stroke="#fff" stroke-width="0.5"/>
  <rect x="980" y="430" width="10" height="440" fill="none" stroke="#fff" stroke-width="0.5"/>
  <rect x="990" y="440" width="10" height="420" fill="none" stroke="#fff" stroke-width="0.5"/>
</svg>