<svg viewBox="0 0 1000 700" xmlns="http://www.w3.org/2000/svg">
  <rect width="1000" height="700" fill="black"/>
  <g fill="white">
    <rect x="0" y="0" width="1000" height="350" fill="#1a1a1a"/>
    <rect x="0" y="350" width="1000" height="350" fill="#333333"/>
    <rect x="100" y="50" width="800" height="600" fill="#4d4d4d"/>
    <rect x="200" y="100" width="600" height="500" fill="#666666"/>
    <rect x="300" y="150" width="400" height="400" fill="#808080"/>
    <rect x="400" y="200" width="200" height="300" fill="#999999"/>
    <rect x="500" y="250" width="100" height="200" fill="#b3b3b3"/>
    <rect x="600" y="300" width="50" height="150" fill="#cccccc"/>
    <rect x="700" y="350" width="25" height="100" fill="#e6e6e6"/>
    <rect x="800" y="400" width="12" height="75" fill="#ffffff"/>
    <rect x="900" y="450" width="6" height="50" fill="#ffffff"/>
    <rect x="950" y="500" width="3" height="25" fill="#ffffff"/>
    <rect x="975" y="550" width="1.5" height="12.5" fill="#ffffff"/>
    <rect x="987.5" y="600" width="0.75" height="6.25" fill="#ffffff"/>
    <rect x="993.75" y="650" width="0.375" height="3.125" fill="#ffffff"/>
    <rect x="996.875" y="675" width="0.1875" height="1.5625" fill="#ffffff"/>
    <rect x="998.4375" y="687.5" width="0.09375" height="0.78125" fill="#ffffff"/>
    <rect x="999.21875" y="693.75" width="0.046875" height="0.390625" fill="#ffffff"/>
    <rect x="999.609375" y="696.875" width="0.0234375" height="0.1953125" fill="#ffffff"/>
    <rect x="999.8046875" y="698.4375" width="0.01171875" height="0.09765625" fill="#ffffff"/>
    <rect x="999.90234375" y="699.21875" width="0.005859375" height="0.048828125" fill="#ffffff"/>
    <rect x="999.951171875" y="699.609375" width="0.0029296875" height="0.0244140625" fill="#ffffff"/>
    <rect x="999.9755859375" y="699.8046875" width="0.00146484375" height="0.01220703125" fill="#ffffff"/>
    <rect x="999.98779296875" y="699.90234375" width="0.000732421875" height="0.006103515625" fill="#ffffff"/>
    <rect x="999.993896484375" y="699.951171875" width="0.0003662109375" height="0.0030517578125" fill="#ffffff"/>
    <rect x="999.9969482421875" y="699.9755859375" width="0.00018310546875" height="0.00152587890625" fill="#ffffff"/>
    <rect x="999.9984741210938" y="699.98779296875" width="0.000091552734375" height="0.000762939453125" fill="#ffffff"/>
    <rect x="999.9992370605469" y="699.993896484375" width="0.0000457763671875" height="0.0003814697265625" fill="#ffffff"/>
    <rect x="999.9996185302734" y="699.9969482421875" width="0.00002288818359375" height="0.00019073486328125" fill="#ffffff"/>
    <rect x="999.9998092651367" y="699.9984741210938" width="0.000011444091796875" height="0.000095367431640625" fill="#ffffff"/>
    <rect x="999.9999046325684" y="699.9992370605469" width="0.0000057220458984375" height="0.0000476837158203125" fill="#ffffff"/>
    <rect x="999.9999523162842" y="699.9996185302734" width="0.00000286102294921875" height="0.00002384185791015625" fill="#ffffff"/>
    <rect x="999.9999761581421" y="699.9998092651367" width="0.000001430511474609375" height="0.000011920928955078125" fill="#ffffff"/>
    <rect x="999.999988079071" y="699.9999046325684" width="0.0000007152557373046875" height="0.0000059604644775390625" fill="#ffffff"/>
    <rect x="999.9999940395355" y="699.9999523162842" width="0.00000035762786865234375" height="0.0000029802322387695312" fill="#ffffff"/>
    <rect x="999.9999970197678" y="699.9999761581421" width="0.00000017881393432617188" height="0.0000014901161193847656" fill="#ffffff"/>
    <rect x="999.9999985098839" y="699.999988079071" width="0.00000008940696716308594" height="0.0000007450580596923828" fill="#ffffff"/>
    <rect x="999.9999992549419" y="699.9999940395355" width="0.00000004470348358154297" height="0.0000003725290298461914" fill="#ffffff"/>
    <rect x="999.999999627471" y="699.9999970197678" width="0.000000022351741790771484" height="0.0000001862645149230957" fill="#ffffff"/>
    <rect x="999.9999998137355" y="699.9999985098839" width="0.000000011175870895385742" height="0.00000009313225746154785" fill="#ffffff"/>
    <rect x="999.9999999068677" y="699.9999992549419" width="0.000000005587935447692871" height="0.000000046566128730773926" fill="#ffffff"/>
    <rect x="999.9999999534339" y="699.999999627471" width="0.0000000027939677238464355" height="0.000000023283064365386963" fill="#ffffff"/>
    <rect x="999.9999999767169" y="699.9999998137355" width="0.0000000013969838619232178" height="0.000000011641532182693481" fill="#ffffff"/>
    <rect x="999.9999999883585" y="699.9999999068677" width="0.0000000006984919309616089" height="0.000000005820766091346741" fill="#ffffff"/>
    <rect x="999.9999999941792" y="699.9999999534339" width="0.00000000034924596548080445" height="0.0000000029103830456733703" fill="#ffffff"/>
    <rect x="999.9999999970896" y="699.9999999767169" width="0.00000000017462298274040222" height="0.0000000014551915228366852" fill="#ffffff"/>
    <rect x="999.9999999985448" y="699.9999999883585" width="0.00000000008731149137020111" height="0.0000000007275957614183426" fill="#ffffff"/>
    <rect x="999.9999999992724" y="699.9999999941792" width="0.000000000043655745685100555" height="0.0000000003637978807091713" fill="#ffffff"/>
    <rect x="999.9999999996362" y="699.9999999970896" width="0.000000000021827872842550277" height="0.00000000018189894035458565" fill="#ffffff"/>
    <rect x="999.9999999998181" y="699.9999999985448" width="0.000000000010913936421275139" height="0.00000000009094947017729282" fill="#ffffff"/>
    <rect x="999.999999999909" y="699.9999999992724" width="0.000000000005456968210637569" height="0.00000000004547473508864641" fill="#ffffff"/>
    <rect x="999.9999999999545" y="699.9999999996362" width="0.0000000000027284841053187846" height="0.000000000022737367544323205" fill="#ffffff"/>
    <rect x="999.9999999999773" y="699.9999999998181" width="0.0000000000013642420526593923" height="0.000000000011368683772161602" fill="#ffffff"/>
    <rect x="999.9999999999886" y="699.999999999909" width="0.0000000000006821210263296962" height="0.000000000005684341886080801" fill="#ffffff"/>
    <rect x="999.9999999999943" y="699.9999999999545" width="0.0000000000003410605131648481" height="0.0000000000028421709430404005" fill="#ffffff"/>
    <rect x="999.9999999999972" y="699.9999999999773" width="0.00000000000017053025658242405" height="0.0000000000014210854715202002" fill="#ffffff"/>
    <rect x="999.9999999999986" y="699.9999999999886" width="0.00000000000008526512829121202" height="0.0000000000007105427357601001" fill="#ffffff"/>
    <rect x="999.9999999999993" y="699.9999999999943" width="0.00000000000004263256414560601" height="0.00000000000035527136788005005" fill="#ffffff"/>
    <rect x="999.9999999999996" y="699.9999999999972" width="0.000000000000021316282072803005" height="0.00000000000017763568394002502" fill="#ffffff"/>
    <rect x="999.9999999999998" y="699.9999999999986" width="0.000000000000010658141036401503" height="0.00000000000008881784197001251" fill="#ffffff"/>
    <rect x="999.9999999999999" y="699.9999999999993" width="0.0000000000000053290705182007514" height="0.000000000000044408920985006255" fill="#ffffff"/>
    <rect x="1000" y="699.9999999999996" width="0.0000000000000026645352591003757" height="0.000000000000022204460492503127" fill="#ffffff"/>
    <rect x="1000" y="699.9999999999998" width="0.0000000000000013322676295501879" height="0.000000000000011102230246251564" fill="#ffffff"/>
    <rect x="1000" y="699.9999999999999" width="0.0000000000000006661338147750939" height="0.000000000000005551115123125782" fill="#ffffff"/>
    <rect x="1000" y="700" width="0.000000000000000333066907387547" height="0.000000000000002775557561562891" fill="#ffffff"/>
  </g>
</svg>