<svg viewBox="0 0 1000 1000" xmlns="http://www.w3.org/2000/svg">
  <rect width="100%" height="100%" fill="#6C9F4A"/>
  <path d="M0,0 L1000,0 L1000,1000 L0,1000 Z" fill="#6C9F4A"/>
  <path d="M0,0 Q500,200 1000,0 Q800,500 1000,1000 Q500,800 0,1000 Q200,500 0,0" fill="#7EC75A"/>
  <path d="M0,0 Q250,100 500,0 Q400,250 500,500 Q250,400 0,500 Q100,250 0,0" fill="#8FD76B"/>
  <path d="M0,0 Q100,50 200,0 Q150,100 200,200 Q100,150 0,200 Q50,100 0,0" fill="#9FE87D"/>
  <path d="M0,0 Q50,25 100,0 Q75,50 100,100 Q50,75 0,100 Q25,50 0,0" fill="#AFEB8E"/>
  <path d="M0,0 Q25,12.5 50,0 Q37.5,25 50,50 Q25,37.5 0,50 Q12.5,25 0,0" fill="#BFEF9F"/>
  <path d="M0,0 Q12.5,6.25 25,0 Q18.75,12.5 25,25 Q12.5,18.75 0,25 Q6.25,12.5 0,0" fill="#CFEDAF"/>
  <path d="M0,0 Q6.25,3.125 12.5,0 Q9.375,6.25 12.5,12.5 Q6.25,9.375 0,12.5 Q3.125,6.25 0,0" fill="#DFEABF"/>
  <path d="M0,0 Q3.125,1.5625 6.25,0 Q4.6875,3.125 6.25,6.25 Q3.125,4.6875 0,6.25 Q1.5625,3.125 0,0" fill="#EFEBD0"/>
  <path d="M0,0 Q1.5625,0.78125 3.125,0 Q2.34375,1.5625 3.125,3.125 Q1.5625,2.34375 0,3.125 Q0.78125,1.5625 0,0" fill="#FFECF0"/>
  <path d="M0,0 Q0.78125,0.390625 1.5625,0 Q1.171875,0.78125 1.5625,1.5625 Q0.78125,1.171875 0,1.5625 Q0.390625,0.78125 0,0" fill="#FFFEE0"/>
  <path d="M0,0 Q0.390625,0.1953125 0.78125,0 Q0.5859375,0.390625 0.78125,0.78125 Q0.390625,0.5859375 0,0.78125 Q0.1953125,0.390625 0,0" fill="#FFFFF0"/>
  <path d="M0,0 Q0.1953125,0.09765625 0.390625,0 Q0.29296875,0.1953125 0.390625,0.390625 Q0.1953125,0.29296875 0,0.390625 Q0.09765625,0.1953125 0,0" fill="#FFFFFF"/>
</svg>