<svg viewBox="0 0 1000 800" xmlns="http://www.w3.org/2000/svg">
  <rect width="1000" height="800" fill="#1e88e5"/>
  <rect y="780" width="1000" height="20" fill="#0d47a1"/>
  <rect y="760" width="1000" height="20" fill="#1565c0"/>
  <rect y="740" width="1000" height="20" fill="#1976d2"/>
  <rect y="720" width="1000" height="20" fill="#1e88e5"/>
  <rect y="700" width="1000" height="20" fill="#2196f3"/>
  <rect y="680" width="1000" height="20" fill="#64b5f6"/>
  <rect y="660" width="1000" height="20" fill="#bbdefb"/>
  <rect y="640" width="1000" height="20" fill="#e3f2fd"/>
  <rect y="620" width="1000" height="20" fill="#ffffff"/>
  <rect y="600" width="1000" height="20" fill="#f5f5f5"/>
  <rect y="580" width="1000" height="20" fill="#eeeeee"/>
  <rect y="560" width="1000" height="20" fill="#e0e0e0"/>
  <rect y="540" width="1000" height="20" fill="#bdbdbd"/>
  <rect y="520" width="1000" height="20" fill="#9e9e9e"/>
  <rect y="500" width="1000" height="20" fill="#757575"/>
  <rect y="480" width="1000" height="20" fill="#616161"/>
  <rect y="460" width="1000" height="20" fill="#424242"/>
  <rect y="440" width="1000" height="20" fill="#212121"/>
  <rect y="420" width="1000" height="20" fill="#000000"/>
  <rect y="400" width="1000" height="20" fill="#000000"/>
  <rect y="380" width="1000" height="20" fill="#000000"/>
  <rect y="360" width="1000" height="20" fill="#000000"/>
  <rect y="340" width="1000" height="20" fill="#000000"/>
  <rect y="320" width="1000" height="20" fill="#000000"/>
  <rect y="300" width="1000" height="20" fill="#000000"/>
  <rect y="280" width="1000" height="20" fill="#000000"/>
  <rect y="260" width="1000" height="20" fill="#000000"/>
  <rect y="240" width="1000" height="20" fill="#000000"/>
  <rect y="220" width="1000" height="20" fill="#000000"/>
  <rect y="200" width="1000" height="20" fill="#000000"/>
  <rect y="180" width="1000" height="20" fill="#000000"/>
  <rect y="160" width="1000" height="20" fill="#000000"/>
  <rect y="140" width="1000" height="20" fill="#000000"/>
  <rect y="120" width="1000" height="20" fill="#000000"/>
  <rect y="100" width="1000" height="20" fill="#000000"/>
  <rect y="80" width="1000" height="20" fill="#000000"/>
  <rect y="60" width="1000" height="20" fill="#000000"/>
  <rect y="40" width="1000" height="20" fill="#000000"/>
  <rect y="20" width="1000" height="20" fill="#000000"/>
  <rect y="0" width="1000" height="20" fill="#000000"/>
</svg>