<svg viewBox="0 0 1000 1000" xmlns="http://www.w3.org/2000/svg">
  <rect width="100%" height="100%" fill="white"/>
  <g transform="translate(100,50) scale(1.2)">
    <path d="M0,0 L800,0 L800,800 L0,800 Z" fill="white" stroke="#ddd" stroke-width="2"/>
    <g transform="translate(50,50)">
      <!-- Broccoli florets -->
      <path d="M150,100 C170,80 200,90 220,110 C240,130 260,160 240,180 C220,200 200,210 180,200 C160,190 140,170 150,100 Z" fill="#3a8e3d"/>
      <path d="M200,150 C220,130 250,140 270,160 C290,180 310,210 290,230 C270,250 250,260 230,250 C210,240 190,220 200,150 Z" fill="#3a8e3d"/>
      <path d="M250,200 C270,180 300,190 320,210 C340,230 360,260 340,280 C320,300 300,310 280,300 C260,290 240,270 250,200 Z" fill="#3a8e3d"/>
      <path d="M300,250 C320,230 350,240 370,260 C390,280 410,310 390,330 C370,350 350,360 330,350 C310,340 290,320 300,250 Z" fill="#3a8e3d"/>
      <path d="M350,300 C370,280 400,290 420,310 C440,330 460,360 440,380 C420,400 400,410 380,400 C360,390 340,370 350,300 Z" fill="#3a8e3d"/>
      <path d="M400,350 C420,330 450,340 470,360 C490,380 510,410 490,430 C470,450 450,460 430,450 C410,440 390,420 400,350 Z" fill="#3a8e3d"/>
      <path d="M450,400 C470,380 500,390 520,410 C540,430 560,460 540,480 C520,500 500,510 480,500 C460,490 440,470 450,400 Z" fill="#3a8e3d"/>
      <path d="M500,450 C520,430 550,440 570,460 C590,480 610,510 590,530 C570,550 550,560 530,550 C510,540 490,520 500,450 Z" fill="#3a8e3d"/>
      <path d="M550,500 C570,480 600,490 620,510 C640,530 660,560 640,580 C620,600 600,610 580,600 C560,590 540,570 550,500 Z" fill="#3a8e3d"/>
      <path d="M600,550 C620,530 650,540 670,560 C690,580 710,610 690,630 C670,650 650,660 630,650 C610,640 590,620 600,550 Z" fill="#3a8e3d"/>
      <path d="M650,600 C670,580 700,590 720,610 C740,630 760,660 740,680 C720,700 700,710 680,700 C660,690 640,670 650,600 Z" fill="#3a8e3d"/>
      <path d="M700,650 C720,630 750,640 770,660 C790,680 810,710 790,730 C770,750 750,760 730,750 C710,740 690,720 700,650 Z" fill="#3a8e3d"/>
      <path d="M750,700 C770,680 800,690 820,710 C840,730 860,760 840,780 C820,800 800,810 780,800 C760,790 740,770 750,700 Z" fill="#3a8e3d"/>
      <path d="M800,750 C820,730 850,740 870,760 C890,780 910,810 890,830 C870,850 850,860 830,850 C810,840 790,820 800,750 Z" fill="#3a8e3d"/>
      <path d="M850,800 C870,780 900,790 920,810 C940,830 960,860 940,880 C920,900 900,910 880,900 C860,890 840,870 850,800 Z" fill="#3a8e3d"/>
      <path d="M900,850 C920,830 950,840 970,860 C990,880 1010,910 990,930 C970,950 950,960 930,950 C910,940 890,920 900,850 Z" fill="#3a8e3d"/>
      <path d="M950,900 C970,880 1000,890 1020,910 C1040,930 1060,960 1040,980 C1020,1000 1000,1010 980,1000 C960,990 940,970 950,900 Z" fill="#3a8e3d"/>
      <!-- Carrots -->
      <path d="M100,150 C110,140 120,130 130,140 C140,150 150,160 140,170 C130,180 120,190 110,180 C100,170 90,160 100,150 Z" fill="#ff6b35"/>
      <path d="M150,200 C160,190 170,180 180,190 C190,200 200,210 190,220 C180,230 170,240 160,230 C150,220 140,210 150,200 Z" fill="#ff6b35"/>
      <path d="M200,250 C210,240 220,230 230,240 C240,250 250,260 240,270 C230,280 220,290 210,280 C200,270 190,260 200,250 Z" fill="#ff6b35"/>
      <path d="M250,300 C260,290 270,280 280,290 C290,300 300,310 290,320 C280,330 270,340 260,330 C250,320 240,310 250,300 Z" fill="#ff6b35"/>
      <path d="M300,350 C310,340 320,330 330,340 C340,350 350,360 340,370 C330,380 320,390 310,380 C300,370 290,360 300,350 Z" fill="#ff6b35"/>
      <path d="M350,400 C360,390 370,380 380,390 C390,400 400,410 390,420 C380,430 370,440 360,430 C350,420 340,410 350,400 Z" fill="#ff6b35"/>
      <path d="M400,450 C410,440 420,430 430,440 C440,450 450,460 440,470 C430,480 420,490 410,480 C400,470 390,460 400,450 Z" fill="#ff6b35"/>
      <path d="M450,500 C460,490 470,480 480,490 C490,500 500,510 490,520 C480,530 470,540 460,530 C450,520 440,510 450,500 Z" fill="#ff6b35"/>
      <path d="M500,550 C510,540 520,530 530,540 C540,550 550,560 540,570 C530,580 520,590 510,580 C500,570 490,560 500,550 Z" fill="#ff6b35"/>
      <path d="M550,600 C560,590 570,580 580,590 C590,600 600,610 590,620 C580,630 570,640 560,630 C550,620 540,610 550,600 Z" fill="#ff6b35"/>
      <path d="M600,650 C610,640 620,630 630,640 C640,650 650,660 640,670 C630,680 620,690 610,680 C600,670 590,660 600,650 Z" fill="#ff6b35"/>
      <path d="M650,700 C660,690 670,680 680,690 C690,700 700,710 690,720 C680,730 670,740 660,730 C650,720 640,710 650,700 Z" fill="#ff6b35"/>
      <path d="M700,750 C710,740 720,730 730,740 C740,750 750,760 740,770 C730,780 720,790 710,780 C700,770 690,760 700,750 Z" fill="#ff6b35"/>
      <path d="M750,800 C760,790 770,780 780,790 C790,800 800,810 790,820 C780,830 770,840 760,830 C750,820 740,810 750,800 Z" fill="#ff6b35"/>
      <path d="M800,850 C810,840 820,830 830,840 C840,850 850,860 840,870 C830,880 820,890 810,880 C800,870 790,860 800,850 Z" fill="#ff6b35"/>
      <path d="M850,900 C860,890 870,880 880,890 C890,900 900,910 890,920 C880,930 870,940 860,930 C850,920 840,910 850,900 Z" fill="#ff6b35"/>
      <path d="M900,950 C910,940 920,930 930,940 C940,950 950,960 940,970 C930,980 920,990 910,980 C900,970 890,960 900,950 Z" fill="#ff6b35"/>
    </g>
  </g>
</svg>