<svg viewBox="0 0 1000 800" xmlns="http://www.w3.org/2000/svg">
  <rect width="1000" height="800" fill="#9a9ab0"/>
  <rect x="50" y="200" width="800" height="500" rx="50" fill="#d4c8b8"/>
  <circle cx="450" cy="450" r="150" fill="#e6dcd0"/>
  <path d="M100 350 Q150 300 200 350 Q250 400 200 450 Q150 500 100 450 Q50 400 100 350" fill="#c8b8a8"/>
  <path d="M700 450 Q750 400 800 450 Q850 500 800 550 Q750 600 700 550 Q650 500 700 450" fill="#c8b8a8"/>
  <rect x="10" y="10" width="150" height="100" fill="#2a3f7a"/>
  <rect x="150" y="10" width="80" height="180" fill="#c8a060"/>
  <rect x="850" y="50" width="150" height="300" fill="#4a2a1a"/>
  <rect x="300" y="10" width="400" height="150" fill="#604020"/>
  <rect x="280" y="750" width="150" height="40" fill="#ffffff"/>
  <polygon points="120,400 200,350 280,400 250,480 150,480" fill="#d48c4a"/>
  <ellipse cx="200" cy="450" rx="60" ry="40" fill="#ffffff"/>
  <ellipse cx="220" cy="320" rx="30" ry="20" fill="#ffffff"/>
  <ellipse cx="200" cy="320" rx="20" ry="15" fill="#000000"/>
  <line x1="100" y1="420" x2="150" y2="400" stroke="#000000" stroke-width="3"/>
  <line x1="280" y1="420" x2="250" y2="400" stroke="#000000" stroke-width="3"/>
  <rect x="400" y="150" width="180" height="300" rx="20" fill="#e68c4a"/>
  <ellipse cx="500" cy="150" rx="30" ry="20" fill="#ffffff"/>
  <ellipse cx="500" cy="140" rx="15" ry="10" fill="#000000"/>
  <rect x="450" y="450" width="100" height="100" rx="10" fill="#e68c4a"/>
  <rect x="450" y="550" width="100" height="50" rx="5" fill="#e68c4a"/>
  <rect x="400" y="550" width="50" height="50" rx="5" fill="#ffffff"/>
  <rect x="550" y="550" width="50" height="50" rx="5" fill="#ffffff"/>
</svg>