<svg viewBox="0 0 800 1000" xmlns="http://www.w3.org/2000/svg">
  <rect width="100%" height="100%" fill="black"/>
  <defs>
    <linearGradient id="skin" x1="0" y1="0" x2="1" y2="1">
      <stop offset="0%" stop-color="#f5e6d3"/>
      <stop offset="100%" stop-color="#d4b89a"/>
    </linearGradient>
    <linearGradient id="blueHeadscarf" x1="0" y1="0" x2="1" y2="1">
      <stop offset="0%" stop-color="#1e40af"/>
      <stop offset="100%" stop-color="#3b82f6"/>
    </linearGradient>
    <linearGradient id="yellowHeadscarf" x1="0" y1="0" x2="1" y2="1">
      <stop offset="0%" stop-color="#d9a74c"/>
      <stop offset="100%" stop-color="#f5d78e"/>
    </linearGradient>
    <linearGradient id="jacket" x1="0" y1="0" x2="1" y2="1">
      <stop offset="0%" stop-color="#8b5e3c"/>
      <stop offset="100%" stop-color="#d4a373"/>
    </linearGradient>
  </defs>
  <g transform="translate(200,100)">
    <path d="M300 300 C350 250, 450 250, 500 300 C550 350, 550 450, 500 500 C450 550, 350 550, 300 500 C250 450, 250 350, 300 300" fill="url(#skin)"/>
    <path d="M300 300 C350 250, 450 250, 500 300 C550 350, 550 450, 500 500 C450 550, 350 550, 300 500 C250 450, 250 350, 300 300" fill="none" stroke="#8b5e3c" stroke-width="2"/>
    <path d="M320 350 C340 330, 360 330, 380 350 C400 370, 400 400, 380 420 C360 440, 340 440, 320 420 C300 400, 300 370, 320 350" fill="white"/>
    <path d="M320 350 C340 330, 360 330, 380 350 C400 370, 400 400, 380 420 C360 440, 340 440, 320 420 C300 400, 300 370, 320 350" fill="none" stroke="#8b5e3c" stroke-width="1"/>
    <path d="M330 360 C340 350, 350 350, 360 360 C370 370, 370 380, 360 390 C350 400, 340 400, 330 390 C320 380, 320 370, 330 360" fill="black"/>
    <path d="M330 360 C340 350, 350 350, 360 360 C370 370, 370 380, 360 390 C350 400, 340 400, 330 390 C320 380, 320 370, 330 360" fill="none" stroke="#8b5e3c" stroke-width="1"/>
    <path d="M380 360 C390 350, 400 350, 410 360 C420 370, 420 380, 410 390 C400 400, 390 400, 380 390 C370 380, 370 370, 380 360" fill="black"/>
    <path d="M380 360 C390 350, 400 350, 410 360 C420 370, 420 380, 410 390 C400 400, 390 400, 380 390 C370 380, 370 370, 380 360" fill="none" stroke="#8b5e3c" stroke-width="1"/>
    <path d="M350 450 C370 440, 390 440, 410 450 C430 460, 430 480, 410 490 C390 500, 370 500, 350 490 C330 480, 330 460, 350 450" fill="#dc2626"/>
    <path d="M350 450 C370 440, 390 440, 410 450 C430 460, 430 480, 410 490 C390 500, 370 500, 350 490 C330 480, 330 460, 350 450" fill="none" stroke="#8b5e3c" stroke-width="1"/>
    <path d="M350 500 C400 450, 500 450, 550 500 C600 550, 600 650, 550 700 C500 750, 400 750, 350 700 C300 650, 300 550, 350 500" fill="url(#jacket)"/>
    <path d="M350 500 C400 450, 500 450, 550 500 C600 550, 600 650, 550 700 C500 750, 400 750, 350 700 C300 650, 300 550, 350 500" fill="none" stroke="#8b5e3c" stroke-width="2"/>
    <path d="M380 550 C420 530, 480 530, 520 550 C560 570, 560 600, 520 620 C480 640, 420 640, 380 620 C340 600, 340 570, 380 550" fill="white"/>
    <path d="M380 550 C420 530, 480 530, 520 550 C560 570, 560 600, 520 620 C480 640, 420 640, 380 620 C340 600, 340 570, 380 550" fill="none" stroke="#8b5e3c" stroke-width="1"/>
    <path d="M400 600 C450 550, 550 550, 600 600 C650 650, 650 750, 600 800 C550 850, 450 850, 400 800 C350 750, 350 650, 400 600" fill="url(#jacket)"/>
    <path d="M400 600 C450 550, 550 550, 600 600 C650 650, 650 750, 600 800 C550 850, 450 850, 400 800 C350 750, 350 650, 400 600" fill="none" stroke="#8b5e3c" stroke-width="2"/>
    <path d="M450 120 C500 100, 550 100, 600 120 C650 140, 650 180, 600 200 C550 220, 500 220, 450 200 C400 180, 400 140, 450 120" fill="url(#yellowHeadscarf)"/>
    <path d="M450 120 C500 100, 550 100, 600 120 C650 140, 650 180, 600 200 C550 220, 500 220, 450 200 C400 180, 400 140, 450 120" fill="none" stroke="#8b5e3c" stroke-width="2"/>
    <path d="M380 180 C430 160, 480 160, 530 180 C580 200, 580 240, 530 260 C480 280, 430 280, 380 260 C330 240, 330 200, 380 180" fill="url(#blueHeadscarf)"/>
    <path d="M380 180 C430 160, 480 160, 530 180 C580 200, 580 240, 530 260 C480 280, 430 280, 380 260 C330 240, 330 200, 380 180" fill="none" stroke="#8b5e3c" stroke-width="2"/>
    <path d="M530 260 C580 300, 600 350, 600 400 C600 450, 580 500, 530 540 C480 580, 430 580, 380 540 C330 500, 310 450, 310 400 C310 350, 330 300, 380 260" fill="url(#yellowHeadscarf)"/>
    <path d="M530 260 C580 300, 600 350, 600 400 C600 450, 580 500, 530 540 C480 580, 430 580, 380 540 C330 500, 310 450, 310 400 C310 350, 330 300, 380 260" fill="none" stroke="#8b5e3c" stroke-width="2"/>
    <path d="M600 400 C650 450, 650 500, 600 550 C550 600, 500 600, 450 550 C400 500, 400 450, 450 400 C500 350, 550 350, 600 400" fill="url(#blueHeadscarf)"/>
    <path d="M600 400 C650 450, 650 500, 600 550 C550 600, 500 600, 450 550 C400 500, 400 450, 450 400 C500 350, 550 350, 600 400" fill="none" stroke="#8b5e3c" stroke-width="2"/>
    <path d="M500 500 C520 480, 540 480, 560 500 C580 520, 580 540, 560 560 C540 580, 520 580, 500 560 C480 540, 480 520, 500 500" fill="white"/>
    <path d="M500 500 C520 480, 540 480, 560 500 C580 520, 580 540, 560 560 C540 580, 520 580, 500 560 C480 540, 480 520, 500 500" fill="none" stroke="#8b5e3c" stroke-width="1"/>
  </g>
</svg>