<svg viewBox="0 0 1000 800" xmlns="http://www.w3.org/2000/svg">
  <rect width="1000" height="800" fill="#e6f2ff"/>
  <rect y="400" width="1000" height="400" fill="#f0f0f0"/>
  <g stroke="#888" stroke-width="1">
    <line x1="50" y1="400" x2="150" y2="200" />
    <line x1="100" y1="400" x2="200" y2="150" />
    <line x1="150" y1="400" x2="250" y2="180" />
    <line x1="200" y1="400" x2="300" y2="120" />
    <line x1="250" y1="400" x2="350" y2="160" />
    <line x1="300" y1="400" x2="400" y2="100" />
    <line x1="350" y1="400" x2="450" y2="140" />
    <line x1="400" y1="400" x2="500" y2="80" />
    <line x1="450" y1="400" x2="550" y2="120" />
    <line x1="500" y1="400" x2="600" y2="90" />
    <line x1="550" y1="400" x2="650" y2="130" />
    <line x1="600" y1="400" x2="700" y2="100" />
    <line x1="650" y1="400" x2="750" y2="140" />
    <line x1="700" y1="400" x2="800" y2="110" />
    <line x1="750" y1="400" x2="850" y2="150" />
    <line x1="800" y1="400" x2="900" y2="120" />
    <line x1="850" y1="400" x2="950" y2="160" />
    <line x1="900" y1="400" x2="1000" y2="130" />
  </g>
  <g fill="#fff" stroke="#ccc">
    <circle cx="200" cy="500" r="5"/>
    <circle cx="300" cy="550" r="5"/>
    <circle cx="400" cy="600" r="5"/>
    <circle cx="500" cy="650" r="5"/>
    <circle cx="600" cy="700" r="5"/>
    <circle cx="700" cy="750" r="5"/>
  </g>
  <g fill="#c0a080" stroke="#806040">
    <ellipse cx="300" cy="600" rx="150" ry="80"/>
    <polygon points="150,600 200,550 250,600"/>
    <polygon points="450,600 500,550 550,600"/>
    <polygon points="300,550 350,500 400,550"/>
    <polygon points="300,650 350,700 400,650"/>
    <polygon points="150,650 200,700 250,650"/>
    <polygon points="450,650 500,700 550,650"/>
  </g>
  <g fill="#ffcc99" stroke="#cc9966">
    <ellipse cx="750" cy="550" rx="100" ry="60"/>
    <polygon points="650,550 700,500 750,550"/>
    <polygon points="850,550 900,500 950,550"/>
    <polygon points="750,500 800,450 850,500"/>
    <polygon points="750,600 800,650 850,600"/>
    <polygon points="650,600 700,650 750,600"/>
    <polygon points="850,600 900,650 950,600"/>
  </g>
  <g fill="#d4a017" stroke="#b08000">
    <rect x="650" y="500" width="200" height="100" rx="10"/>
    <rect x="680" y="520" width="140" height="60" rx="5"/>
    <rect x="700" y="540" width="100" height="20" rx="3"/>
  </g>
  <g fill="#000" stroke="#000">
    <circle cx="700" cy="520" r="5"/>
    <circle cx="800" cy="520" r="5"/>
  </g>
  <g fill="#fff" stroke="#000">
    <circle cx="700" cy="520" r="2"/>
    <circle cx="800" cy="520" r="2"/>
  </g>
  <g fill="#000" stroke="#000">
    <path d="M700 520 L710 510 L720 520"/>
    <path d="M800 520 L810 510 L820 520"/>
  </g>
  <g fill="#000" stroke="#000">
    <path d="M700 520 L710 530 L720 520"/>
    <path d="M800 520 L810 530 L820 520"/>
  </g>
  <g fill="#000" stroke="#000">
    <path d="M700 520 L710 520 L710 510"/>
    <path d="M800 520 L810 520 L810 510"/>
  </g>
  <g fill="#000" stroke="#000">
    <path d="M700 520 L710 520 L710 530"/>
    <path d="M800 520 L810 520 L810 530"/>
  </g>
  <g fill="#000" stroke="#000">
    <path d="M700 520 L705 515 L710 520"/>
    <path d="M800 520 L805 515 L810 520"/>
  </g>
  <g fill="#000" stroke="#000">
    <path d="M700 520 L705 525 L710 520"/>
    <path d="M800 520 L805 525 L810 520"/>
  </g>
  <g fill="#000" stroke="#000">
    <path d="M700 520 L705 515 L705 525"/>
    <path d="M800 520 L805 515 L805 525"/>
  </g>
  <g fill="#000" stroke="#000">
    <path d="M700 520 L705 525 L705 515"/>
    <path d="M800 520 L805 525 L805 515"/>
  </g>
  <g fill="#000" stroke="#000">
    <path d="M700 520 L705 515 L710 520 L705 525 Z"/>
    <path d="M800 520 L805 515 L810 520 L805 525 Z"/>
  </g>
  <g fill="#000" stroke="#000">
    <path d="M700 520 L705 525 L710 520 L705 515 Z"/>
    <path d="M800 520 L805 525 L810 520 L805 515 Z"/>
  </g>
  <g fill="#000" stroke="#000">
    <path d="M700 520 L705 515 L710 520 L705 525 L700 520 Z"/>
    <path d="M800 520 L805 515 L810 520 L805 525 L800 520 Z"/>
  </g>
  <g fill="#000" stroke="#000">
    <path d="M700 520 L705 525 L710 520 L705 515 L700 520 Z"/>
    <path d="M800 520 L805 525 L810 520 L805 515 L800 520 Z"/>
  </g>
  <g fill="#000" stroke="#000">
    <path d="M700 520 L705 515 L710 520 L705 525 L700 520 L705 515 Z"/>
    <path d="M800 520 L805 515 L810 520 L805 525 L800 520 L805 515 Z"/>
  </g>
  <g fill="#000" stroke="#000">
    <path d="M700 520 L705 525 L710 520 L705 515 L700 520 L705 525 Z"/>
    <path d="M800 520 L805 525 L810 520 L805 515 L800 520 L805 525 Z"/>
  </g>
  <g fill="#000" stroke="#000">
    <path d="M700 520 L705 515 L710 520 L705 525 L700 520 L705 515 L710 520 Z"/>
    <path d="M800 520 L805 515 L810 520 L805 525 L800 520 L805 515 L810 520 Z"/>
  </g>
  <g fill="#000" stroke="#000">
    <path d="M700 520 L705 525 L710 520 L705 515 L700 520 L705 525 L710 520 Z"/>
    <path d="M800 520 L805 525 L810 520 L805 515 L800 520 L805 525 L810 520 Z"/>
  </g>
  <g fill="#000" stroke="#000">
    <path d="M700 520 L705 515 L710 520 L705 525 L700 520 L705 515 L710 520 L705 525 Z"/>
    <path d="M800 520 L805 515 L810 520 L805 525 L800 520 L805 515 L810 520 L805 525 Z"/>
  </g>
  <g fill="#000" stroke="#000">
    <path d="M700 520 L705 525 L710 520 L705 515 L700 520 L705 525 L710 520 L705 515 Z"/>
    <path d="M800 520 L805 525 L810 520 L805 515 L800 520 L805 525 L810 520 L805 515 Z"/>
  </g>
  <g fill="#000" stroke="#000">
    <path d="M700 520 L705 515 L710 520 L705 525 L700 520 L705 515 L710 520 L705 525 L700 520 Z"/>
    <path d="M800 520 L805 515 L810 520 L805 525 L800 520 L805 515 L810 520 L805 525 L800 520 Z"/>
  </g>
  <g fill="#000" stroke="#000">
    <path d="M700 520 L705 525 L710 520 L705 515 L700 520 L705 525 L710 520 L705 515 L700 520 Z"/>
    <path d="M800 520 L805 525 L810 520 L805 515 L800 520 L805 525 L810 520 L805 515 L800 520 Z"/>
  </g>
</svg>