<svg viewBox="0 0 1000 800" xmlns="http://www.w3.org/2000/svg">
  <rect width="1000" height="800" fill="#4CAF50"/>
  <!-- Grass blades -->
  <g stroke="#388E3C" stroke-width="1">
    <line x1="0" y1="800" x2="1000" y2="800"/>
    <line x1="0" y1="790" x2="1000" y2="790"/>
    <line x1="0" y1="780" x2="1000" y2="780"/>
    <line x1="0" y1="770" x2="1000" y2="770"/>
    <line x1="0" y1="760" x2="1000" y2="760"/>
    <line x1="0" y1="750" x2="1000" y2="750"/>
    <line x1="0" y1="740" x2="1000" y2="740"/>
    <line x1="0" y1="730" x2="1000" y2="730"/>
    <line x1="0" y1="720" x2="1000" y2="720"/>
    <line x1="0" y1="710" x2="1000" y2="710"/>
    <line x1="0" y1="700" x2="1000" y2="700"/>
    <line x1="0" y1="690" x2="1000" y2="690"/>
    <line x1="0" y1="680" x2="1000" y2="680"/>
    <line x1="0" y1="670" x2="1000" y2="670"/>
    <line x1="0" y1="660" x2="1000" y2="660"/>
    <line x1="0" y1="650" x2="1000" y2="650"/>
    <line x1="0" y1="640" x2="1000" y2="640"/>
    <line x1="0" y1="630" x2="1000" y2="630"/>
    <line x1="0" y1="620" x2="1000" y2="620"/>
    <line x1="0" y1="610" x2="1000" y2="610"/>
    <line x1="0" y1="600" x2="1000" y2="600"/>
    <line x1="0" y1="590" x2="1000" y2="590"/>
    <line x1="0" y1="580" x2="1000" y2="580"/>
    <line x1="0" y1="570" x2="1000" y2="570"/>
    <line x1="0" y1="560" x2="1000" y2="560"/>
    <line x1="0" y1="550" x2="1000" y2="550"/>
    <line x1="0" y1="540" x2="1000" y2="540"/>
    <line x1="0" y1="530" x2="1000" y2="530"/>
    <line x1="0" y1="520" x2="1000" y2="520"/>
    <line x1="0" y1="510" x2="1000" y2="510"/>
    <line x1="0" y1="500" x2="1000" y2="500"/>
    <line x1="0" y1="490" x2="1000" y2="490"/>
    <line x1="0" y1="480" x2="1000" y2="480"/>
    <line x1="0" y1="470" x2="1000" y2="470"/>
    <line x1="0" y1="460" x2="1000" y2="460"/>
    <line x1="0" y1="450" x2="1000" y2="450"/>
    <line x1="0" y1="440" x2="1000" y2="440"/>
    <line x1="0" y1="430" x2="1000" y2="430"/>
    <line x1="0" y1="420" x2="1000" y2="420"/>
    <line x1="0" y1="410" x2="1000" y2="410"/>
    <line x1="0" y1="400" x2="1000" y2="400"/>
    <line x1="0" y1="390" x2="1000" y2="390"/>
    <line x1="0" y1="380" x2="1000" y2="380"/>
    <line x1="0" y1="370" x2="1000" y2="370"/>
    <line x1="0" y1="360" x2="1000" y2="360"/>
    <line x1="0" y1="350" x2="1000" y2="350"/>
    <line x1="0" y1="340" x2="1000" y2="340"/>
    <line x1="0" y1="330" x2="1000" y2="330"/>
    <line x1="0" y1="320" x2="1000" y2="320"/>
    <line x1="0" y1="310" x2="1000" y2="310"/>
    <line x1="0" y1="300" x2="1000" y2="300"/>
    <line x1="0" y1="290" x2="1000" y2="290"/>
    <line x1="0" y1="280" x2="1000" y2="280"/>
    <line x1="0" y1="270" x2="1000" y2="270"/>
    <line x1="0" y1="260" x2="1000" y2="260"/>
    <line x1="0" y1="250" x2="1000" y2="250"/>
    <line x1="0" y1="240" x2="1000" y2="240"/>
    <line x1="0" y1="230" x2="1000" y2="230"/>
    <line x1="0" y1="220" x2="1000" y2="220"/>
    <line x1="0" y1="210" x2="1000" y2="210"/>
    <line x1="0" y1="200" x2="1000" y2="200"/>
    <line x1="0" y1="190" x2="1000" y2="190"/>
    <line x1="0" y1="180" x2="1000" y2="180"/>
    <line x1="0" y1="170" x2="1000" y2="170"/>
    <line x1="0" y1="160" x2="1000" y2="160"/>
    <line x1="0" y1="150" x2="1000" y2="150"/>
    <line x1="0" y1="140" x2="1000" y2="140"/>
    <line x1="0" y1="130" x2="1000" y2="130"/>
    <line x1="0" y1="120" x2="1000" y2="120"/>
    <line x1="0" y1="110" x2="1000" y2="110"/>
    <line x1="0" y1="100" x2="1000" y2="100"/>
    <line x1="0" y1="90" x2="1000" y2="90"/>
    <line x1="0" y1="80" x2="1000" y2="80"/>
    <line x1="0" y1="70" x2="1000" y2="70"/>
    <line x1="0" y1="60" x2="1000" y2="60"/>
    <line x1="0" y1="50" x2="1000" y2="50"/>
    <line x1="0" y1="40" x2="1000" y2="40"/>
    <line x1="0" y1="30" x2="1000" y2="30"/>
    <line x1="0" y1="20" x2="1000" y2="20"/>
    <line x1="0" y1="10" x2="1000" y2="10"/>
  </g>
  <!-- Kitten 1: Orange tabby -->
  <g transform="translate(50, 200)">
    <ellipse cx="100" cy="100" rx="80" ry="60" fill="#FFA500"/>
    <ellipse cx="100" cy="120" rx="60" ry="40" fill="#FFA500"/>
    <ellipse cx="100" cy="140" rx="40" ry="20" fill="#FFA500"/>
    <ellipse cx="60" cy="80" rx="20" ry="15" fill="#FFA500"/>
    <ellipse cx="140" cy="80" rx="20" ry="15" fill="#FFA500"/>
    <circle cx="50" cy="100" r="5" fill="#000"/>
    <circle cx="150" cy="100" r="5" fill="#000"/>
    <ellipse cx="100" cy="110" rx="10" ry="5" fill="#000"/>
    <line x1="40" y1="100" x2="20" y2="90" stroke="#000" stroke-width="1"/>
    <line x1="40" y1="100" x2="20" y2="110" stroke="#000" stroke-width="1"/>
    <line x1="160" y1="100" x2="180" y2="90" stroke="#000" stroke-width="1"/>
    <line x1="160" y1="100" x2="180" y2="110" stroke="#000" stroke-width="1"/>
  </g>
  <!-- Kitten 2: Gray tabby -->
  <g transform="translate(200, 50)">
    <ellipse cx="100" cy="100" rx="80" ry="60" fill="#A9A9B0"/>
    <ellipse cx="100" cy="120" rx="60" ry="40" fill="#A9A9B0"/>
    <ellipse cx="100" cy="140" rx="40" ry="20" fill="#A9A9B0"/>
    <ellipse cx="60" cy="80" rx="20" ry="15" fill="#A9A9B0"/>
    <ellipse cx="140" cy="80" rx="20" ry="15" fill="#A9A9B0"/>
    <circle cx="50" cy="100" r="5" fill="#000"/>
    <circle cx="150" cy="100" r="5" fill="#000"/>
    <ellipse cx="100" cy="110" rx="10" ry="5" fill="#000"/>
    <line x1="40" y1="100" x2="20" y2="90" stroke="#000" stroke-width="1"/>
    <line x1="40" y1="100" x2="20" y2="110" stroke="#000" stroke-width="1"/>
    <line x1="160" y1="100" x2="180" y2="90" stroke="#000" stroke-width="1"/>
    <line x1="160" y1="100" x2="180" y2="110" stroke="#000" stroke-width="1"/>
  </g>
  <!-- Kitten 3: Silver tabby -->
  <g transform="translate(350, 150)">
    <ellipse cx="100" cy="100" rx="80" ry="60" fill="#D3D3D3"/>
    <ellipse cx="100" cy="120" rx="60" ry="40" fill="#D3D3D3"/>
    <ellipse cx="100" cy="140" rx="40" ry="20" fill="#D3D3D3"/>
    <ellipse cx="60" cy="80" rx="20" ry="15" fill="#D3D3D3"/>
    <ellipse cx="140" cy="80" rx="20" ry="15" fill="#D3D3D3"/>
    <circle cx="50" cy="100" r="5" fill="#000"/>
    <circle cx="150" cy="100" r="5" fill="#000"/>
    <ellipse cx="100" cy="110" rx="10" ry="5" fill="#000"/>
    <line x1="40" y1="100" x2="20" y2="90" stroke="#000" stroke-width="1"/>
    <line x1="40" y1="100" x2="20" y2="110" stroke="#000" stroke-width="1"/>
    <line x1="160" y1="100" x2="180" y2="90" stroke="#000" stroke-width="1"/>
    <line x1="160" y1="100" x2="180" y2="110" stroke="#000" stroke-width="1"/>
  </g>
  <!-- Kitten 4: Brown tabby -->
  <g transform="translate=(500, 200)">
    <ellipse cx="100" cy="100" rx="80" ry="60" fill="#8B4513"/>
    <ellipse cx="100" cy="120" rx="60" ry="40" fill="#8B4513"/>
    <ellipse cx="100" cy="140" rx="40" ry="20" fill="#8B4513"/>
    <ellipse cx="60" cy="80" rx="20" ry="15" fill="#8B4513"/>
    <ellipse cx="140" cy="80" rx="20" ry="15" fill="#8B4513"/>
    <circle cx="50" cy="100" r="5" fill="#000"/>
    <circle cx="150" cy="100" r="5" fill="#000"/>
    <ellipse cx="100" cy="110" rx="10" ry="5" fill="#000"/>
    <line x1="40" y1="100" x2="20" y2="90" stroke="#000" stroke-width="1"/>
    <line x1="40" y1="100" x2="20" y2="110" stroke="#000" stroke-width="1"/>
    <line x1="160" y1="100" x2="180" y2="90" stroke="#000" stroke-width="1"/>
    <line x1="160" y1="100" x2="180" y2="110" stroke="#000" stroke-width="1"/>
  </g>
  <!-- Kitten 5: Calico -->
  <g transform="translate(650, 100)">
    <ellipse cx="100" cy="100" rx="80" ry="60" fill="#FFA500"/>
    <ellipse cx="100" cy="120" rx="60" ry="40" fill="#FFA500"/>
    <ellipse cx="100" cy="140" rx="40" ry="20" fill="#FFA500"/>
    <ellipse cx="60" cy="80" rx="20" ry="15" fill="#FFA500"/>
    <ellipse cx="140" cy="80" rx="20" ry="15" fill="#FFA500"/>
    <circle cx="50" cy="100" r="5" fill="#000"/>
    <circle cx="150" cy="100" r="5" fill="#000"/>
    <ellipse cx="100" cy="110" rx="10" ry="5" fill="#000"/>
    <line x1="40" y1="100" x2="20" y2="90" stroke="#000" stroke-width="1"/>
    <line x1="40" y1="100" x2="20" y2="110" stroke="#000" stroke-width="1"/>
    <line x1="160" y1="100" x2="180" y2="90" stroke="#000" stroke-width="1"/>
    <line x1="160" y1="100" x2="180" y2="110" stroke="#000" stroke-width="1"/>
  </g>
</svg>