<svg viewBox="0 0 1000 800" xmlns="http://www.w3.org/2000/svg">
  <rect width="1000" height="800" fill="#A0AEC0"/>
  <rect y="650" width="1000" height="150" fill="#8B786D"/>
  <rect y="700" width="1000" height="100" fill="#6B5B4B"/>
  <rect y="750" width="1000" height="50" fill="#4A3F35"/>
  <rect y="775" width="1000" height="25" fill="#3A302A"/>
  <rect y="790" width="1000" height="10" fill="#2A2520"/>
  <rect y="795" width="1000" height="5" fill="#1A1510"/>
  <rect y="798" width="1000" height="2" fill="#0A0500"/>
  <rect y="799" width="1000" height="1" fill="#000000"/>
  <rect y="800" width="1000" height="1" fill="#000000"/>
  <rect y="801" width="1000" height="1" fill="#000000"/>
  <rect y="802" width="1000" height="1" fill="#000000"/>
  <rect y="803" width="1000" height="1" fill="#000000"/>
  <rect y="804" width="1000" height="1" fill="#000000"/>
  <rect y="805" width="1000" height="1" fill="#000000"/>
  <rect y="806" width="1000" height="1" fill="#000000"/>
  <rect y="807" width="1000" height="1" fill="#000000"/>
  <rect y="808" width="1000" height="1" fill="#000000"/>
  <rect y="809" width="1000" height="1" fill="#000000"/>
  <rect y="810" width="1000" height="1" fill="#000000"/>
  <rect y="811" width="1000" height="1" fill="#000000"/>
  <rect y="812" width="1000" height="1" fill="#000000"/>
  <rect y="813" width="1000" height="1" fill="#000000"/>
  <rect y="814" width="1000" height="1" fill="#000000"/>
  <rect y="815" width="1000" height="1" fill="#000000"/>
  <rect y="816" width="1000" height="1" fill="#000000"/>
  <rect y="817" width="1000" height="1" fill="#000000"/>
  <rect y="818" width="1000" height="1" fill="#000000"/>
  <rect y="819" width="1000" height="1" fill="#000000"/>
  <rect y="820" width="1000" height="1" fill="#000000"/>
  <rect y="821" width="1000" height="1" fill="#000000"/>
  <rect y="822" width="1000" height="1" fill="#000000"/>
  <rect y="823" width="1000" height="1" fill="#000000"/>
  <rect y="824" width="1000" height="1" fill="#000000"/>
  <rect y="825" width="1000" height="1" fill="#000000"/>
  <rect y="826" width="1000" height="1" fill="#000000"/>
  <rect y="827" width="1000" height="1" fill="#000000"/>
  <rect y="828" width="1000" height="1" fill="#000000"/>
  <rect y="829" width="1000" height="1" fill="#000000"/>
  <rect y="830" width="1000" height="1" fill="#000000"/>
  <rect y="831" width="1000" height="1" fill="#000000"/>
  <rect y="832" width="1000" height="1" fill="#000000"/>
  <rect y="833" width="1000" height="1" fill="#000000"/>
  <rect y="834" width="1000" height="1" fill="#000000"/>
  <rect y="835" width="1000" height="1" fill="#000000"/>
  <rect y="836" width="1000" height="1" fill="#000000"/>
  <rect y="837" width="1000" height="1" fill="#000000"/>
  <rect y="838" width="1000" height="1" fill="#000000"/>
  <rect y="839" width="1000" height="1" fill="#000000"/>
  <rect y="840" width="1000" height="1" fill="#000000"/>
  <rect y="841" width="1000" height="1" fill="#000000"/>
  <rect y="842" width="1000" height="1" fill="#000000"/>
  <rect y="843" width="1000" height="1" fill="#000000"/>
  <rect y="844" width="1000" height="1" fill="#000000"/>
  <rect y="845" width="1000" height="1" fill="#000000"/>
  <rect y="846" width="1000" height="1" fill="#000000"/>
  <rect y="847" width="1000" height="1" fill="#000000"/>
  <rect y="848" width="1000" height="1" fill="#000000"/>
  <rect y="849" width="1000" height="1" fill="#000000"/>
  <rect y="850" width="1000" height="1" fill="#000000"/>
  <rect y="851" width="1000" height="1" fill="#000000"/>
  <rect y="852" width="1000" height="1" fill="#000000"/>
  <rect y="853" width="1000" height="1" fill="#000000"/>
  <rect y="854" width="1000" height="1" fill="#000000"/>
  <rect y="855" width="1000" height="1" fill="#000000"/>
  <rect y="856" width="1000" height="1" fill="#000000"/>
  <rect y="857" width="1000" height="1" fill="#000000"/>
  <rect y="858" width="1000" height="1" fill="#000000"/>
  <rect y="859" width="1000" height="1" fill="#000000"/>
  <rect y="860" width="1000" height="1" fill="#000000"/>
  <rect y="861" width="1000" height="1" fill="#000000"/>
  <rect y="862" width="1000" height="1" fill="#000000"/>
  <rect y="863" width="1000" height="1" fill="#000000"/>
  <rect y="864" width="1000" height="1" fill="#000000"/>
  <rect y="865" width="1000" height="1" fill="#000000"/>
  <rect y="866" width="1000" height="1" fill="#000000"/>
  <rect y="867" width="1000" height="1" fill="#000000"/>
  <rect y="868" width="1000" height="1" fill="#000000"/>
  <rect y="869" width="1000" height="1" fill="#000000"/>
  <rect y="870" width="1000" height="1" fill="#000000"/>
  <rect y="871" width="1000" height="1" fill="#000000"/>
  <rect y="872" width="1000" height="1" fill="#000000"/>
  <rect y="873" width="1000" height="1" fill="#000000"/>
  <rect y="874" width="1000" height="1" fill="#000000"/>
  <rect y="875" width="1000" height="1" fill="#000000"/>
  <rect y="876" width="1000" height="1" fill="#000000"/>
  <rect y="877" width="1000" height="1" fill="#000000"/>
  <rect y="878" width="1000" height="1" fill="#000000"/>
  <rect y="879" width="1000" height="1" fill="#000000"/>
  <rect y="880" width="1000" height="1" fill="#000000"/>
  <rect y="881" width="1000" height="1" fill="#000000"/>
  <rect y="882" width="1000" height="1" fill="#000000"/>
  <rect y="883" width="1000" height="1" fill="#000000"/>
  <rect y="884" width="1000" height="1" fill="#000000"/>
  <rect y="885" width="1000" height="1" fill="#000000"/>
  <rect y="886" width="1000" height="1" fill="#000000"/>
  <rect y="887" width="1000" height="1" fill="#000000"/>
  <rect y="888" width="1000" height="1" fill="#000000"/>
  <rect y="889" width="1000" height="1" fill="#000000"/>
  <rect y="890" width="1000" height="1" fill="#000000"/>
  <rect y="891" width="1000" height="1" fill="#000000"/>
  <rect y="892" width="1000" height="1" fill="#000000"/>
  <rect y="893" width="1000" height="1" fill="#000000"/>
  <rect y="894" width="1000" height="1" fill="#000000"/>
  <rect y="895" width="1000" height="1" fill="#000000"/>
  <rect y="896" width="1000" height="1" fill="#000000"/>
  <rect y="897" width="1000" height="1" fill="#000000"/>
  <rect y="898" width="1000" height="1" fill="#000000"/>
  <rect y="899" width="1000" height="1" fill="#000000"/>
  <rect y="900" width="1000" height="1" fill="#000000"/>
  <rect y="901" width="1000" height="1" fill="#000000"/>
  <rect y="902" width="1000" height="1" fill="#000000"/>
  <rect y="903" width="1000" height="1" fill="#000000"/>
  <rect y="904" width="1000" height="1" fill="#000000"/>
  <rect y="905" width="1000" height="1" fill="#000000"/>
  <rect y="906" width="1000" height="1" fill="#000000"/>
  <rect y="907" width="1000" height="1" fill="#000000"/>
  <rect y="908" width="1000" height="1" fill="#000000"/>
  <rect y="909" width="1000" height="1" fill="#000000"/>
  <rect y="910" width="1000" height="1" fill="#000000"/>
  <rect y="911" width="1000" height="1" fill="#000000"/>
  <rect y="912" width="1000" height="1" fill="#000000"/>
  <rect y="913" width="1000" height="1" fill="#000000"/>
  <rect y="914" width="1000" height="1" fill="#000000"/>
  <rect y="915" width="1000" height="1" fill="#000000"/>
  <rect y="916" width="1000" height="1" fill="#000000"/>
  <rect y="917" width="1000" height="1" fill="#000000"/>
  <rect y="918" width="1000" height="1" fill="#000000"/>
  <rect y="919" width="1000" height="1" fill="#000000"/>
  <rect y="920" width="1000" height="1" fill="#000000"/>
  <rect y="921" width="1000" height="1" fill="#000000"/>
  <rect y="922" width="1000" height="1" fill="#000000"/>
  <rect y="923" width="1000" height="1" fill="#000000"/>
  <rect y="924" width="1000" height="1" fill="#000000"/>
  <rect y="925" width="1000" height="1" fill="#000000"/>
  <rect y="926" width="1000" height="1" fill="#000000"/>
  <rect y="927" width="1000" height="1" fill="#000000"/>
  <rect y="928" width="1000" height="1" fill="#000000"/>
  <rect y="929" width="1000" height="1" fill="#000000"/>
  <rect y="930" width="1000" height="1" fill="#000000"/>
  <rect y="931" width="1000" height="1" fill="#000000"/>
  <rect y="932" width="1000" height="1" fill="#000000"/>
  <rect y="933" width="1000" height="1" fill="#000000"/>
  <rect y="934" width="1000" height="1" fill="#000000"/>
  <rect y="935" width="1000" height="1" fill="#000000"/>
  <rect y="936" width="1000" height="1" fill="#000000"/>
  <rect y="937" width="1000" height="1" fill="#000000"/>
  <rect y="938" width="1000" height="1" fill="#000000"/>
  <rect y="939" width="1000" height="1" fill="#000000"/>
  <rect y="940" width="1000" height="1" fill="#000000"/>
  <rect y="941" width="1000" height="1" fill="#000000"/>
  <rect y="942" width="1000" height="1" fill="#000000"/>
  <rect y="943" width="1000" height="1" fill="#000000"/>
  <rect y="944" width="1000" height="1" fill="#000000"/>
  <rect y="945" width="1000" height="1" fill="#000000"/>
  <rect y="946" width="1000" height="1" fill="#000000"/>
  <rect y="947" width="1000" height="1" fill="#000000"/>
  <rect y="948" width="1000" height="1" fill="#000000"/>
  <rect y="949" width="1000" height="1" fill="#000000"/>
  <rect y="950" width="1000" height="1" fill="#000000"/>
  <rect y="951" width="1000" height="1" fill="#000000"/>
  <rect y="952" width="1000" height="1" fill="#000000"/>
  <rect y="953" width="1000" height="1" fill="#000000"/>
  <rect y="954" width="1000" height="1" fill="#000000"/>
  <rect y="955" width="1000" height="1" fill="#000000"/>
  <rect y="956" width="1000" height="1" fill="#000000"/>
  <rect y="957" width="1000" height="1" fill="#000000"/>
  <rect y="958" width="1000" height="1" fill="#000000"/>
  <rect y="959" width="1000" height="1" fill="#000000"/>
  <rect y="960" width="1000" height="1" fill="#000000"/>
  <rect y="961" width="1000" height="1" fill="#000000"/>
  <rect y="962" width="1000" height="1" fill="#000000"/>
  <rect y="963" width="1000" height="1" fill="#000000"/>
  <rect y="964" width="1000" height="1" fill="#000000"/>
  <rect y="965" width="1000" height="1" fill="#000000"/>
  <rect y="966" width="1000" height="1" fill="#000000"/>
  <rect y="967" width="1000" height="1" fill="#000000"/>
  <rect y="968" width="1000" height="1" fill="#000000"/>
  <rect y="969" width="1000" height="1" fill="#000000"/>
  <rect y="970" width="1000" height="1" fill="#000000"/>
  <rect y="971" width="1000" height="1" fill="#000000"/>
  <rect y="972" width="1000" height="1" fill="#000000"/>
  <rect y="973" width="1000" height="1" fill="#000000"/>
  <rect y="974" width="1000" height="1" fill="#000000"/>
  <rect y="975" width="1000" height="1" fill="#000000"/>
  <rect y="976" width="1000" height="1" fill="#000000"/>
  <rect y="977" width="1000" height="1" fill="#000000"/>
  <rect y="978" width="1000" height="1" fill="#000000"/>
  <rect y="979" width="1000" height="1" fill="#000000"/>
  <rect y="980" width="1000" height="1" fill="#000000"/>
  <rect y="981" width="1000" height="1" fill="#000000"/>
  <rect y="982" width="1000" height="1" fill="#000000"/>
  <rect y="983" width="1000" height="1" fill="#000000"/>
  <rect y="984" width="1000" height="1" fill="#000000"/>
  <rect y="985" width="1000" height="1" fill="#000000"/>
  <rect y="986" width="1000" height="1" fill="#000000"/>
  <rect y="987" width="1000" height="1" fill="#000000"/>
  <rect y="988" width="1000" height="1" fill="#000000"/>
  <rect y="989" width="1000" height="1" fill="#000000"/>
  <rect y="990" width="1000" height="1" fill="#000000"/>
  <rect y="991" width="1000" height="1" fill="#000000"/>
  <rect y="992" width="1000" height="1" fill="#000000"/>
  <rect y="993" width="1000" height="1" fill="#000000"/>
  <rect y="994" width="1000" height="1" fill="#000000"/>
  <rect y="995" width="1000" height="1" fill="#000000"/>
  <rect y="996" width="1000" height="1" fill="#000000"/>
  <rect y="997" width="1000" height="1" fill="#000000"/>
  <rect y="998" width="1000" height="1" fill="#000000"/>
  <rect y="999" width="1000" height="1" fill="#000000"/>
</svg>