<svg viewBox="0 0 1000 700" xmlns="http://www.w3.org/2000/svg">
  <rect width="1000" height="700" fill="#000"/>
  <rect x="0" y="500" width="1000" height="200" fill="#FFD700"/>
  <rect x="0" y="680" width="1000" height="20" fill="#008000"/>
  
  <!-- Basketball hoop structure -->
  <rect x="440" y="450" width="120" height="250" fill="#008000"/>
  <rect x="490" y="450" width="20" height="100" fill="#FFFFFF"/>
  <rect x="500" y="250" width="100" height="200" fill="#FFFFFF"/>
  <rect x="505" y="255" width="90" height="190" fill="#000000"/>
  <rect x="565" y="350" width="60" height="60" fill="#FFFFFF"/>
  <circle cx="595" cy="380" r="20" fill="#FF4500"/>
  <rect x="545" y="70" width="60" height="100" fill="#000000"/>
  <text x="555" y="110" font-family="Arial" font-size="40" fill="#FFFFFF">88</text>
  
  <!-- Woman in red dress -->
  <ellipse cx="240" cy="400" rx="100" ry="120" fill="#FF0000"/>
  <rect x="180" y="500" width="120" height="200" fill="#FF0000"/>
  <circle cx="200" cy="250" r="50" fill="#FFD700"/>
  <line x1="200" y1="200" x2="240" y2="100" stroke="#FFD700" stroke-width="10"/>
  <line x1="200" y1="200" x2="180" y2="150" stroke="#FFD700" stroke-width="10"/>
  
  <!-- Man standing -->
  <rect x="780" y="600" width="80" height="100" fill="#FFFFFF"/>
  <rect x="780" y="700" width="80" height="100" fill="#00008B"/>
  <circle cx="810" cy="600" r="20" fill="#FFFFFF"/>
  <line x1="780" y1="600" x2="760" y2="650" stroke="#FFFFFF" stroke-width="10"/>
  <line x1="840" y1="600" x2="860" y2="650" stroke="#FFFFFF" stroke-width="10"/>
</svg>