<svg viewBox="0 0 1000 700" xmlns="http://www.w3.org/2000/svg">
  <rect width="1000" height="700" fill="#e0e0e0"/>
  <rect y="600" width="1000" height="100" fill="#4caf50"/>
  <rect y="550" width="1000" height="50" fill="#8bc34a"/>
  <rect y="500" width="1000" height="50" fill="#689f38"/>
  <rect y="450" width="1000" height="50" fill="#388e3c"/>
  <rect y="400" width="1000" height="50" fill="#2e7d32"/>
  <rect y="350" width="1000" height="50" fill="#1b5e20"/>
  <rect y="300" width="1000" height="50" fill="#004d40"/>
  <rect y="250" width="1000" height="50" fill="#006064"/>
  <rect y="200" width="1000" height="50" fill="#00838f"/>
  <rect y="150" width="1000" height="50" fill="#0097a7"/>
  <rect y="100" width="1000" height="50" fill="#00acc1"/>
  <rect y="50" width="1000" height="50" fill="#26c6da"/>
  <rect y="0" width="1000" height="50" fill="#4dd0e1"/>
  <rect y="650" width="1000" height="50" fill="#388e3c"/>
  <rect y="700" width="1000" height="50" fill="#2e7d32"/>
  <rect y="750" width="1000" height="50" fill="#1b5e20"/>
  <rect y="800" width="1000" height="50" fill="#004d40"/>
  <rect y="850" width="1000" height="50" fill="#006064"/>
  <rect y="900" width="1000" height="50" fill="#00838f"/>
  <rect y="950" width="1000" height="50" fill="#0097a7"/>
  <rect y="1000" width="1000" height="50" fill="#00acc1"/>
  <rect y="1050" width="1000" height="50" fill="#26c6da"/>
  <rect y="1100" width="1000" height="50" fill="#4dd0e1"/>
  <rect y="1150" width="1000" height="50" fill="#64b5f6"/>
  <rect y="1200" width="1000" height="50" fill="#90caf9"/>
  <rect y="1250" width="1000" height="50" fill="#bbdefb"/>
  <rect y="1300" width="1000" height="50" fill="#e3f2fd"/>
  <rect y="1350" width="1000" height="50" fill="#ffffff"/>
  <rect y="1400" width="1000" height="50" fill="#f5f5f5"/>
  <rect y="1450" width="1000" height="50" fill="#eeeeee"/>
  <rect y="1500" width="1000" height="50" fill="#e0e0e0"/>
  <rect y="1550" width="1000" height="50" fill="#bdbdbd"/>
  <rect y="1600" width="1000" height="50" fill="#9e9e9e"/>
  <rect y="1650" width="1000" height="50" fill="#757575"/>
  <rect y="1700" width="1000" height="50" fill="#616161"/>
  <rect y="1750" width="1000" height="50" fill="#424242"/>
  <rect y="1800" width="1000" height="50" fill="#212121"/>
  <rect y="1850" width="1000" height="50" fill="#000000"/>
  <rect y="1900" width="1000" height="50" fill="#000000"/>
  <rect y="1950" width="1000" height="50" fill="#000000"/>
  <rect y="2000" width="1000" height="50" fill="#000000"/>
  <rect y="2050" width="1000" height="50" fill="#000000"/>
  <rect y="2100" width="1000" height="50" fill="#000000"/>
  <rect y="2150" width="1000" height="50" fill="#000000"/>
  <rect y="2200" width="1000" height="50" fill="#000000"/>
  <rect y="2250" width="1000" height="50" fill="#000000"/>
  <rect y="2300" width="1000" height="50" fill="#000000"/>
  <rect y="2350" width="1000" height="50" fill="#000000"/>
  <rect y="2400" width="1000" height="50" fill="#000000"/>
  <rect y="2450" width="1000" height="50" fill="#000000"/>
  <rect y="2500" width="1000" height="50" fill="#000000"/>
  <rect y="2550" width="1000" height="50" fill="#000000"/>
  <rect y="2600" width="1000" height="50" fill="#000000"/>
  <rect y="2650" width="1000" height="50" fill="#000000"/>
  <rect y="2700" width="1000" height="50" fill="#000000"/>
  <rect y="2750" width="1000" height="50" fill="#000000"/>
  <rect y="2800" width="1000" height="50" fill="#000000"/>
  <rect y="2850" width="1000" height="50" fill="#000000"/>
  <rect y="2900" width="1000" height="50" fill="#000000"/>
  <rect y="2950" width="1000" height="50" fill="#000000"/>
  <rect y="3000" width="1000" height="50" fill="#000000"/>
  <rect y="3050" width="1000" height="50" fill="#000000"/>
  <rect y="3100" width="1000" height="50" fill="#000000"/>
  <rect y="3150" width="1000" height="50" fill="#000000"/>
  <rect y="3200" width="1000" height="50" fill="#000000"/>
  <rect y="3250" width="1000" height="50" fill="#000000"/>
  <rect y="3300" width="1000" height="50" fill="#000000"/>
  <rect y="3350" width="1000" height="50" fill="#000000"/>
  <rect y="3400" width="1000" height="50" fill="#000000"/>
  <rect y="3450" width="1000" height="50" fill="#000000"/>
  <rect y="3500" width="1000" height="50" fill="#000000"/>
  <rect y="3550" width="1000" height="50" fill="#000000"/>
  <rect y="3600" width="1000" height="50" fill="#000000"/>
  <rect y="3650" width="1000" height="50" fill="#000000"/>
  <rect y="3700" width="1000" height="50" fill="#000000"/>
  <rect y="3750" width="1000" height="50" fill="#000000"/>
  <rect y="3800" width="1000" height="50" fill="#000000"/>
  <rect y="3850" width="1000" height="50" fill="#000000"/>
  <rect y="3900" width="1000" height="50" fill="#000000"/>
  <rect y="3950" width="1000" height="50" fill="#000000"/>
  <rect y="4000" width="1000" height="50" fill="#000000"/>
  <rect y="4050" width="1000" height="50" fill="#000000"/>
  <rect y="4100" width="1000" height="50" fill="#000000"/>
  <rect y="4150" width="1000" height="50" fill="#000000"/>
  <rect y="4200" width="1000" height="50" fill="#000000"/>
  <rect y="4250" width="1000" height="50" fill="#000000"/>
  <rect y="4300" width="1000" height="50" fill="#000000"/>
  <rect y="4350" width="1000" height="50" fill="#000000"/>
  <rect y="4400" width="1000" height="50" fill="#000000"/>
  <rect y="4450" width="1000" height="50" fill="#000000"/>
  <rect y="4500" width="1000" height="50" fill="#000000"/>
  <rect y="4550" width="1000" height="50" fill="#000000"/>
  <rect y="4600" width="1000" height="50" fill="#000000"/>
  <rect y="4650" width="1000" height="50" fill="#000000"/>
  <rect y="4700" width="1000" height="50" fill="#000000"/>
  <rect y="4750" width="1000" height="50" fill="#000000"/>
  <rect y="4800" width="1000" height="50" fill="#000000"/>
  <rect y="4850" width="1000" height="50" fill="#000000"/>
  <rect y="4900" width="1000" height="50" fill="#000000"/>
  <rect y="4950" width="1000" height="50" fill="#000000"/>
  <rect y="5000" width="1000" height="50" fill="#000000"/>
  <rect y="5050" width="1000" height="50" fill="#000000"/>
  <rect y="5100" width="1000" height="50" fill="#000000"/>
  <rect y="5150" width="1000" height="50" fill="#000000"/>
  <rect y="5200" width="1000" height="50" fill="#000000"/>
  <rect y="5250" width="1000" height="50" fill="#000000"/>
  <rect y="5300" width="1000" height="50" fill="#000000"/>
  <rect y="5350" width="1000" height="50" fill="#000000"/>
  <rect y="5400" width="1000" height="50" fill="#000000"/>
  <rect y="5450" width="1000" height="50" fill="#000000"/>
  <rect y="5500" width="1000" height="50" fill="#000000"/>
  <rect y="5550" width="1000" height="50" fill="#000000"/>
  <rect y="5600" width="1000" height="50" fill="#000000"/>
  <rect y="5650" width="1000" height="50" fill="#000000"/>
  <rect y="5700" width="1000" height="50" fill="#000000"/>
  <rect y="5750" width="1000" height="50" fill="#000000"/>
  <rect y="5800" width="1000" height="50" fill="#000000"/>
  <rect y="5850" width="1000" height="50" fill="#000000"/>
  <rect y="5900" width="1000" height="50" fill="#000000"/>
  <rect y="5950" width="1000" height="50" fill="#000000"/>
  <rect y="6000" width="1000" height="50" fill="#000000"/>
  <rect y="6050" width="1000" height="50" fill="#000000"/>
  <rect y="6100" width="1000" height="50" fill="#000000"/>
  <rect y="6150" width="1000" height="50" fill="#000000"/>
  <rect y="6200" width="1000" height="50" fill="#000000"/>
  <rect y="6250" width="1000" height="50" fill="#000000"/>
  <rect y="6300" width="1000" height="50" fill="#000000"/>
  <rect y="6350" width="1000" height="50" fill="#000000"/>
  <rect y="6400" width="1000" height="50" fill="#000000"/>
  <rect y="6450" width="1000" height="50" fill="#000000"/>
  <rect y="6500" width="1000" height="50" fill="#000000"/>
  <rect y="6550" width="1000" height="50" fill="#000000"/>
  <rect y="6600" width="1000" height="50" fill="#000000"/>
  <rect y="6650" width="1000" height="50" fill="#000000"/>
  <rect y="6700" width="1000" height="50" fill="#000000"/>
  <rect y="6750" width="1000" height="50" fill="#000000"/>
  <rect y="6800" width="1000" height="50" fill="#000000"/>
  <rect y="6850" width="1000" height="50" fill="#000000"/>
  <rect y="6900" width="1000" height="50" fill="#000000"/>
  <rect y="6950" width="1000" height="50" fill="#000000"/>
  <rect y="7000" width="1000" height="50" fill="#000000"/>
  <rect y="7050" width="1000" height="50" fill="#000000"/>
  <rect y="7100" width="1000" height="50" fill="#000000"/>
  <rect y="7150" width="1000" height="50" fill="#000000"/>
  <rect y="7200" width="1000" height="50" fill="#000000"/>
  <rect y="7250" width="1000" height="50" fill="#000000"/>
  <rect y="7300" width="1000" height="50" fill="#000000"/>
  <rect y="7350" width="1000" height="50" fill="#000000"/>
  <rect y="7400" width="1000" height="50" fill="#000000"/>
  <rect y="7450" width="1000" height="50" fill="#000000"/>
  <rect y="7500" width="1000" height="50" fill="#000000"/>
  <rect y="7550" width="1000" height="50" fill="#000000"/>
  <rect y="7600" width="1000" height="50" fill="#000000"/>
  <rect y="7650" width="1000" height="50" fill="#000000"/>
  <rect y="7700" width="1000" height="50" fill="#000000"/>
  <rect y="7750" width="1000" height="50" fill="#000000"/>
  <rect y="7800" width="1000" height="50" fill="#000000"/>
  <rect y="7850" width="1000" height="50" fill="#000000"/>
  <rect y="7900" width="1000" height="50" fill="#000000"/>
  <rect y="7950" width="1000" height="50" fill="#000000"/>
  <rect y="8000" width="1000" height="50" fill="#000000"/>
  <rect y="8050" width="1000" height="50" fill="#000000"/>
  <rect y="8100" width="1000" height="50" fill="#000000"/>
  <rect y="8150" width="1000" height="50" fill="#000000"/>
  <rect y="8200" width="1000" height="50" fill="#000000"/>
  <rect y="8250" width="1000" height="50" fill="#000000"/>
  <rect y="8300" width="1000" height="50" fill="#000000"/>
  <rect y="8350" width="1000" height="50" fill="#000000"/>
  <rect y="8400" width="1000" height="50" fill="#000000"/>
  <rect y="8450" width="1000" height="50" fill="#000000"/>
  <rect y="8500" width="1000" height="50" fill="#000000"/>
  <rect y="8550" width="1000" height="50" fill="#000000"/>
  <rect y="8600" width="1000" height="50" fill="#000000"/>
  <rect y="8650" width="1000" height="50" fill="#000000"/>
  <rect y="8700" width="1000" height="50" fill="#000000"/>
  <rect y="8750" width="1000" height="50" fill="#000000"/>
  <rect y="8800" width="1000" height="50" fill="#000000"/>
  <rect y="8850" width="1000" height="50" fill="#000000"/>
  <rect y="8900" width="1000" height="50" fill="#000000"/>
  <rect y="8950" width="1000" height="50" fill="#000000"/>
  <rect y="9000" width="1000" height="50" fill="#000000"/>
  <rect y="9050" width="1000" height="50" fill="#000000"/>
  <rect y="9100" width="1000" height="50" fill="#000000"/>
  <rect y="9150" width="1000" height="50" fill="#000000"/>
  <rect y="9200" width="1000" height="50" fill="#000000"/>
  <rect y="9250" width="1000" height="50" fill="#000000"/>
  <rect y="9300" width="1000" height="50" fill="#000000"/>
  <rect y="9350" width="1000" height="50" fill="#000000"/>
  <rect y="9400" width="1000" height="50" fill="#000000"/>
  <rect y="9450" width="1000" height="50" fill="#000000"/>
  <rect y="9500" width="1000" height="50" fill="#000000"/>
  <rect y="9550" width="1000" height="50" fill="#000000"/>
  <rect y="9600" width="1000" height="50" fill="#000000"/>
  <rect y="9650" width="1000" height="50" fill="#000000"/>
  <rect y="9700" width="1000" height="50" fill="#000000"/>
  <rect y="9750" width="1000" height="50" fill="#000000"/>
  <rect y="9800" width="1000" height="50" fill="#000000"/>
  <rect y="9850" width="1000" height="50" fill="#000000"/>
  <rect y="9900" width="1000" height="50" fill="#000000"/>
  <rect y="9950" width="1000" height="50" fill="#000000"/>
  <rect y="10000" width="1000" height="50" fill="#000000"/>
</svg>