<svg viewBox="0 0 500 500" xmlns="http://www.w3.org/2000/svg">
  <rect width="500" height="500" fill="#D2B48C"/>
  <circle cx="250" cy="250" r="240" fill="#FFF8DC"/>
  <path d="M250 10 A240 240 0 0 1 490 250 A240 240 0 0 1 250 490 A240 240 0 0 1 10 250 A240 240 0 0 1 250 10" fill="none" stroke="#8B4513" stroke-width="2"/>
  <g>
    <path d="M70 130 Q120 160 170 190 Q220 220 270 250 Q320 280 370 310 Q420 340 470 370" fill="none" stroke="#FFA500" stroke-width="1"/>
    <path d="M70 130 Q120 160 170 190 Q220 220 270 250 Q320 280 370 310 Q420 340 470 370" fill="none" stroke="#FFD700" stroke-width="1"/>
    <path d="M70 130 Q120 160 170 190 Q220 220 270 250 Q320 280 370 310 Q420 340 470 370" fill="none" stroke="#FF6347" stroke-width="1"/>
    <path d="M70 130 Q120 160 170 190 Q220 220 270 250 Q320 280 370 310 Q420 340 470 370" fill="none" stroke="#8A2BE2" stroke-width="1"/>
    <path d="M70 130 Q120 160 170 190 Q220 220 270 250 Q320 280 370 310 Q420 340 470 370" fill="none" stroke="#2E8B57" stroke-width="1"/>
  </g>
  <ellipse cx="250" cy="250" rx="150" ry="150" fill="#F5F5DC"/>
  <polygon points="100,100 200,150 150,250" fill="#F5F5DC"/>
  <polygon points="400,100 300,150 350,250" fill="#F5F5DC"/>
  <ellipse cx="400" cy="600" rx="50" ry="30" fill="#3CB371"/>
  <ellipse cx="400" cy="600" rx="40" ry="25" fill="#008000"/>
  <path d="M0 300 L250 400" fill="none" stroke="#A9A9A9" stroke-width="10"/>
  <path d="M0 300 L250 400" fill="none" stroke="#808080" stroke-width="8"/>
  <path d="M0 300 L250 400" fill="none" stroke="#696969" stroke-width="6"/>
  <path d="M0 300 L250 400" fill="none" stroke="#555555" stroke-width="4"/>
  <path d="M0 300 L250 400" fill="none" stroke="#444444" stroke-width="2"/>
  <path d="M0 300 L250 400" fill="none" stroke="#333333" stroke-width="1"/>
  <circle cx="100" cy="200" r="10" fill="#FF6347"/>
  <circle cx="150" cy="150" r="10" fill="#FF6347"/>
  <circle cx="200" cy="200" r="10" fill="#FF6347"/>
  <circle cx="250" cy="150" r="10" fill="#FF6347"/>
  <circle cx="300" cy="200" r="10" fill="#FF6347"/>
  <circle cx="350" cy="150" r="10" fill="#FF6347"/>
  <circle cx="400" cy="200" r="10" fill="#FF6347"/>
  <circle cx="450" cy="150" r="10" fill="#FF6347"/>
  <circle cx="100" cy="300" r="10" fill="#FF6347"/>
  <circle cx="150" cy="350" r="10" fill="#FF6347"/>
  <circle cx="200" cy="300" r="10" fill="#FF6347"/>
  <circle cx="250" cy="350" r="10" fill="#FF6347"/>
  <circle cx="300" cy="300" r="10" fill="#FF6347"/>
  <circle cx="350" cy="350" r="10" fill="#FF6347"/>
  <circle cx="400" cy="300" r="10" fill="#FF6347"/>
  <circle cx="450" cy="350" r="10" fill="#FF6347"/>
  <path d="M100 200 Q125 175 150 200 Q175 225 200 200 Q225 175 250 200 Q275 225 300 200 Q325 175 350 200 Q375 225 400 200 Q425 175 450 200" fill="none" stroke="#2E8B57" stroke-width="5"/>
  <path d="M100 300 Q125 325 150 300 Q175 275 200 300 Q225 325 250 300 Q275 275 300 300 Q325 325 350 300 Q375 275 400 300 Q425 325 450 300" fill="none" stroke="#2E8B57" stroke-width="5"/>
</svg>