<svg viewBox="0 0 1000 600" xmlns="http://www.w3.org/2000/svg">
  <rect width="100%" height="100%" fill="#f0e6d2"/>
  <g stroke="#333" stroke-width="0.5" fill="none">
    <!-- Main mountain -->
    <path d="M100,300 Q200,100 300,50 Q400,100 500,300 Q600,500 700,550 Q800,600 900,550" fill="#d4c8b8" opacity="0.7"/>
    <!-- Mountain texture lines -->
    <path d="M150,280 L250,150 M200,250 L300,120 M250,220 L350,90 M300,190 L400,60 M350,160 L450,30 M400,130 L500,0 M450,100 L550,-30 M500,70 L600,-60 M550,40 L650,-90 M600,10 L700,-120" stroke="#555" stroke-width="0.3" opacity="0.6"/>
    <!-- Trees on mountain -->
    <g stroke="#222" stroke-width="0.2">
      <path d="M300,100 L305,110 M310,95 L315,105 M320,85 L325,95 M330,75 L335,85 M340,65 L345,75 M350,55 L355,65 M360,45 L365,55 M370,35 L375,45 M380,25 L385,35 M390,15 L395,25"/>
      <path d="M280,120 L285,130 M290,110 L295,120 M300,100 L305,110 M310,90 L315,100 M320,80 L325,90 M330,70 L335,80 M340,60 L345,70 M350,50 L355,60 M360,40 L365,50 M370,30 L375,40"/>
    </g>
    <!-- Background mountains -->
    <path d="M0,300 Q100,250 200,300 Q300,350 400,300 Q500,250 600,300 Q700,350 800,300 Q900,250 1000,300" fill="#c0b8a8" opacity="0.5"/>
    <!-- Water body -->
    <path d="M0,400 Q500,450 1000,400" fill="#e0d8c8" opacity="0.6"/>
    <!-- Foreground rocks -->
    <path d="M50,500 Q100,550 150,500 Q200,550 250,500 Q300,550 350,500 Q400,550 450,500 Q500,550 550,500 Q600,550 650,500 Q700,550 750,500 Q800,550 850,500 Q900,550 950,500" fill="#d0c8b8" opacity="0.7"/>
    <!-- Trees in foreground -->
    <g stroke="#222" stroke-width="0.2">
      <path d="M100,550 L105,560 M110,545 L115,555 M120,535 L125,545 M130,525 L135,535 M140,515 L145,525 M150,505 L155,515 M160,495 L165,505 M170,485 L175,495 M180,475 L185,485 M190,465 L195,475"/>
      <path d="M200,550 L205,560 M210,545 L215,555 M220,535 L225,545 M230,525 L235,535 M240,515 L245,525 M250,505 L255,515 M260,495 L265,505 M270,485 L275,495 M280,475 L285,485 M290,465 L295,475"/>
    </g>
    <!-- Distant village -->
    <g stroke="#333" stroke-width="0.1">
      <rect x="700" y="500" width="10" height="8" fill="#d0c8b8"/>
      <rect x="715" y="502" width="8" height="6" fill="#d0c8b8"/>
      <rect x="730" y="505" width="12" height="5" fill="#d0c8b8"/>
      <rect x="750" y="503" width="10" height="7" fill="#d0c8b8"/>
      <rect x="765" y="500" width="15" height="10" fill="#d0c8b8"/>
    </g>
  </g>
</svg>