<svg viewBox="75 0 925 1000" xmlns="http://www.w3.org/2000/svg">
  <rect width="100%" height="100%" fill="#8C8C8C"/>
  <rect x="75" y="0" width="340" height="780" fill="#1A1A2E"/>
  <rect x="75" y="780" width="900" height="220" fill="#B8A996"/>
  <rect x="320" y="0" width="600" height="610" fill="#9A9A9A"/>
  <rect x="340" y="40" width="550" height="220" fill="#F0F0F0"/>
  <rect x="345" y="45" width="540" height="210" fill="#D0D0D0"/>
  <rect x="350" y="50" width="530" height="200" fill="#A0A0A0"/>
  <rect x="360" y="60" width="510" height="180" fill="#808080"/>
  <rect x="370" y="70" width="490" height="160" fill="#606060"/>
  <rect x="380" y="80" width="470" height="140" fill="#404040"/>
  <rect x="390" y="90" width="450" height="120" fill="#202020"/>
  <rect x="400" y="100" width="430" height="100" fill="#000000"/>
  <rect x="410" y="110" width="410" height="80" fill="#101010"/>
  <rect x="420" y="120" width="390" height="60" fill="#202020"/>
  <rect x="430" y="130" width="370" height="40" fill="#303030"/>
  <rect x="440" y="140" width="350" height="20" fill="#404040"/>
  <rect x="450" y="150" width="330" height="0" fill="#505050"/>
  <rect x="300" y="260" width="800" height="740" fill="#000000"/>
  <rect x="750" y="420" width="80" height="420" fill="#4A3A2A"/>
  <rect x="780" y="450" width="50" height="390" fill="#5A4A3A"/>
  <rect x="790" y="480" width="30" height="360" fill="#6A5A4A"/>
  <rect x="795" y="510" width="20" height="330" fill="#7A6A5A"/>
  <rect x="800" y="540" width="10" height="300" fill="#8A7A6A"/>
  <rect x="805" y="570" width="5" height="270" fill="#9A8A7A"/>
  <rect x="807" y="600" width="3" height="240" fill="#AA9A8A"/>
  <rect x="808" y="630" width="2" height="210" fill="#BAA99A"/>
  <rect x="809" y="660" width="1" height="180" fill="#CAA9AA"/>
  <rect x="810" y="690" width="1" height="150" fill="#DAA9BA"/>
  <rect x="811" y="720" width="1" height="120" fill="#EAA9CA"/>
  <rect x="812" y="750" width="1" height="90" fill="#FAA9DA"/>
  <rect x="813" y="780" width="1" height="60" fill="#FFA9EA"/>
  <rect x="814" y="810" width="1" height="30" fill="#FFA9FA"/>
  <rect x="815" y="840" width="1" height="0" fill="#FFA9FF"/>
  <rect x="260" y="790" width="120" height="60" fill="#D4AF37"/>
  <rect x="265" y="795" width="110" height="50" fill="#C49F27"/>
  <rect x="270" y="800" width="100" height="40" fill="#B48F17"/>
  <rect x="275" y="805" width="90" height="30" fill="#A47F07"/>
  <rect x="280" y="810" width="80" height="20" fill="#946F00"/>
  <rect x="285" y="815" width="70" height="10" fill="#845F00"/>
  <rect x="290" y="820" width="60" height="0" fill="#744F00"/>
  <rect x="295" y="825" width="50" height="-10" fill="#643F00"/>
  <rect x="300" y="830" width="40" height="-20" fill="#542F00"/>
  <rect x="305" y="835" width="30" height="-30" fill="#441F00"/>
  <rect x="310" y="840" width="20" height="-40" fill="#340F00"/>
  <rect x="315" y="845" width="10" height="-50" fill="#240000"/>
  <rect x="320" y="850" width="0" height="-60" fill="#140000"/>
  <rect x="690" y="110" width="80" height="200" fill="#FFFFFF"/>
  <rect x="695" y="115" width="70" height="190" fill="#F0F0F0"/>
  <rect x="700" y="120" width="60" height="180" fill="#E0E0E0"/>
  <rect x="705" y="125" width="50" height="170" fill="#D0D0D0"/>
  <rect x="710" y="130" width="40" height="160" fill="#C0C0C0"/>
  <rect x="715" y="135" width="30" height="150" fill="#B0B0B0"/>
  <rect x="720" y="140" width="20" height="140" fill="#A0A0A0"/>
  <rect x="725" y="145" width="10" height="130" fill="#909090"/>
  <rect x="730" y="150" width="0" height="120" fill="#808080"/>
  <rect x="690" y="110" width="80" height="200" fill="#FFFFFF"/>
  <rect x="695" y="115" width="70" height="190" fill="#F0F0F0"/>
  <rect x="700" y="120" width="60" height="180" fill="#E0E0E0"/>
  <rect x="705" y="125" width="50" height="170" fill="#D0D0D0"/>
  <rect x="710" y="130" width="40" height="160" fill="#C0C0C0"/>
  <rect x="715" y="135" width="30" height="150" fill="#B0B0B0"/>
  <rect x="720" y="140" width="20" height="140" fill="#A0A0A0"/>
  <rect x="725" y="145" width="10" height="130" fill="#909090"/>
  <rect x="730" y="150" width="0" height="120" fill="#808080"/>
  <rect x="735" y="155" width="-5" height="110" fill="#707070"/>
  <rect x="740" y="160" width="-10" height="100" fill="#606060"/>
  <rect x="745" y="165" width="-15" height="90" fill="#505050"/>
  <rect x="750" y="170" width="-20" height="80" fill="#404040"/>
  <rect x="755" y="175" width="-25" height="70" fill="#303030"/>
  <rect x="760" y="180" width="-30" height="60" fill="#202020"/>
  <rect x="765" y="185" width="-35" height="50" fill="#101010"/>
  <rect x="770" y="190" width="-40" height="40" fill="#000000"/>
  <rect x="775" y="195" width="-45" height="30" fill="#101010"/>
  <rect x="780" y="200" width="-50" height="20" fill="#202020"/>
  <rect x="785" y="205" width="-55" height="10" fill="#303030"/>
  <rect x="790" y="210" width="-60" height="0" fill="#404040"/>
  <rect x="795" y="215" width="-65" height="-10" fill="#505050"/>
  <rect x="800" y="220" width="-70" height="-20" fill="#606060"/>
  <rect x="805" y="225" width="-75" height="-30" fill="#707070"/>
  <rect x="810" y="230" width="-80" height="-40" fill="#808080"/>
  <rect x="815" y="235" width="-85" height="-50" fill="#909090"/>
  <rect x="820" y="240" width="-90" height="-60" fill="#A0A0A0"/>
  <rect x="825" y="245" width="-95" height="-70" fill="#B0B0B0"/>
  <rect x="830" y="250" width="-100" height="-80" fill="#C0C0C0"/>
  <rect x="835" y="255" width="-105" height="-90" fill="#D0D0D0"/>
  <rect x="840" y="260" width="-110" height="-100" fill="#E0E0E0"/>
  <rect x="845" y="265" width="-115" height="-110" fill="#F0F0F0"/>
  <rect x="850" y="270" width="-120" height="-120" fill="#FFFFFF"/>
  <rect x="700" y="260" width="80" height="100" fill="#FFFFFF"/>
  <rect x="705" y="265" width="70" height="90" fill="#F0F0F0"/>
  <rect x="710" y="270" width="60" height="80" fill="#E0E0E0"/>
  <rect x="715" y="275" width="50" height="70" fill="#D0D0D0"/>
  <rect x="720" y="280" width="40" height="60" fill="#C0C0C0"/>
  <rect x="725" y="285" width="30" height="50" fill="#B0B0B0"/>
  <rect x="730" y="290" width="20" height="40" fill="#A0A0A0"/>
  <rect x="735" y="295" width="10" height="30" fill="#909090"/>
  <rect x="740" y="300" width="0" height="20" fill="#808080"/>
  <rect x="745" y="305" width="-5" height="10" fill="#707070"/>
  <rect x="750" y="310" width="-10" height="0" fill="#606060"/>
  <rect x="755" y="315" width="-15" height="-10" fill="#505050"/>
  <rect x="760" y="320" width="-20" height="-20" fill="#404040"/>
  <rect x="765" y="325" width="-25" height="-30" fill="#303030"/>
  <rect x="770" y="330" width="-30" height="-40" fill="#202020"/>
  <rect x="775" y="335" width="-35" height="-50" fill="#101010"/>
  <rect x="780" y="340" width="-40" height="-60" fill="#000000"/>
  <rect x="785" y="345" width="-45" height="-70" fill="#101010"/>
  <rect x="790" y="350" width="-50" height="-80" fill="#202020"/>
  <rect x="795" y="355" width="-55" height="-90" fill="#303030"/>
  <rect x="800" y="360" width="-60" height="-100" fill="#404040"/>
  <rect x="805" y="365" width="-65" height="-110" fill="#505050"/>
  <rect x="810" y="370" width="-70" height="-120" fill="#606060"/>
  <rect x="815" y="375" width="-75" height="-130" fill="#707070"/>
  <rect x="820" y="380" width="-80" height="-140" fill="#808080"/>
  <rect x="825" y="385" width="-85" height="-150" fill="#909090"/>
  <rect x="830" y="390" width="-90" height="-160" fill="#A0A0A0"/>
  <rect x="835" y="395" width="-95" height="-170" fill="#B0B0B0"/>
  <rect x="840" y="400" width="-100" height="-180" fill="#C0C0C0"/>
  <rect x="845" y="405" width="-105" height="-190" fill="#D0D0D0"/>
  <rect x="850" y="410" width="-110" height="-200" fill="#E0E0E0"/>
  <rect x="855" y="415" width="-115" height="-210" fill="#F0F0F0"/>
  <rect x="860" y="420" width="-120" height="-220" fill="#FFFFFF"/>
  <rect x="530" y="450" width="80" height="60" fill="#FFFFFF"/>
  <rect x="535" y="455" width="70" height="50" fill="#F0F0F0"/>
  <rect x="540" y="460" width="60" height="40" fill="#E0E0E0"/>
  <rect x="545" y="465" width="50" height="30" fill="#D0D0D0"/>
  <rect x="550" y="470" width="40" height="20" fill="#C0C0C0"/>
  <rect x="555" y="475" width="30" height="10" fill="#B0B0B0"/>
  <rect x="560" y="480" width="20" height="0" fill="#A0A0A0"/>
  <rect x="565" y="485" width="10" height="-10" fill="#909090"/>
  <rect x="570" y="490" width="0" height="-20" fill="#808080"/>
  <rect x="575" y="495" width="-5" height="-30" fill="#707070"/>
  <rect x="580" y="500" width="-10" height="-40" fill="#606060"/>
  <rect x="585" y="505" width="-15" height="-50" fill="#505050"/>
  <rect x="590" y="510" width="-20" height="-60" fill="#404040"/>
  <rect x="595" y="515" width="-25" height="-70" fill="#303030"/>
  <rect x="600" y="520" width="-30" height="-80" fill="#202020"/>
  <rect x="605" y="525" width="-35" height="-90" fill="#101010"/>
  <rect x="610" y="530" width="-40" height="-100" fill="#000000"/>
  <rect x="615" y="535" width="-45" height="-110" fill="#101010"/>
  <rect x="620" y="540" width="-50" height="-120" fill="#202020"/>
  <rect x="625" y="545" width="-55" height="-130" fill="#303030"/>
  <rect x="630" y="550" width="-60" height="-140" fill="#404040"/>
  <rect x="635" y="555" width="-65" height="-150" fill="#505050"/>
  <rect x="640" y="560" width="-70" height="-160" fill="#606060"/>
  <rect x="645" y="565" width="-75" height="-170" fill="#707070"/>
  <rect x="650" y="570" width="-80" height="-180" fill="#808080"/>
  <rect x="655" y="575" width="-85" height="-190" fill="#909090"/>
  <rect x="660" y="580" width="-90" height="-200" fill="#A0A0A0"/>
  <rect x="665" y="585" width="-95" height="-210" fill="#B0B0B0"/>
  <rect x="670" y="590" width="-100" height="-220" fill="#C0C0C0"/>
  <rect x="675" y="595" width="-105" height="-230" fill="#D0D0D0"/>
  <rect x="680" y="600" width="-110" height="-240" fill="#E0E0E0"/>
  <rect x="685" y="605" width="-115" height="-250" fill="#F0F0F0"/>
  <rect x="690" y="610" width="-120" height="-260" fill="#FFFFFF"/>
</svg>