<svg viewBox="0 0 1000 600" xmlns="http://www.w3.org/2000/svg">
  <rect width="1000" height="600" fill="#8B4513"/>
  <rect x="0" y="0" width="1000" height="100" fill="#F5F5DC"/>
  <rect x="0" y="100" width="1000" height="500" fill="#8B4513"/>
  <rect x="0" y="100" width="1000" height="50" fill="#DAA520"/>
  <rect x="0" y="150" width="1000" height="50" fill="#8B4513"/>
  <rect x="0" y="200" width="1000" height="50" fill="#DAA520"/>
  <rect x="0" y="250" width="1000" height="50" fill="#8B4513"/>
  <rect x="0" y="300" width="1000" height="50" fill="#DAA520"/>
  <rect x="0" y="350" width="1000" height="50" fill="#8B4513"/>
  <rect x="0" y="400" width="1000" height="50" fill="#DAA520"/>
  <rect x="0" y="450" width="1000" height="50" fill="#8B4513"/>
  <rect x="0" y="500" width="1000" height="50" fill="#DAA520"/>
  <rect x="0" y="550" width="1000" height="50" fill="#8B4513"/>
  <rect x="0" y="600" width="1000" height="50" fill="#DAA520"/>
  <rect x="0" y="650" width="1000" height="50" fill="#8B4513"/>
  <rect x="0" y="700" width="1000" height="50" fill="#DAA520"/>
  <rect x="0" y="750" width="1000" height="50" fill="#8B4513"/>
  <rect x="0" y="800" width="1000" height="50" fill="#DAA520"/>
  <rect x="0" y="850" width="1000" height="50" fill="#8B4513"/>
  <rect x="0" y="900" width="1000" height="50" fill="#DAA520"/>
  <rect x="0" y="950" width="1000" height="50" fill="#8B4513"/>
  <rect x="0" y="1000" width="1000" height="50" fill="#DAA520"/>
  <rect x="0" y="1050" width="1000" height="50" fill="#8B4513"/>
  <rect x="0" y="1100" width="1000" height="50" fill="#DAA520"/>
  <rect x="0" y="1150" width="1000" height="50" fill="#8B4513"/>
  <rect x="0" y="1200" width="1000" height="50" fill="#DAA520"/>
  <rect x="0" y="1250" width="1000" height="50" fill="#8B4513"/>
  <rect x="0" y="1300" width="1000" height="50" fill="#DAA520"/>
  <rect x="0" y="1350" width="1000" height="50" fill="#8B4513"/>
  <rect x="0" y="1400" width="1000" height="50" fill="#DAA520"/>
  <rect x="0" y="1450" width="1000" height="50" fill="#8B4513"/>
  <rect x="0" y="1500" width="1000" height="50" fill="#DAA520"/>
  <rect x="0" y="1550" width="1000" height="50" fill="#8B4513"/>
  <rect x="0" y="1600" width="1000" height="50" fill="#DAA520"/>
  <rect x="0" y="1650" width="1000" height="50" fill="#8B4513"/>
  <rect x="0" y="1700" width="1000" height="50" fill="#DAA520"/>
  <rect x="0" y="1750" width="1000" height="50" fill="#8B4513"/>
  <rect x="0" y="1800" width="1000" height="50" fill="#DAA520"/>
  <rect x="0" y="1850" width="1000" height="50" fill="#8B4513"/>
  <rect x="0" y="1900" width="1000" height="50" fill="#DAA520"/>
  <rect x="0" y="1950" width="1000" height="50" fill="#8B4513"/>
  <rect x="0" y="2000" width="1000" height="50" fill="#DAA520"/>
  <rect x="0" y="2050" width="1000" height="50" fill="#8B4513"/>
  <rect x="0" y="2100" width="1000" height="50" fill="#DAA520"/>
  <rect x="0" y="2150" width="1000" height="50" fill="#8B4513"/>
  <rect x="0" y="2200" width="1000" height="50" fill="#DAA520"/>
  <rect x="0" y="2250" width="1000" height="50" fill="#8B4513"/>
  <rect x="0" y="2300" width="1000" height="50" fill="#DAA520"/>
  <rect x="0" y="2350" width="1000" height="50" fill="#8B4513"/>
  <rect x="0" y="2400" width="1000" height="50" fill="#DAA520"/>
  <rect x="0" y="2450" width="1000" height="50" fill="#8B4513"/>
  <rect x="0" y="2500" width="1000" height="50" fill="#DAA520"/>
  <rect x="0" y="2550" width="1000" height="50" fill="#8B4513"/>
  <rect x="0" y="2600" width="1000" height="50" fill="#DAA520"/>
  <rect x="0" y="2650" width="1000" height="50" fill="#8B4513"/>
  <rect x="0" y="2700" width="1000" height="50" fill="#DAA520"/>
  <rect x="0" y="2750" width="1000" height="50" fill="#8B4513"/>
  <rect x="0" y="2800" width="1000" height="50" fill="#DAA520"/>
  <rect x="0" y="2850" width="1000" height="50" fill="#8B4513"/>
  <rect x="0" y="2900" width="1000" height="50" fill="#DAA520"/>
  <rect x="0" y="2950" width="1000" height="50" fill="#8B4513"/>
  <rect x="0" y="3000" width="1000" height="50" fill="#DAA520"/>
  <rect x="0" y="3050" width="1000" height="50" fill="#8B4513"/>
  <rect x="0" y="3100" width="1000" height="50" fill="#DAA520"/>
  <rect x="0" y="3150" width="1000" height="50" fill="#8B4513"/>
  <rect x="0" y="3200" width="1000" height="50" fill="#DAA520"/>
  <rect x="0" y="3250" width="1000" height="50" fill="#8B4513"/>
  <rect x="0" y="3300" width="1000" height="50" fill="#DAA520"/>
  <rect x="0" y="3350" width="1000" height="50" fill="#8B4513"/>
  <rect x="0" y="3400" width="1000" height="50" fill="#DAA520"/>
  <rect x="0" y="3450" width="1000" height="50" fill="#8B4513"/>
  <rect x="0" y="3500" width="1000" height="50" fill="#DAA520"/>
  <rect x="0" y="3550" width="1000" height="50" fill="#8B4513"/>
  <rect x="0" y="3600" width="1000" height="50" fill="#DAA520"/>
  <rect x="0" y="3650" width="1000" height="50" fill="#8B4513"/>
  <rect x="0" y="3700" width="1000" height="50" fill="#DAA520"/>
  <rect x="0" y="3750" width="1000" height="50" fill="#8B4513"/>
  <rect x="0" y="3800" width="1000" height="50" fill="#DAA520"/>
  <rect x="0" y="3850" width="1000" height="50" fill="#8B4513"/>
  <rect x="0" y="3900" width="1000" height="50" fill="#DAA520"/>
  <rect x="0" y="3950" width="1000" height="50" fill="#8B4513"/>
  <rect x="0" y="4000" width="1000" height="50" fill="#DAA520"/>
  <rect x="0" y="4050" width="1000" height="50" fill="#8B4513"/>
  <rect x="0" y="4100" width="1000" height="50" fill="#DAA520"/>
  <rect x="0" y="4150" width="1000" height="50" fill="#8B4513"/>
  <rect x="0" y="4200" width="1000" height="50" fill="#DAA520"/>
  <rect x="0" y="4250" width="1000" height="50" fill="#8B4513"/>
  <rect x="0" y="4300" width="1000" height="50" fill="#DAA520"/>
  <rect x="0" y="4350" width="1000" height="50" fill="#8B4513"/>
  <rect x="0" y="4400" width="1000" height="50" fill="#DAA520"/>
  <rect x="0" y="4450" width="1000" height="50" fill="#8B4513"/>
  <rect x="0" y="4500" width="1000" height="50" fill="#DAA520"/>
  <rect x="0" y="4550" width="1000" height="50" fill="#8B4513"/>
  <rect x="0" y="4600" width="1000" height="50" fill="#DAA520"/>
  <rect x="0" y="4650" width="1000" height="50" fill="#8B4513"/>
  <rect x="0" y="4700" width="1000" height="50" fill="#DAA520"/>
  <rect x="0" y="4750" width="1000" height="50" fill="#8B4513"/>
  <rect x="0" y="4800" width="1000" height="50" fill="#DAA520"/>
  <rect x="0" y="4850" width="1000" height="50" fill="#8B4513"/>
  <rect x="0" y="4900" width="1000" height="50" fill="#DAA520"/>
  <rect x="0" y="4950" width="1000" height="50" fill="#8B4513"/>
  <rect x="0" y="5000" width="1000" height="50" fill="#DAA520"/>
  <rect x="0" y="5050" width="1000" height="50" fill="#8B4513"/>
  <rect x="0" y="5100" width="1000" height="50" fill="#DAA520"/>
  <rect x="0" y="5150" width="1000" height="50" fill="#8B4513"/>
  <rect x="0" y="5200" width="1000" height="50" fill="#DAA520"/>
  <rect x="0" y="5250" width="1000" height="50" fill="#8B4513"/>
  <rect x="0" y="5300" width="1000" height="50" fill="#DAA520"/>
  <rect x="0" y="5350" width="1000" height="50" fill="#8B4513"/>
  <rect x="0" y="5400" width="1000" height="50" fill="#DAA520"/>
  <rect x="0" y="5450" width="1000" height="50" fill="#8B4513"/>
  <rect x="0" y="5500" width="1000" height="50" fill="#DAA520"/>
  <rect x="0" y="5550" width="1000" height="50" fill="#8B4513"/>
  <rect x="0" y="5600" width="1000" height="50" fill="#DAA520"/>
  <rect x="0" y="5650" width="1000" height="50" fill="#8B4513"/>
  <rect x="0" y="5700" width="1000" height="50" fill="#DAA520"/>
  <rect x="0" y="5750" width="1000" height="50" fill="#8B4513"/>
  <rect x="0" y="5800" width="1000" height="50" fill="#DAA520"/>
  <rect x="0" y="5850" width="1000" height="50" fill="#8B4513"/>
  <rect x="0" y="5900" width="1000" height="50" fill="#DAA520"/>
  <rect x="0" y="5950" width="1000" height="50" fill="#8B4513"/>
  <rect x="0" y="6000" width="1000" height="50" fill="#DAA520"/>
  <rect x="0" y="6050" width="1000" height="50" fill="#8B4513"/>
  <rect x="0" y="6100" width="1000" height="50" fill="#DAA520"/>
  <rect x="0" y="6150" width="1000" height="50" fill="#8B4513"/>
  <rect x="0" y="6200" width="1000" height="50" fill="#DAA520"/>
  <rect x="0" y="6250" width="1000" height="50" fill="#8B4513"/>
  <rect x="0" y="6300" width="1000" height="50" fill="#DAA520"/>
  <rect x="0" y="6350" width="1000" height="50" fill="#8B4513"/>
  <rect x="0" y="6400" width="1000" height="50" fill="#DAA520"/>
  <rect x="0" y="6450" width="1000" height="50" fill="#8B4513"/>
  <rect x="0" y="6500" width="1000" height="50" fill="#DAA520"/>
  <rect x="0" y="6550" width="1000" height="50" fill="#8B4513"/>
  <rect x="0" y="6600" width="1000" height="50" fill="#DAA520"/>
  <rect x="0" y="6650" width="1000" height="50" fill="#8B4513"/>
  <rect x="0" y="6700" width="1000" height="50" fill="#DAA520"/>
  <rect x="0" y="6750" width="1000" height="50" fill="#8B4513"/>
  <rect x="0" y="6800" width="1000" height="50" fill="#DAA520"/>
  <rect x="0" y="6850" width="1000" height="50" fill="#8B4513"/>
  <rect x="0" y="6900" width="1000" height="50" fill="#DAA520"/>
  <rect x="0" y="6950" width="1000" height="50" fill="#8B4513"/>
  <rect x="0" y="7000" width="1000" height="50" fill="#DAA520"/>
  <rect x="0" y="7050" width="1000" height="50" fill="#8B4513"/>
  <rect x="0" y="7100" width="1000" height="50" fill="#DAA520"/>
  <rect x="0" y="7150" width="1000" height="50" fill="#8B4513"/>
  <rect x="0" y="7200" width="1000" height="50" fill="#DAA520"/>
  <rect x="0" y="7250" width="1000" height="50" fill="#8B4513"/>
  <rect x="0" y="7300" width="1000" height="50" fill="#DAA520"/>
  <rect x="0" y="7350" width="1000" height="50" fill="#8B4513"/>
  <rect x="0" y="7400" width="1000" height="50" fill="#DAA520"/>
  <rect x="0" y="7450" width="1000" height="50" fill="#8B4513"/>
  <rect x="0" y="7500" width="1000" height="50" fill="#DAA520"/>
  <rect x="0" y="7550" width="1000" height="50" fill="#8B4513"/>
  <rect x="0" y="7600" width="1000" height="50" fill="#DAA520"/>
  <rect x="0" y="7650" width="1000" height="50" fill="#8B4513"/>
  <rect x="0" y="7700" width="1000" height="50" fill="#DAA520"/>
  <rect x="0" y="7750" width="1000" height="50" fill="#8B4513"/>
  <rect x="0" y="7800" width="1000" height="50" fill="#DAA520"/>
  <rect x="0" y="7850" width="1000" height="50" fill="#8B4513"/>
  <rect x="0" y="7900" width="1000" height="50" fill="#DAA520"/>
  <rect x="0" y="7950" width="1000" height="50" fill="#8B4513"/>
  <rect x="0" y="8000" width="1000" height="50" fill="#DAA520"/>
  <rect x="0" y="8050" width="1000" height="50" fill="#8B4513"/>
  <rect x="0" y="8100" width="1000" height="50" fill="#DAA520"/>
  <rect x="0" y="8150" width="1000" height="50" fill="#8B4513"/>
  <rect x="0" y="8200" width="1000" height="50" fill="#DAA520"/>
  <rect x="0" y="8250" width="1000" height="50" fill="#8B4513"/>
  <rect x="0" y="8300" width="1000" height="50" fill="#DAA520"/>
  <rect x="0" y="8350" width="1000" height="50" fill="#8B4513"/>
  <rect x="0" y="8400" width="1000" height="50" fill="#DAA520"/>
  <rect x="0" y="8450" width="1000" height="50" fill="#8B4513"/>
  <rect x="0" y="8500" width="1000" height="50" fill="#DAA520"/>
  <rect x="0" y="8550" width="1000" height="50" fill="#8B4513"/>
  <rect x="0" y="8600" width="1000" height="50" fill="#DAA520"/>
  <rect x="0" y="8650" width="1000" height="50" fill="#8B4513"/>
  <rect x="0" y="8700" width="1000" height="50" fill="#DAA520"/>
  <rect x="0" y="8750" width="1000" height="50" fill="#8B4513"/>
  <rect x="0" y="8800" width="1000" height="50" fill="#DAA520"/>
  <rect x="0" y="8850" width="1000" height="50" fill="#8B4513"/>
  <rect x="0" y="8900" width="1000" height="50" fill="#DAA520"/>
  <rect x="0" y="8950" width="1000" height="50" fill="#8B4513"/>
  <rect x="0" y="9000" width="1000" height="50" fill="#DAA520"/>
  <rect x="0" y="9050" width="1000" height="50" fill="#8B4513"/>
  <rect x="0" y="9100" width="1000" height="50" fill="#DAA520"/>
  <rect x="0" y="9150" width="1000" height="50" fill="#8B4513"/>
  <rect x="0" y="9200" width="1000" height="50" fill="#DAA520"/>
  <rect x="0" y="9250" width="1000" height="50" fill="#8B4513"/>
  <rect x="0" y="9300" width="1000" height="50" fill="#DAA520"/>
  <rect x="0" y="9350" width="1000" height="50" fill="#8B4513"/>
  <rect x="0" y="9400" width="1000" height="50" fill="#DAA520"/>
  <rect x="0" y="9450" width="1000" height="50" fill="#8B4513"/>
  <rect x="0" y="9500" width="1000" height="50" fill="#DAA520"/>
  <rect x="0" y="9550" width="1000" height="50" fill="#8B4513"/>
  <rect x="0" y="9600" width="1000" height="50" fill="#DAA520"/>
  <rect x="0" y="9650" width="1000" height="50" fill="#8B4513"/>
  <rect x="0" y="9700" width="1000" height="50" fill="#DAA520"/>
  <rect x="0" y="9750" width="1000" height="50" fill="#8B4513"/>
  <rect x="0" y="9800" width="1000" height="50" fill="#DAA520"/>
  <rect x="0" y="9850" width="1000" height="50" fill="#8B4513"/>
  <rect x="0" y="9900" width="1000" height="50" fill="#DAA520"/>
  <rect x="0" y="9950" width="1000" height="50" fill="#8B4513"/>
  <rect x="0" y="10000" width="1000" height="50" fill="#DAA520"/>
</svg>