<svg viewBox="0 0 1000 1000" xmlns="http://www.w3.org/2000/svg">
  <rect width="100%" height="100%" fill="#4a3c2d"/>
  <g transform="translate(50,50)">
    <!-- Main cabbage head -->
    <path d="M500,500 
             C480,460 440,440 400,450 
             C360,460 330,490 320,530 
             C310,570 330,610 360,630 
             C390,650 430,650 460,630 
             C490,610 510,570 500,530 
             Z" 
          fill="#4a8b6f" stroke="#3a6b55" stroke-width="2"/>
    
    <!-- Outer leaves -->
    <path d="M500,500 
             C540,480 580,470 620,480 
             C660,490 690,520 700,560 
             C710,600 690,640 650,660 
             C610,680 560,680 520,660 
             C480,640 460,600 470,560 
             Z" 
          fill="#5a9b7f" stroke="#4a7b65" stroke-width="2"/>
    
    <path d="M500,500 
             C460,520 420,530 380,520 
             C340,510 310,480 300,440 
             C290,400 310,360 350,340 
             C390,320 440,320 480,340 
             C520,360 540,400 530,440 
             Z" 
          fill="#5a9b7f" stroke="#4a7b65" stroke-width="2"/>
    
    <!-- Additional leaf layers -->
    <path d="M500,500 
             C520,440 560,410 610,420 
             C660,430 690,470 700,520 
             C710,570 680,620 630,640 
             C580,660 520,650 480,620 
             C440,590 430,540 450,500 
             Z" 
          fill="#6ab78f" stroke="#5a9b7f" stroke-width="1.5"/>
    
    <path d="M500,500 
             C480,560 440,590 390,580 
             C340,570 310,530 300,480 
             C290,430 320,380 370,360 
             C420,340 480,350 520,380 
             C560,410 570,460 550,500 
             Z" 
          fill="#6ab78f" stroke="#5a9b7f" stroke-width="1.5"/>
    
    <!-- Background cabbages -->
    <path d="M200,150 
             C180,130 160,120 140,130 
             C120,140 110,160 110,180 
             C110,200 120,220 140,230 
             C160,240 180,240 200,230 
             C220,220 230,200 220,180 
             Z" 
          fill="#5a9b7f" opacity="0.8"/>
    
    <path d="M800,150 
             C780,130 760,120 740,130 
             C720,140 710,160 710,180 
             C710,200 720,220 740,230 
             C760,240 780,240 800,230 
             C820,220 830,200 820,180 
             Z" 
          fill="#5a9b7f" opacity="0.8"/>
    
    <!-- Soil texture elements -->
    <path d="M0,0 Q100,50 200,0 Q300,50 400,0 Q500,50 600,0 Q700,50 800,0 Q900,50 1000,0" 
          fill="none" stroke="#3a2c1d" stroke-width="3" opacity="0.3"/>
    
    <path d="M0,1000 Q100,950 200,1000 Q300,950 400,1000 Q500,950 600,1000 Q700,950 800,1000 Q900,950 1000,1000" 
          fill="none" stroke="#3a2c1d" stroke-width="3" opacity="0.3"/>
    
    <!-- Leaf details and veins -->
    <path d="M500,500 L490,480 L480,460 L470,440" 
          stroke="#3a6b55" stroke-width="1" fill="none"/>
    <path d="M500,500 L510,480 L520,460 L530,440" 
          stroke="#3a6b55" stroke-width="1" fill="none"/>
    <path d="M500,500 L480,520 L460,540 L440,560" 
          stroke="#3a6b55" stroke-width="1" fill="none"/>
    <path d="M500,500 L520,520 L540,540 L560,560" 
          stroke="#3a6b55" stroke-width="1" fill="none"/>
  </g>
</svg>