<svg viewBox="0 0 500 500" xmlns="http://www.w3.org/2000/svg">
  <rect width="500" height="500" fill="#8B7E74"/>
  <rect x="60" y="190" width="440" height="280" fill="#C9A063" stroke="#8B7E74" stroke-width="2"/>
  <rect x="70" y="200" width="420" height="260" fill="#D2B48C" stroke="#8B7E74" stroke-width="1"/>
  <rect x="80" y="210" width="400" height="240" fill="#E6D5B8" stroke="#8B7E74" stroke-width="1"/>
  <rect x="90" y="220" width="380" height="220" fill="#F5DEB3" stroke="#8B7E74" stroke-width="1"/>
  <rect x="100" y="230" width="360" height="200" fill="#FFF8DC" stroke="#8B7E74" stroke-width="1"/>
  <rect x="110" y="240" width="340" height="180" fill="#FFEBCD" stroke="#8B7E74" stroke-width="1"/>
  <rect x="120" y="250" width="320" height="160" fill="#FAEBD7" stroke="#8B7E74" stroke-width="1"/>
  <rect x="130" y="260" width="300" height="140" fill="#DEB887" stroke="#8B7E74" stroke-width="1"/>
  <rect x="140" y="270" width="280" height="120" fill="#CD853F" stroke="#8B7E74" stroke-width="1"/>
  <rect x="150" y="280" width="260" height="100" fill="#D2691E" stroke="#8B7E74" stroke-width="1"/>
  <rect x="160" y="290" width="240" height="80" fill="#B8860B" stroke="#8B7E74" stroke-width="1"/>
  <rect x="170" y="300" width="220" height="60" fill="#8B4513" stroke="#8B7E74" stroke-width="1"/>
  <rect x="180" y="310" width="200" height="40" fill="#A0522D" stroke="#8B7E74" stroke-width="1"/>
  <rect x="190" y="320" width="180" height="20" fill="#8B4513" stroke="#8B7E74" stroke-width="1"/>
  <rect x="200" y="330" width="160" height="10" fill="#A0522D" stroke="#8B7E74" stroke-width="1"/>
  <rect x="210" y="340" width="140" height="5" fill="#8B4513" stroke="#8B7E74" stroke-width="1"/>
  <rect x="220" y="350" width="120" height="2" fill="#A0522D" stroke="#8B7E74" stroke-width="1"/>
  <rect x="230" y="360" width="100" height="1" fill="#8B4513" stroke="#8B7E74" stroke-width="1"/>
  <rect x="240" y="370" width="80" height="1" fill="#A0522D" stroke="#8B7E74" stroke-width="1"/>
  <rect x="250" y="380" width="60" height="1" fill="#8B4513" stroke="#8B7E74" stroke-width="1"/>
  <rect x="260" y="390" width="40" height="1" fill="#A0522D" stroke="#8B7E74" stroke-width="1"/>
  <rect x="270" y="400" width="20" height="1" fill="#8B4513" stroke="#8B7E74" stroke-width="1"/>
  <rect x="280" y="410" width="10" height="1" fill="#A0522D" stroke="#8B7E74" stroke-width="1"/>
  <rect x="290" y="420" width="5" height="1" fill="#8B4513" stroke="#8B7E74" stroke-width="1"/>
  <rect x="300" y="430" width="2" height="1" fill="#A0522D" stroke="#8B7E74" stroke-width="1"/>
  <rect x="310" y="440" width="1" height="1" fill="#8B4513" stroke="#8B7E74" stroke-width="1"/>
</svg>