<svg viewBox="0 0 1000 900" xmlns="http://www.w3.org/2000/svg">
  <style>
    .header { font-family: Arial, sans-serif; font-size: 14px; font-weight: bold; text-anchor: middle; }
    .subheader { font-family: Arial, sans-serif; font-size: 12px; font-weight: bold; text-anchor: middle; }
    .territory { font-family: Arial, sans-serif; font-size: 12px; text-anchor: start; }
    .value { font-family: Arial, sans-serif; font-size: 12px; text-anchor: middle; }
    .highlight { fill: #ffff99; }
    .border { stroke: black; stroke-width: 1; }
    .dashed { stroke: black; stroke-width: 1; stroke-dasharray: 4 2; }
    .image-frame { fill: white; stroke: black; stroke-width: 1; }
    .photo-bg { fill: #f0f0f0; }
  </style>

  <!-- Table structure -->
  <rect x="0" y="0" width="1000" height="900" fill="white" />

  <!-- Column headers -->
  <text x="250" y="25" class="header">Territory</text>
  <text x="450" y="25" class="header">Total</text>
  <text x="550" y="25" class="header">M-25</text>
  <text x="650" y="25" class="header">M25+</text>
  <text x="750" y="25" class="header">F-25</text>
  <text x="850" y="25" class="header">F25+</text>
  <text x="750" y="5" class="header">Awareness</text>

  <!-- Horizontal lines -->
  <line x1="0" y1="35" x2="1000" y2="35" class="border" />
  <line x1="0" y1="55" x2="1000" y2="55" class="border" />

  <!-- First section - Will Ferrell -->
  <rect x="10" y="65" width="180" height="200" class="image-frame" />
  <!-- Placeholder for photo - Will Ferrell -->
  <rect x="15" y="70" width="170" height="190" class="photo-bg" />
  <text x="100" y="170" class="territory" transform="rotate(-90 100,170)">Will Ferrell</text>

  <!-- Data rows for Will Ferrell -->
  <text x="250" y="75" class="territory">Australia</text>
  <text x="450" y="75" class="value">94%</text>
  <text x="550" y="75" class="value">92%</text>
  <text x="650" y="75" class="value">93%</text>
  <text x="750" y="75" class="value">94%</text>
  <text x="850" y="75" class="value">96%</text>

  <text x="250" y="105" class="territory">France</text>
  <text x="450" y="105" class="value">40%</text>
  <text x="550" y="105" class="value">43%</text>
  <text x="650" y="105" class="value">45%</text>
  <text x="750" y="105" class="value">35%</text>
  <text x="850" y="105" class="value">35%</text>

  <text x="250" y="135" class="territory">Germany</text>
  <text x="450" y="135" class="value">65%</text>
  <text x="550" y="135" class="value">66%</text>
  <text x="650" y="135" class="value">66%</text>
  <text x="750" y="135" class="value">68%</text>
  <text x="850" y="135" class="value">63%</text>

  <text x="250" y="165" class="territory">Italy</text>
  <text x="450" y="165" class="value">57%</text>
  <text x="550" y="165" class="value">56%</text>
  <text x="650" y="165" class="value">56%</text>
  <text x="750" y="165" class="value">54%</text>
  <text x="850" y="165" class="value">59%</text>

  <text x="250" y="195" class="territory">Japan</text>
  <text x="450" y="195" class="value">18%</text>
  <text x="550" y="195" class="value">12%</text>
  <text x="650" y="195" class="value">23%</text>
  <text x="750" y="195" class="value">8%</text>
  <text x="850" y="195" class="value">22%</text>

  <text x="250" y="225" class="territory">Korea</text>
  <text x="450" y="225" class="value">67%</text>
  <text x="550" y="225" class="value">65%</text>
  <text x="650" y="225" class="value">71%</text>
  <text x="750" y="225" class="value">58%</text>
  <text x="850" y="225" class="value">74%</text>

  <text x="250" y="255" class="territory">Mexico</text>
  <text x="450" y="255" class="value">79%</text>
  <text x="550" y="255" class="value">78%</text>
  <text x="650" y="255" class="value">79%</text>
  <text x="750" y="255" class="value">79%</text>
  <text x="850" y="255" class="value">80%</text>

  <text x="250" y="285" class="territory">Russia</text>
  <text x="450" y="285" class="value">69%</text>
  <text x="550" y="285" class="value">64%</text>
  <text x="650" y="285" class="value">79%</text>
  <text x="750" y="285" class="value">64%</text>
  <text x="850" y="285" class="value">70%</text>

  <text x="250" y="315" class="territory">Spain</text>
  <text x="450" y="315" class="value">63%</text>
  <text x="550" y="315" class="value">57%</text>
  <text x="650" y="315" class="value">70%</text>
  <text x="750" y="315" class="value">53%</text>
  <text x="850" y="315" class="value">64%</text>

  <text x="250" y="345" class="territory">UK</text>
  <text x="450" y="345" class="value">94%</text>
  <text x="550" y="345" class="value">95%</text>
  <text x="650" y="345" class="value">93%</text>
  <text x="750" y="345" class="value">91%</text>
  <text x="850" y="345" class="value">95%</text>

  <text x="250" y="375" class="territory">Int'l Average</text>
  <text x="450" y="375" class="value">64%</text>
  <text x="550" y="375" class="value">63%</text>
  <text x="650" y="375" class="value">68%</text>
  <text x="750" y="375" class="value">60%</text>
  <text x="850" y="375" class="value">66%</text>

  <!-- Vertical dashed line separator -->
  <line x1="500" y1="35" x2="500" y2="385" class="dashed" />

  <!-- Second section - Tina Fey -->
  <rect x="10" y="405" width="180" height="200" class="image-frame" />
  <!-- Placeholder for photo - Tina Fey -->
  <rect x="15" y="410" width="170" height="190" class="photo-bg" />
  <text x="100" y="510" class="territory" transform="rotate(-90 100,510)">Tina Fey</text>

  <!-- Data rows for Tina Fey -->
  <text x="250" y="415" class="territory">Australia</text>
  <text x="450" y="415" class="value">62%</text>
  <text x="550" y="415" class="value">54%</text>
  <text x="650" y="415" class="value">59%</text>
  <text x="750" y="415" class="value">70%</text>
  <text x="850" y="415" class="value">65%</text>

  <text x="250" y="445" class="territory">France</text>
  <text x="450" y="445" class="value">19%</text>
  <text x="550" y="445" class="value">23%</text>
  <text x="650" y="445" class="value">18%</text>
  <text x="750" y="445" class="value">19%</text>
  <text x="850" y="445" class="value">17%</text>

  <text x="250" y="475" class="territory">Germany</text>
  <text x="450" y="475" class="value">20%</text>
  <text x="550" y="475" class="value">21%</text>
  <text x="650" y="475" class="value">19%</text>
  <text x="750" y="475" class="value">22%</text>
  <text x="850" y="475" class="value">20%</text>

  <text x="250" y="505" class="territory">Italy</text>
  <text x="450" y="505" class="value">24%</text>
  <text x="550" y="505" class="value">27%</text>
  <text x="650" y="505" class="value">21%</text>
  <text x="750" y="505" class="value">28%</text>
  <text x="850" y="505" class="value">23%</text>

  <text x="250" y="535" class="territory">Japan</text>
  <text x="450" y="535" class="value">15%</text>
  <text x="550" y="535" class="value">9%</text>
  <text x="650" y="535" class="value">20%</text>
  <text x="750" y="535" class="value">11%</text>
  <text x="850" y="535" class="value">16%</text>

  <text x="250" y="565" class="territory">Korea</text>
  <text x="450" y="565" class="value">58%</text>
  <text x="550" y="565" class="value">63%</text>
  <text x="650" y="565" class="value">62%</text>
  <text x="750" y="565" class="value">48%</text>
  <text x="850" y="565" class="value">59%</text>

  <text x="250" y="595" class="territory">Mexico</text>
  <text x="450" y="595" class="value">34%</text>
  <text x="550" y="595" class="value">27%</text>
  <text x="650" y="595" class="value">34%</text>
  <text x="750" y="595" class="value">34%</text>
  <text x="850" y="595" class="value">39%</text>

  <text x="250" y="625" class="territory">Russia</text>
  <text x="450" y="625" class="value">55%</text>
  <text x="550" y="625" class="value">56%</text>
  <text x="650" y="625" class="value">57%</text>
  <text x="750" y="625" class="value">47%</text>
  <text x="850" y="625" class="value">60%</text>

  <text x="250" y="655" class="territory">Spain</text>
  <text x="450" y="655" class="value">22%</text>
  <text x="550" y="655" class="value">22%</text>
  <text x="650" y="655" class="value">23%</text>
  <text x="750" y="655" class="value">24%</text>
  <text x="850" y="655" class="value">19%</text>

  <text x="250" y="685" class="territory">UK</text>
  <text x="450" y="685" class="value">45%</text>
  <text x="550" y="685" class="value">45%</text>
  <text x="650" y="685" class="value">40%</text>
  <text x="750" y="685" class="value">59%</text>
  <text x="850" y="685" class="value">39%</text>

  <text x="250" y="715" class="territory">Int'l Average</text>
  <text x="450" y="715" class="value">35%</text>
  <text x="550" y="715" class="value">35%</text>
  <text x="650" y="715" class="value">35%</text>
  <text x="750" y="715" class="value">36%</text>
  <text x="850" y="715" class="value">36%</text>

  <!-- Horizontal lines for second section -->
  <line x1="0" y1="405" x2="1000" y2="405" class="border" />
  <line x1="0" y1="725" x2="1000" y2="725" class="border" />

  <!-- Highlighted rows (yellow background) -->
  <!-- Will Ferrell section highlights -->
  <rect x="0" y="95" width="1000" height="30" class="highlight" />
  <rect x="0" y="125" width="1000" height="30" class="highlight" />
  <rect x="0" y="155" width="1000" height="30" class="highlight" />
  <rect x="0" y="185" width="1000" height="30" class="highlight" />
  <rect x="0" y="215" width="1000" height="30" class="highlight" />
  <rect x="0" y="245" width="1000" height="30" class="highlight" />
  <rect x="0" y="275" width="1000" height="30" class="highlight" />
  <rect x="0" y="305" width="1000" height="30" class="highlight" />
  <rect x="0" y="335" width="1000" height="30" class="highlight" />
  <rect x="0" y="365" width="1000" height="30" class="highlight" />

  <!-- Tina Fey section highlights -->
  <rect x="0" y="435" width="1000" height="30" class="highlight" />
  <rect x="0" y="465" width="1000" height="30" class="highlight" />
  <rect x="0" y="495" width="1000" height="30" class="highlight" />
  <rect x="0" y="525" width="1000" height="30" class="highlight" />
  <rect x="0" y="555" width="1000" height="30" class="highlight" />
  <rect x="0" y="585" width="1000" height="30" class="highlight" />
  <rect x="0" y="615" width="1000" height="30" class="highlight" />
  <rect x="0" y="645" width="1000" height="30" class="highlight" />
  <rect x="0" y="675" width="1000" height="30" class="highlight" />
  <rect x="0" y="705" width="1000" height="30" class="highlight" />

  <!-- Add grid lines for better readability -->
  <line x1="200" y1="35" x2="200" y2="725" class="border" />
  <line x1="400" y1="35" x2="400" y2="725" class="border" />
  <line x1="500" y1="35" x2="500" y2="725" class="dashed" />
  <line x1="600" y1="35" x2="600" y2="725" class="border" />
  <line x1="700" y1="35" x2="700" y2="725" class="border" />
  <line x1="800" y1="35" x2="800" y2="725" class="border" />
  <line x1="900" y1="35" x2="900" y2="725" class="border" />

  <!-- Row separators -->
  <line x1="0" y1="65" x2="1000" y2="65" class="border" />
  <line x1="0" y1="95" x2="1000" y2="95" class="border" />
  <line x1="0" y1="125" x2="1000" y2="125" class="border" />
  <line x1="0" y1="155" x2="1000" y2="155" class="border" />
  <line x1="0" y1="185" x2="1000" y2="185" class="border" />
  <line x1="0" y1="215" x2="1000" y2="215" class="border" />
  <line x1="0" y1="245" x2="1000" y2="245" class="border" />
  <line x1="0" y1="275" x2="1000" y2="275" class="border" />
  <line x1="0" y1="305" x2="1000" y2="305" class="border" />
  <line x1="0" y1="335" x2="1000" y2="335" class="border" />
  <line x1="0" y1="365" x2="1000" y2="365" class="border" />
  <line x1="0" y1="395" x2="1000" y2="395" class="border" />
  <line x1="0" y1="425" x2="1000" y2="425" class="border" />
  <line x1="0" y1="455" x2="1000" y2="455" class="border" />
  <line x1="0" y1="485" x2="1000" y2="485" class="border" />
  <line x1="0" y1="515" x2="1000" y2="515" class="border" />
  <line x1="0" y1="545" x2="1000" y2="545" class="border" />
  <line x1="0" y1="575" x2="1000" y2="575" class="border" />
  <line x1="0" y1="605" x2="1000" y2="605" class="border" />
  <line x1="0" y1="635" x2="1000" y2="635" class="border" />
  <line x1="0" y1="665" x2="1000" y2="665" class="border" />
  <line x1="0" y1="695" x2="1000" y2="695" class="border" />
  <line x1="0" y1="725" x2="1000" y2="725" class="border" />
</svg>