<svg viewBox="0 0 500 700" xmlns="http://www.w3.org/2000/svg">
  <rect width="100%" height="100%" fill="#808080"/>
  <path d="M200 30c-20 10-30 30-30 50s10 40 30 50c20-10 30-30 30-50s-10-40-30-50" fill="#404040"/>
  <path d="M190 35c-15 5-25 20-25 35s10 30 25 35c15-5 25-20 25-35s-10-30-25-35" fill="#606060"/>
  <path d="M180 40c-10 5-15 15-15 25s5 20 15 25c10-5 15-15 15-25s-5-20-15-25" fill="#808080"/>
  <path d="M170 45c-5 5-10 10-10 15s5 10 10 15c5-5 10-10 10-15s-5-10-10-15" fill="#A0A0A0"/>
  <path d="M160 50c-5 5-5 10-5 15s0 10 5 15c5-5 5-10 5-15s0-10-5-15" fill="#C0C0C0"/>
  <path d="M150 55c-5 5-5 10-5 15s0 10 5 15c5-5 5-10 5-15s0-10-5-15" fill="#E0E0E0"/>
  <path d="M140 60c-5 5-5 10-5 15s0 10 5 15c5-5 5-10 5-15s0-10-5-15" fill="#FFFFFF"/>
  <path d="M130 65c-5 5-5 10-5 15s0 10 5 15c5-5 5-10 5-15s0-10-5-15" fill="#E0E0E0"/>
  <path d="M120 70c-5 5-5 10-5 15s0 10 5 15c5-5 5-10 5-15s0-10-5-15" fill="#C0C0C0"/>
  <path d="M110 75c-5 5-5 10-5 15s0 10 5 15c5-5 5-10 5-15s0-10-5-15" fill="#A0A0A0"/>
  <path d="M100 80c-5 5-5 10-5 15s0 10 5 15c5-5 5-10 5-15s0-10-5-15" fill="#808080"/>
  <path d="M90 85c-5 5-5 10-5 15s0 10 5 15c5-5 5-10 5-15s0-10-5-15" fill="#606060"/>
  <path d="M80 90c-5 5-5 10-5 15s0 10 5 15c5-5 5-10 5-15s0-10-5-15" fill="#404040"/>
  <path d="M70 95c-5 5-5 10-5 15s0 10 5 15c5-5 5-10 5-15s0-10-5-15" fill="#202020"/>
  <path d="M60 100c-5 5-5 10-5 15s0 10 5 15c5-5 5-10 5-15s0-10-5-15" fill="#000000"/>
  <path d="M50 105c-5 5-5 10-5 15s0 10 5 15c5-5 5-10 5-15s0-10-5-15" fill="#202020"/>
  <path d="M40 110c-5 5-5 10-5 15s0 10 5 15c5-5 5-10 5-15s0-10-5-15" fill="#404040"/>
  <path d="M30 115c-5 5-5 10-5 15s0 10 5 15c5-5 5-10 5-15s0-10-5-15" fill="#606060"/>
  <path d="M20 120c-5 5-5 10-5 15s0 10 5 15c5-5 5-10 5-15s0-10-5-15" fill="#808080"/>
  <path d="M10 125c-5 5-5 10-5 15s0 10 5 15c5-5 5-10 5-15s0-10-5-15" fill="#A0A0A0"/>
  <path d="M0 130c-5 5-5 10-5 15s0 10 5 15c5-5 5-10 5-15s0-10-5-15" fill="#C0C0C0"/>
  <path d="M0 145c-5 5-5 10-5 15s0 10 5 15c5-5 5-10 5-15s0-10-5-15" fill="#E0E0E0"/>
  <path d="M0 160c-5 5-5 10-5 15s0 10 5 15c5-5 5-10 5-15s0-10-5-15" fill="#FFFFFF"/>
  <path d="M0 175c-5 5-5 10-5 15s0 10 5 15c5-5 5-10 5-15s0-10-5-15" fill="#E0E0E0"/>
  <path d="M0 190c-5 5-5 10-5 15s0 10 5 15c5-5 5-10 5-15s0-10-5-15" fill="#C0C0C0"/>
  <path d="M0 205c-5 5-5 10-5 15s0 10 5 15c5-5 5-10 5-15s0-10-5-15" fill="#A0A0A0"/>
  <path d="M0 220c-5 5-5 10-5 15s0 10 5 15c5-5 5-10 5-15s0-10-5-15" fill="#808080"/>
  <path d="M0 235c-5 5-5 10-5 15s0 10 5 15c5-5 5-10 5-15s0-10-5-15" fill="#606060"/>
  <path d="M0 250c-5 5-5 10-5 15s0 10 5 15c5-5 5-10 5-15s0-10-5-15" fill="#404040"/>
  <path d="M0 265c-5 5-5 10-5 15s0 10 5 15c5-5 5-10 5-15s0-10-5-15" fill="#202020"/>
  <path d="M0 280c-5 5-5 10-5 15s0 10 5 15c5-5 5-10 5-15s0-10-5-15" fill="#000000"/>
  <path d="M0 295c-5 5-5 10-5 15s0 10 5 15c5-5 5-10 5-15s0-10-5-15" fill="#202020"/>
  <path d="M0 310c-5 5-5 10-5 15s0 10 5 15c5-5 5-10 5-15s0-10-5-15" fill="#404040"/>
  <path d="M0 325c-5 5-5 10-5 15s0 10 5 15c5-5 5-10 5-15s0-10-5-15" fill="#606060"/>
  <path d="M0 340c-5 5-5 10-5 15s0 10 5 15c5-5 5-10 5-15s0-10-5-15" fill="#808080"/>
  <path d="M0 355c-5 5-5 10-5 15s0 10 5 15c5-5 5-10 5-15s0-10-5-15" fill="#A0A0A0"/>
  <path d="M0 370c-5 5-5 10-5 15s0 10 5 15c5-5 5-10 5-15s0-10-5-15" fill="#C0C0C0"/>
  <path d="M0 385c-5 5-5 10-5 15s0 10 5 15c5-5 5-10 5-15s0-10-5-15" fill="#E0E0E0"/>
  <path d="M0 400c-5 5-5 10-5 15s0 10 5 15c5-5 5-10 5-15s0-10-5-15" fill="#FFFFFF"/>
  <path d="M0 415c-5 5-5 10-5 15s0 10 5 15c5-5 5-10 5-15s0-10-5-15" fill="#E0E0E0"/>
  <path d="M0 430c-5 5-5 10-5 15s0 10 5 15c5-5 5-10 5-15s0-10-5-15" fill="#C0C0C0"/>
  <path d="M0 445c-5 5-5 10-5 15s0 10 5 15c5-5 5-10 5-15s0-10-5-15" fill="#A0A0A0"/>
  <path d="M0 460c-5 5-5 10-5 15s0 10 5 15c5-5 5-10 5-15s0-10-5-15" fill="#808080"/>
  <path d="M0 475c-5 5-5 10-5 15s0 10 5 15c5-5 5-10 5-15s0-10-5-15" fill="#606060"/>
  <path d="M0 490c-5 5-5 10-5 15s0 10 5 15c5-5 5-10 5-15s0-10-5-15" fill="#404040"/>
  <path d="M0 505c-5 5-5 10-5 15s0 10 5 15c5-5 5-10 5-15s0-10-5-15" fill="#202020"/>
  <path d="M0 520c-5 5-5 10-5 15s0 10 5 15c5-5 5-10 5-15s0-10-5-15" fill="#000000"/>
  <path d="M0 535c-5 5-5 10-5 15s0 10 5 15c5-5 5-10 5-15s0-10-5-15" fill="#202020"/>
  <path d="M0 550c-5 5-5 10-5 15s0 10 5 15c5-5 5-10 5-15s0-10-5-15" fill="#404040"/>
  <path d="M0 565c-5 5-5 10-5 15s0 10 5 15c5-5 5-10 5-15s0-10-5-15" fill="#606060"/>
  <path d="M0 580c-5 5-5 10-5 15s0 10 5 15c5-5 5-10 5-15s0-10-5-15" fill="#808080"/>
  <path d="M0 595c-5 5-5 10-5 15s0 10 5 15c5-5 5-10 5-15s0-10-5-15" fill="#A0A0A0"/>
  <path d="M0 610c-5 5-5 10-5 15s0 10 5 15c5-5 5-10 5-15s0-10-5-15" fill="#C0C0C0"/>
  <path d="M0 625c-5 5-5 10-5 15s0 10 5 15c5-5 5-10 5-15s0-10-5-15" fill="#E0E0E0"/>
  <path d="M0 640c-5 5-5 10-5 15s0 10 5 15c5-5 5-10 5-15s0-10-5-15" fill="#FFFFFF"/>
  <path d="M0 655c-5 5-5 10-5 15s0 10 5 15c5-5 5-10 5-15s0-10-5-15" fill="#E0E0E0"/>
  <path d="M0 670c-5 5-5 10-5 15s0 10 5 15c5-5 5-10 5-15s0-10-5-15" fill="#C0C0C0"/>
  <path d="M0 685c-5 5-5 10-5 15s0 10 5 15c5-5 5-10 5-15s0-10-5-15" fill="#A0A0A0"/>
  <path d="M0 700c-5 5-5 10-5 15s0 10 5 15c5-5 5-10 5-15s0-10-5-15" fill="#808080"/>
  <path d="M0 715c-5 5-5 10-5 15s0 10 5 15c5-5 5-10 5-15s0-10-5-15" fill="#606060"/>
  <path d="M0 730c-5 5-5 10-5 15s0 10 5 15c5-5 5-10 5-15s0-10-5-15" fill="#404040"/>
  <path d="M0 745c-5 5-5 10-5 15s0 10 5 15c5-5 5-10 5-15s0-10-5-15" fill="#202020"/>
  <path d="M0 760c-5 5-5 10-5 15s0 10 5 15c5-5 5-10 5-15s0-10-5-15" fill="#000000"/>
  <path d="M0 775c-5 5-5 10-5 15s0 10 5 15c5-5 5-10 5-15s0-10-5-15" fill="#202020"/>
  <path d="M0 790c-5 5-5 10-5 15s0 10 5 15c5-5 5-10 5-15s0-10-5-15" fill="#404040"/>
  <path d="M0 805c-5 5-5 10-5 15s0 10 5 15c5-5 5-10 5-15s0-10-5-15" fill="#606060"/>
  <path d="M0 820c-5 5-5 10-5 15s0 10 5 15c5-5 5-10 5-15s0-10-5-15" fill="#808080"/>
  <path d="M0 835c-5 5-5 10-5 15s0 10 5 15c5-5 5-10 5-15s0-10-5-15" fill="#A0A0A0"/>
  <path d="M0 850c-5 5-5 10-5 15s0 10 5 15c5-5 5-10 5-15s0-10-5-15" fill="#C0C0C0"/>
  <path d="M0 865c-5 5-5 10-5 15s0 10 5 15c5-5 5-10 5-15s0-10-5-15" fill="#E0E0E0"/>
  <path d="M0 880c-5 5-5 10-5 15s0 10 5 15c5-5 5-10 5-15s0-10-5-15" fill="#FFFFFF"/>
  <path d="M0 895c-5 5-5 10-5 15s0 10 5 15c5-5 5-10 5-15s0-10-5-15" fill="#E0E0E0"/>
  <path d="M0 910c-5 5-5 10-5 15s0 10 5 15c5-5 5-10 5-15s0-10-5-15" fill="#C0C0C0"/>
  <path d="M0 925c-5 5-5 10-5 15s0 10 5 15c5-5 5-10 5-15s0-10-5-15" fill="#A0A0A0"/>
  <path d="M0 940c-5 5-5 10-5 15s0 10 5 15c5-5 5-10 5-15s0-10-5-15" fill="#808080"/>
  <path d="M0 955c-5 5-5 10-5 15s0 10 5 15c5-5 5-10 5-15s0-10-5-15" fill="#606060"/>
  <path d="M0 970c-5 5-5 10-5 15s0 10 5 15c5-5 5-10 5-15s0-10-5-15" fill="#404040"/>
  <path d="M0 985c-5 5-5 10-5 15s0 10 5 15c5-5 5-10 5-15s0-10-5-15" fill="#202020"/>
  <path d="M0 1000c-5 5-5 10-5 15s0 10 5 15c5-5 5-10 5-15s0-10-5-15" fill="#000000"/>
</svg>