<svg viewBox="0 0 500 600" xmlns="http://www.w3.org/2000/svg">
  <style>
    .line { stroke: black; stroke-width: 1.5; fill: none; }
    .fill { fill: black; }
    .text { font-family: SimSun, serif; font-size: 18px; text-anchor: middle; dominant-baseline: middle; }
  </style>

  <!-- Border -->
  <rect x="10" y="10" width="480" height="580" class="line" />

  <!-- Header Banner -->
  <rect x="20" y="20" width="460" height="40" class="line" />
  <text x="250" y="40" class="text">禹亭安祭倫祖師</text>

  <!-- Central Figure -->
  <circle cx="250" cy="180" r="80" class="line" />
  <!-- Face Features -->
  <line x1="220" y1="160" x2="280" y2="160" class="line" /> <!-- Eyebrows -->
  <circle cx="230" cy="175" r="5" class="fill" /> <!-- Eyes -->
  <circle cx="270" cy="175" r="5" class="fill" />
  <line x1="250" y1="190" x2="250" y2="210" class="line" /> <!-- Nose -->
  <path d="M230 220 Q250 230 270 220" class="line" /> <!-- Mouth -->
  <!-- Beard -->
  <path d="M250 220 C230 250 270 250 250 280" class="line" />
  <path d="M250 280 C220 300 280 300 250 320" class="line" />
  <!-- Hair/Headgear -->
  <path d="M180 120 C200 100 250 90 300 100 C320 120 330 140 330 160" class="line" />
  <path d="M170 140 C190 130 250 120 310 130 C330 140 340 150 340 160" class="line" />

  <!-- Left Attendant -->
  <circle cx="80" cy="180" r="50" class="line" />
  <line x1="60" y1="170" x2="100" y2="170" class="line" /> <!-- Eyebrows -->
  <circle cx="70" cy="185" r="4" class="fill" />
  <circle cx="90" cy="185" r="4" class="fill" />
  <line x1="80" y1="195" x2="80" y2="205" class="line" />
  <path d="M70 210 Q80 215 90 210" class="line" />
  <!-- Body -->
  <rect x="50" y="230" width="60" height="100" class="line" />
  <line x1="50" y1="230" x2="50" y2="330" class="line" />
  <line x1="110" y1="230" x2="110" y2="330" class="line" />

  <!-- Right Attendant -->
  <circle cx="420" cy="180" r="50" class="line" />
  <line x1="400" y1="170" x2="440" y2="170" class="line" />
  <circle cx="410" cy="185" r="4" class="fill" />
  <circle cx="430" cy="185" r="4" class="fill" />
  <line x1="420" y1="195" x2="420" y2="205" class="line" />
  <path d="M410 210 Q420 215 430 210" class="line" />
  <!-- Body -->
  <rect x="390" y="230" width="60" height="100" class="line" />
  <line x1="390" y1="230" x2="390" y2="330" class="line" />
  <line x1="450" y1="230" x2="450" y2="330" class="line" />

  <!-- Lower Left Figure -->
  <circle cx="80" cy="380" r="40" class="line" />
  <line x1="65" y1="370" x2="95" y2="370" class="line" />
  <circle cx="75" cy="385" r="3" class="fill" />
  <circle cx="85" cy="385" r="3" class="fill" />
  <line x1="80" y1="395" x2="80" y2="405" class="line" />
  <path d="M75 410 Q80 415 85 410" class="line" />
  <!-- Hat -->
  <rect x="60" y="340" width="40" height="15" class="line" />
  <text x="80" y="350" class="text">帽</text>
  <!-- Body -->
  <rect x="50" y="420" width="60" height="80" class="line" />

  <!-- Lower Right Figure -->
  <circle cx="420" cy="380" r="40" class="line" />
  <line x1="405" y1="370" x2="435" y2="370" class="line" />
  <circle cx="415" cy="385" r="3" class="fill" />
  <circle cx="425" cy="385" r="3" class="fill" />
  <line x1="420" y1="395" x2="420" y2="405" class="line" />
  <path d="M415 410 Q420 415 425 410" class="line" />
  <!-- Hat -->
  <rect x="400" y="340" width="40" height="15" class="line" />
  <text x="420" y="350" class="text">帽</text>
  <!-- Body -->
  <rect x="390" y="420" width="60" height="80" class="line" />

  <!-- Table with Offerings -->
  <rect x="150" y="340" width="200" height="30" class="line" />
  <rect x="150" y="370" width="200" height="10" class="line" />
  <!-- Items on Table -->
  <rect x="170" y="350" width="15" height="10" class="line" />
  <rect x="190" y="350" width="15" height="10" class="line" />
  <rect x="210" y="350" width="15" height="10" class="line" />
  <rect x="230" y="350" width="15" height="10" class="line" />
  <rect x="250" y="350" width="15" height="10" class="line" />
  <rect x="270" y="350" width="15" height="10" class="line" />
  <!-- Round Object (Incense or Fruit) -->
  <circle cx="300" cy="355" r="8" class="line" />

  <!-- Animals at Bottom -->
  <!-- Pig -->
  <path d="M100 480 C120 460 150 470 170 480 C190 490 200 500 190 510 C180 520 160 520 150 510 C140 500 120 490 100 480" class="line" />
  <!-- Chicken/Rooster -->
  <path d="M300 480 C320 470 340 480 350 490 C360 500 370 510 360 520 C350 530 330 530 320 520 C310 510 300 500 300 480" class="line" />
  <!-- Comb and Tail -->
  <path d="M350 485 L355 475 L360 485" class="line" />
  <path d="M320 520 L310 530 L300 520" class="line" />

  <!-- Background Elements -->
  <!-- Curtains/Draperies -->
  <path d="M100 100 L100 250" class="line" />
  <path d="M400 100 L400 250" class="line" />
  <path d="M100 100 C120 80 180 80 200 100" class="line" />
  <path d="M400 100 C380 80 320 80 300 100" class="line" />
  <!-- Stars -->
  <polygon points="250,100 255,105 260,100 255,95" class="fill" />
  <polygon points="180,110 185,115 190,110 185,105" class="fill" />
  <polygon points="320,110 325,115 330,110 325,105" class="fill" />
</svg>