<svg viewBox="0 0 1000 1000" xmlns="http://www.w3.org/2000/svg">
  <defs>
    <pattern id="pavement" patternUnits="userSpaceOnUse" width="20" height="20">
      <rect width="20" height="20" fill="#6B5B50"/>
      <path d="M0,10 L20,10 M10,0 L10,20" stroke="#8C7D72" stroke-width="2"/>
    </pattern>
  </defs>
  
  <rect width="1000" height="1000" fill="url(#pavement)"/>
  
  <!-- Parking lines -->
  <line x1="0" y1="480" x2="1000" y2="990" stroke="white" stroke-width="5"/>
  <line x1="240" y1="210" x2="1000" y2="990" stroke="white" stroke-width="5"/>
  <line x1="0" y1="240" x2="460" y2="160" stroke="white" stroke-width="5"/>
  <line x1="460" y1="160" x2="770" y2="110" stroke="white" stroke-width="5"/>
  <line x1="770" y1="110" x2="930" y2="60" stroke="white" stroke-width="5"/>
  <line x1="930" y1="60" x2="1000" y2="30" stroke="white" stroke-width="5"/>
  <line x1="0" y1="500" x2="190" y2="990" stroke="white" stroke-width="5"/>
  
  <!-- Parking space numbers -->
  <text x="90" y="290" font-family="Arial" font-size="40" fill="white" transform="rotate(-30,90,290)">34</text>
  <text x="360" y="210" font-family="Arial" font-size="40" fill="white" transform="rotate(-30,360,210)">33</text>
  <text x="560" y="160" font-family="Arial" font-size="40" fill="white" transform="rotate(-30,560,160)">32</text>
  <text x="700" y="130" font-family="Arial" font-size="40" fill="white" transform="rotate(-30,700,130)">31</text>
  <text x="820" y="100" font-family="Arial" font-size="40" fill="white" transform="rotate(-30,820,100)">30</text>
  <text x="900" y="80" font-family="Arial" font-size="40" fill="white" transform="rotate(-30,900,80)">29</text>
  
  <!-- Blue car -->
  <g transform="translate(600,150) rotate(30)">
    <rect x="0" y="0" width="450" height="200" rx="20" fill="#2A52BE"/>
    <rect x="10" y="10" width="430" height="180" rx="15" fill="#3A6ECE"/>
    <rect x="20" y="20" width="410" height="160" rx="10" fill="#4A7EDF"/>
    
    <!-- Windows -->
    <rect x="40" y="30" width="120" height="60" rx="5" fill="#1A3A6B"/>
    <rect x="170" y="30" width="120" height="60" rx="5" fill="#1A3A6B"/>
    <rect x="300" y="30" width="120" height="60" rx="5" fill="#1A3A6B"/>
    <rect x="40" y="100" width="120" height="60" rx="5" fill="#1A3A6B"/>
    <rect x="170" y="100" width="120" height="60" rx="5" fill="#1A3A6B"/>
    <rect x="300" y="100" width="120" height="60" rx="5" fill="#1A3A6B"/>
    
    <!-- Wheels -->
    <circle cx="80" cy="170" r="30" fill="#666"/>
    <circle cx="80" cy="170" r="25" fill="#AAA"/>
    <circle cx="80" cy="170" r="15" fill="#DDD"/>
    <circle cx="380" cy="170" r="30" fill="#666"/>
    <circle cx="380" cy="170" r="25" fill="#AAA"/>
    <circle cx="380" cy="170" r="15" fill="#DDD"/>
    
    <!-- Headlights -->
    <ellipse cx="430" cy="100" rx="15" ry="10" fill="#FFF"/>
    <ellipse cx="430" cy="100" rx="10" ry="7" fill="#DDD"/>
    
    <!-- Tail lights -->
    <rect x="10" y="50" width="10" height="20" fill="#FF3333"/>
    <rect x="10" y="120" width="10" height="20" fill="#FF3333"/>
    
    <!-- Side mirrors -->
    <rect x="150" y="25" width="10" height="15" fill="#333"/>
    <rect x="320" y="25" width="10" height="15" fill="#333"/>
  </g>
  
  <!-- Red car -->
  <g transform="translate(750,100) rotate(30)">
    <rect x="0" y="0" width="450" height="200" rx="20" fill="#CC0000"/>
    <rect x="10" y="10" width="430" height="180" rx="15" fill="#DD1111"/>
    <rect x="20" y="20" width="410" height="160" rx="10" fill="#EE2222"/>
    
    <!-- Windows -->
    <rect x="40" y="30" width="120" height="60" rx="5" fill="#660000"/>
    <rect x="170" y="30" width="120" height="60" rx="5" fill="#660000"/>
    <rect x="300" y="30" width="120" height="60" rx="5" fill="#660000"/>
    <rect x="40" y="100" width="120" height="60" rx="5" fill="#660000"/>
    <rect x="170" y="100" width="120" height="60" rx="5" fill="#660000"/>
    <rect x="300" y="100" width="120" height="60" rx="5" fill="#660000"/>
    
    <!-- Wheels -->
    <circle cx="80" cy="170" r="30" fill="#666"/>
    <circle cx="80" cy="170" r="25" fill="#AAA"/>
    <circle cx="80" cy="170" r="15" fill="#DDD"/>
    <circle cx="380" cy="170" r="30" fill="#666"/>
    <circle cx="380" cy="170" r="25" fill="#AAA"/>
    <circle cx="380" cy="170" r="15" fill="#DDD"/>
    
    <!-- Headlights -->
    <ellipse cx="430" cy="100" rx="15" ry="10" fill="#FFF"/>
    <ellipse cx="430" cy="100" rx="10" ry="7" fill="#DDD"/>
    
    <!-- Tail lights -->
    <rect x="10" y="50" width="10" height="20" fill="#FF6666"/>
    <rect x="10" y="120" width="10" height="20" fill="#FF6666"/>
    
    <!-- Side mirrors -->
    <rect x="150" y="25" width="10" height="15" fill="#333"/>
    <rect x="320" y="25" width="10" height="15" fill="#333"/>
  </g>
</svg>