<svg viewBox="0 0 1000 1000" xmlns="http://www.w3.org/2000/svg">
  <rect width="100%" height="100%" fill="#808080"/>
  <path d="M500 50C460 50 420 70 400 100C380 130 380 170 380 210C380 250 390 290 410 320C430 350 460 370 500 370C540 370 570 350 590 320C610 290 620 250 620 210C620 170 620 130 600 100C580 70 540 50 500 50Z" fill="#333"/>
  <path d="M300 420L700 420L700 900L300 900Z" fill="#333"/>
  <path d="M350 450L650 450L650 850L350 850Z" fill="#FFF"/>
  <path d="M400 510L500 510L500 680L400 680Z" fill="#333"/>
  <path d="M420 520L480 520L480 670L420 670Z" fill="#555"/>
  <path d="M350 450L650 450L650 550L350 550Z" fill="#FFF"/>
  <path d="M380 220L420 260L420 300L380 340L340 300L340 260Z" fill="#FFF"/>
  <path d="M620 220L580 260L580 300L620 340L660 300L660 260Z" fill="#FFF"/>
  <path d="M400 300L500 300L500 350L400 350Z" fill="#FFF"/>
  <path d="M420 320L480 320L480 340L420 340Z" fill="#333"/>
</svg>