<svg viewBox="0 0 1000 800" xmlns="http://www.w3.org/2000/svg">
  <rect width="1000" height="800" fill="#000"/>
  <rect x="0" y="100" width="1000" height="600" fill="#5a5a5a"/>
  <path d="M100 400 L900 400 L900 700 L100 700 Z" fill="#1a1a1a"/>
  <path d="M200 450 Q300 500 500 500 Q700 500 800 450 Q750 400 700 400 Q650 400 500 400 Q350 400 300 400 Q250 400 200 450" fill="#fff"/>
  <path d="M300 100 Q400 150 500 100 Q600 150 700 100 Q650 200 600 250 Q550 300 500 300 Q450 300 400 250 Q350 200 300 100" fill="#8c8c8c"/>
  <path d="M350 400 Q400 450 500 450 Q600 450 650 400 Q600 500 500 500 Q400 500 350 400" fill="#b3b3b3"/>
  <path d="M400 250 Q450 275 500 250 Q550 275 600 250" fill="#333"/>
  <path d="M450 300 Q475 325 500 300 Q525 325 550 300" fill="#333"/>
  <path d="M450 350 Q475 375 500 350 Q525 375 550 350" fill="#333"/>
  <path d="M450 400 Q475 425 500 400 Q525 425 550 400" fill="#333"/>
</svg>