<svg viewBox="20 10 980 970" xmlns="http://www.w3.org/2000/svg">
  <rect width="100%" height="100%" fill="white"/>
  <text x="500" y="40" font-size="20" text-anchor="middle" font-family="Arial">Amount spent on consumer goods</text>
  <g transform="translate(100, 80)">
    <line x1="0" y1="0" x2="0" y2="600" stroke="black"/>
    <line x1="0" y1="600" x2="800" y2="600" stroke="black"/>
    <text x="-50" y="50" font-size="14" text-anchor="end" font-family="Arial">Photographic film</text>
    <text x="-50" y="150" font-size="14" text-anchor="end" font-family="Arial">Toys</text>
    <text x="-50" y="250" font-size="14" text-anchor="end" font-family="Arial">CDs</text>
    <text x="-50" y="350" font-size="14" text-anchor="end" font-family="Arial">Perfumes</text>
    <text x="-50" y="450" font-size="14" text-anchor="end" font-family="Arial">Tennis racquets</text>
    <text x="-50" y="550" font-size="14" text-anchor="end" font-family="Arial">Personal stereos</text>
    <g font-size="12" font-family="Arial">
      <text x="0" y="620">130</text>
      <text x="100" y="620">135</text>
      <text x="200" y="620">140</text>
      <text x="300" y="620">145</text>
      <text x="400" y="620">150</text>
      <text x="500" y="620">155</text>
      <text x="600" y="620">160</text>
      <text x="700" y="620">165</text>
      <text x="800" y="620">170</text>
      <text x="900" y="620">175</text>
    </g>
    <g>
      <rect x="0" y="30" width="800" height="20" fill="#FFD700"/>
      <rect x="0" y="50" width="600" height="20" fill="#696969"/>
      <rect x="0" y="70" width="500" height="20" fill="#D2691E"/>
      <rect x="0" y="90" width="400" height="20" fill="#4682B4"/>
    </g>
    <g>
      <rect x="0" y="130" width="700" height="20" fill="#FFD700"/>
      <rect x="0" y="150" width="550" height="20" fill="#696969"/>
      <rect x="0" y="170" width="500" height="20" fill="#D2691E"/>
      <rect x="0" y="190" width="300" height="20" fill="#4682B4"/>
    </g>
    <g>
      <rect x="0" y="230" width="650" height="20" fill="#FFD700"/>
      <rect x="0" y="250" width="550" height="20" fill="#696969"/>
      <rect x="0" y="270" width="400" height="20" fill="#D2691E"/>
      <rect x="0" y="290" width="300" height="20" fill="#4682B4"/>
    </g>
    <g>
      <rect x="0" y="330" width="600" height="20" fill="#FFD700"/>
      <rect x="0" y="350" width="400" height="20" fill="#696969"/>
      <rect x="0" y="370" width="500" height="20" fill="#D2691E"/>
      <rect x="0" y="390" width="400" height="20" fill="#4682B4"/>
    </g>
    <g>
      <rect x="0" y="430" width="500" height="20" fill="#FFD700"/>
      <rect x="0" y="450" width="300" height="20" fill="#696969"/>
      <rect x="0" y="470" width="500" height="20" fill="#D2691E"/>
      <rect x="0" y="490" width="400" height="20" fill="#4682B4"/>
    </g>
    <g>
      <rect x="0" y="530" width="500" height="20" fill="#FFD700"/>
      <rect x="0" y="550" width="400" height="20" fill="#696969"/>
      <rect x="0" y="570" width="400" height="20" fill="#D2691E"/>
      <rect x="0" y="590" width="350" height="20" fill="#4682B4"/>
    </g>
    <g font-size="12" font-family="Arial">
      <text x="100" y="650" fill="#FFD700">Britain</text>
      <text x="200" y="650" fill="#696969">France</text>
      <text x="300" y="650" fill="#D2691E">Italy</text>
      <text x="400" y="650" fill="#4682B4">Germany</text>
    </g>
    <text x="400" y="700" font-size="16" text-anchor="middle" font-family="Arial">Spending in Thousand Pound Sterling</text>
  </g>
</svg>