<svg viewBox="0 0 1000 1000" xmlns="http://www.w3.org/2000/svg">
  <rect width="100%" height="100%" fill="#8a8a8a"/>
  <text x="20" y="30" font-family="serif" font-size="14" fill="#000">
    IACOBI FABRII GENTIS FLANDRICA
  </text>
  <text x="20" y="50" font-family="serif" font-size="14" fill="#000">
    CATOLICAE PII V. PONT. MAX.
  </text>
  <text x="600" y="30" font-family="serif" font-size="14" fill="#000">
    COETUERANT EPIDUM PRIMUS
  </text>
  <text x="600" y="50" font-family="serif" font-size="14" fill="#000">
    ORBIS...1580
  </text>
  <path d="M100 100 Q 500 50, 900 100 Q 950 200, 900 300 Q 500 350, 100 300 Q 50 200, 100 100" fill="#222"/>
  <path d="M100 300 L 900 300 L 900 900 L 100 900 Z" fill="#1a1a1a"/>
  <path d="M300 300 Q 500 250, 700 300 Q 750 350, 700 400 Q 500 450, 300 400 Q 250 350, 300 300" fill="#fff"/>
  <path d="M300 400 Q 500 450, 700 400 Q 750 450, 700 500 Q 500 550, 300 500 Q 250 450, 300 400" fill="#1a1a1a"/>
  <path d="M450 550 Q 600 580, 700 600 Q 750 650, 700 700 Q 600 720, 450 700 Q 400 650, 450 550" fill="#c0c0c0"/>
  <path d="M450 550 Q 500 570, 550 580 Q 570 600, 550 620 Q 500 630, 450 620 Q 430 600, 450 550" fill="#e0e0e0"/>
  <path d="M450 620 Q 500 640, 550 650 Q 570 670, 550 690 Q 500 700, 450 690 Q 430 670, 450 620" fill="#e0e0e0"/>
  <path d="M450 690 Q 500 710, 550 720 Q 570 740, 550 760 Q 500 770, 450 760 Q 430 740, 450 690" fill="#e0e0e0"/>
  <path d="M450 760 Q 500 780, 550 790 Q 570 810, 550 830 Q 500 840, 450 830 Q 430 810, 450 760" fill="#e0e0e0"/>
  <path d="M450 830 Q 500 850, 550 860 Q 570 880, 550 900 Q 500 910, 450 900 Q 430 880, 450 830" fill="#e0e0e0"/>
  <path d="M450 900 Q 500 920, 550 930 Q 570 950, 550 970 Q 500 980, 450 970 Q 430 950, 450 900" fill="#e0e0e0"/>
  <path d="M500 850 Q 550 870, 600 880 Q 620 900, 600 920 Q 550 930, 500 920 Q 480 900, 500 850" fill="#c0c0c0"/>
  <path d="M500 920 Q 550 940, 600 950 Q 620 970, 600 990 Q 550 1000, 500 990 Q 480 970, 500 920" fill="#c0c0c0"/>
  <path d="M450 900 Q 500 920, 550 930 Q 570 950, 550 970 Q 500 980, 450 970 Q 430 950, 450 900" fill="#e0e0e0"/>
  <path d="M450 830 Q 500 850, 550 860 Q 570 880, 550 900 Q 500 910, 450 900 Q 430 880, 450 830" fill="#e0e0e0"/>
  <path d="M450 760 Q 500 780, 550 790 Q 570 810, 550 830 Q 500 840, 450 830 Q 430 810, 450 760" fill="#e0e0e0"/>
  <path d="M450 690 Q 500 710, 550 720 Q 570 740, 550 760 Q 500 770, 450 760 Q 430 740, 450 690" fill="#e0e0e0"/>
  <path d="M450 620 Q 500 640, 550 650 Q 570 670, 550 690 Q 500 700, 450 690 Q 430 670, 450 620" fill="#e0e0e0"/>
  <path d="M450 550 Q 500 570, 550 580 Q 570 600, 550 620 Q 500 630, 450 620 Q 430 600, 450 550" fill="#e0e0e0"/>
  <path d="M450 550 Q 600 580, 700 600 Q 750 650, 700 700 Q 600 720, 450 700 Q 400 650, 450 550" fill="#c0c0c0"/>
  <path d="M450 550 Q 500 570, 550 580 Q 570 600, 550 620 Q 500 630, 450 620 Q 430 600, 450 550" fill="#e0e0e0"/>
  <path d="M450 620 Q 500 640, 550 650 Q 570 670, 550 690 Q 500 700, 450 690 Q 430 670, 450 620" fill="#e0e0e0"/>
  <path d="M450 690 Q 500 710, 550 720 Q 570 740, 550 760 Q 500 770, 450 760 Q 430 740, 450 690" fill="#e0e0e0"/>
  <path d="M450 760 Q 500 780, 550 790 Q 570 810, 550 830 Q 500 840, 450 830 Q 430 810, 450 760" fill="#e0e0e0"/>
  <path d="M450 830 Q 500 850, 550 860 Q 570 880, 550 900 Q 500 910, 450 900 Q 430 880, 450 830" fill="#e0e0e0"/>
  <path d="M450 900 Q 500 920, 550 930 Q 570 950, 550 970 Q 500 980, 450 970 Q 430 950, 450 900" fill="#e0e0e0"/>
  <path d="M500 850 Q 550 870, 600 880 Q 620 900, 600 920 Q 550 930, 500 920 Q 480 900, 500 850" fill="#c0c0c0"/>
  <path d="M500 920 Q 550 940, 600 950 Q 620 970, 600 990 Q 550 1000, 500 990 Q 480 970, 500 920" fill="#c0c0c0"/>
  <path d="M450 900 Q 500 920, 550 930 Q 570 950, 550 970 Q 500 980, 450 970 Q 430 950, 450 900" fill="#e0e0e0"/>
  <path d="M450 830 Q 500 850, 550 860 Q 570 880, 550 900 Q 500 910, 450 900 Q 430 880, 450 830" fill="#e0e0e0"/>
  <path d="M450 760 Q 500 780, 550 790 Q 570 810, 550 830 Q 500 840, 450 830 Q 430 810, 450 760" fill="#e0e0e0"/>
  <path d="M450 690 Q 500 710, 550 720 Q 570 740, 550 760 Q 500 770, 450 760 Q 430 740, 450 690" fill="#e0e0e0"/>
  <path d="M450 620 Q 500 640, 550 650 Q 570 670, 550 690 Q 500 700, 450 690 Q 430 670, 450 620" fill="#e0e0e0"/>
  <path d="M450 550 Q 500 570, 550 580 Q 570 600, 550 620 Q 500 630, 450 620 Q 430 600, 450 550" fill="#e0e0e0"/>
  <path d="M450 550 Q 600 580, 700 600 Q 750 650, 700 700 Q 600 720, 450 700 Q 400 650, 450 550" fill="#c0c0c0"/>
  <path d="M450 550 Q 500 570, 550 580 Q 570 600, 550 620 Q 500 630, 450 620 Q 430 600, 450 550" fill="#e0e0e0"/>
  <path d="M450 620 Q 500 640, 550 650 Q 570 670, 550 690 Q 500 700, 450 690 Q 430 670, 450 620" fill="#e0e0e0"/>
  <path d="M450 690 Q 500 710, 550 720 Q 570 740, 550 760 Q 500 770, 450 760 Q 430 740, 450 690" fill="#e0e0e0"/>
  <path d="M450 760 Q 500 780, 550 790 Q 570 810, 550 830 Q 500 840, 450 830 Q 430 810, 450 760" fill="#e0e0e0"/>
  <path d="M450 830 Q 500 850, 550 860 Q 570 880, 550 900 Q 500 910, 450 900 Q 430 880, 450 830" fill="#e0e0e0"/>
  <path d="M450 900 Q 500 920, 550 930 Q 570 950, 550 970 Q 500 980, 450 970 Q 430 950, 450 900" fill="#e0e0e0"/>
  <path d="M500 850 Q 550 870, 600 880 Q 620 900, 600 920 Q 550 930, 500 920 Q 480 900, 500 850" fill="#c0c0c0"/>
  <path d="M500 920 Q 550 940, 600 950 Q 620 970, 600 990 Q 550 1000, 500 990 Q 480 970, 500 920" fill="#c0c0c0"/>
</svg>