<svg viewBox="0 0 1000 800" xmlns="http://www.w3.org/2000/svg">
  <rect width="100%" height="100%" fill="#6C4A9E"/>
  <rect x="0" y="0" width="1000" height="500" fill="#2AC7B0"/>
  <rect x="0" y="500" width="1000" height="300" fill="#2AC7B0"/>
  <rect x="0" y="800" width="1000" height="100" fill="#6C4A9E"/>
  <g transform="translate(500,400) scale(1.5)">
    <rect x="-200" y="-200" width="400" height="400" rx="10" fill="#FFF"/>
    <rect x="-200" y="-200" width="400" height="400" rx="10" fill="#6C4A9E" opacity="0.1"/>
    <circle cx="0" cy="-100" r="30" fill="#FF4500" opacity="0.3"/>
    <rect x="-150" y="100" width="300" height="50" rx="5" fill="#2AC7B0"/>
    <rect x="-150" y="160" width="300" height="50" rx="5" fill="#6C4A9E"/>
  </g>
  <g transform="translate(500,400)">
    <rect x="-200" y="-200" width="400" height="400" rx="10" fill="#FFF"/>
    <rect x="-200" y="-200" width="400" height="400" rx="10" fill="#6C4A9E" opacity="0.1"/>
    <circle cx="0" cy="-100" r="30" fill="#FF4500" opacity="0.3"/>
    <rect x="-150" y="100" width="300" height="50" rx="5" fill="#2AC7B0"/>
    <rect x="-150" y="160" width="300" height="50" rx="5" fill="#6C4A9E"/>
  </g>
  <g transform="translate(500,400) scale(0.8)">
    <rect x="-200" y="-200" width="400" height="400" rx="10" fill="#FFF"/>
    <rect x="-200" y="-200" width="400" height="400" rx="10" fill="#6C4A9E" opacity="0.1"/>
    <circle cx="0" cy="-100" r="30" fill="#FF4500" opacity="0.3"/>
    <rect x="-150" y="100" width="300" height="50" rx="5" fill="#2AC7B0"/>
    <rect x="-150" y="160" width="300" height="50" rx="5" fill="#6C4A9E"/>
  </g>
  <g transform="translate(500,400) scale(0.5)">
    <rect x="-200" y="-200" width="400" height="400" rx="10" fill="#FFF"/>
    <rect x="-200" y="-200" width="400" height="400" rx="10" fill="#6C4A9E" opacity="0.1"/>
    <circle cx="0" cy="-100" r="30" fill="#FF4500" opacity="0.3"/>
    <rect x="-150" y="100" width="300" height="50" rx="5" fill="#2AC7B0"/>
    <rect x="-150" y="160" width="300" height="50" rx="5" fill="#6C4A9E"/>
  </g>
  <g transform="translate(500,400) scale(0.3)">
    <rect x="-200" y="-200" width="400" height="400" rx="10" fill="#FFF"/>
    <rect x="-200" y="-200" width="400" height="400" rx="10" fill="#6C4A9E" opacity="0.1"/>
    <circle cx="0" cy="-100" r="30" fill="#FF4500" opacity="0.3"/>
    <rect x="-150" y="100" width="300" height="50" rx="5" fill="#2AC7B0"/>
    <rect x="-150" y="160" width="300" height="50" rx="5" fill="#6C4A9E"/>
  </g>
  <g transform="translate(500,400) scale(0.2)">
    <rect x="-200" y="-200" width="400" height="400" rx="10" fill="#FFF"/>
    <rect x="-200" y="-200" width="400" height="400" rx="10" fill="#6C4A9E" opacity="0.1"/>
    <circle cx="0" cy="-100" r="30" fill="#FF4500" opacity="0.3"/>
    <rect x="-150" y="100" width="300" height="50" rx="5" fill="#2AC7B0"/>
    <rect x="-150" y="160" width="300" height="50" rx="5" fill="#6C4A9E"/>
  </g>
  <g transform="translate(500,400) scale(0.1)">
    <rect x="-200" y="-200" width="400" height="400" rx="10" fill="#FFF"/>
    <rect x="-200" y="-200" width="400" height="400" rx="10" fill="#6C4A9E" opacity="0.1"/>
    <circle cx="0" cy="-100" r="30" fill="#FF4500" opacity="0.3"/>
    <rect x="-150" y="100" width="300" height="50" rx="5" fill="#2AC7B0"/>
    <rect x="-150" y="160" width="300" height="50" rx="5" fill="#6C4A9E"/>
  </g>
  <g transform="translate(500,400) scale(0.05)">
    <rect x="-200" y="-200" width="400" height="400" rx="10" fill="#FFF"/>
    <rect x="-200" y="-200" width="400" height="400" rx="10" fill="#6C4A9E" opacity="0.1"/>
    <circle cx="0" cy="-100" r="30" fill="#FF4500" opacity="0.3"/>
    <rect x="-150" y="100" width="300" height="50" rx="5" fill="#2AC7B0"/>
    <rect x="-150" y="160" width="300" height="50" rx="5" fill="#6C4A9E"/>
  </g>
  <g transform="translate(500,400) scale(0.02)">
    <rect x="-200" y="-200" width="400" height="400" rx="10" fill="#FFF"/>
    <rect x="-200" y="-200" width="400" height="400" rx="10" fill="#6C4A9E" opacity="0.1"/>
    <circle cx="0" cy="-100" r="30" fill="#FF4500" opacity="0.3"/>
    <rect x="-150" y="100" width="300" height="50" rx="5" fill="#2AC7B0"/>
    <rect x="-150" y="160" width="300" height="50" rx="5" fill="#6C4A9E"/>
  </g>
  <g transform="translate(500,400) scale(0.01)">
    <rect x="-200" y="-200" width="400" height="400" rx="10" fill="#FFF"/>
    <rect x="-200" y="-200" width="400" height="400" rx="10" fill="#6C4A9E" opacity="0.1"/>
    <circle cx="0" cy="-100" r="30" fill="#FF4500" opacity="0.3"/>
    <rect x="-150" y="100" width="300" height="50" rx="5" fill="#2AC7B0"/>
    <rect x="-150" y="160" width="300" height="50" rx="5" fill="#6C4A9E"/>
  </g>
  <g transform="translate(500,400) scale(0.005)">
    <rect x="-200" y="-200" width="400" height="400" rx="10" fill="#FFF"/>
    <rect x="-200" y="-200" width="400" height="400" rx="10" fill="#6C4A9E" opacity="0.1"/>
    <circle cx="0" cy="-100" r="30" fill="#FF4500" opacity="0.3"/>
    <rect x="-150" y="100" width="300" height="50" rx="5" fill="#2AC7B0"/>
    <rect x="-150" y="160" width="300" height="50" rx="5" fill="#6C4A9E"/>
  </g>
  <g transform="translate(500,400) scale(0.002)">
    <rect x="-200" y="-200" width="400" height="400" rx="10" fill="#FFF"/>
    <rect x="-200" y="-200" width="400" height="400" rx="10" fill="#6C4A9E" opacity="0.1"/>
    <circle cx="0" cy="-100" r="30" fill="#FF4500" opacity="0.3"/>
    <rect x="-150" y="100" width="300" height="50" rx="5" fill="#2AC7B0"/>
    <rect x="-150" y="160" width="300" height="50" rx="5" fill="#6C4A9E"/>
  </g>
  <g transform="translate(500,400) scale(0.001)">
    <rect x="-200" y="-200" width="400" height="400" rx="10" fill="#FFF"/>
    <rect x="-200" y="-200" width="400" height="400" rx="10" fill="#6C4A9E" opacity="0.1"/>
    <circle cx="0" cy="-100" r="30" fill="#FF4500" opacity="0.3"/>
    <rect x="-150" y="100" width="300" height="50" rx="5" fill="#2AC7B0"/>
    <rect x="-150" y="160" width="300" height="50" rx="5" fill="#6C4A9E"/>
  </g>
  <g transform="translate(500,400) scale(0.0005)">
    <rect x="-200" y="-200" width="400" height="400" rx="10" fill="#FFF"/>
    <rect x="-200" y="-200" width="400" height="400" rx="10" fill="#6C4A9E" opacity="0.1"/>
    <circle cx="0" cy="-100" r="30" fill="#FF4500" opacity="0.3"/>
    <rect x="-150" y="100" width="300" height="50" rx="5" fill="#2AC7B0"/>
    <rect x="-150" y="160" width="300" height="50" rx="5" fill="#6C4A9E"/>
  </g>
  <g transform="translate(500,400) scale(0.0002)">
    <rect x="-200" y="-200" width="400" height="400" rx="10" fill="#FFF"/>
    <rect x="-200" y="-200" width="400" height="400" rx="10" fill="#6C4A9E" opacity="0.1"/>
    <circle cx="0" cy="-100" r="30" fill="#FF4500" opacity="0.3"/>
    <rect x="-150" y="100" width="300" height="50" rx="5" fill="#2AC7B0"/>
    <rect x="-150" y="160" width="300" height="50" rx="5" fill="#6C4A9E"/>
  </g>
  <g transform="translate(500,400) scale(0.0001)">
    <rect x="-200" y="-200" width="400" height="400" rx="10" fill="#FFF"/>
    <rect x="-200" y="-200" width="400" height="400" rx="10" fill="#6C4A9E" opacity="0.1"/>
    <circle cx="0" cy="-100" r="30" fill="#FF4500" opacity="0.3"/>
    <rect x="-150" y="100" width="300" height="50" rx="5" fill="#2AC7B0"/>
    <rect x="-150" y="160" width="300" height="50" rx="5" fill="#6C4A9E"/>
  </g>
  <g transform="translate(500,400) scale(0.00005)">
    <rect x="-200" y="-200" width="400" height="400" rx="10" fill="#FFF"/>
    <rect x="-200" y="-200" width="400" height="400" rx="10" fill="#6C4A9E" opacity="0.1"/>
    <circle cx="0" cy="-100" r="30" fill="#FF4500" opacity="0.3"/>
    <rect x="-150" y="100" width="300" height="50" rx="5" fill="#2AC7B0"/>
    <rect x="-150" y="160" width="300" height="50" rx="5" fill="#6C4A9E"/>
  </g>
  <g transform="translate(500,400) scale(0.00002)">
    <rect x="-200" y="-200" width="400" height="400" rx="10" fill="#FFF"/>
    <rect x="-200" y="-200" width="400" height="400" rx="10" fill="#6C4A9E" opacity="0.1"/>
    <circle cx="0" cy="-100" r="30" fill="#FF4500" opacity="0.3"/>
    <rect x="-150" y="100" width="300" height="50" rx="5" fill="#2AC7B0"/>
    <rect x="-150" y="160" width="300" height="50" rx="5" fill="#6C4A9E"/>
  </g>
  <g transform="translate(500,400) scale(0.00001)">
    <rect x="-200" y="-200" width="400" height="400" rx="10" fill="#FFF"/>
    <rect x="-200" y="-200" width="400" height="400" rx="10" fill="#6C4A9E" opacity="0.1"/>
    <circle cx="0" cy="-100" r="30" fill="#FF4500" opacity="0.3"/>
    <rect x="-150" y="100" width="300" height="50" rx="5" fill="#2AC7B0"/>
    <rect x="-150" y="160" width="300" height="50" rx="5" fill="#6C4A9E"/>
  </g>
  <g transform="translate(500,400) scale(0.000005)">
    <rect x="-200" y="-200" width="400" height="400" rx="10" fill="#FFF"/>
    <rect x="-200" y="-200" width="400" height="400" rx="10" fill="#6C4A9E" opacity="0.1"/>
    <circle cx="0" cy="-100" r="30" fill="#FF4500" opacity="0.3"/>
    <rect x="-150" y="100" width="300" height="50" rx="5" fill="#2AC7B0"/>
    <rect x="-150" y="160" width="300" height="50" rx="5" fill="#6C4A9E"/>
  </g>
  <g transform="translate(500,400) scale(0.000002)">
    <rect x="-200" y="-200" width="400" height="400" rx="10" fill="#FFF"/>
    <rect x="-200" y="-200" width="400" height="400" rx="10" fill="#6C4A9E" opacity="0.1"/>
    <circle cx="0" cy="-100" r="30" fill="#FF4500" opacity="0.3"/>
    <rect x="-150" y="100" width="300" height="50" rx="5" fill="#2AC7B0"/>
    <rect x="-150" y="160" width="300" height="50" rx="5" fill="#6C4A9E"/>
  </g>
  <g transform="translate(500,400) scale(0.000001)">
    <rect x="-200" y="-200" width="400" height="400" rx="10" fill="#FFF"/>
    <rect x="-200" y="-200" width="400" height="400" rx="10" fill="#6C4A9E" opacity="0.1"/>
    <circle cx="0" cy="-100" r="30" fill="#FF4500" opacity="0.3"/>
    <rect x="-150" y="100" width="300" height="50" rx="5" fill="#2AC7B0"/>
    <rect x="-150" y="160" width="300" height="50" rx="5" fill="#6C4A9E"/>
  </g>
</svg>