<svg viewBox="0 0 600 700" xmlns="http://www.w3.org/2000/svg">
  <rect x="50" y="20" width="250" height="60" rx="15" fill="#ffc0cb" stroke="black"/>
  <text x="175" y="55" font-family="Arial" font-size="20" text-anchor="middle">Lamp doesn't work</text>
  
  <polygon points="175,90 185,110 165,110" fill="white" stroke="black"/>
  
  <polygon points="175,200 275,250 175,300 75,250" fill="yellow" stroke="black"/>
  <text x="175" y="240" font-family="Arial" font-size="20" text-anchor="middle">Lamp plugged in?</text>
  
  <polygon points="350,280 360,300 340,300" fill="white" stroke="black"/>
  
  <rect x="400" y="260" width="180" height="60" rx="15" fill="#90ee90" stroke="black"/>
  <text x="490" y="295" font-family="Arial" font-size="20" text-anchor="middle">Plug in lamp</text>
  
  <polygon points="175,370 185,390 165,390" fill="white" stroke="black"/>
  
  <polygon points="175,500 275,550 175,600 75,550" fill="yellow" stroke="black"/>
  <text x="175" y="540" font-family="Arial" font-size="20" text-anchor="middle">Bulb burned out?</text>
  
  <polygon points="350,580 360,600 340,600" fill="white" stroke="black"/>
  
  <rect x="400" y="560" width="180" height="60" rx="15" fill="#90ee90" stroke="black"/>
  <text x="490" y="595" font-family="Arial" font-size="20" text-anchor="middle">Replace bulb</text>
  
  <polygon points="175,650 185,670 165,670" fill="white" stroke="black"/>
  
  <rect x="90" y="630" width="170" height="60" rx="15" fill="#90ee90" stroke="black"/>
  <text x="175" y="665" font-family="Arial" font-size="20" text-anchor="middle">Repair lamp</text>
</svg>