<svg viewBox="0 0 1000 1000" xmlns="http://www.w3.org/2000/svg">
  <rect width="1000" height="1000" fill="white"/>
  <text x="50" y="30" font-family="Arial" font-size="40" fill="black">THE CINEMA S</text>
  <text x="420" y="320" font-family="Arial" font-size="80" fill="white">MA</text>
  
  <g transform="translate(0,0)">
    <rect x="0" y="0" width="500" height="1000" fill="#2C2C2C"/>
    <circle cx="250" cy="500" r="400" fill="#FFD700"/>
    <rect x="100" y="600" width="300" height="200" fill="#E6E6FA"/>
    <ellipse cx="250" cy="200" rx="150" ry="180" fill="#8B4513"/>
    <ellipse cx="200" cy="210" rx="20" ry="15" fill="#A52A2A"/>
    <ellipse cx="300" cy="210" rx="20" ry="15" fill="#A52A2A"/>
    <ellipse cx="250" cy="280" rx="30" ry="10" fill="#FF69B4"/>
    <path d="M190 450 Q250 500 310 450" stroke="#FFFFFF" fill="none" stroke-width="3"/>
    <path d="M250 500 L250 550" stroke="#FFFFFF" fill="none" stroke-width="3"/>
    <path d="M250 550 L270 530" stroke="#FFFFFF" fill="none" stroke-width="3"/>
    <path d="M250 550 L230 530" stroke="#FFFFFF" fill="none" stroke-width="3"/>
  </g>
  
  <g transform="translate(500,0)">
    <rect x="0" y="0" width="500" height="1000" fill="#F5F5F5"/>
    <rect x="100" y="400" width="300" height="500" fill="#FFF8DC"/>
    <ellipse cx="750" cy="200" rx="150" ry="180" fill="#DEB887"/>
    <ellipse cx="700" cy="210" rx="20" ry="15" fill="#A52A2A"/>
    <ellipse cx="800" cy="210" rx="20" ry="15" fill="#A52A2A"/>
    <ellipse cx="750" cy="280" rx="30" ry="10" fill="#FF69B4"/>
    
    <g>
      <circle cx="600" cy="500" r="10" fill="#FF69B4"/>
      <circle cx="650" cy="550" r="8" fill="#FF1493"/>
      <circle cx="700" cy="500" r="12" fill="#FF69B4"/>
      <circle cx="750" cy="550" r="10" fill="#FF1493"/>
      <circle cx="800" cy="500" r="8" fill="#FF69B4"/>
      <circle cx="850" cy="550" r="12" fill="#FF1493"/>
      <circle cx="600" cy="650" r="10" fill="#FF69B4"/>
      <circle cx="650" cy="700" r="8" fill="#FF1493"/>
      <circle cx="700" cy="650" r="12" fill="#FF69B4"/>
      <circle cx="750" cy="700" r="10" fill="#FF1493"/>
      <circle cx="800" cy="650" r="8" fill="#FF69B4"/>
      <circle cx="850" cy="700" r="12" fill="#FF1493"/>
      <circle cx="600" cy="800" r="10" fill="#FF69B4"/>
      <circle cx="650" cy="850" r="8" fill="#FF1493"/>
      <circle cx="700" cy="800" r="12" fill="#FF69B4"/>
      <circle cx="750" cy="850" r="10" fill="#FF1493"/>
      <circle cx="800" cy="800" r="8" fill="#FF69B4"/>
      <circle cx="850" cy="850" r="12" fill="#FF1493"/>
    </g>
    
    <g>
      <path d="M600 520 Q610 530 620 520" stroke="#8B4513" fill="none" stroke-width="2"/>
      <path d="M650 570 Q660 580 670 570" stroke="#8B4513" fill="none" stroke-width="2"/>
      <path d="M700 520 Q710 530 720 520" stroke="#8B4513" fill="none" stroke-width="2"/>
      <path d="M750 570 Q760 580 770 570" stroke="#8B4513" fill="none" stroke-width="2"/>
      <path d="M800 520 Q810 530 820 520" stroke="#8B4513" fill="none" stroke-width="2"/>
      <path d="M850 570 Q860 580 870 570" stroke="#8B4513" fill="none" stroke-width="2"/>
      <path d="M600 670 Q610 680 620 670" stroke="#8B4513" fill="none" stroke-width="2"/>
      <path d="M650 720 Q660 730 670 720" stroke="#8B4513" fill="none" stroke-width="2"/>
      <path d="M700 670 Q710 680 720 670" stroke="#8B4513" fill="none" stroke-width="2"/>
      <path d="M750 720 Q760 730 770 720" stroke="#8B4513" fill="none" stroke-width="2"/>
      <path d="M800 670 Q810 680 820 670" stroke="#8B4513" fill="none" stroke-width="2"/>
      <path d="M850 720 Q860 730 870 720" stroke="#8B4513" fill="none" stroke-width="2"/>
      <path d="M600 820 Q610 830 620 820" stroke="#8B4513" fill="none" stroke-width="2"/>
      <path d="M650 870 Q660 880 670 870" stroke="#8B4513" fill="none" stroke-width="2"/>
      <path d="M700 820 Q710 830 720 820" stroke="#8B4513" fill="none" stroke-width="2"/>
      <path d="M750 870 Q760 880 770 870" stroke="#8B4513" fill="none" stroke-width="2"/>
      <path d="M800 820 Q810 830 820 820" stroke="#8B4513" fill="none" stroke-width="2"/>
      <path d="M850 870 Q860 880 870 870" stroke="#8B4513" fill="none" stroke-width="2"/>
    </g>
  </g>
</svg>