<svg viewBox="0 0 1000 600" xmlns="http://www.w3.org/2000/svg">
  <style>
    .header { fill: #0070A8; font-family: Arial, sans-serif; font-size: 24px; font-weight: bold; text-anchor: start; }
    .data { fill: #333; font-family: Arial, sans-serif; font-size: 20px; text-anchor: start; }
    .total { fill: white; font-family: Arial, sans-serif; font-size: 20px; font-weight: bold; text-anchor: start; }
    .cell-bg { fill: #f5f5f5; }
    .total-bg { fill: #0070A8; }
    .border { stroke: #ccc; stroke-width: 1; }
  </style>

  <!-- Table structure -->
  <rect x="0" y="0" width="1000" height="600" fill="white" />

  <!-- Header row -->
  <rect x="0" y="0" width="190" height="60" class="header" />
  <rect x="190" y="0" width="190" height="60" class="header" />
  <rect x="380" y="0" width="190" height="60" class="header" />
  <rect x="570" y="0" width="190" height="60" class="header" />
  <rect x="760" y="0" width="240" height="60" class="header" />

  <!-- Data rows -->
  <rect x="0" y="60" width="190" height="60" class="cell-bg" />
  <rect x="190" y="60" width="190" height="60" class="cell-bg" />
  <rect x="380" y="60" width="190" height="60" class="cell-bg" />
  <rect x="570" y="60" width="190" height="60" class="cell-bg" />
  <rect x="760" y="60" width="240" height="60" class="cell-bg" />

  <rect x="0" y="120" width="190" height="60" class="cell-bg" />
  <rect x="190" y="120" width="190" height="60" class="cell-bg" />
  <rect x="380" y="120" width="190" height="60" class="cell-bg" />
  <rect x="570" y="120" width="190" height="60" class="cell-bg" />
  <rect x="760" y="120" width="240" height="60" class="cell-bg" />

  <rect x="0" y="180" width="190" height="60" class="cell-bg" />
  <rect x="190" y="180" width="190" height="60" class="cell-bg" />
  <rect x="380" y="180" width="190" height="60" class="cell-bg" />
  <rect x="570" y="180" width="190" height="60" class="cell-bg" />
  <rect x="760" y="180" width="240" height="60" class="cell-bg" />

  <rect x="0" y="240" width="190" height="60" class="cell-bg" />
  <rect x="190" y="240" width="190" height="60" class="cell-bg" />
  <rect x="380" y="240" width="190" height="60" class="cell-bg" />
  <rect x="570" y="240" width="190" height="60" class="cell-bg" />
  <rect x="760" y="240" width="240" height="60" class="cell-bg" />

  <rect x="0" y="300" width="190" height="60" class="cell-bg" />
  <rect x="190" y="300" width="190" height="60" class="cell-bg" />
  <rect x="380" y="300" width="190" height="60" class="cell-bg" />
  <rect x="570" y="300" width="190" height="60" class="cell-bg" />
  <rect x="760" y="300" width="240" height="60" class="cell-bg" />

  <!-- Total row -->
  <rect x="0" y="360" width="190" height="60" class="total-bg" />
  <rect x="190" y="360" width="190" height="60" class="total-bg" />
  <rect x="380" y="360" width="190" height="60" class="total-bg" />
  <rect x="570" y="360" width="190" height="60" class="total-bg" />
  <rect x="760" y="360" width="240" height="60" class="total-bg" />

  <!-- Borders -->
  <line x1="0" y1="0" x2="1000" y2="0" class="border" />
  <line x1="0" y1="60" x2="1000" y2="60" class="border" />
  <line x1="0" y1="120" x2="1000" y2="120" class="border" />
  <line x1="0" y1="180" x2="1000" y2="180" class="border" />
  <line x1="0" y1="240" x2="1000" y2="240" class="border" />
  <line x1="0" y1="300" x2="1000" y2="300" class="border" />
  <line x1="0" y1="360" x2="1000" y2="360" class="border" />
  <line x1="0" y1="420" x2="1000" y2="420" class="border" />

  <line x1="0" y1="0" x2="0" y2="420" class="border" />
  <line x1="190" y1="0" x2="190" y2="420" class="border" />
  <line x1="380" y1="0" x2="380" y2="420" class="border" />
  <line x1="570" y1="0" x2="570" y2="420" class="border" />
  <line x1="760" y1="0" x2="760" y2="420" class="border" />
  <line x1="1000" y1="0" x2="1000" y2="420" class="border" />

  <!-- Header text -->
  <text x="10" y="40" class="header">Country</text>
  <text x="200" y="40" class="header">Sales Volume</text>
  <text x="390" y="40" class="header">Revenue</text>
  <text x="580" y="40" class="header">Profit</text>
  <text x="770" y="40" class="header">Profit Margin</text>

  <!-- Data text -->
  <text x="10" y="100" class="data">USA</text>
  <text x="200" y="100" class="data">40.080</text>
  <text x="390" y="100" class="data">$15.971.880</text>
  <text x="580" y="100" class="data">$3.086.421</text>
  <text x="770" y="100" class="data">19,3%</text>

  <text x="10" y="160" class="data">China</text>
  <text x="200" y="160" class="data">35.070</text>
  <text x="390" y="160" class="data">$15.866.670</text>
  <text x="580" y="160" class="data">$3.032.162</text>
  <text x="770" y="160" class="data">19,1%</text>

  <text x="10" y="220" class="data">Australia</text>
  <text x="200" y="220" class="data">27.054</text>
  <text x="390" y="220" class="data">$14.812.566</text>
  <text x="580" y="220" class="data">$2.868.636</text>
  <text x="770" y="220" class="data">19,4%</text>

  <text x="10" y="280" class="data">India</text>
  <text x="200" y="280" class="data">23.046</text>
  <text x="390" y="280" class="data">$10.608.174</text>
  <text x="580" y="280" class="data">$1.853.710</text>
  <text x="770" y="280" class="data">17,5%</text>

  <text x="10" y="340" class="data">South Korea</text>
  <text x="200" y="340" class="data">16.032</text>
  <text x="390" y="340" class="data">$10.494.948</text>
  <text x="580" y="340" class="data">$1.975.844</text>
  <text x="770" y="340" class="data">18,8%</text>

  <!-- Total text -->
  <text x="10" y="400" class="total">Total / Avg</text>
  <text x="200" y="400" class="total">141.282</text>
  <text x="390" y="400" class="total">$67.754.238</text>
  <text x="580" y="400" class="total">$12.816.772</text>
  <text x="770" y="400" class="total">18,8%</text>
</svg>