<svg viewBox="0 0 1000 1000" xmlns="http://www.w3.org/2000/svg">
  <rect width="1000" height="1000" fill="#665c54"/>
  <rect x="170" y="0" width="200" height="1000" fill="#d4af37"/>
  <rect x="730" y="0" width="200" height="1000" fill="#d4af37"/>
  
  <!-- Woman -->
  <g transform="translate(200,50)">
    <!-- Hair -->
    <path d="M400,80 C450,100 500,120 550,80 C600,50 650,100 700,150 C750,200 700,250 650,300 C600,350 550,400 500,450 C450,500 400,550 350,600 C300,650 250,700 200,750 C150,800 100,850 50,900" fill="none" stroke="#2e1a1a" stroke-width="10"/>
    
    <!-- Face -->
    <ellipse cx="500" cy="200" rx="80" ry="100" fill="#f0d0b0"/>
    <circle cx="470" cy="180" r="10" fill="#000"/>
    <circle cx="530" cy="180" r="10" fill="#000"/>
    <path d="M470,220 Q500,250 530,220" fill="none" stroke="#000" stroke-width="5"/>
    
    <!-- Dress -->
    <path d="M300,400 L700,400 L700,1000 L300,1000 Z" fill="#ffffff"/>
    <path d="M300,400 Q500,300 700,400" fill="none" stroke="#ffffff" stroke-width="10"/>
    
    <!-- Arms -->
    <path d="M300,400 L250,700" fill="none" stroke="#f0d0b0" stroke-width="50"/>
    <path d="M700,400 L750,700" fill="none" stroke="#f0d0b0" stroke-width="50"/>
    
    <!-- Hand on chest -->
    <path d="M450,450 L500,400 L550,450 L500,500 Z" fill="#f0d0b0"/>
    
    <!-- Oscar statue -->
    <path d="M650,620 L700,620 L700,950 L650,950 Z" fill="#ffd700"/>
    <path d="M675,620 L675,950" fill="none" stroke="#000" stroke-width="2"/>
    <path d="M650,620 Q675,600 700,620" fill="none" stroke="#000" stroke-width="2"/>
    <path d="M650,950 Q675,970 700,950" fill="none" stroke="#000" stroke-width="2"/>
    
    <!-- Microphone -->
    <rect x="550" y="700" width="50" height="300" fill="#000"/>
    <ellipse cx="575" cy="700" rx="25" ry="25" fill="#000"/>
  </g>
</svg>