<svg viewBox="0 0 500 500" xmlns="http://www.w3.org/2000/svg">
  <rect width="500" height="500" fill="#8B4513"/>
  <rect x="0" y="0" width="500" height="500" fill="#DEB887" rx="5" ry="5"/>
  <rect x="0" y="0" width="500" height="500" fill="#8B4513" rx="5" ry="5"/>
  <rect x="10" y="10" width="480" height="480" fill="#DEB887" rx="5" ry="5"/>
  <rect x="20" y="20" width="460" height="460" fill="#8B4513" rx="5" ry="5"/>
  <rect x="30" y="30" width="440" height="440" fill="#DEB887" rx="5" ry="5"/>
  <rect x="40" y="40" width="420" height="420" fill="#8B4513" rx="5" ry="5"/>
  <rect x="50" y="50" width="400" height="400" fill="#DEB887" rx="5" ry="5"/>
  <rect x="60" y="60" width="380" height="380" fill="#8B4513" rx="5" ry="5"/>
  <rect x="70" y="70" width="360" height="360" fill="#DEB887" rx="5" ry="5"/>
  <rect x="80" y="80" width="340" height="340" fill="#8B4513" rx="5" ry="5"/>
  <rect x="90" y="90" width="320" height="320" fill="#DEB887" rx="5" ry="5"/>
  <rect x="100" y="100" width="300" height="300" fill="#8B4513" rx="5" ry="5"/>
  <rect x="110" y="110" width="280" height="280" fill="#DEB887" rx="5" ry="5"/>
  <rect x="120" y="120" width="260" height="260" fill="#8B4513" rx="5" ry="5"/>
  <rect x="130" y="130" width="240" height="240" fill="#DEB887" rx="5" ry="5"/>
  <rect x="140" y="140" width="220" height="220" fill="#8B4513" rx="5" ry="5"/>
  <rect x="150" y="150" width="200" height="200" fill="#DEB887" rx="5" ry="5"/>
  <rect x="160" y="160" width="180" height="180" fill="#8B4513" rx="5" ry="5"/>
  <rect x="170" y="170" width="160" height="160" fill="#DEB887" rx="5" ry="5"/>
  <rect x="180" y="180" width="140" height="140" fill="#8B4513" rx="5" ry="5"/>
  <rect x="190" y="190" width="120" height="120" fill="#DEB887" rx="5" ry="5"/>
  <rect x="200" y="200" width="100" height="100" fill="#8B4513" rx="5" ry="5"/>
  <rect x="210" y="210" width="80" height="80" fill="#DEB887" rx="5" ry="5"/>
  <rect x="220" y="220" width="60" height="60" fill="#8B4513" rx="5" ry="5"/>
  <rect x="230" y="230" width="40" height="40" fill="#DEB887" rx="5" ry="5"/>
  <rect x="240" y="240" width="20" height="20" fill="#8B4513" rx="5" ry="5"/>
  <rect x="250" y="250" width="0" height="0" fill="#DEB887" rx="5" ry="5"/>
  <rect x="260" y="260" width="-20" height="-20" fill="#8B4513" rx="5" ry="5"/>
  <rect x="270" y="270" width="-40" height="-40" fill="#DEB887" rx="5" ry="5"/>
  <rect x="280" y="280" width="-60" height="-60" fill="#8B4513" rx="5" ry="5"/>
  <rect x="290" y="290" width="-80" height="-80" fill="#DEB887" rx="5" ry="5"/>
  <rect x="300" y="300" width="-100" height="-100" fill="#8B4513" rx="5" ry="5"/>
  <rect x="310" y="310" width="-120" height="-120" fill="#DEB887" rx="5" ry="5"/>
  <rect x="320" y="320" width="-140" height="-140" fill="#8B4513" rx="5" ry="5"/>
  <rect x="330" y="330" width="-160" height="-160" fill="#DEB887" rx="5" ry="5"/>
  <rect x="340" y="340" width="-180" height="-180" fill="#8B4513" rx="5" ry="5"/>
  <rect x="350" y="350" width="-200" height="-200" fill="#DEB887" rx="5" ry="5"/>
  <rect x="360" y="360" width="-220" height="-220" fill="#8B4513" rx="5" ry="5"/>
  <rect x="370" y="370" width="-240" height="-240" fill="#DEB887" rx="5" ry="5"/>
  <rect x="380" y="380" width="-260" height="-260" fill="#8B4513" rx="5" ry="5"/>
  <rect x="390" y="390" width="-280" height="-280" fill="#DEB887" rx="5" ry="5"/>
  <rect x="400" y="400" width="-300" height="-300" fill="#8B4513" rx="5" ry="5"/>
  <rect x="410" y="410" width="-320" height="-320" fill="#DEB887" rx="5" ry="5"/>
  <rect x="420" y="420" width="-340" height="-340" fill="#8B4513" rx="5" ry="5"/>
  <rect x="430" y="430" width="-360" height="-360" fill="#DEB887" rx="5" ry="5"/>
  <rect x="440" y="440" width="-380" height="-380" fill="#8B4513" rx="5" ry="5"/>
  <rect x="450" y="450" width="-400" height="-400" fill="#DEB887" rx="5" ry="5"/>
  <rect x="460" y="460" width="-420" height="-420" fill="#8B4513" rx="5" ry="5"/>
  <rect x="470" y="470" width="-440" height="-440" fill="#DEB887" rx="5" ry="5"/>
  <rect x="480" y="480" width="-460" height="-460" fill="#8B4513" rx="5" ry="5"/>
  <rect x="490" y="490" width="-480" height="-480" fill="#DEB887" rx="5" ry="5"/>
</svg>