<svg viewBox="0 0 1000 800" xmlns="http://www.w3.org/2000/svg">
  <rect width="1000" height="800" fill="#4a5a50"/>
  <text x="60" y="300" font-family="Arial" font-size="60" fill="white">3×3=</text>
  <text x="390" y="300" font-family="Arial" font-size="60" fill="white">7×2=</text>
  <text x="700" y="280" font-family="Arial" font-size="60" fill="white">11-2=</text>
  <g transform="translate(100, 300)">
    <rect x="-20" y="-10" width="40" height="20" rx="5" fill="white"/>
  </g>
  <g transform="translate(480, 300)">
    <rect x="-20" y="-10" width="40" height="20" rx="5" fill="white"/>
  </g>
  <g transform="translate(880, 300)">
    <rect x="-20" y="-10" width="40" height="20" rx="5" fill="white"/>
  </g>
  <g transform="translate(100, 500)">
    <circle cx="0" cy="0" r="40" fill="#333"/>
    <rect x="-20" y="30" width="40" height="80" fill="#333"/>
    <rect x="-50" y="110" width="100" height="150" fill="#333"/>
    <rect x="-50" y="110" width="100" height="30" fill="white"/>
    <rect x="-45" y="115" width="90" height="20" fill="#333"/>
    <rect x="-40" y="120" width="80" height="10" fill="red"/>
    <rect x="-50" y="110" width="100" height="150" fill="#333"/>
    <rect x="-50" y="110" width="100" height="30" fill="white"/>
    <rect x="-45" y="115" width="90" height="20" fill="#333"/>
    <rect x="-40" y="120" width="80" height="10" fill="red"/>
    <rect x="-50" y="110" width="100" height="150" fill="#333"/>
    <rect x="-50" y="110" width="100" height="30" fill="white"/>
    <rect x="-45" y="115" width="90" height="20" fill="#333"/>
    <rect x="-40" y="120" width="80" height="10" fill="red"/>
    <circle cx="-30" cy="-10" r="10" fill="red"/>
    <circle cx="-20" cy="-15" r="10" fill="red"/>
    <circle cx="-10" cy="-10" r="10" fill="red"/>
  </g>
  <g transform="translate(500, 500)">
    <circle cx="0" cy="0" r="40" fill="#333"/>
    <rect x="-20" y="30" width="40" height="80" fill="#333"/>
    <rect x="-50" y="110" width="100" height="150" fill="#333"/>
    <rect x="-50" y="110" width="100" height="30" fill="white"/>
    <rect x="-45" y="115" width="90" height="20" fill="#333"/>
    <rect x="-40" y="120" width="80" height="10" fill="red"/>
    <rect x="-50" y="110" width="100" height="150" fill="#333"/>
    <rect x="-50" y="110" width="100" height="30" fill="white"/>
    <rect x="-45" y="115" width="90" height="20" fill="#333"/>
    <rect x="-40" y="120" width="80" height="10" fill="red"/>
    <rect x="-50" y="110" width="100" height="150" fill="#333"/>
    <rect x="-50" y="110" width="100" height="30" fill="white"/>
    <rect x="-45" y="115" width="90" height="20" fill="#333"/>
    <rect x="-40" y="120" width="80" height="10" fill="red"/>
    <rect x="-30" y="110" width="60" height="150" fill="pink"/>
    <rect x="-30" y="110" width="60" height="30" fill="white"/>
    <rect x="-25" y="115" width="50" height="20" fill="pink"/>
    <rect x="-20" y="120" width="40" height="10" fill="red"/>
    <rect x="-30" y="110" width="60" height="150" fill="pink"/>
    <rect x="-30" y="110" width="60" height="30" fill="white"/>
    <rect x="-25" y="115" width="50" height="20" fill="pink"/>
    <rect x="-20" y="120" width="40" height="10" fill="red"/>
    <rect x="-30" y="110" width="60" height="150" fill="pink"/>
    <rect x="-30" y="110" width="60" height="30" fill="white"/>
    <rect x="-25" y="115" width="50" height="20" fill="pink"/>
    <rect x="-20" y="120" width="40" height="10" fill="red"/>
    <circle cx="-15" cy="-10" r="5" fill="yellow"/>
    <circle cx="15" cy="-10" r="5" fill="purple"/>
  </g>
  <g transform="translate(850, 500)">
    <circle cx="0" cy="0" r="40" fill="#333"/>
    <rect x="-20" y="30" width="40" height="80" fill="#333"/>
    <rect x="-50" y="110" width="100" height="150" fill="#333"/>
    <rect x="-50" y="110" width="100" height="30" fill="white"/>
    <rect x="-45" y="115" width="90" height="20" fill="#333"/>
    <rect x="-40" y="120" width="80" height="10" fill="red"/>
    <rect x="-50" y="110" width="100" height="150" fill="#333"/>
    <rect x="-50" y="110" width="100" height="30" fill="white"/>
    <rect x="-45" y="115" width="90" height="20" fill="#333"/>
    <rect x="-40" y="120" width="80" height="10" fill="red"/>
    <rect x="-50" y="110" width="100" height="150" fill="#333"/>
    <rect x="-50" y="110" width="100" height="30" fill="white"/>
    <rect x="-45" y="115" width="90" height="20" fill="#333"/>
    <rect x="-40" y="120" width="80" height="10" fill="red"/>
    <rect x="-30" y="110" width="60" height="150" fill="white"/>
    <rect x="-30" y="110" width="60" height="30" fill="white"/>
    <rect x="-25" y="115" width="50" height="20" fill="white"/>
    <rect x="-20" y="120" width="40" height="10" fill="red"/>
    <rect x="-30" y="110" width="60" height="150" fill="white"/>
    <rect x="-30" y="110" width="60" height="30" fill="white"/>
    <rect x="-25" y="115" width="50" height="20" fill="white"/>
    <rect x="-20" y="120" width="40" height="10" fill="red"/>
    <rect x="-30" y="110" width="60" height="150" fill="white"/>
    <rect x="-30" y="110" width="60" height="30" fill="white"/>
    <rect x="-25" y="115" width="50" height="20" fill="white"/>
    <rect x="-20" y="120" width="40" height="10" fill="red"/>
  </g>
</svg>