<svg viewBox="0 0 1000 1000" xmlns="http://www.w3.org/2000/svg">
  <rect x="0" y="0" width="1000" height="1000" fill="#8B4513"/>
  <rect x="20" y="20" width="960" height="300" fill="#DEB887"/>
  <rect x="20" y="340" width="960" height="300" fill="#DEB887"/>
  <rect x="20" y="660" width="960" height="300" fill="#DEB887"/>
  
  <!-- Top shelf books -->
  <rect x="20" y="40" width="70" height="260" fill="#A52A2A"/>
  <rect x="85" y="50" width="60" height="250" fill="#000000"/>
  <rect x="135" y="100" width="65" height="200" fill="#B22222"/>
  <rect x="180" y="75" width="70" height="225" fill="#000000"/>
  <rect x="240" y="70" width="55" height="230" fill="#0000FF"/>
  <rect x="285" y="65" width="65" height="235" fill="#000000"/>
  <rect x="335" y="140" width="45" height="160" fill="#00008B"/>
  <rect x="370" y="120" width="40" height="180" fill="#000080"/>
  <rect x="405" y="40" width="55" height="260" fill="#A52A2A"/>
  <rect x="455" y="40" width="55" height="260" fill="#00008B"/>
  <rect x="505" y="65" width="55" height="235" fill="#000000"/>
  <rect x="555" y="65" width="55" height="235" fill="#00008B"/>
  <rect x="605" y="75" width="65" height="225" fill="#DAA520"/>
  <rect x="660" y="35" width="70" height="265" fill="#006400"/>
  <rect x="720" y="35" width="65" height="265" fill="#000000"/>
  <rect x="775" y="35" width="65" height="265" fill="#000000"/>
  <rect x="830" y="20" width="70" height="280" fill="#000000"/>
  <rect x="890" y="30" width="65" height="270" fill="#006400"/>
  <rect x="945" y="20" width="70" height="280" fill="#000000"/>
  
  <!-- Middle shelf books -->
  <rect x="20" y="380" width="100" height="220" fill="#A52A2A"/>
  <rect x="120" y="460" width="50" height="140" fill="#006400"/>
  <rect x="160" y="420" width="45" height="180" fill="#B22222"/>
  <rect x="195" y="420" width="55" height="180" fill="#00008B"/>
  <rect x="240" y="380" width="65" height="220" fill="#000000"/>
  <rect x="295" y="380" width="65" height="220" fill="#000000"/>
  <rect x="350" y="380" width="65" height="220" fill="#B22222"/>
  <rect x="395" y="380" width="65" height="220" fill="#000000"/>
  <rect x="450" y="380" width="65" height="220" fill="#000000"/>
  <rect x="505" y="380" width="65" height="220" fill="#000000"/>
  <rect x="560" y="380" width="65" height="220" fill="#000000"/>
  <rect x="615" y="380" width="65" height="220" fill="#000000"/>
  <rect x="670" y="410" width="55" height="190" fill="#000000"/>
  <rect x="715" y="370" width="65" height="230" fill="#000000"/>
  <rect x="770" y="370" width="65" height="230" fill="#000000"/>
  <rect x="825" y="380" width="65" height="220" fill="#000000"/>
  <rect x="880" y="360" width="65" height="240" fill="#000000"/>
  <rect x="935" y="340" width="70" height="260" fill="#006400"/>
  
  <!-- Bottom shelf books -->
  <rect x="20" y="680" width="45" height="280" fill="#8B0000"/>
  <rect x="55" y="680" width="85" height="280" fill="#DC143C"/>
  <rect x="130" y="680" width="45" height="280" fill="#2E8B57"/>
  <rect x="165" y="680" width="65" height="280" fill="#8B0000"/>
  <rect x="220" y="680" width="65" height="280" fill="#00008B"/>
  <rect x="275" y="680" width="65" height="280" fill="#000000"/>
  <rect x="330" y="680" width="45" height="280" fill="#B22222"/>
  <rect x="365" y="680" width="45" height="280" fill="#00008B"/>
  <rect x="400" y="680" width="65" height="280" fill="#00008B"/>
  <rect x="455" y="680" width="65" height="280" fill="#00008B"/>
  <rect x="510" y="680" width="65" height="280" fill="#000000"/>
  <rect x="565" y="680" width="65" height="280" fill="#006400"/>
  <rect x="620" y="680" width="65" height="280" fill="#00008B"/>
  <rect x="675" y="680" width="65" height="280" fill="#000000"/>
  <rect x="730" y="680" width="65" height="280" fill="#00008B"/>
  <rect x="785" y="680" width="65" height="280" fill="#006400"/>
  <rect x="840" y="680" width="65" height="280" fill="#006400"/>
  <rect x="895" y="680" width="65" height="280" fill="#B22222"/>
  <rect x="950" y="680" width="70" height="280" fill="#A52A2A"/>
  
  <!-- Book spines text and decorations -->
  <text x="30" y="80" font-size="8" fill="white">PISMO ŚWIĘTE</text>
  <text x="90" y="120" font-size="8" fill="white">БИБЛИЯ</text>
  <text x="140" y="130" font-size="12" fill="white">BIBLE</text>
  <text x="190" y="170" font-size="18" fill="white">✝</text>
  <text x="245" y="120" font-size="8" fill="white">СВЕТО ПИСМО</text>
  <text x="290" y="120" font-size="10" fill="white">BIBLIA</text>
  <text x="340" y="170" font-size="10" fill="white">LA BIBLE</text>
  <text x="375" y="170" font-size="8" fill="white">BIBLIA</text>
  <text x="410" y="95" font-size="6" fill="white">LA SANTA BIBLIA</text>
  <text x="460" y="100" font-size="12" fill="white">BIBLIA</text>
  <text x="510" y="110" font-size="12" fill="white">Biblia</text>
  <text x="565" y="85" font-size="8" fill="white">Holy Bible</text>
  <text x="615" y="120" font-size="16" fill="black">BIBELEN</text>
  <text x="665" y="70" font-size="6" fill="white">GUTE NACHRICHT BIBEL</text>
  <text x="725" y="110" font-size="10" fill="white">BIJBEL</text>
  <text x="780" y="95" font-size="8" fill="white">DIE BIBEL</text>
  <text x="835" y="45" font-size="8" fill="white">BIBELEN</text>
  <text x="895" y="65" font-size="16" fill="white">BIBELN</text>
  <text x="950" y="90" font-size="10" fill="white">BIBLIAN</text>
  
  <text x="45" y="475" font-size="14" fill="white">BIBLIA</text>
  <text x="125" y="520" font-size="8" fill="white">תנ״ך</text>
  <text x="195" y="470" font-size="14" fill="yellow">IL-BIBBIA</text>
  <text x="240" y="450" font-size="8" fill="white">BEIBELE</text>
  <text x="295" y="430" font-size="8" fill="white">BAEBOLO</text>
  <text x="340" y="430" font-size="8" fill="white">SEBR RÔNGO</text>
  <text x="375" y="430" font-size="10" fill="white">BIBLE</text>
  <text x="415" y="415" font-size="8" fill="white">BHAIBHERI</text>
  <text x="420" y="430" font-size="8" fill="white">tine</text>
  <text x="415" y="445" font-size="8" fill="white">AFOKIRIFA</text>
  <text x="475" y="430" font-size="8" fill="white">OMSHIMBELA</text>
  <text x="535" y="430" font-size="8" fill="white">BIBLE</text>
  <text x="620" y="430" font-size="10" fill="white">BIBLIA</text>
  <text x="675" y="460" font-size="6" fill="white">INKURU NZIZA KU MUNTO WESÉ</text>
  <text x="715" y="415" font-size="8" fill="white">AYOOLA TIAKO</text>
  <text x="720" y="430" font-size="8" fill="white">MARTAO MALEKO</text>
  <text x="720" y="445" font-size="8" fill="white">VETU UKESO</text>
  <text x="775" y="430" font-size="8" fill="white">O LE TUSI PAIA</text>
  <text x="800" y="430" font-size="6" fill="white">KONA EVANGELIA A MARTAO MALEKO LUKA IOANE</text>
  <text x="900" y="385" font-size="10" fill="white">SVETO PISMO</text>
  
  <text x="95" y="850" font-size="8" fill="white">พระคัมภีร์</text>
  <text x="240" y="775" font-size="8" fill="white">KINH THÁNH</text>
  <text x="280" y="775" font-size="8" fill="white">BIB LA</text>
  <text x="340" y="800" font-size="8" fill="white">TESTAMENT NEVEZ</text>
  <text x="370" y="800" font-size="6" fill="white">ANSWERS</text>
  <text x="405" y="800" font-size="8" fill="white">TIOMNA NUA</text>
  <text x="490" y="755" font-size="14" fill="white">BIBLIA</text>
  <text x="540" y="800" font-size="12" fill="white">biblia</text>
  <text x="630" y="800" font-size="16" fill="black">BIBILI</text>
  <text x="675" y="840" font-size="6" fill="white">RAAMATTU</text>
  <text x="730" y="850" font-size="12" fill="white">PIIBEL</text>
  <text x="785" y="850" font-size="10" fill="white">БЫЛЬ КОСЫСЬОМ</text>
  <text x="840" y="850" font-size="10" fill="white">ЛІЖНІ</text>
  <text x="895" y="850" font-size="10" fill="white">UUZI SANA</text>
  <text x="950" y="790" font-size="8" fill="white">BIBLIA</text>
  
  <!-- Decorative elements on book spines -->
  <circle cx="75" y="420" r="5" fill="white"/>
  <rect x="60" y="600" width="30" height="10" fill="white"/>
  <rect x="190" y="590" width="30" height="10" fill="white"/>
  <rect x="245" y="610" width="20" height="20" fill="gold"/>
  <rect x="435" y="610" width="20" height="20" fill="gold"/>
  <rect x="485" y="590" width="20" height="20" fill="gold"/>
  <rect x="535" y="930" width="20" height="20" fill="gold"/>
  <rect x="280" y="910" width="20" height="20" fill="white"/>
  <rect x="920" y="750" width="40" height="200" fill="gold"/>
  <rect x="920" y="770" width="40" height="160" fill="brown"/>
  <rect x="930" y="780" width="20" height="140" fill="gold"/>
  <rect x="940" y="790" width="10" height="120" fill="brown"/>
  <rect x="920" y="840" width="40" height="10" fill="gold"/>
  <rect x="920" y="860" width="40" height="10" fill="gold"/>
  <rect x="920" y="880" width="40" height="10" fill="gold"/>
  <rect x="920" y="900" width="40" height="10" fill="gold"/>
  <rect x="920" y="920" width="40" height="10" fill="gold"/>
  <rect x="920" y="940" width="40" height="10" fill="gold"/>
  <rect x="920" y="960" width="40" height="10" fill="gold"/>
  
  <!-- Bookmarks -->
  <line x1="240" y1="305" x2="250" y2="370" stroke="white" stroke-width="2"/>
  <line x1="325" y1="305" x2="335" y2="370" stroke="blue" stroke-width="2"/>
  <line x1="505" y1="305" x2="515" y2="370" stroke="white" stroke-width="2"/>
  <line x1="595" y1="305" x2="605" y2="370" stroke="blue" stroke-width="2"/>
  <line x1="880" y1="305" x2="890" y2="370" stroke="green" stroke-width="2"/>
  <line x1="75" y1="640" x2="110" y2="710" stroke="yellow" stroke-width="2"/>
  <line x1="180" y1="640" x2="190" y2="710" stroke="black" stroke-width="2"/>
  <line x1="290" y1="640" x2="300" y2="710" stroke="red" stroke-width="2"/>
  <line x1="380" y1="640" x2="390" y2="710" stroke="red" stroke-width="2"/>
  <line x1="545" y1="640" x2="555" y2="710" stroke="red" stroke-width="2"/>
  <line x1="605" y1="640" x2="615" y2="710" stroke="red" stroke-width="2"/>
  <line x1="915" y1="640" x2="925" y2="710" stroke="green" stroke-width="2"/>
</svg>