<svg viewBox="0 0 1000 800" xmlns="http://www.w3.org/2000/svg">
  <rect width="1000" height="800" fill="#d0d0d0"/>
  <rect x="50" y="50" width="900" height="700" fill="#a0a0a0" rx="10"/>
  <rect x="100" y="100" width="800" height="600" fill="#c0c0c0" rx="5"/>
  <rect x="150" y="150" width="700" height="500" fill="#e0e0e0" rx="5"/>
  <rect x="200" y="200" width="600" height="400" fill="#f0f0f0" rx="5"/>
  <rect x="250" y="250" width="500" height="300" fill="#ffffff" rx="5"/>
  <rect x="300" y="300" width="400" height="200" fill="#e0e0e0" rx="5"/>
  <rect x="350" y="350" width="300" height="100" fill="#d0d0d0" rx="5"/>
  <rect x="400" y="400" width="200" height="50" fill="#c0c0c0" rx="5"/>
  <rect x="450" y="450" width="100" height="25" fill="#b0b0b0" rx="5"/>
  <rect x="500" y="500" width="50" height="12.5" fill="#a0a0a0" rx="5"/>
  <rect x="550" y="550" width="25" height="6.25" fill="#909090" rx="5"/>
  <rect x="600" y="600" width="12.5" height="3.125" fill="#808080" rx="5"/>
  <rect x="650" y="650" width="6.25" height="1.5625" fill="#707070" rx="5"/>
  <rect x="700" y="700" width="3.125" height="0.78125" fill="#606060" rx="5"/>
  <rect x="750" y="750" width="1.5625" height="0.390625" fill="#505050" rx="5"/>
  <rect x="800" y="800" width="0.78125" height="0.1953125" fill="#404040" rx="5"/>
  <rect x="850" y="850" width="0.390625" height="0.09765625" fill="#303030" rx="5"/>
  <rect x="900" y="900" width="0.1953125" height="0.048828125" fill="#202020" rx="5"/>
  <rect x="950" y="950" width="0.09765625" height="0.0244140625" fill="#101010" rx="5"/>
  <rect x="1000" y="1000" width="0.048828125" height="0.01220703125" fill="#000000" rx="5"/>
  <rect x="0" y="0" width="1000" height="800" fill="#ffffff" opacity="0.5"/>
</svg>