<svg viewBox="0 0 1000 800" xmlns="http://www.w3.org/2000/svg">
  <rect width="1000" height="800" fill="#e6f7ff"/>
  <rect x="290" y="35" width="750" height="750" rx="40" ry="40" fill="#1a1a1a"/>
  <rect x="320" y="65" width="690" height="690" rx="20" ry="20" fill="#333"/>
  <rect x="330" y="75" width="670" height="670" rx="15" ry="15" fill="#4d4d4d"/>
  <rect x="340" y="85" width="650" height="650" rx="10" ry="10" fill="#666"/>
  <rect x="350" y="95" width="630" height="630" rx="5" ry="5" fill="#7f7f7f"/>
  <rect x="360" y="105" width="610" height="610" rx="3" ry="3" fill="#999"/>
  <rect x="370" y="115" width="590" height="590" rx="2" ry="2" fill="#b3b3b3"/>
  <rect x="380" y="125" width="570" height="570" rx="1" ry="1" fill="#ccc"/>
  <rect x="390" y="135" width="550" height="550" rx="0.5" ry="0.5" fill="#e6e6e6"/>
  <rect x="400" y="145" width="530" height="530" rx="0.25" ry="0.25" fill="#f2f2f2"/>
  <rect x="410" y="155" width="510" height="510" rx="0.1" ry="0.1" fill="#fff"/>
  <rect x="420" y="165" width="490" height="490" rx="0.05" ry="0.05" fill="#f0f0f0"/>
  <rect x="430" y="175" width="470" height="470" rx="0.02" ry="0.02" fill="#e0e0e0"/>
  <rect x="440" y="185" width="450" height="450" rx="0.01" ry="0.01" fill="#d0d0d0"/>
  <rect x="450" y="195" width="430" height="430" rx="0.005" ry="0.005" fill="#c0c0c0"/>
  <rect x="460" y="205" width="410" height="410" rx="0.002" ry="0.002" fill="#b0b0b0"/>
  <rect x="470" y="215" width="390" height="390" rx="0.001" ry="0.001" fill="#a0a0a0"/>
  <rect x="480" y="225" width="370" height="370" rx="0.0005" ry="0.0005" fill="#909090"/>
  <rect x="490" y="235" width="350" height="350" rx="0.0002" ry="0.0002" fill="#808080"/>
  <rect x="500" y="245" width="330" height="330" rx="0.0001" ry="0.0001" fill="#707070"/>
  <rect x="510" y="255" width="310" height="310" rx="0.00005" ry="0.00005" fill="#606060"/>
  <rect x="520" y="265" width="290" height="290" rx="0.00002" ry="0.00002" fill="#505050"/>
  <rect x="530" y="275" width="270" height="270" rx="0.00001" ry="0.00001" fill="#404040"/>
  <rect x="540" y="285" width="250" height="250" rx="0.000005" ry="0.000005" fill="#303030"/>
  <rect x="550" y="295" width="230" height="230" rx="0.000002" ry="0.000002" fill="#202020"/>
  <rect x="560" y="305" width="210" height="210" rx="0.000001" ry="0.000001" fill="#101010"/>
  <rect x="570" y="315" width="190" height="190" rx="0.0000005" ry="0.0000005" fill="#000"/>
  <rect x="580" y="325" width="170" height="170" rx="0.0000002" ry="0.0000002" fill="#000"/>
  <rect x="590" y="335" width="150" height="150" rx="0.0000001" ry="0.0000001" fill="#000"/>
  <rect x="600" y="345" width="130" height="130" rx="0.00000005" ry="0.00000005" fill="#000"/>
  <rect x="610" y="355" width="110" height="110" rx="0.00000002" ry="0.00000002" fill="#000"/>
  <rect x="620" y="365" width="90" height="90" rx="0.00000001" ry="0.00000001" fill="#000"/>
  <rect x="630" y="375" width="70" height="70" rx="0.000000005" ry="0.000000005" fill="#000"/>
  <rect x="640" y="385" width="50" height="50" rx="0.000000002" ry="0.000000002" fill="#000"/>
  <rect x="650" y="395" width="30" height="30" rx="0.000000001" ry="0.000000001" fill="#000"/>
  <rect x="660" y="405" width="10" height="10" rx="0.0000000005" ry="0.0000000005" fill="#000"/>
  <rect x="670" y="415" width="10" height="10" rx="0.0000000002" ry="0.0000000002" fill="#000"/>
  <rect x="680" y="425" width="10" height="10" rx="0.0000000001" ry="0.0000000001" fill="#000"/>
  <rect x="690" y="435" width="10" height="10" rx="0.00000000005" ry="0.00000000005" fill="#000"/>
  <rect x="700" y="445" width="10" height="10" rx="0.00000000002" ry="0.00000000002" fill="#000"/>
  <rect x="710" y="455" width="10" height="10" rx="0.00000000001" ry="0.00000000001" fill="#000"/>
  <rect x="720" y="465" width="10" height="10" rx="0.000000000005" ry="0.000000000005" fill="#000"/>
  <rect x="730" y="475" width="10" height="10" rx="0.000000000002" ry="0.000000000002" fill="#000"/>
  <rect x="740" y="485" width="10" height="10" rx="0.000000000001" ry="0.000000000001" fill="#000"/>
  <rect x="750" y="495" width="10" height="10" rx="0.0000000000005" ry="0.0000000000005" fill="#000"/>
  <rect x="760" y="505" width="10" height="10" rx="0.0000000000002" ry="0.0000000000002" fill="#000"/>
  <rect x="770" y="515" width="10" height="10" rx="0.0000000000001" ry="0.0000000000001" fill="#000"/>
  <rect x="780" y="525" width="10" height="10" rx="0.00000000000005" ry="0.00000000000005" fill="#000"/>
  <rect x="790" y="535" width="10" height="10" rx="0.00000000000002" ry="0.00000000000002" fill="#000"/>
  <rect x="800" y="545" width="10" height="10" rx="0.00000000000001" ry="0.00000000000001" fill="#000"/>
  <rect x="810" y="555" width="10" height="10" rx="0.000000000000005" ry="0.000000000000005" fill="#000"/>
  <rect x="820" y="565" width="10" height="10" rx="0.000000000000002" ry="0.000000000000002" fill="#000"/>
  <rect x="830" y="575" width="10" height="10" rx="0.000000000000001" ry="0.000000000000001" fill="#000"/>
  <rect x="840" y="585" width="10" height="10" rx="0.0000000000000005" ry="0.0000000000000005" fill="#000"/>
  <rect x="850" y="595" width="10" height="10" rx="0.0000000000000002" ry="0.0000000000000002" fill="#000"/>
  <rect x="860" y="605" width="10" height="10" rx="0.0000000000000001" ry="0.0000000000000001" fill="#000"/>
  <rect x="870" y="615" width="10" height="10" rx="0.00000000000000005" ry="0.00000000000000005" fill="#000"/>
  <rect x="880" y="625" width="10" height="10" rx="0.00000000000000002" ry="0.00000000000000002" fill="#000"/>
  <rect x="890" y="635" width="10" height="10" rx="0.00000000000000001" ry="0.00000000000000001" fill="#000"/>
  <rect x="900" y="645" width="10" height="10" rx="0.000000000000000005" ry="0.000000000000000005" fill="#000"/>
  <rect x="910" y="655" width="10" height="10" rx="0.000000000000000002" ry="0.000000000000000002" fill="#000"/>
  <rect x="920" y="665" width="10" height="10" rx="0.000000000000000001" ry="0.000000000000000001" fill="#000"/>
  <rect x="930" y="675" width="10" height="10" rx="0.0000000000000000005" ry="0.0000000000000000005" fill="#000"/>
  <rect x="940" y="685" width="10" height="10" rx="0.0000000000000000002" ry="0.0000000000000000002" fill="#000"/>
  <rect x="950" y="695" width="10" height="10" rx="0.0000000000000000001" ry="0.0000000000000000001" fill="#000"/>
  <rect x="960" y="705" width="10" height="10" rx="0.00000000000000000005" ry="0.00000000000000000005" fill="#000"/>
  <rect x="970" y="715" width="10" height="10" rx="0.00000000000000000002" ry="0.00000000000000000002" fill="#000"/>
  <rect x="980" y="725" width="10" height="10" rx="0.00000000000000000001" ry="0.00000000000000000001" fill="#000"/>
  <rect x="990" y="735" width="10" height="10" rx="0.000000000000000000005" ry="0.000000000000000000005" fill="#000"/>
  <rect x="1000" y="745" width="10" height="10" rx="0.000000000000000000002" ry="0.000000000000000000002" fill="#000"/>
  <rect x="1010" y="755" width="10" height="10" rx="0.000000000000000000001" ry="0.000000000000000000001" fill="#000"/>
  <rect x="1020" y="765" width="10" height="10" rx="0.0000000000000000000005" ry="0.0000000000000000000005" fill="#000"/>
  <rect x="1030" y="775" width="10" height="10" rx="0.0000000000000000000002" ry="0.0000000000000000000002" fill="#000"/>
  <rect x="1040" y="785" width="10" height="10" rx="0.0000000000000000000001" ry="0.0000000000000000000001" fill="#000"/>
  <rect x="1050" y="795" width="10" height="10" rx="0.00000000000000000000005" ry="0.00000000000000000000005" fill="#000"/>
  <rect x="1060" y="805" width="10" height="10" rx="0.00000000000000000000002" ry="0.00000000000000000000002" fill="#000"/>
  <rect x="1070" y="815" width="10" height="10" rx="0.00000000000000000000001" ry="0.00000000000000000000001" fill="#000"/>
  <rect x="1080" y="825" width="10" height="10" rx="0.000000000000000000000005" ry="0.000000000000000000000005" fill="#000"/>
  <rect x="1090" y="835" width="10" height="10" rx="0.000000000000000000000002" ry="0.000000000000000000000002" fill="#000"/>
  <rect x="1100" y="845" width="10" height="10" rx="0.000000000000000000000001" ry="0.000000000000000000000001" fill="#000"/>
  <rect x="1110" y="855" width="10" height="10" rx="0.0000000000000000000000005" ry="0.0000000000000000000000005" fill="#000"/>
  <rect x="1120" y="865" width="10" height="10" rx="0.0000000000000000000000002" ry="0.0000000000000000000000002" fill="#000"/>
  <rect x="1130" y="875" width="10" height="10" rx="0.0000000000000000000000001" ry="0.0000000000000000000000001" fill="#000"/>
  <rect x="1140" y="885" width="10" height="10" rx="0.00000000000000000000000005" ry="0.00000000000000000000000005" fill="#000"/>
  <rect x="1150" y="895" width="10" height="10" rx="0.00000000000000000000000002" ry="0.00000000000000000000000002" fill="#000"/>
  <rect x="1160" y="905" width="10" height="10" rx="0.00000000000000000000000001" ry="0.00000000000000000000000001" fill="#000"/>
  <rect x="1170" y="915" width="10" height="10" rx="0.000000000000000000000000005" ry="0.000000000000000000000000005" fill="#000"/>
  <rect x="1180" y="925" width="10" height="10" rx="0.000000000000000000000000002" ry="0.000000000000000000000000002" fill="#000"/>
  <rect x="1190" y="935" width="10" height="10" rx="0.000000000000000000000000001" ry="0.000000000000000000000000001" fill="#000"/>
  <rect x="1200" y="945" width="10" height="10" rx="0.0000000000000000000000000005" ry="0.0000000000000000000000000005" fill="#000"/>
  <rect x="1210" y="955" width="10" height="10" rx="0.0000000000000000000000000002" ry="0.0000000000000000000000000002" fill="#000"/>
  <rect x="1220" y="965" width="10" height="10" rx="0.0000000000000000000000000001" ry="0.0000000000000000000000000001" fill="#000"/>
  <rect x="1230" y="975" width="10" height="10" rx="0.00000000000000000000000000005" ry="0.00000000000000000000000000005" fill="#000"/>
  <rect x="1240" y="985" width="10" height="10" rx="0.00000000000000000000000000002" ry="0.00000000000000000000000000002" fill="#000"/>
  <rect x="1250" y="995" width="10" height="10" rx="0.00000000000000000000000000001" ry="0.00000000000000000000000000001" fill="#000"/>
</svg>