<svg viewBox="0 0 1000 600" xmlns="http://www.w3.org/2000/svg">
  <rect width="100%" height="100%" fill="#777"/>
  <path d="M140,100 C150,90 160,80 170,70 C180,60 190,50 200,40 C210,30 220,20 230,10 C240,0 250,0 260,0 C270,0 280,0 290,0 C300,0 310,0 320,0 C330,0 340,0 350,0 C360,0 370,0 380,0 C390,0 400,0 410,0 C420,0 430,0 440,0 C450,0 460,0 470,0 C480,0 490,0 500,0 C510,0 520,0 530,0 C540,0 550,0 560,0 C570,0 580,0 590,0 C600,0 610,0 620,0 C630,0 640,0 650,0 C660,0 670,0 680,0 C690,0 700,0 710,0 C720,0 730,0 740,0 C750,0 760,0 770,0 C780,0 790,0 800,0 C810,0 820,0 830,0 C840,0 850,0 860,0 C870,0 880,0 890,0 C900,0 910,0 920,0 C930,0 940,0 950,0 C960,0 970,0 980,0 C990,0 1000,0 1000,0 L1000,600 L0,600 L0,0 Z" fill="white"/>
  <path d="M550,100 C560,90 570,80 580,70 C590,60 600,50 610,40 C620,30 630,20 640,10 C650,0 660,0 670,0 C680,0 690,0 700,0 C710,0 720,0 730,0 C740,0 750,0 760,0 C770,0 780,0 790,0 C800,0 810,0 820,0 C830,0 840,0 850,0 C860,0 870,0 880,0 C890,0 900,0 910,0 C920,0 930,0 940,0 C950,0 960,0 970,0 C980,0 990,0 1000,0 C1000,0 1000,0 1000,0 L1000,600 L0,600 L0,0 Z" fill="red"/>
</svg>