<svg viewBox="0 0 1000 800" xmlns="http://www.w3.org/2000/svg">
  <rect width="100%" height="100%" fill="#d3d3d3"/>
  <rect x="90" y="120" width="820" height="640" fill="#000"/>
  <rect x="100" y="130" width="800" height="620" fill="#fff" opacity="0.1"/>
  <rect x="150" y="200" width="700" height="400" rx="20" fill="#ddd"/>
  <text x="200" y="350" font-family="Arial" font-size="180" fill="#000" transform="rotate(-5 200,350)">
    AED-632
  </text>
  <text x="350" y="500" font-family="Arial" font-size="60" fill="#000" opacity="0.6" transform="rotate(-5 350,500)">
    HONDA
  </text>
  <line x1="100" y1="180" x2="900" y2="180" stroke="#aaa" stroke-width="40" stroke-dasharray="10,10"/>
  <g opacity="0.3">
    <line x1="100" y1="130" x2="900" y2="130" stroke="#000" stroke-width="5"/>
    <line x1="100" y1="140" x2="900" y2="140" stroke="#000" stroke-width="5"/>
    <line x1="100" y1="150" x2="900" y2="150" stroke="#000" stroke-width="5"/>
    <line x1="100" y1="160" x2="900" y2="160" stroke="#000" stroke-width="5"/>
    <line x1="100" y1="170" x2="900" y2="170" stroke="#000" stroke-width="5"/>
    <line x1="100" y1="180" x2="900" y2="180" stroke="#000" stroke-width="5"/>
    <line x1="100" y1="190" x2="900" y2="190" stroke="#000" stroke-width="5"/>
    <line x1="100" y1="200" x2="900" y2="200" stroke="#000" stroke-width="5"/>
    <line x1="100" y1="210" x2="900" y2="210" stroke="#000" stroke-width="5"/>
    <line x1="100" y1="220" x2="900" y2="220" stroke="#000" stroke-width="5"/>
  </g>
</svg>