<svg viewBox="0 0 1000 800" xmlns="http://www.w3.org/2000/svg">
  <rect width="1000" height="800" fill="#87CEEB"/>
  <polygon points="0,0 1000,0 1000,450 0,450" fill="#8B4513"/>
  <rect x="0" y="450" width="1000" height="350" fill="#696969"/>
  <line x1="0" y1="450" x2="1000" y2="450" stroke="#FFD700" stroke-width="10"/>
  <rect x="420" y="410" width="120" height="60" fill="white"/>
  <circle cx="430" cy="440" r="10" fill="black"/>
  <circle cx="500" cy="440" r="10" fill="black"/>
  <rect x="380" y="400" width="20" height="30" fill="blue"/>
  <circle cx="385" cy="425" r="5" fill="black"/>
  <circle cx="395" cy="425" r="5" fill="black"/>
  <rect x="70" y="220" width="280" height="580" fill="white"/>
  <rect x="70" y="650" width="220" height="150" fill="#4682B4"/>
  <rect x="70" y="650" width="220" height="20" fill="black"/>
  <rect x="150" y="660" width="100" height="30" fill="gray"/>
  <rect x="150" y="690" width="100" height="20" fill="black"/>
  <rect x="200" y="280" width="10" height="10" fill="black"/>
  <rect x="200" y="290" width="10" height="10" fill="black"/>
  <rect x="200" y="300" width="10" height="10" fill="black"/>
  <rect x="200" y="310" width="10" height="10" fill="black"/>
  <rect x="200" y="320" width="10" height="10" fill="black"/>
  <rect x="200" y="330" width="10" height="10" fill="black"/>
  <rect x="200" y="340" width="10" height="10" fill="black"/>
  <rect x="200" y="350" width="10" height="10" fill="black"/>
  <rect x="200" y="360" width="10" height="10" fill="black"/>
  <rect x="200" y="370" width="10" height="10" fill="black"/>
  <rect x="200" y="380" width="10" height="10" fill="black"/>
  <rect x="200" y="390" width="10" height="10" fill="black"/>
  <rect x="200" y="400" width="10" height="10" fill="black"/>
  <rect x="200" y="410" width="10" height="10" fill="black"/>
  <rect x="200" y="420" width="10" height="10" fill="black"/>
  <rect x="200" y="430" width="10" height="10" fill="black"/>
  <rect x="200" y="440" width="10" height="10" fill="black"/>
  <rect x="200" y="450" width="10" height="10" fill="black"/>
  <rect x="200" y="460" width="10" height="10" fill="black"/>
  <rect x="200" y="470" width="10" height="10" fill="black"/>
  <rect x="200" y="480" width="10" height="10" fill="black"/>
  <rect x="200" y="490" width="10" height="10" fill="black"/>
  <rect x="200" y="500" width="10" height="10" fill="black"/>
  <rect x="200" y="510" width="10" height="10" fill="black"/>
  <rect x="200" y="520" width="10" height="10" fill="black"/>
  <rect x="200" y="530" width="10" height="10" fill="black"/>
  <rect x="200" y="540" width="10" height="10" fill="black"/>
  <rect x="200" y="550" width="10" height="10" fill="black"/>
  <rect x="200" y="560" width="10" height="10" fill="black"/>
  <rect x="200" y="570" width="10" height="10" fill="black"/>
  <rect x="200" y="580" width="10" height="10" fill="black"/>
  <rect x="200" y="590" width="10" height="10" fill="black"/>
  <rect x="200" y="600" width="10" height="10" fill="black"/>
  <rect x="200" y="610" width="10" height="10" fill="black"/>
  <rect x="200" y="620" width="10" height="10" fill="black"/>
  <rect x="200" y="630" width="10" height="10" fill="black"/>
  <rect x="200" y="640" width="10" height="10" fill="black"/>
  <rect x="200" y="650" width="10" height="10" fill="black"/>
  <rect x="200" y="660" width="10" height="10" fill="black"/>
  <rect x="200" y="670" width="10" height="10" fill="black"/>
  <rect x="200" y="680" width="10" height="10" fill="black"/>
  <rect x="200" y="690" width="10" height="10" fill="black"/>
  <rect x="200" y="700" width="10" height="10" fill="black"/>
  <rect x="200" y="710" width="10" height="10" fill="black"/>
  <rect x="200" y="720" width="10" height="10" fill="black"/>
  <rect x="200" y="730" width="10" height="10" fill="black"/>
  <rect x="200" y="740" width="10" height="10" fill="black"/>
  <rect x="200" y="750" width="10" height="10" fill="black"/>
  <rect x="200" y="760" width="10" height="10" fill="black"/>
  <rect x="200" y="770" width="10" height="10" fill="black"/>
  <rect x="200" y="780" width="10" height="10" fill="black"/>
  <rect x="200" y="790" width="10" height="10" fill="black"/>
</svg>