<svg viewBox="0 0 500 750" xmlns="http://www.w3.org/2000/svg">
  <!-- Sky -->
  <rect width="500" height="250" fill="#87CEEB"/>
  
  <!-- Trees and foliage with more natural shapes -->
  <path d="M 0,50 Q 50,20 100,40 T 200,30 Q 250,10 300,35 T 400,25 Q 450,15 500,40 L 500,200 Q 450,180 400,190 T 300,185 Q 250,175 200,180 T 100,175 Q 50,170 0,180 Z" fill="#2d5016"/>
  <path d="M 50,80 Q 80,60 120,75 T 180,70 Q 220,65 260,80 L 260,160 Q 220,145 180,150 T 120,145 Q 80,140 50,155 Z" fill="#3a6b35"/>
  <path d="M 300,70 Q 340,55 380,70 T 450,65 L 450,150 Q 420,135 380,140 T 340,135 Q 300,130 300,145 Z" fill="#2d5016"/>
  
  <!-- Grass with texture -->
  <rect x="0" y="250" width="500" height="500" fill="#4a7c59"/>
  <rect x="0" y="280" width="500" height="470" fill="#5eb670"/>
  <!-- Grass texture lines -->
  <path d="M 0,400 L 10,380 M 20,410 L 30,390 M 40,405 L 50,385 M 60,415 L 70,395 M 80,408 L 90,388" stroke="#388E3C" stroke-width="2" opacity="0.6"/>
  <path d="M 100,420 L 110,400 M 120,430 L 130,410 M 140,425 L 150,405 M 160,435 L 170,415 M 180,428 L 190,408" stroke="#388E3C" stroke-width="2" opacity="0.6"/>
  
  <!-- Frisbee with brighter orange -->
  <ellipse cx="101" cy="151" rx="35" ry="28" fill="#FF6B35" stroke="#cc4422" stroke-width="2"/>
  <ellipse cx="101" cy="151" rx="25" ry="20" fill="#FF8C42"/>
  <circle cx="101" cy="151" r="10" fill="#FFAA55"/>
  
  <!-- Person -->
  <!-- Arms/hands -->
  <ellipse cx="185" cy="430" rx="15" ry="10" fill="#FDBCB4" transform="rotate(-20 185 430)"/>
  <ellipse cx="390" cy="470" rx="15" ry="10" fill="#FDBCB4" transform="rotate(30 390 470)"/>
  
  <!-- Body -->
  <path d="M 264,396 L 184,417 L 196,438 L 264,428 L 275,442 L 217,481 L 200,508 L 164,519 L 86,575 L 80,589 L 108,591 L 208,536 L 248,546 L 295,508 L 311,523 L 323,580 L 377,591 L 373,525 L 391,522 L 419,595 L 451,601 L 444,521 L 410,449 L 407,414 L 273,396 Z" fill="#FF0000" stroke="#8b0000" stroke-width="2"/>
  
  <!-- Person's shorts -->
  <path d="M 295,508 L 248,546 L 270,560 L 323,580 L 311,523 Z" fill="#191970"/>
  <path d="M 391,522 L 373,525 L 377,591 L 419,595 Z" fill="#191970"/>
  
  <!-- Hat with better proportions -->
  <ellipse cx="388" cy="420" rx="25" ry="20" fill="#ffffff" stroke="#333333" stroke-width="1"/>
  <path d="M 363,420 Q 388,415 413,420 L 410,425 Q 388,422 366,425 Z" fill="#e0e0e0"/>
  
  <!-- Face features -->
  <circle cx="380" cy="425" r="2" fill="#000000"/> <!-- eye -->
  <circle cx="395" cy="425" r="2" fill="#000000"/> <!-- eye -->
  <path d="M 385,430 Q 388,433 391,430" stroke="#000000" stroke-width="1" fill="none"/> <!-- mouth -->
  
  <!-- Socks -->
  <rect x="315" y="570" width="15" height="20" fill="#FF4500"/>
  <rect x="410" y="580" width="15" height="20" fill="#FF4500"/>
  
  <!-- Sneakers -->
  <path d="M 310,590 L 310,600 L 335,600 L 335,590 Z" fill="#ffffff" stroke="#333333" stroke-width="1"/>
  <path d="M 405,595 L 405,605 L 430,605 L 430,595 Z" fill="#ffffff" stroke="#333333" stroke-width="1"/>
  
  <!-- Dog (Border Collie) with improved features -->
  <path d="M 208,162 L 205,165 L 205,174 L 218,190 L 212,195 L 204,196 L 201,201 L 207,206 L 223,208 L 228,213 L 237,235 L 240,270 L 251,294 L 251,309 L 261,338 L 270,338 L 270,316 L 280,320 L 297,342 L 299,367 L 303,377 L 316,390 L 330,401 L 343,405 L 347,405 L 345,393 L 363,391 L 370,396 L 367,407 L 376,404 L 384,384 L 369,379 L 366,375 L 365,343 L 404,323 L 414,313 L 421,296 L 420,278 L 411,278 L 401,284 L 408,294 L 403,304 L 377,320 L 361,319 L 338,302 L 312,275 L 293,221 L 260,183 L 242,169 L 227,169 L 211,162 Z" fill="#000000" stroke="#333333" stroke-width="1"/>
  
  <!-- White markings on dog including paws -->
  <path d="M 220,180 L 235,190 L 250,210 L 265,240 L 270,270 L 265,290 L 260,280 L 255,250 L 245,220 L 230,195 L 220,180 Z" fill="#ffffff"/>
  <path d="M 280,320 L 295,335 L 300,355 L 295,365 L 285,350 L 280,320 Z" fill="#ffffff"/>
  <ellipse cx="225" cy="185" rx="8" ry="12" fill="#ffffff"/>
  <!-- White paws -->
  <ellipse cx="340" cy="395" rx="8" ry="12" fill="#ffffff"/>
  <ellipse cx="370" cy="400" rx="8" ry="12" fill="#ffffff"/>
  
  <!-- Dog's collar -->
  <rect x="225" y="205" width="35" height="6" fill="#FF0000" transform="rotate(15 242 208)"/>
  
  <!-- Dog's facial features -->
  <circle cx="215" cy="180" r="3" fill="#000000"/> <!-- eye -->
  <ellipse cx="202" cy="198" rx="4" ry="3" fill="#000000"/> <!-- nose -->
  <path d="M 202,201 Q 205,203 208,201" stroke="#000000" stroke-width="1.5" fill="none"/> <!-- mouth -->
  
  <!-- Remove text elements that don't belong -->
</svg>