<svg viewBox="0 0 630 322" xmlns="http://www.w3.org/2000/svg">
  <!-- Background -->
  <rect width="630" height="322" fill="#e8e8e8"/>
  
  <!-- Left panel - TV show scene -->
  <rect x="0" y="0" width="315" height="322" fill="#d4c5b9"/>
  
  <!-- Background elements -->
  <rect x="0" y="0" width="315" height="180" fill="#8b7355"/>
  
  <!-- Blonde woman figure -->
  <g id="blonde-woman">
    <!-- Head and face -->
    <ellipse cx="120" cy="140" rx="35" ry="45" fill="#fdbcb4"/>
    <!-- Blonde hair -->
    <path d="M 85,100 Q 80,90 85,110 L 82,130 Q 78,140 80,150 L 85,155 Q 90,160 95,155 L 90,145 L 85,125 Q 85,105 95,95 Q 110,85 130,85 Q 150,85 165,95 Q 175,105 175,125 L 170,145 L 165,155 Q 170,160 175,155 L 180,150 Q 182,140 178,130 L 175,110 Q 180,90 175,100 Q 165,75 145,70 Q 125,65 105,70 Q 85,75 85,100 Z" fill="#ffd700"/>
    <!-- Eyes -->
    <circle cx="105" cy="135" r="3" fill="#000"/>
    <circle cx="135" cy="135" r="3" fill="#000"/>
    <!-- Mouth (yelling) -->
    <ellipse cx="120" cy="160" rx="15" ry="20" fill="#8b0000"/>
    <ellipse cx="120" cy="160" rx="12" ry="15" fill="#2b2d42"/>
    <!-- Body -->
    <path d="M 85,180 L 80,220 L 75,260 L 80,300 L 85,320 L 155,320 L 160,300 L 165,260 L 160,220 L 155,180 Q 140,175 120,175 Q 100,175 85,180 Z" fill="#000000"/>
    <!-- Pointing arm -->
    <path d="M 155,200 L 180,195 L 200,190 L 210,192 L 205,198 L 185,203 L 160,208 L 155,205 Z" fill="#fdbcb4"/>
    <!-- Ring on finger -->
    <circle cx="205" cy="195" r="5" fill="#d4af37"/>
  </g>
  
  <!-- Brunette woman figure -->
  <g id="brunette-woman">
    <!-- Head and face -->
    <ellipse cx="240" cy="145" rx="32" ry="42" fill="#fdbcb4"/>
    <!-- Brown hair -->
    <path d="M 205,105 Q 200,95 205,115 L 202,135 Q 198,145 200,155 L 205,160 Q 210,165 215,160 L 210,150 L 205,130 Q 205,110 215,100 Q 230,90 250,90 Q 270,90 285,100 Q 295,110 295,130 L 290,150 L 285,160 Q 290,165 295,160 L 300,155 Q 302,145 298,135 L 295,115 Q 300,95 295,105 Q 285,80 265,75 Q 245,70 225,75 Q 205,80 205,105 Z" fill="#654321"/>
    <!-- Eyes (shocked expression) -->
    <ellipse cx="225" cy="140" rx="5" ry="7" fill="#000"/>
    <ellipse cx="255" cy="140" rx="5" ry="7" fill="#000"/>
    <!-- Mouth (shocked) -->
    <ellipse cx="240" cy="165" rx="8" ry="10" fill="#8b0000"/>
    <!-- Body -->
    <path d="M 210,185 L 205,225 L 200,265 L 205,305 L 210,320 L 270,320 L 275,305 L 280,265 L 275,225 L 270,185 Q 255,180 240,180 Q 225,180 210,185 Z" fill="#800080"/>
    <!-- Earrings -->
    <circle cx="205" cy="160" r="4" fill="#d4af37"/>
    <circle cx="275" cy="160" r="4" fill="#d4af37"/>
  </g>
  
  <!-- Right panel - Meme cat -->
  <rect x="315" y="0" width="315" height="322" fill="#f5f5f5"/>
  
  <!-- Table surface -->
  <rect x="340" y="220" width="270" height="100" fill="#8b7355"/>
  
  <!-- Person's hand -->
  <path d="M 470,20 L 465,30 L 460,50 L 458,70 L 460,85 L 465,88 L 470,85 L 472,70 L 475,75 L 480,78 L 485,75 L 488,60 L 492,45 L 498,40 L 502,45 L 500,55 L 502,60 L 507,61 L 512,55 L 518,45 L 525,30 L 530,20 Z" fill="#fdbcb4"/>
  
  <!-- White cat -->
  <path d="M 420,120 L 418,125 L 425,140 L 435,155 L 430,180 L 430,215 L 435,220 L 450,222 L 540,220 L 545,215 L 545,200 L 540,170 L 555,130 L 557,125 L 555,120 L 530,135 L 510,135 L 500,132 L 450,132 L 435,125 L 420,120 Z" fill="#ffffff"/>
  
  <!-- Cat ears -->
  <path d="M 420,120 L 415,135 L 430,128 Z" fill="#ffcccc"/>
  <path d="M 555,120 L 560,135 L 545,128 Z" fill="#ffcccc"/>
  
  <!-- Cat face features -->
  <ellipse cx="460" cy="155" rx="4" ry="6" fill="#000000"/>
  <ellipse cx="515" cy="155" rx="4" ry="6" fill="#000000"/>
  <!-- Cat nose -->
  <path d="M 485,170 L 490,175 L 485,175 Z" fill="#ffb6c1"/>
  <!-- Cat mouth -->
  <path d="M 487,175 Q 485,178 480,175" fill="none" stroke="#000000" stroke-width="1.5"/>
  <path d="M 487,175 Q 490,178 495,175" fill="none" stroke="#000000" stroke-width="1.5"/>
  <!-- Whiskers -->
  <line x1="430" y1="160" x2="410" y2="155" stroke="#333" stroke-width="1"/>
  <line x1="430" y1="165" x2="410" y2="165" stroke="#333" stroke-width="1"/>
  <line x1="545" y1="160" x2="565" y2="155" stroke="#333" stroke-width="1"/>
  <line x1="545" y1="165" x2="565" y2="165" stroke="#333" stroke-width="1"/>
  
  <!-- Salad bowl -->
  <ellipse cx="490" cy="245" rx="70" ry="20" fill="#f0f0f0"/>
  <ellipse cx="490" cy="240" rx="70" ry="20" fill="#ffffff"/>
  
  <!-- Salad contents -->
  <ellipse cx="460" cy="238" rx="15" ry="8" fill="#228b22"/>
  <ellipse cx="490" cy="240" rx="18" ry="10" fill="#32cd32"/>
  <ellipse cx="520" cy="238" rx="20" ry="8" fill="#228b22"/>
  <ellipse cx="480" cy="235" rx="12" ry="6" fill="#3cb371"/>
  <!-- Tomatoes -->
  <circle cx="475" cy="240" r="6" fill="#ff6347"/>
  <circle cx="505" cy="242" r="5" fill="#ff6347"/>
  <circle cx="535" cy="239" r="6" fill="#ff6347"/>
  <!-- Croutons -->
  <rect x="490" y="236" width="8" height="8" fill="#d2691e"/>
  <rect x="510" y="238" width="7" height="7" fill="#daa520"/>
  <!-- Other vegetables -->
  <circle cx="465" cy="242" r="4" fill="#ffa500"/>
  <circle cx="525" cy="241" r="4" fill="#ffd700"/>
  
  <!-- Text -->
  <text x="315" y="310" font-family="Arial" font-size="16" fill="#666" text-anchor="middle">Woman Yelling at Cat</text>
</svg>