<svg viewBox="0 0 1000 800" xmlns="http://www.w3.org/2000/svg">
  <rect width="1000" height="800" fill="#4a90e2"/>
  <polygon points="0,200 400,100 600,300 800,250 1000,350 1000,800 0,800" fill="#c0c0c0"/>
  <rect x="550" y="300" width="300" height="400" fill="#b35900"/>
  <rect x="700" y="350" width="200" height="350" fill="#8b4513"/>
  <rect x="300" y="450" width="200" height="250" fill="#d2b48c"/>
  <rect x="800" y="500" width="150" height="200" fill="#a52a2a"/>
  <rect x="600" y="600" width="150" height="80" fill="#808080"/>
  <rect x="500" y="650" width="100" height="60" fill="#696969"/>
  <rect x="400" y="680" width="80" height="50" fill="#808080"/>
  <rect x="300" y="700" width="60" height="40" fill="#696969"/>
  <rect x="200" y="720" width="50" height="30" fill="#808080"/>
  <rect x="100" y="740" width="40" height="25" fill="#696969"/>
  <rect x="50" y="750" width="30" height="20" fill="#808080"/>
  <rect x="10" y="760" width="20" height="15" fill="#696969"/>
  <rect x="850" y="600" width="100" height="150" fill="#ff8c00"/>
  <rect x="900" y="550" width="50" height="80" fill="#ff4500"/>
  <rect x="950" y="500" width="30" height="60" fill="#ff6347"/>
  <rect x="980" y="450" width="20" height="50" fill="#ff7f50"/>
  <rect x="800" y="400" width="150" height="100" fill="#ff6347"/>
  <rect x="650" y="450" width="100" height="80" fill="#ff4500"/>
  <rect x="550" y="500" width="80" height="60" fill="#ff8c00"/>
  <rect x="450" y="550" width="60" height="50" fill="#ff6347"/>
  <rect x="350" y="600" width="50" height="40" fill="#ff4500"/>
  <rect x="250" y="650" width="40" height="30" fill="#ff8c00"/>
  <rect x="150" y="700" width="30" height="25" fill="#ff6347"/>
  <rect x="50" y="750" width="20" height="20" fill="#ff4500"/>
  <rect x="10" y="770" width="15" height="15" fill="#ff8c00"/>
  <rect x="200" y="400" width="100" height="200" fill="#8b4513"/>
  <rect x="300" y="350" width="80" height="150" fill="#d2b48c"/>
  <rect x="400" y="300" width="60" height="120" fill="#8b4513"/>
  <rect x="500" y="250" width="50" height="100" fill="#d2b48c"/>
  <rect x="600" y="200" width="40" height="80" fill="#8b4513"/>
  <rect x="700" y="150" width="30" height="60" fill="#d2b48c"/>
  <rect x="800" y="100" width="20" height="50" fill="#8b4513"/>
  <rect x="900" y="50" width="15" height="40" fill="#d2b48c"/>
  <rect x="950" y="20" width="10" height="30" fill="#8b4513"/>
  <rect x="980" y="10" width="5" height="20" fill="#d2b48c"/>
  <rect x="100" y="300" width="50" height="300" fill="#8b4513"/>
  <rect x="150" y="250" width="40" height="250" fill="#d2b48c"/>
  <rect x="200" y="200" width="30" height="200" fill="#8b4513"/>
  <rect x="250" y="150" width="20" height="150" fill="#d2b48c"/>
  <rect x="300" y="100" width="15" height="100" fill="#8b4513"/>
  <rect x="350" y="50" width="10" height="50" fill="#d2b48c"/>
  <rect x="400" y="20" width="5" height="30" fill="#8b4513"/>
  <rect x="450" y="10" width="3" height="20" fill="#d2b48c"/>
  <rect x="500" y="5" width="2" height="15" fill="#8b4513"/>
  <rect x="550" y="2" width="1" height="10" fill="#d2b48c"/>
  <rect x="600" y="1" width="1" height="8" fill="#8b4513"/>
  <rect x="650" y="0" width="1" height="5" fill="#d2b48c"/>
  <rect x="700" y="0" width="1" height="3" fill="#8b4513"/>
  <rect x="750" y="0" width="1" height="2" fill="#d2b48c"/>
  <rect x="800" y="0" width="1" height="1" fill="#8b4513"/>
  <rect x="850" y="0" width="1" height="1" fill="#d2b48c"/>
  <rect x="900" y="0" width="1" height="1" fill="#8b4513"/>
  <rect x="950" y="0" width="1" height="1" fill="#d2b48c"/>
  <rect x="980" y="0" width="1" height="1" fill="#8b4513"/>
  <rect x="1000" y="0" width="1" height="1" fill="#d2b48c"/>
  <rect x="0" y="0" width="1" height="1" fill="#8b4513"/>
  <rect x="50" y="0" width="1" height="1" fill="#d2b48c"/>
  <rect x="100" y="0" width="1" height="1" fill="#8b4513"/>
  <rect x="150" y="0" width="1" height="1" fill="#d2b48c"/>
  <rect x="200" y="0" width="1" height="1" fill="#8b4513"/>
  <rect x="250" y="0" width="1" height="1" fill="#d2b48c"/>
  <rect x="300" y="0" width="1" height="1" fill="#8b4513"/>
  <rect x="350" y="0" width="1" height="1" fill="#d2b48c"/>
  <rect x="400" y="0" width="1" height="1" fill="#8b4513"/>
  <rect x="450" y="0" width="1" height="1" fill="#d2b48c"/>
  <rect x="500" y="0" width="1" height="1" fill="#8b4513"/>
  <rect x="550" y="0" width="1" height="1" fill="#d2b48c"/>
  <rect x="600" y="0" width="1" height="1" fill="#8b4513"/>
  <rect x="650" y="0" width="1" height="1" fill="#d2b48c"/>
  <rect x="700" y="0" width="1" height="1" fill="#8b4513"/>
  <rect x="750" y="0" width="1" height="1" fill="#d2b48c"/>
  <rect x="800" y="0" width="1" height="1" fill="#8b4513"/>
  <rect x="850" y="0" width="1" height="1" fill="#d2b48c"/>
  <rect x="900" y="0" width="1" height="1" fill="#8b4513"/>
  <rect x="950" y="0" width="1" height="1" fill="#d2b48c"/>
  <rect x="980" y="0" width="1" height="1" fill="#8b4513"/>
  <rect x="1000" y="0" width="1" height="1" fill="#d2b48c"/>
  <rect x="0" y="800" width="1" height="1" fill="#8b4513"/>
  <rect x="50" y="800" width="1" height="1" fill="#d2b48c"/>
  <rect x="100" y="800" width="1" height="1" fill="#8b4513"/>
  <rect x="150" y="800" width="1" height="1" fill="#d2b48c"/>
  <rect x="200" y="800" width="1" height="1" fill="#8b4513"/>
  <rect x="250" y="800" width="1" height="1" fill="#d2b48c"/>
  <rect x="300" y="800" width="1" height="1" fill="#8b4513"/>
  <rect x="350" y="800" width="1" height="1" fill="#d2b48c"/>
  <rect x="400" y="800" width="1" height="1" fill="#8b4513"/>
  <rect x="450" y="800" width="1" height="1" fill="#d2b48c"/>
  <rect x="500" y="800" width="1" height="1" fill="#8b4513"/>
  <rect x="550" y="800" width="1" height="1" fill="#d2b48c"/>
  <rect x="600" y="800" width="1" height="1" fill="#8b4513"/>
  <rect x="650" y="800" width="1" height="1" fill="#d2b48c"/>
  <rect x="700" y="800" width="1" height="1" fill="#8b4513"/>
  <rect x="750" y="800" width="1" height="1" fill="#d2b48c"/>
  <rect x="800" y="800" width="1" height="1" fill="#8b4513"/>
  <rect x="850" y="800" width="1" height="1" fill="#d2b48c"/>
  <rect x="900" y="800" width="1" height="1" fill="#8b4513"/>
  <rect x="950" y="800" width="1" height="1" fill="#d2b48c"/>
  <rect x="980" y="800" width="1" height="1" fill="#8b4513"/>
  <rect x="1000" y="800" width="1" height="1" fill="#d2b48c"/>
  <rect x="0" y="400" width="1" height="1" fill="#8b4513"/>
  <rect x="50" y="400" width="1" height="1" fill="#d2b48c"/>
  <rect x="100" y="400" width="1" height="1" fill="#8b4513"/>
  <rect x="150" y="400" width="1" height="1" fill="#d2b48c"/>
  <rect x="200" y="400" width="1" height="1" fill="#8b4513"/>
  <rect x="250" y="400" width="1" height="1" fill="#d2b48c"/>
  <rect x="300" y="400" width="1" height="1" fill="#8b4513"/>
  <rect x="350" y="400" width="1" height="1" fill="#d2b48c"/>
  <rect x="400" y="400" width="1" height="1" fill="#8b4513"/>
  <rect x="450" y="400" width="1" height="1" fill="#d2b48c"/>
  <rect x="500" y="400" width="1" height="1" fill="#8b4513"/>
  <rect x="550" y="400" width="1" height="1" fill="#d2b48c"/>
  <rect x="600" y="400" width="1" height="1" fill="#8b4513"/>
  <rect x="650" y="400" width="1" height="1" fill="#d2b48c"/>
  <rect x="700" y="400" width="1" height="1" fill="#8b4513"/>
  <rect x="750" y="400" width="1" height="1" fill="#d2b48c"/>
  <rect x="800" y="400" width="1" height="1" fill="#8b4513"/>
  <rect x="850" y="400" width="1" height="1" fill="#d2b48c"/>
  <rect x="900" y="400" width="1" height="1" fill="#8b4513"/>
  <rect x="950" y="400" width="1" height="1" fill="#d2b48c"/>
  <rect x="980" y="400" width="1" height="1" fill="#8b4513"/>
  <rect x="1000" y="400" width="1" height="1" fill="#d2b48c"/>
  <rect x="0" y="200" width="1" height="1" fill="#8b4513"/>
  <rect x="50" y="200" width="1" height="1" fill="#d2b48c"/>
  <rect x="100" y="200" width="1" height="1" fill="#8b4513"/>
  <rect x="150" y="200" width="1" height="1" fill="#d2b48c"/>
  <rect x="200" y="200" width="1" height="1" fill="#8b4513"/>
  <rect x="250" y="200" width="1" height="1" fill="#d2b48c"/>
  <rect x="300" y="200" width="1" height="1" fill="#8b4513"/>
  <rect x="350" y="200" width="1" height="1" fill="#d2b48c"/>
  <rect x="400" y="200" width="1" height="1" fill="#8b4513"/>
  <rect x="450" y="200" width="1" height="1" fill="#d2b48c"/>
  <rect x="500" y="200" width="1" height="1" fill="#8b4513"/>
  <rect x="550" y="200" width="1" height="1" fill="#d2b48c"/>
  <rect x="600" y="200" width="1" height="1" fill="#8b4513"/>
  <rect x="650" y="200" width="1" height="1" fill="#d2b48c"/>
  <rect x="700" y="200" width="1" height="1" fill="#8b4513"/>
  <rect x="750" y="200" width="1" height="1" fill="#d2b48c"/>
  <rect x="800" y="200" width="1" height="1" fill="#8b4513"/>
  <rect x="850" y="200" width="1" height="1" fill="#d2b48c"/>
  <rect x="900" y="200" width="1" height="1" fill="#8b4513"/>
  <rect x="950" y="200" width="1" height="1" fill="#d2b48c"/>
  <rect x="980" y="200" width="1" height="1" fill="#8b4513"/>
  <rect x="1000" y="200" width="1" height="1" fill="#d2b48c"/>
  <rect x="0" y="100" width="1" height="1" fill="#8b4513"/>
  <rect x="50" y="100" width="1" height="1" fill="#d2b48c"/>
  <rect x="100" y="100" width="1" height="1" fill="#8b4513"/>
  <rect x="150" y="100" width="1" height="1" fill="#d2b48c"/>
  <rect x="200" y="100" width="1" height="1" fill="#8b4513"/>
  <rect x="250" y="100" width="1" height="1" fill="#d2b48c"/>
  <rect x="300" y="100" width="1" height="1" fill="#8b4513"/>
  <rect x="350" y="100" width="1" height="1" fill="#d2b48c"/>
  <rect x="400" y="100" width="1" height="1" fill="#8b4513"/>
  <rect x="450" y="100" width="1" height="1" fill="#d2b48c"/>
  <rect x="500" y="100" width="1" height="1" fill="#8b4513"/>
  <rect x="550" y="100" width="1" height="1" fill="#d2b48c"/>
  <rect x="600" y="100" width="1" height="1" fill="#8b4513"/>
  <rect x="650" y="100" width="1" height="1" fill="#d2b48c"/>
  <rect x="700" y="100" width="1" height="1" fill="#8b4513"/>
  <rect x="750" y="100" width="1" height="1" fill="#d2b48c"/>
  <rect x="800" y="100" width="1" height="1" fill="#8b4513"/>
  <rect x="850" y="100" width="1" height="1" fill="#d2b48c"/>
  <rect x="900" y="100" width="1" height="1" fill="#8b4513"/>
  <rect x="950" y="100" width="1" height="1" fill="#d2b48c"/>
  <rect x="980" y="100" width="1" height="1" fill="#8b4513"/>
  <rect x="1000" y="100" width="1" height="1" fill="#d2b48c"/>
  <rect x="0" y="50" width="1" height="1" fill="#8b4513"/>
  <rect x="50" y="50" width="1" height="1" fill="#d2b48c"/>
  <rect x="100" y="50" width="1" height="1" fill="#8b4513"/>
  <rect x="150" y="50" width="1" height="1" fill="#d2b48c"/>
  <rect x="200" y="50" width="1" height="1" fill="#8b4513"/>
  <rect x="250" y="50" width="1" height="1" fill="#d2b48c"/>
  <rect x="300" y="50" width="1" height="1" fill="#8b4513"/>
  <rect x="350" y="50" width="1" height="1" fill="#d2b48c"/>
  <rect x="400" y="50" width="1" height="1" fill="#8b4513"/>
  <rect x="450" y="50" width="1" height="1" fill="#d2b48c"/>
  <rect x="500" y="50" width="1" height="1" fill="#8b4513"/>
  <rect x="550" y="50" width="1" height="1" fill="#d2b48c"/>
  <rect x="600" y="50" width="1" height="1" fill="#8b4513"/>
  <rect x="650" y="50" width="1" height="1" fill="#d2b48c"/>
  <rect x="700" y="50" width="1" height="1" fill="#8b4513"/>
  <rect x="750" y="50" width="1" height="1" fill="#d2b48c"/>
  <rect x="800" y="50" width="1" height="1" fill="#8b4513"/>
  <rect x="850" y="50" width="1" height="1" fill="#d2b48c"/>
  <rect x="900" y="50" width="1" height="1" fill="#8b4513"/>
  <rect x="950" y="50" width="1" height="1" fill="#d2b48c"/>
  <rect x="980" y="50" width="1" height="1" fill="#8b4513"/>
  <rect x="1000" y="50" width="1" height="1" fill="#d2b48c"/>
  <rect x="0" y="25" width="1" height="1" fill="#8b4513"/>
  <rect x="50" y="25" width="1" height="1" fill="#d2b48c"/>
  <rect x="100" y="25" width="1" height="1" fill="#8b4513"/>
  <rect x="150" y="25" width="1" height="1" fill="#d2b48c"/>
  <rect x="200" y="25" width="1" height="1" fill="#8b4513"/>
  <rect x="250" y="25" width="1" height="1" fill="#d2b48c"/>
  <rect x="300" y="25" width="1" height="1" fill="#8b4513"/>
  <rect x="350" y="25" width="1" height="1" fill="#d2b48c"/>
  <rect x="400" y="25" width="1" height="1" fill="#8b4513"/>
  <rect x="450" y="25" width="1" height="1" fill="#d2b48c"/>
  <rect x="500" y="25" width="1" height="1" fill="#8b4513"/>
  <rect x="550" y="25" width="1" height="1" fill="#d2b48c"/>
  <rect x="600" y="25" width="1" height="1" fill="#8b4513"/>
  <rect x="650" y="25" width="1" height="1" fill="#d2b48c"/>
  <rect x="700" y="25" width="1" height="1" fill="#8b4513"/>
  <rect x="750" y="25" width="1" height="1" fill="#d2b48c"/>
  <rect x="800" y="25" width="1" height="1" fill="#8b4513"/>
  <rect x="850" y="25" width="1" height="1" fill="#d2b48c"/>
  <rect x="900" y="25" width="1" height="1" fill="#8b4513"/>
  <rect x="950" y="25" width="1" height="1" fill="#d2b48c"/>
  <rect x="980" y="25" width="1" height="1" fill="#8b4513"/>
  <rect x="1000" y="25" width="1" height="1" fill="#d2b48c"/>
  <rect x="0" y="10" width="1" height="1" fill="#8b4513"/>
  <rect x="50" y="10" width="1" height="1" fill="#d2b48c"/>
  <rect x="100" y="10" width="1" height="1" fill="#8b4513"/>
  <rect x="150" y="10" width="1" height="1" fill="#d2b48c"/>
  <rect x="200" y="10" width="1" height="1" fill="#8b4513"/>
  <rect x="250" y="10" width="1" height="1" fill="#d2b48c"/>
  <rect x="300" y="10" width="1" height="1" fill="#8b4513"/>
  <rect x="350" y="10" width="1" height="1" fill="#d2b48c"/>
  <rect x="400" y="10" width="1" height="1" fill="#8b4513"/>
  <rect x="450" y="10" width="1" height="1" fill="#d2b48c"/>
  <rect x="500" y="10" width="1" height="1" fill="#8b4513"/>
  <rect x="550" y="10" width="1" height="1" fill="#d2b48c"/>
  <rect x="600" y="10" width="1" height="1" fill="#8b4513"/>
  <rect x="650" y="10" width="1" height="1" fill="#d2b48c"/>
  <rect x="700" y="10" width="1" height="1" fill="#8b4513"/>
  <rect x="750" y="10" width="1" height="1" fill="#d2b48c"/>
  <rect x="800" y="10" width="1" height="1" fill="#8b4513"/>
  <rect x="850" y="10" width="1" height="1" fill="#d2b48c"/>
  <rect x="900" y="10" width="1" height="1" fill="#8b4513"/>
  <rect x="950" y="10" width="1" height="1" fill="#d2b48c"/>
  <rect x="980" y="10" width="1" height="1" fill="#8b4513"/>
  <rect x="1000" y="10" width="1" height="1" fill="#d2b48c"/>
  <rect x="0" y="5" width="1" height="1" fill="#8b4513"/>
  <rect x="50" y="5" width="1" height="1" fill="#d2b48c"/>
  <rect x="100" y="5" width="1" height="1" fill="#8b4513"/>
  <rect x="150" y="5" width="1" height="1" fill="#d2b48c"/>
  <rect x="200" y="5" width="1" height="1" fill="#8b4513"/>
  <rect x="250" y="5" width="1" height="1" fill="#d2b48c"/>
  <rect x="300" y="5" width="1" height="1" fill="#8b4513"/>
  <rect x="350" y="5" width="1" height="1" fill="#d2b48c"/>
  <rect x="400" y="5" width="1" height="1" fill="#8b4513"/>
  <rect x="450" y="5" width="1" height="1" fill="#d2b48c"/>
  <rect x="500" y="5" width="1" height="1" fill="#8b4513"/>
  <rect x="550" y="5" width="1" height="1" fill="#d2b48c"/>
  <rect x="600" y="5" width="1" height="1" fill="#8b4513"/>
  <rect x="650" y="5" width="1" height="1" fill="#d2b48c"/>
  <rect x="700" y="5" width="1" height="1" fill="#8b4513"/>
  <rect x="750" y="5" width="1" height="1" fill="#d2b48c"/>
  <rect x="800" y="5" width="1" height="1" fill="#8b4513"/>
  <rect x="850" y="5" width="1" height="1" fill="#d2b48c"/>
  <rect x="900" y="5" width="1" height="1" fill="#8b4513"/>
  <rect x="950" y="5" width="1" height="1" fill="#d2b48c"/>
  <rect x="980" y="5" width="1" height="1" fill="#8b4513"/>
  <rect x="1000" y="5" width="1" height="1" fill="#d2b48c"/>
  <rect x="0" y="2" width="1" height="1" fill="#8b4513"/>
  <rect x="50" y="2" width="1" height="1" fill="#d2b48c"/>
  <rect x="100" y="2" width="1" height="1" fill="#8b4513"/>
  <rect x="150" y="2" width="1" height="1" fill="#d2b48c"/>
  <rect x="200" y="2" width="1" height="1" fill="#8b4513"/>
  <rect x="250" y="2" width="1" height="1" fill="#d2b48c"/>
  <rect x="300" y="2" width="1" height="1" fill="#8b4513"/>
  <rect x="350" y="2" width="1" height="1" fill="#d2b48c"/>
  <rect x="400" y="2" width="1" height="1" fill="#8b4513"/>
  <rect x="450" y="2" width="1" height="1" fill="#d2b48c"/>
  <rect x="500" y="2" width="1" height="1" fill="#8b4513"/>
  <rect x="550" y="2" width="1" height="1" fill="#d2b48c"/>
  <rect x="600" y="2" width="1" height="1" fill="#8b4513"/>
  <rect x="650" y="2" width="1" height="1" fill="#d2b48c"/>
  <rect x="700" y="2" width="1" height="1" fill="#8b4513"/>
  <rect x="750" y="2" width="1" height="1" fill="#d2b48c"/>
  <rect x="800" y="2" width="1" height="1" fill="#8b4513"/>
  <rect x="850" y="2" width="1" height="1" fill="#d2b48c"/>
  <rect x="900" y="2" width="1" height="1" fill="#8b4513"/>
  <rect x="950" y="2" width="1" height="1" fill="#d2b48c"/>
  <rect x="980" y="2" width="1" height="1" fill="#8b4513"/>
  <rect x="1000" y="2" width="1" height="1" fill="#d2b48c"/>
  <rect x="0" y="1" width="1" height="1" fill="#8b4513"/>
  <rect x="50" y="1" width="1" height="1" fill="#d2b48c"/>
  <rect x="100" y="1" width="1" height="1" fill="#8b4513"/>
  <rect x="150" y="1" width="1" height="1" fill="#d2b48c"/>
  <rect x="200" y="1" width="1" height="1" fill="#8b4513"/>
  <rect x="250" y="1" width="1" height="1" fill="#d2b48c"/>
  <rect x="300" y="1" width="1" height="1" fill="#8b4513"/>
  <rect x="350" y="1" width="1" height="1" fill="#d2b48c"/>
  <rect x="400" y="1" width="1" height="1" fill="#8b4513"/>
  <rect x="450" y="1" width="1" height="1" fill="#d2b48c"/>
  <rect x="500" y="1" width="1" height="1" fill="#8b4513"/>
  <rect x="550" y="1" width="1" height="1" fill="#d2b48c"/>
  <rect x="600" y="1" width="1" height="1" fill="#8b4513"/>
  <rect x="650" y="1" width="1" height="1" fill="#d2b48c"/>
  <rect x="700" y="1" width="1" height="1" fill="#8b4513"/>
  <rect x="750" y="1" width="1" height="1" fill="#d2b48c"/>
  <rect x="800" y="1" width="1" height="1" fill="#8b4513"/>
  <rect x="850" y="1" width="1" height="1" fill="#d2b48c"/>
  <rect x="900" y="1" width="1" height="1" fill="#8b4513"/>
  <rect x="950" y="1" width="1" height="1" fill="#d2b48c"/>
  <rect x="980" y="1" width="1" height="1" fill="#8b4513"/>
  <rect x="1000" y="1" width="1" height="1" fill="#d2b48c"/>
  <rect x="0" y="0" width="1" height="1" fill="#8b4513"/>
  <rect x="50" y="0" width="1" height="1" fill="#d2b48c"/>
  <rect x="100" y="0" width="1" height="1" fill="#8b4513"/>
  <rect x="150" y="0" width="1" height="1" fill="#d2b48c"/>
  <rect x="200" y="0" width="1" height="1" fill="#8b4513"/>
  <rect x="250" y="0" width="1" height="1" fill="#d2b48c"/>
  <rect x="300" y="0" width="1" height="1" fill="#8b4513"/>
  <rect x="350" y="0" width="1" height="1" fill="#d2b48c"/>
  <rect x="400" y="0" width="1" height="1" fill="#8b4513"/>
  <rect x="450" y="0" width="1" height="1" fill="#d2b48c"/>
  <rect x="500" y="0" width="1" height="1" fill="#8b4513"/>
  <rect x="550" y="0" width="1" height="1" fill="#d2b48c"/>
  <rect x="600" y="0" width="1" height="1" fill="#8b4513"/>
  <rect x="650" y="0" width="1" height="1" fill="#d2b48c"/>
  <rect x="700" y="0" width="1" height="1" fill="#8b4513"/>
  <rect x="750" y="0" width="1" height="1" fill="#d2b48c"/>
  <rect x="800" y="0" width="1" height="1" fill="#8b4513"/>
  <rect x="850" y="0" width="1" height="1" fill="#d2b48c"/>
  <rect x="900" y="0" width="1" height="1" fill="#8b4513"/>
  <rect x="950" y="0" width="1" height="1" fill="#d2b48c"/>
  <rect x="980" y="0" width="1" height="1" fill="#8b4513"/>
  <rect x="1000" y="0" width="1" height="1" fill="#d2b48c"/>
</svg>