<svg viewBox="0 0 1000 750" xmlns="http://www.w3.org/2000/svg">
  <rect width="1000" height="750" fill="#fff"/>
  
  <!-- Road -->
  <rect y="640" width="1000" height="110" fill="#666"/>
  <path d="M0 680 1000 680" stroke="#fff" stroke-width="10"/>
  <path d="M0 700 1000 700" stroke="#fff" stroke-width="10"/>
  <path d="M0 720 1000 720" stroke="#fff" stroke-width="10"/>
  
  <!-- Building facade -->
  <rect x="30" y="0" width="970" height="640" fill="#8B4513"/>
  
  <!-- Windows -->
  <g fill="#fff" stroke="#333" stroke-width="1">
    <!-- First row -->
    <rect x="80" y="60" width="30" height="40" rx="2"/>
    <rect x="105" y="60" width="30" height="40" rx="2"/>
    <rect x="175" y="50" width="30" height="40" rx="2"/>
    <rect x="200" y="50" width="30" height="40" rx="2"/>
    <rect x="310" y="35" width="30" height="40" rx="2"/>
    <rect x="335" y="35" width="30" height="40" rx="2"/>
    <rect x="400" y="25" width="30" height="40" rx="2"/>
    <rect x="425" y="25" width="30" height="40" rx="2"/>
    <rect x="510" y="10" width="30" height="40" rx="2"/>
    <rect x="535" y="10" width="30" height="40" rx="2"/>
    <rect x="635" y="5" width="30" height="40" rx="2"/>
    <rect x="660" y="5" width="30" height="40" rx="2"/>
    <rect x="735" y="0" width="30" height="40" rx="2"/>
    <rect x="760" y="0" width="30" height="40" rx="2"/>
    <rect x="885" y="0" width="30" height="40" rx="2"/>
    <rect x="910" y="0" width="30" height="40" rx="2"/>
    
    <!-- Second row -->
    <rect x="80" y="175" width="30" height="40" rx="2"/>
    <rect x="105" y="175" width="30" height="40" rx="2"/>
    <rect x="175" y="165" width="30" height="40" rx="2"/>
    <rect x="200" y="165" width="30" height="40" rx="2"/>
    <rect x="310" y="150" width="30" height="40" rx="2"/>
    <rect x="335" y="150" width="30" height="40" rx="2"/>
    <rect x="400" y="140" width="30" height="40" rx="2"/>
    <rect x="425" y="140" width="30" height="40" rx="2"/>
    <rect x="510" y="125" width="30" height="40" rx="2"/>
    <rect x="535" y="125" width="30" height="40" rx="2"/>
    <rect x="635" y="120" width="30" height="40" rx="2"/>
    <rect x="660" y="120" width="30" height="40" rx="2"/>
    <rect x="735" y="110" width="30" height="40" rx="2"/>
    <rect x="760" y="110" width="30" height="40" rx="2"/>
    <rect x="885" y="105" width="30" height="40" rx="2"/>
    <rect x="910" y="105" width="30" height="40" rx="2"/>
    
    <!-- Third row -->
    <rect x="80" y="290" width="30" height="40" rx="2"/>
    <rect x="105" y="290" width="30" height="40" rx="2"/>
    <rect x="175" y="280" width="30" height="40" rx="2"/>
    <rect x="200" y="280" width="30" height="40" rx="2"/>
    <rect x="310" y="265" width="30" height="40" rx="2"/>
    <rect x="335" y="265" width="30" height="40" rx="2"/>
    <rect x="400" y="255" width="30" height="40" rx="2"/>
    <rect x="425" y="255" width="30" height="40" rx="2"/>
    <rect x="510" y="240" width="30" height="40" rx="2"/>
    <rect x="535" y="240" width="30" height="40" rx="2"/>
    <rect x="635" y="235" width="30" height="40" rx="2"/>
    <rect x="660" y="235" width="30" height="40" rx="2"/>
    <rect x="735" y="225" width="30" height="40" rx="2"/>
    <rect x="760" y="225" width="30" height="40" rx="2"/>
    <rect x="885" y="220" width="30" height="40" rx="2"/>
    <rect x="910" y="220" width="30" height="40" rx="2"/>
    
    <!-- Fourth row -->
    <rect x="80" y="420" width="30" height="40" rx="2"/>
    <rect x="105" y="420" width="30" height="40" rx="2"/>
    <rect x="175" y="410" width="30" height="40" rx="2"/>
    <rect x="200" y="410" width="30" height="40" rx="2"/>
    <rect x="310" y="400" width="30" height="40" rx="2"/>
    <rect x="335" y="400" width="30" height="40" rx="2"/>
    <rect x="400" y="390" width="30" height="40" rx="2"/>
    <rect x="425" y="390" width="30" height="40" rx="2"/>
    <rect x="510" y="385" width="30" height="40" rx="2"/>
    <rect x="535" y="385" width="30" height="40" rx="2"/>
    <rect x="635" y="380" width="30" height="40" rx="2"/>
    <rect x="660" y="380" width="30" height="40" rx="2"/>
    <rect x="735" y="375" width="30" height="40" rx="2"/>
    <rect x="760" y="375" width="30" height="40" rx="2"/>
    <rect x="885" y="370" width="30" height="40" rx="2"/>
    <rect x="910" y="370" width="30" height="40" rx="2"/>
    
    <!-- Storefront windows -->
    <rect x="745" y="510" width="30" height="40" rx="2"/>
    <rect x="770" y="510" width="30" height="40" rx="2"/>
    <rect x="795" y="510" width="30" height="40" rx="2"/>
    <rect x="820" y="510" width="30" height="40" rx="2"/>
    <rect x="885" y="510" width="30" height="40" rx="2"/>
    <rect x="910" y="510" width="30" height="40" rx="2"/>
    <rect x="935" y="510" width="30" height="40" rx="2"/>
    <rect x="960" y="510" width="30" height="40" rx="2"/>
  </g>
  
  <!-- Store signs -->
  <rect x="365" y="475" width="490" height="30" fill="#ccc"/>
  <text x="375" y="495" font-family="Arial" font-size="16" fill="#000">PAPER SOURCE</text>
  <rect x="625" y="470" width="200" height="30" fill="#000"/>
  <text x="630" y="490" font-family="Arial" font-size="14" fill="#fff">Thayer &amp; Associates, Inc.</text>
  <rect x="865" y="460" width="200" height="30" fill="#000"/>
  <text x="870" y="480" font-family="Arial" font-size="14" fill="#fff">WTPhelan INSURANCE</text>
  <text x="900" y="495" font-family="Arial" font-size="8" fill="#fff">SINCE 1924</text>
  
  <!-- Traffic lights -->
  <rect x="245" y="310" width="20" height="40" fill="#ff0"/>
  <rect x="255" y="310" width="20" height="40" fill="#ff0"/>
  <rect x="265" y="310" width="20" height="40" fill="#ff0"/>
  <rect x="290" y="270" width="20" height="40" fill="#ff0"/>
  <rect x="300" y="270" width="20" height="40" fill="#ff0"/>
  <rect x="310" y="270" width="20" height="40" fill="#ff0"/>
  <rect x="550" y="445" width="20" height="40" fill="#ff0"/>
  <rect x="560" y="445" width="20" height="40" fill="#ff0"/>
  <rect x="570" y="445" width="20" height="40" fill="#ff0"/>
  <rect x="555" y="505" width="20" height="20" fill="#ff0"/>
  
  <!-- Cars -->
  <rect x="40" y="605" width="200" height="50" fill="#3a7d7d"/>
  <circle cx="65" cy="655" r="15" fill="#333"/>
  <circle cx="150" cy="655" r="15" fill="#333"/>
  <rect x="240" y="600" width="200" height="50" fill="#4a8daa"/>
  <circle cx="260" cy="650" r="15" fill="#333"/>
  <circle cx="350" cy="650" r="15" fill="#333"/>
  
  <!-- People -->
  <rect x="405" y="580" width="10" height="20" fill="#999"/>
  <rect x="415" y="585" width="10" height="20" fill="#f00"/>
  
  <!-- American flag -->
  <rect x="625" y="385" width="30" height="20" fill="#b00"/>
  <rect x="625" y="385" width="10" height="20" fill="#00f"/>
  <circle cx="630" cy="395" r="3" fill="#fff"/>
  
  <!-- Street sign -->
  <rect x="225" y="495" width="20" height="20" fill="#fff" stroke="#000"/>
  <path d="M230 500 L235 505 M235 500 L230 505" stroke="#000" stroke-width="2"/>
</svg>