<svg viewBox="0 0 1000 1000" xmlns="http://www.w3.org/2000/svg">
  <rect width="100%" height="100%" fill="#2E9C95"/>
  <rect x="48" y="200" width="470" height="410" fill="#FFFFFF" stroke="#888" stroke-width="2"/>
  <rect x="60" y="210" width="450" height="390" fill="#F0F0F0"/>
  <rect x="50" y="400" width="460" height="50" fill="#5A2A22"/>
  <rect x="48" y="450" width="850" height="400" fill="#F5F5F5"/>
  <rect x="110" y="520" width="850" height="350" fill="#5A2A22"/>
  <rect x="120" y="550" width="300" height="250" fill="#4A1A12"/>
  <rect x="450" y="550" width="300" height="250" fill="#4A1A12"/>
  <rect x="110" y="850" width="850" height="100" fill="#D2B48C"/>
  <rect x="850" y="270" width="100" height="120" fill="#FFFFFF" stroke="#000" stroke-width="2"/>
  <rect x="860" y="280" width="80" height="100" fill="#ADD8E6"/>
  <circle cx="750" cy="140" r="5" fill="#FFF"/>
  <rect x="500" y="340" width="20" height="60" fill="#888"/>
  <rect x="500" y="340" width="20" height="10" fill="#FFF"/>
  <rect x="510" y="350" width="40" height="20" fill="#FFF"/>
  <rect x="550" y="470" width="100" height="10" fill="#AAA"/>
  <rect x="580" y="475" width="40" height="5" fill="#333"/>
  <rect x="450" y="0" width="550" height="10" fill="#888"/>
  <rect x="450" y="0" width="100" height="20" fill="#888"/>
  <rect x="550" y="0" width="100" height="20" fill="#888"/>
  <rect x="650" y="0" width="100" height="20" fill="#888"/>
  <rect x="750" y="0" width="100" height="20" fill="#888"/>
  <rect x="850" y="0" width="100" height="20" fill="#888"/>
  <rect x="450" y="0" width="10" height="100" fill="#888"/>
  <rect x="500" y="0" width="10" height="100" fill="#888"/>
  <rect x="550" y="0" width="10" height="100" fill="#888"/>
  <rect x="600" y="0" width="10" height="100" fill="#888"/>
  <rect x="650" y="0" width="10" height="100" fill="#888"/>
  <rect x="700" y="0" width="10" height="100" fill="#888"/>
  <rect x="750" y="0" width="10" height="100" fill="#888"/>
  <rect x="800" y="0" width="10" height="100" fill="#888"/>
  <rect x="850" y="0" width="10" height="100" fill="#888"/>
  <rect x="900" y="0" width="10" height="100" fill="#888"/>
  <rect x="950" y="0" width="10" height="100" fill="#888"/>
  <rect x="450" y="0" width="100" height="10" fill="#FFF"/>
  <rect x="550" y="0" width="100" height="10" fill="#FFF"/>
  <rect x="650" y="0" width="100" height="10" fill="#FFF"/>
  <rect x="750" y="0" width="100" height="10" fill="#FFF"/>
  <rect x="850" y="0" width="100" height="10" fill="#FFF"/>
  <rect x="950" y="0" width="100" height="10" fill="#FFF"/>
  <rect x="450" y="0" width="10" height="10" fill="#FFF"/>
  <rect x="500" y="0" width="10" height="10" fill="#FFF"/>
  <rect x="550" y="0" width="10" height="10" fill="#FFF"/>
  <rect x="600" y="0" width="10" height="10" fill="#FFF"/>
  <rect x="650" y="0" width="10" height="10" fill="#FFF"/>
  <rect x="700" y="0" width="10" height="10" fill="#FFF"/>
  <rect x="750" y="0" width="10" height="10" fill="#FFF"/>
  <rect x="800" y="0" width="10" height="10" fill="#FFF"/>
  <rect x="850" y="0" width="10" height="10" fill="#FFF"/>
  <rect x="900" y="0" width="10" height="10" fill="#FFF"/>
  <rect x="950" y="0" width="10" height="10" fill="#FFF"/>
  <rect x="1000" y="0" width="10" height="10" fill="#FFF"/>
</svg>