<svg viewBox="0 0 1000 1000" xmlns="http://www.w3.org/2000/svg">
  <rect width="1000" height="1000" fill="#fff"/>
  <rect y="0" width="1000" height="600" fill="#3a86ff"/>
  <rect x="0" y="720" width="1000" height="280" fill="#4a4a4a"/>
  <rect x="0" y="720" width="1000" height="100" fill="#2e5b3e"/>
  <rect x="0" y="340" width="140" height="380" fill="#c86b3d"/>
  <rect x="365" y="338" width="490" height="300" fill="#e0e0e0"/>
  <rect x="668" y="220" width="900" height="400" fill="#a0522d"/>
  <rect x="570" y="308" width="670" height="320" fill="#f0f0f0"/>
  <rect x="420" y="438" width="500" height="280" fill="#d3d3d3"/>
  <rect x="800" y="420" width="1000" height="320" fill="#c0c0c0"/>
  <rect x="135" y="795" width="15" height="85" rx="7.5" ry="7.5" fill="#666"/>
  <rect x="365" y="790" width="15" height="85" rx="7.5" ry="7.5" fill="#666"/>
  <rect x="585" y="785" width="15" height="85" rx="7.5" ry="7.5" fill="#666"/>
  <rect x="730" y="820" width="15" height="85" rx="7.5" ry="7.5" fill="#666"/>
  <rect x="760" y="785" width="15" height="85" rx="7.5" ry="7.5" fill="#666"/>
  <rect x="775" y="770" width="15" height="85" rx="7.5" ry="7.5" fill="#666"/>
  <rect x="680" y="875" width="15" height="85" rx="7.5" ry="7.5" fill="#666"/>
  <rect x="575" y="975" width="15" height="85" rx="7.5" ry="7.5" fill="#666"/>
  <rect x="100" y="415" width="20" height="25" fill="#006400"/>
  <rect x="130" y="415" width="20" height="25" fill="#006400"/>
  <rect x="155" y="420" width="20" height="25" fill="#006400"/>
  <rect x="180" y="425" width="20" height="25" fill="#006400"/>
  <rect x="200" y="430" width="20" height="25" fill="#006400"/>
  <rect x="270" y="535" width="20" height="25" fill="#006400"/>
  <rect x="290" y="535" width="20" height="25" fill="#006400"/>
  <rect x="305" y="540" width="20" height="25" fill="#006400"/>
  <rect x="590" y="475" width="70" height="70" fill="#008000"/>
  <rect x="660" y="480" width="70" height="70" fill="#008000"/>
  <rect x="710" y="500" width="70" height="70" fill="#008000"/>
  <rect x="760" y="505" width="70" height="70" fill="#008000"/>
  <rect x="940" y="500" width="70" height="70" fill="#008000"/>
  <rect x="980" y="500" width="70" height="70" fill="#008000"/>
  <rect x="245" y="558" width="15" height="40" fill="#333"/>
  <rect x="925" y="565" width="15" height="40" fill="#333"/>
  <rect x="740" y="595" width="10" height="20" fill="#333"/>
  <rect x="250" y="610" width="20" height="10" fill="#ccc"/>
  <rect x="908" y="615" width="20" height="10" fill="#ccc"/>
  <rect x="335" y="668" width="20" height="10" fill="#ddd"/>
  <rect x="370" y="668" width="20" height="10" fill="#ddd"/>
  <rect x="400" y="668" width="20" height="10" fill="#ddd"/>
  <rect x="470" y="668" width="20" height="10" fill="#ddd"/>
  <rect x="500" y="668" width="20" height="10" fill="#ddd"/>
  <rect x="490" y="678" width="20" height="10" fill="#ddd"/>
  <rect x="490" y="688" width="20" height="10" fill="#ddd"/>
  <rect x="490" y="698" width="20" height="10" fill="#ddd"/>
  <rect x="500" y="698" width="20" height="10" fill="#ddd"/>
  <rect x="500" y="688" width="20" height="10" fill="#ddd"/>
  <rect x="500" y="678" width="20" height="10" fill="#ddd"/>
  <rect x="365" y="678" width="20" height="10" fill="#ddd"/>
  <rect x="365" y="688" width="20" height="10" fill="#ddd"/>
  <rect x="365" y="698" width="20" height="10" fill="#ddd"/>
  <rect x="370" y="698" width="20" height="10" fill="#ddd"/>
  <rect x="370" y="688" width="20" height="10" fill="#ddd"/>
  <rect x="370" y="678" width="20" height="10" fill="#ddd"/>
  <rect x="400" y="678" width="20" height="10" fill="#ddd"/>
  <rect x="400" y="688" width="20" height="10" fill="#ddd"/>
  <rect x="400" y="698" width="20" height="10" fill="#ddd"/>
  <rect x="470" y="678" width="20" height="10" fill="#ddd"/>
  <rect x="470" y="688" width="20" height="10" fill="#ddd"/>
  <rect x="470" y="698" width="20" height="10" fill="#ddd"/>
  <rect x="335" y="678" width="20" height="10" fill="#ddd"/>
  <rect x="335" y="688" width="20" height="10" fill="#ddd"/>
  <rect x="335" y="698" width="20" height="10" fill="#ddd"/>
  <rect x="490" y="708" width="20" height="10" fill="#ddd"/>
  <rect x="500" y="708" width="20" height="10" fill="#ddd"/>
  <rect x="365" y="708" width="20" height="10" fill="#ddd"/>
  <rect x="370" y="708" width="20" height="10" fill="#ddd"/>
  <rect x="400" y="708" width="20" height="10" fill="#ddd"/>
  <rect x="470" y="708" width="20" height="10" fill="#ddd"/>
  <rect x="335" y="708" width="20" height="10" fill="#ddd"/>
  <rect x="490" y="718" width="20" height="10" fill="#ddd"/>
  <rect x="500" y="718" width="20" height="10" fill="#ddd"/>
  <rect x="365" y="718" width="20" height="10" fill="#ddd"/>
  <rect x="370" y="718" width="20" height="10" fill="#ddd"/>
  <rect x="400" y="718" width="20" height="10" fill="#ddd"/>
  <rect x="470" y="718" width="20" height="10" fill="#ddd"/>
  <rect x="335" y="718" width="20" height="10" fill="#ddd"/>
  <rect x="490" y="728" width="20" height="10" fill="#ddd"/>
  <rect x="500" y="728" width="20" height="10" fill="#ddd"/>
  <rect x="365" y="728" width="20" height="10" fill="#ddd"/>
  <rect x="370" y="728" width="20" height="10" fill="#ddd"/>
  <rect x="400" y="728" width="20" height="10" fill="#ddd"/>
  <rect x="470" y="728" width="20" height="10" fill="#ddd"/>
  <rect x="335" y="728" width="20" height="10" fill="#ddd"/>
  <rect x="490" y="738" width="20" height="10" fill="#ddd"/>
  <rect x="500" y="738" width="20" height="10" fill="#ddd"/>
  <rect x="365" y="738" width="20" height="10" fill="#ddd"/>
  <rect x="370" y="738" width="20" height="10" fill="#ddd"/>
  <rect x="400" y="738" width="20" height="10" fill="#ddd"/>
  <rect x="470" y="738" width="20" height="10" fill="#ddd"/>
  <rect x="335" y="738" width="20" height="10" fill="#ddd"/>
  <rect x="490" y="748" width="20" height="10" fill="#ddd"/>
  <rect x="500" y="748" width="20" height="10" fill="#ddd"/>
  <rect x="365" y="748" width="20" height="10" fill="#ddd"/>
  <rect x="370" y="748" width="20" height="10" fill="#ddd"/>
  <rect x="400" y="748" width="20" height="10" fill="#ddd"/>
  <rect x="470" y="748" width="20" height="10" fill="#ddd"/>
  <rect x="335" y="748" width="20" height="10" fill="#ddd"/>
  <rect x="490" y="758" width="20" height="10" fill="#ddd"/>
  <rect x="500" y="758" width="20" height="10" fill="#ddd"/>
  <rect x="365" y="758" width="20" height="10" fill="#ddd"/>
  <rect x="370" y="758" width="20" height="10" fill="#ddd"/>
  <rect x="400" y="758" width="20" height="10" fill="#ddd"/>
  <rect x="470" y="758" width="20" height="10" fill="#ddd"/>
  <rect x="335" y="758" width="20" height="10" fill="#ddd"/>
  <rect x="490" y="768" width="20" height="10" fill="#ddd"/>
  <rect x="500" y="768" width="20" height="10" fill="#ddd"/>
  <rect x="365" y="768" width="20" height="10" fill="#ddd"/>
  <rect x="370" y="768" width="20" height="10" fill="#ddd"/>
  <rect x="400" y="768" width="20" height="10" fill="#ddd"/>
  <rect x="470" y="768" width="20" height="10" fill="#ddd"/>
  <rect x="335" y="768" width="20" height="10" fill="#ddd"/>
  <rect x="490" y="778" width="20" height="10" fill="#ddd"/>
  <rect x="500" y="778" width="20" height="10" fill="#ddd"/>
  <rect x="365" y="778" width="20" height="10" fill="#ddd"/>
  <rect x="370" y="778" width="20" height="10" fill="#ddd"/>
  <rect x="400" y="778" width="20" height="10" fill="#ddd"/>
  <rect x="470" y="778" width="20" height="10" fill="#ddd"/>
  <rect x="335" y="778" width="20" height="10" fill="#ddd"/>
  <rect x="490" y="788" width="20" height="10" fill="#ddd"/>
  <rect x="500" y="788" width="20" height="10" fill="#ddd"/>
  <rect x="365" y="788" width="20" height="10" fill="#ddd"/>
  <rect x="370" y="788" width="20" height="10" fill="#ddd"/>
  <rect x="400" y="788" width="20" height="10" fill="#ddd"/>
  <rect x="470" y="788" width="20" height="10" fill="#ddd"/>
  <rect x="335" y="788" width="20" height="10" fill="#ddd"/>
  <rect x="490" y="798" width="20" height="10" fill="#ddd"/>
  <rect x="500" y="798" width="20" height="10" fill="#ddd"/>
  <rect x="365" y="798" width="20" height="10" fill="#ddd"/>
  <rect x="370" y="798" width="20" height="10" fill="#ddd"/>
  <rect x="400" y="798" width="20" height="10" fill="#ddd"/>
  <rect x="470" y="798" width="20" height="10" fill="#ddd"/>
  <rect x="335" y="798" width="20" height="10" fill="#ddd"/>
  <rect x="490" y="808" width="20" height="10" fill="#ddd"/>
  <rect x="500" y="808" width="20" height="10" fill="#ddd"/>
  <rect x="365" y="808" width="20" height="10" fill="#ddd"/>
  <rect x="370" y="808" width="20" height="10" fill="#ddd"/>
  <rect x="400" y="808" width="20" height="10" fill="#ddd"/>
  <rect x="470" y="808" width="20" height="10" fill="#ddd"/>
  <rect x="335" y="808" width="20" height="10" fill="#ddd"/>
  <rect x="490" y="818" width="20" height="10" fill="#ddd"/>
  <rect x="500" y="818" width="20" height="10" fill="#ddd"/>
  <rect x="365" y="818" width="20" height="10" fill="#ddd"/>
  <rect x="370" y="818" width="20" height="10" fill="#ddd"/>
  <rect x="400" y="818" width="20" height="10" fill="#ddd"/>
  <rect x="470" y="818" width="20" height="10" fill="#ddd"/>
  <rect x="335" y="818" width="20" height="10" fill="#ddd"/>
  <rect x="490" y="828" width="20" height="10" fill="#ddd"/>
  <rect x="500" y="828" width="20" height="10" fill="#ddd"/>
  <rect x="365" y="828" width="20" height="10" fill="#ddd"/>
  <rect x="370" y="828" width="20" height="10" fill="#ddd"/>
  <rect x="400" y="828" width="20" height="10" fill="#ddd"/>
  <rect x="470" y="828" width="20" height="10" fill="#ddd"/>
  <rect x="335" y="828" width="20" height="10" fill="#ddd"/>
  <rect x="490" y="838" width="20" height="10" fill="#ddd"/>
  <rect x="500" y="838" width="20" height="10" fill="#ddd"/>
  <rect x="365" y="838" width="20" height="10" fill="#ddd"/>
  <rect x="370" y="838" width="20" height="10" fill="#ddd"/>
  <rect x="400" y="838" width="20" height="10" fill="#ddd"/>
  <rect x="470" y="838" width="20" height="10" fill="#ddd"/>
  <rect x="335" y="838" width="20" height="10" fill="#ddd"/>
  <rect x="490" y="848" width="20" height="10" fill="#ddd"/>
  <rect x="500" y="848" width="20" height="10" fill="#ddd"/>
  <rect x="365" y="848" width="20" height="10" fill="#ddd"/>
  <rect x="370" y="848" width="20" height="10" fill="#ddd"/>
  <rect x="400" y="848" width="20" height="10" fill="#ddd"/>
  <rect x="470" y="848" width="20" height="10" fill="#ddd"/>
  <rect x="335" y="848" width="20" height="10" fill="#ddd"/>
  <rect x="490" y="858" width="20" height="10" fill="#ddd"/>
  <rect x="500" y="858" width="20" height="10" fill="#ddd"/>
  <rect x="365" y="858" width="20" height="10" fill="#ddd"/>
  <rect x="370" y="858" width="20" height="10" fill="#ddd"/>
  <rect x="400" y="858" width="20" height="10" fill="#ddd"/>
  <rect x="470" y="858" width="20" height="10" fill="#ddd"/>
  <rect x="335" y="858" width="20" height="10" fill="#ddd"/>
  <rect x="490" y="868" width="20" height="10" fill="#ddd"/>
  <rect x="500" y="868" width="20" height="10" fill="#ddd"/>
  <rect x="365" y="868" width="20" height="10" fill="#ddd"/>
  <rect x="370" y="868" width="20" height="10" fill="#ddd"/>
  <rect x="400" y="868" width="20" height="10" fill="#ddd"/>
  <rect x="470" y="868" width="20" height="10" fill="#ddd"/>
  <rect x="335" y="868" width="20" height="10" fill="#ddd"/>
  <rect x="490" y="878" width="20" height="10" fill="#ddd"/>
  <rect x="500" y="878" width="20" height="10" fill="#ddd"/>
  <rect x="365" y="878" width="20" height="10" fill="#ddd"/>
  <rect x="370" y="878" width="20" height="10" fill="#ddd"/>
  <rect x="400" y="878" width="20" height="10" fill="#ddd"/>
  <rect x="470" y="878" width="20" height="10" fill="#ddd"/>
  <rect x="335" y="878" width="20" height="10" fill="#ddd"/>
  <rect x="490" y="888" width="20" height="10" fill="#ddd"/>
  <rect x="500" y="888" width="20" height="10" fill="#ddd"/>
  <rect x="365" y="888" width="20" height="10" fill="#ddd"/>
  <rect x="370" y="888" width="20" height="10" fill="#ddd"/>
  <rect x="400" y="888" width="20" height="10" fill="#ddd"/>
  <rect x="470" y="888" width="20" height="10" fill="#ddd"/>
  <rect x="335" y="888" width="20" height="10" fill="#ddd"/>
  <rect x="490" y="898" width="20" height="10" fill="#ddd"/>
  <rect x="500" y="898" width="20" height="10" fill="#ddd"/>
  <rect x="365" y="898" width="20" height="10" fill="#ddd"/>
  <rect x="370" y="898" width="20" height="10" fill="#ddd"/>
  <rect x="400" y="898" width="20" height="10" fill="#ddd"/>
  <rect x="470" y="898" width="20" height="10" fill="#ddd"/>
  <rect x="335" y="898" width="20" height="10" fill="#ddd"/>
  <rect x="490" y="908" width="20" height="10" fill="#ddd"/>
  <rect x="500" y="908" width="20" height="10" fill="#ddd"/>
  <rect x="365" y="908" width="20" height="10" fill="#ddd"/>
  <rect x="370" y="908" width="20" height="10" fill="#ddd"/>
  <rect x="400" y="908" width="20" height="10" fill="#ddd"/>
  <rect x="470" y="908" width="20" height="10" fill="#ddd"/>
  <rect x="335" y="908" width="20" height="10" fill="#ddd"/>
  <rect x="490" y="918" width="20" height="10" fill="#ddd"/>
  <rect x="500" y="918" width="20" height="10" fill="#ddd"/>
  <rect x="365" y="918" width="20" height="10" fill="#ddd"/>
  <rect x="370" y="918" width="20" height="10" fill="#ddd"/>
  <rect x="400" y="918" width="20" height="10" fill="#ddd"/>
  <rect x="470" y="918" width="20" height="10" fill="#ddd"/>
  <rect x="335" y="918" width="20" height="10" fill="#ddd"/>
  <rect x="490" y="928" width="20" height="10" fill="#ddd"/>
  <rect x="500" y="928" width="20" height="10" fill="#ddd"/>
  <rect x="365" y="928" width="20" height="10" fill="#ddd"/>
  <rect x="370" y="928" width="20" height="10" fill="#ddd"/>
  <rect x="400" y="928" width="20" height="10" fill="#ddd"/>
  <rect x="470" y="928" width="20" height="10" fill="#ddd"/>
  <rect x="335" y="928" width="20" height="10" fill="#ddd"/>
  <rect x="490" y="938" width="20" height="10" fill="#ddd"/>
  <rect x="500" y="938" width="20" height="10" fill="#ddd"/>
  <rect x="365" y="938" width="20" height="10" fill="#ddd"/>
  <rect x="370" y="938" width="20" height="10" fill="#ddd"/>
  <rect x="400" y="938" width="20" height="10" fill="#ddd"/>
  <rect x="470" y="938" width="20" height="10" fill="#ddd"/>
  <rect x="335" y="938" width="20" height="10" fill="#ddd"/>
  <rect x="490" y="948" width="20" height="10" fill="#ddd"/>
  <rect x="500" y="948" width="20" height="10" fill="#ddd"/>
  <rect x="365" y="948" width="20" height="10" fill="#ddd"/>
  <rect x="370" y="948" width="20" height="10" fill="#ddd"/>
  <rect x="400" y="948" width="20" height="10" fill="#ddd"/>
  <rect x="470" y="948" width="20" height="10" fill="#ddd"/>
  <rect x="335" y="948" width="20" height="10" fill="#ddd"/>
  <rect x="490" y="958" width="20" height="10" fill="#ddd"/>
  <rect x="500" y="958" width="20" height="10" fill="#ddd"/>
  <rect x="365" y="958" width="20" height="10" fill="#ddd"/>
  <rect x="370" y="958" width="20" height="10" fill="#ddd"/>
  <rect x="400" y="958" width="20" height="10" fill="#ddd"/>
  <rect x="470" y="958" width="20" height="10" fill="#ddd"/>
  <rect x="335" y="958" width="20" height="10" fill="#ddd"/>
  <rect x="490" y="968" width="20" height="10" fill="#ddd"/>
  <rect x="500" y="968" width="20" height="10" fill="#ddd"/>
  <rect x="365" y="968" width="20" height="10" fill="#ddd"/>
  <rect x="370" y="968" width="20" height="10" fill="#ddd"/>
  <rect x="400" y="968" width="20" height="10" fill="#ddd"/>
  <rect x="470" y="968" width="20" height="10" fill="#ddd"/>
  <rect x="335" y="968" width="20" height="10" fill="#ddd"/>
  <rect x="490" y="978" width="20" height="10" fill="#ddd"/>
  <rect x="500" y="978" width="20" height="10" fill="#ddd"/>
  <rect x="365" y="978" width="20" height="10" fill="#ddd"/>
  <rect x="370" y="978" width="20" height="10" fill="#ddd"/>
  <rect x="400" y="978" width="20" height="10" fill="#ddd"/>
  <rect x="470" y="978" width="20" height="10" fill="#ddd"/>
  <rect x="335" y="978" width="20" height="10" fill="#ddd"/>
  <rect x="490" y="988" width="20" height="10" fill="#ddd"/>
  <rect x="500" y="988" width="20" height="10" fill="#ddd"/>
  <rect x="365" y="988" width="20" height="10" fill="#ddd"/>
  <rect x="370" y="988" width="20" height="10" fill="#ddd"/>
  <rect x="400" y="988" width="20" height="10" fill="#ddd"/>
  <rect x="470" y="988" width="20" height="10" fill="#ddd"/>
  <rect x="335" y="988" width="20" height="10" fill="#ddd"/>
  <rect x="490" y="998" width="20" height="10" fill="#ddd"/>
  <rect x="500" y="998" width="20" height="10" fill="#ddd"/>
  <rect x="365" y="998" width="20" height="10" fill="#ddd"/>
  <rect x="370" y="998" width="20" height="10" fill="#ddd"/>
  <rect x="400" y="998" width="20" height="10" fill="#ddd"/>
  <rect x="470" y="998" width="20" height="10" fill="#ddd"/>
  <rect x="335" y="998" width="20" height="10" fill="#ddd"/>
</svg>