<svg viewBox="0 0 500 400" xmlns="http://www.w3.org/2000/svg">
  <rect width="500" height="400" fill="#f5f5dc"/>
  <rect x="100" y="100" width="380" height="280" fill="#e6e6fa"/>
  <rect x="110" y="110" width="360" height="260" fill="#4a4a9a"/>
  <rect x="120" y="120" width="340" height="240" fill="#ff8c00"/>
  <rect x="130" y="130" width="320" height="220" fill="#4a4a9a"/>
  <rect x="140" y="140" width="300" height="200" fill="#fff"/>
  <rect x="150" y="150" width="280" height="180" fill="#ff8c00"/>
  <rect x="160" y="160" width="260" height="160" fill="#4a4a9a"/>
  <rect x="170" y="170" width="240" height="140" fill="#fff"/>
  <rect x="180" y="180" width="220" height="120" fill="#ff8c00"/>
  <rect x="190" y="190" width="200" height="100" fill="#4a4a9a"/>
  <rect x="200" y="200" width="180" height="80" fill="#fff"/>
  <rect x="210" y="210" width="160" height="60" fill="#ff8c00"/>
  <rect x="220" y="220" width="140" height="40" fill="#4a4a9a"/>
  <rect x="230" y="230" width="120" height="20" fill="#fff"/>
  <rect x="240" y="240" width="100" height="10" fill="#ff8c00"/>
  <rect x="100" y="100" width="380" height="10" fill="#d2691e"/>
  <rect x="100" y="100" width="10" height="280" fill="#d2691e"/>
  <rect x="470" y="100" width="10" height="280" fill="#d2691e"/>
  <rect x="100" y="370" width="380" height="10" fill="#d2691e"/>
  <rect x="20" y="250" width="80" height="100" fill="#cd853f"/>
  <rect x="20" y="250" width="80" height="20" fill="#8b4513"/>
  <rect x="20" y="270" width="80" height="20" fill="#8b4513"/>
  <rect x="20" y="290" width="80" height="20" fill="#8b4513"/>
  <rect x="20" y="310" width="80" height="20" fill="#8b4513"/>
  <rect x="20" y="330" width="80" height="20" fill="#8b4513"/>
  <rect x="20" y="350" width="80" height="20" fill="#8b4513"/>
  <rect x="400" y="250" width="80" height="100" fill="#cd853f"/>
  <rect x="400" y="250" width="80" height="20" fill="#8b4513"/>
  <rect x="400" y="270" width="80" height="20" fill="#8b4513"/>
  <rect x="400" y="290" width="80" height="20" fill="#8b4513"/>
  <rect x="400" y="310" width="80" height="20" fill="#8b4513"/>
  <rect x="400" y="330" width="80" height="20" fill="#8b4513"/>
  <rect x="400" y="350" width="80" height="20" fill="#8b4513"/>
  <rect x="30" y="220" width="20" height="30" fill="#fff"/>
  <rect x="30" y="220" width="20" height="10" fill="#d2691e"/>
  <rect x="30" y="230" width="20" height="10" fill="#d2691e"/>
  <rect x="30" y="240" width="20" height="10" fill="#d2691e"/>
  <rect x="450" y="220" width="20" height="30" fill="#fff"/>
  <rect x="450" y="220" width="20" height="10" fill="#d2691e"/>
  <rect x="450" y="230" width="20" height="10" fill="#d2691e"/>
  <rect x="450" y="240" width="20" height="10" fill="#d2691e"/>
  <rect x="200" y="220" width="100" height="40" fill="#191970"/>
  <rect x="300" y="220" width="80" height="40" fill="#4a4a9a"/>
  <rect x="200" y="220" width="100" height="10" fill="#ff8c00"/>
  <rect x="200" y="230" width="100" height="10" fill="#ff8c00"/>
  <rect x="200" y="240" width="100" height="10" fill="#ff8c00"/>
  <rect x="200" y="250" width="100" height="10" fill="#ff8c00"/>
  <rect x="300" y="220" width="80" height="10" fill="#ff8c00"/>
  <rect x="300" y="230" width="80" height="10" fill="#ff8c00"/>
  <rect x="300" y="240" width="80" height="10" fill="#ff8c00"/>
  <rect x="300" y="250" width="80" height="10" fill="#ff8c00"/>
  <rect x="100" y="100" width="10" height="280" fill="#fff"/>
  <rect x="470" y="100" width="10" height="280" fill="#fff"/>
  <rect x="100" y="100" width="380" height="10" fill="#fff"/>
  <rect x="100" y="370" width="380" height="10" fill="#fff"/>
</svg>