<svg viewBox="0 0 1000 1000" xmlns="http://www.w3.org/2000/svg">
  <rect width="1000" height="1000" fill="#f0f0f0"/>
  <rect x="0" y="50" width="1000" height="850" fill="#a0522d"/>
  <rect x="0" y="850" width="1000" height="150" fill="#d2b48c"/>
  <rect x="100" y="70" width="120" height="100" fill="#8b4513"/>
  <rect x="250" y="60" width="100" height="120" fill="#8b4513"/>
  <rect x="370" y="220" width="80" height="100" fill="#8b4513"/>
  <rect x="500" y="180" width="50" height="150" fill="#8b4513"/>
  <rect x="600" y="200" width="40" height="130" fill="#8b4513"/>
  <rect x="700" y="210" width="30" height="120" fill="#8b4513"/>
  <rect x="800" y="190" width="20" height="140" fill="#8b4513"/>
  <rect x="900" y="160" width="10" height="160" fill="#8b4513"/>
  <rect x="10" y="160" width="20" height="160" fill="#8b4513"/>
  <rect x="40" y="180" width="30" height="140" fill="#8b4513"/>
  <rect x="70" y="200" width="40" height="120" fill="#8b4513"/>
  <rect x="100" y="220" width="50" height="100" fill="#8b4513"/>
  <rect x="130" y="240" width="60" height="80" fill="#8b4513"/>
  <rect x="160" y="260" width="70" height="60" fill="#8b4513"/>
  <rect x="190" y="280" width="80" height="40" fill="#8b4513"/>
  <rect x="220" y="300" width="90" height="20" fill="#8b4513"/>
  <rect x="250" y="320" width="100" height="10" fill="#8b4513"/>
  <rect x="350" y="330" width="10" height="10" fill="#8b4513"/>
  <rect x="360" y="340" width="10" height="10" fill="#8b4513"/>
  <rect x="370" y="350" width="10" height="10" fill="#8b4513"/>
  <rect x="380" y="360" width="10" height="10" fill="#8b4513"/>
  <rect x="390" y="370" width="10" height="10" fill="#8b4513"/>
  <rect x="400" y="380" width="10" height="10" fill="#8b4513"/>
  <rect x="410" y="390" width="10" height="10" fill="#8b4513"/>
  <rect x="420" y="400" width="10" height="10" fill="#8b4513"/>
  <rect x="430" y="410" width="10" height="10" fill="#8b4513"/>
  <rect x="440" y="420" width="10" height="10" fill="#8b4513"/>
  <rect x="450" y="430" width="10" height="10" fill="#8b4513"/>
  <rect x="460" y="440" width="10" height="10" fill="#8b4513"/>
  <rect x="470" y="450" width="10" height="10" fill="#8b4513"/>
  <rect x="480" y="460" width="10" height="10" fill="#8b4513"/>
  <rect x="490" y="470" width="10" height="10" fill="#8b4513"/>
  <rect x="500" y="480" width="10" height="10" fill="#8b4513"/>
  <rect x="510" y="490" width="10" height="10" fill="#8b4513"/>
  <rect x="520" y="500" width="10" height="10" fill="#8b4513"/>
  <rect x="530" y="510" width="10" height="10" fill="#8b4513"/>
  <rect x="540" y="520" width="10" height="10" fill="#8b4513"/>
  <rect x="550" y="530" width="10" height="10" fill="#8b4513"/>
  <rect x="560" y="540" width="10" height="10" fill="#8b4513"/>
  <rect x="570" y="550" width="10" height="10" fill="#8b4513"/>
  <rect x="580" y="560" width="10" height="10" fill="#8b4513"/>
  <rect x="590" y="570" width="10" height="10" fill="#8b4513"/>
  <rect x="600" y="580" width="10" height="10" fill="#8b4513"/>
  <rect x="610" y="590" width="10" height="10" fill="#8b4513"/>
  <rect x="620" y="600" width="10" height="10" fill="#8b4513"/>
  <rect x="630" y="610" width="10" height="10" fill="#8b4513"/>
  <rect x="640" y="620" width="10" height="10" fill="#8b4513"/>
  <rect x="650" y="630" width="10" height="10" fill="#8b4513"/>
  <rect x="660" y="640" width="10" height="10" fill="#8b4513"/>
  <rect x="670" y="650" width="10" height="10" fill="#8b4513"/>
  <rect x="680" y="660" width="10" height="10" fill="#8b4513"/>
  <rect x="690" y="670" width="10" height="10" fill="#8b4513"/>
  <rect x="700" y="680" width="10" height="10" fill="#8b4513"/>
  <rect x="710" y="690" width="10" height="10" fill="#8b4513"/>
  <rect x="720" y="700" width="10" height="10" fill="#8b4513"/>
  <rect x="730" y="710" width="10" height="10" fill="#8b4513"/>
  <rect x="740" y="720" width="10" height="10" fill="#8b4513"/>
  <rect x="750" y="730" width="10" height="10" fill="#8b4513"/>
  <rect x="760" y="740" width="10" height="10" fill="#8b4513"/>
  <rect x="770" y="750" width="10" height="10" fill="#8b4513"/>
  <rect x="780" y="760" width="10" height="10" fill="#8b4513"/>
  <rect x="790" y="770" width="10" height="10" fill="#8b4513"/>
  <rect x="800" y="780" width="10" height="10" fill="#8b4513"/>
  <rect x="810" y="790" width="10" height="10" fill="#8b4513"/>
  <rect x="820" y="800" width="10" height="10" fill="#8b4513"/>
  <rect x="830" y="810" width="10" height="10" fill="#8b4513"/>
  <rect x="840" y="820" width="10" height="10" fill="#8b4513"/>
  <rect x="850" y="830" width="10" height="10" fill="#8b4513"/>
  <rect x="860" y="840" width="10" height="10" fill="#8b4513"/>
  <rect x="870" y="850" width="10" height="10" fill="#8b4513"/>
  <rect x="880" y="860" width="10" height="10" fill="#8b4513"/>
  <rect x="890" y="870" width="10" height="10" fill="#8b4513"/>
  <rect x="900" y="880" width="10" height="10" fill="#8b4513"/>
  <rect x="910" y="890" width="10" height="10" fill="#8b4513"/>
  <rect x="920" y="900" width="10" height="10" fill="#8b4513"/>
  <rect x="930" y="910" width="10" height="10" fill="#8b4513"/>
  <rect x="940" y="920" width="10" height="10" fill="#8b4513"/>
  <rect x="950" y="930" width="10" height="10" fill="#8b4513"/>
  <rect x="960" y="940" width="10" height="10" fill="#8b4513"/>
  <rect x="970" y="950" width="10" height="10" fill="#8b4513"/>
  <rect x="980" y="960" width="10" height="10" fill="#8b4513"/>
  <rect x="990" y="970" width="10" height="10" fill="#8b4513"/>
  <rect x="0" y="980" width="10" height="10" fill="#8b4513"/>
  <rect x="10" y="990" width="10" height="10" fill="#8b4513"/>
  <rect x="20" y="1000" width="10" height="10" fill="#8b4513"/>
  <rect x="30" y="1010" width="10" height="10" fill="#8b4513"/>
  <rect x="40" y="1020" width="10" height="10" fill="#8b4513"/>
  <rect x="50" y="1030" width="10" height="10" fill="#8b4513"/>
  <rect x="60" y="1040" width="10" height="10" fill="#8b4513"/>
  <rect x="70" y="1050" width="10" height="10" fill="#8b4513"/>
  <rect x="80" y="1060" width="10" height="10" fill="#8b4513"/>
  <rect x="90" y="1070" width="10" height="10" fill="#8b4513"/>
  <rect x="100" y="1080" width="10" height="10" fill="#8b4513"/>
  <rect x="110" y="1090" width="10" height="10" fill="#8b4513"/>
  <rect x="120" y="1100" width="10" height="10" fill="#8b4513"/>
  <rect x="130" y="1110" width="10" height="10" fill="#8b4513"/>
  <rect x="140" y="1120" width="10" height="10" fill="#8b4513"/>
  <rect x="150" y="1130" width="10" height="10" fill="#8b4513"/>
  <rect x="160" y="1140" width="10" height="10" fill="#8b4513"/>
  <rect x="170" y="1150" width="10" height="10" fill="#8b4513"/>
  <rect x="180" y="1160" width="10" height="10" fill="#8b4513"/>
  <rect x="190" y="1170" width="10" height="10" fill="#8b4513"/>
  <rect x="200" y="1180" width="10" height="10" fill="#8b4513"/>
  <rect x="210" y="1190" width="10" height="10" fill="#8b4513"/>
  <rect x="220" y="1200" width="10" height="10" fill="#8b4513"/>
  <rect x="230" y="1210" width="10" height="10" fill="#8b4513"/>
  <rect x="240" y="1220" width="10" height="10" fill="#8b4513"/>
  <rect x="250" y="1230" width="10" height="10" fill="#8b4513"/>
  <rect x="260" y="1240" width="10" height="10" fill="#8b4513"/>
  <rect x="270" y="1250" width="10" height="10" fill="#8b4513"/>
  <rect x="280" y="1260" width="10" height="10" fill="#8b4513"/>
  <rect x="290" y="1270" width="10" height="10" fill="#8b4513"/>
  <rect x="300" y="1280" width="10" height="10" fill="#8b4513"/>
  <rect x="310" y="1290" width="10" height="10" fill="#8b4513"/>
  <rect x="320" y="1300" width="10" height="10" fill="#8b4513"/>
  <rect x="330" y="1310" width="10" height="10" fill="#8b4513"/>
  <rect x="340" y="1320" width="10" height="10" fill="#8b4513"/>
  <rect x="350" y="1330" width="10" height="10" fill="#8b4513"/>
  <rect x="360" y="1340" width="10" height="10" fill="#8b4513"/>
  <rect x="370" y="1350" width="10" height="10" fill="#8b4513"/>
  <rect x="380" y="1360" width="10" height="10" fill="#8b4513"/>
  <rect x="390" y="1370" width="10" height="10" fill="#8b4513"/>
  <rect x="400" y="1380" width="10" height="10" fill="#8b4513"/>
  <rect x="410" y="1390" width="10" height="10" fill="#8b4513"/>
  <rect x="420" y="1400" width="10" height="10" fill="#8b4513"/>
  <rect x="430" y="1410" width="10" height="10" fill="#8b4513"/>
  <rect x="440" y="1420" width="10" height="10" fill="#8b4513"/>
  <rect x="450" y="1430" width="10" height="10" fill="#8b4513"/>
  <rect x="460" y="1440" width="10" height="10" fill="#8b4513"/>
  <rect x="470" y="1450" width="10" height="10" fill="#8b4513"/>
  <rect x="480" y="1460" width="10" height="10" fill="#8b4513"/>
  <rect x="490" y="1470" width="10" height="10" fill="#8b4513"/>
  <rect x="500" y="1480" width="10" height="10" fill="#8b4513"/>
  <rect x="510" y="1490" width="10" height="10" fill="#8b4513"/>
  <rect x="520" y="1500" width="10" height="10" fill="#8b4513"/>
  <rect x="530" y="1510" width="10" height="10" fill="#8b4513"/>
  <rect x="540" y="1520" width="10" height="10" fill="#8b4513"/>
  <rect x="550" y="1530" width="10" height="10" fill="#8b4513"/>
  <rect x="560" y="1540" width="10" height="10" fill="#8b4513"/>
  <rect x="570" y="1550" width="10" height="10" fill="#8b4513"/>
  <rect x="580" y="1560" width="10" height="10" fill="#8b4513"/>
  <rect x="590" y="1570" width="10" height="10" fill="#8b4513"/>
  <rect x="600" y="1580" width="10" height="10" fill="#8b4513"/>
  <rect x="610" y="1590" width="10" height="10" fill="#8b4513"/>
  <rect x="620" y="1600" width="10" height="10" fill="#8b4513"/>
  <rect x="630" y="1610" width="10" height="10" fill="#8b4513"/>
  <rect x="640" y="1620" width="10" height="10" fill="#8b4513"/>
  <rect x="650" y="1630" width="10" height="10" fill="#8b4513"/>
  <rect x="660" y="1640" width="10" height="10" fill="#8b4513"/>
  <rect x="670" y="1650" width="10" height="10" fill="#8b4513"/>
  <rect x="680" y="1660" width="10" height="10" fill="#8b4513"/>
  <rect x="690" y="1670" width="10" height="10" fill="#8b4513"/>
  <rect x="700" y="1680" width="10" height="10" fill="#8b4513"/>
  <rect x="710" y="1690" width="10" height="10" fill="#8b4513"/>
  <rect x="720" y="1700" width="10" height="10" fill="#8b4513"/>
  <rect x="730" y="1710" width="10" height="10" fill="#8b4513"/>
  <rect x="740" y="1720" width="10" height="10" fill="#8b4513"/>
  <rect x="750" y="1730" width="10" height="10" fill="#8b4513"/>
  <rect x="760" y="1740" width="10" height="10" fill="#8b4513"/>
  <rect x="770" y="1750" width="10" height="10" fill="#8b4513"/>
  <rect x="780" y="1760" width="10" height="10" fill="#8b4513"/>
  <rect x="790" y="1770" width="10" height="10" fill="#8b4513"/>
  <rect x="800" y="1780" width="10" height="10" fill="#8b4513"/>
  <rect x="810" y="1790" width="10" height="10" fill="#8b4513"/>
  <rect x="820" y="1800" width="10" height="10" fill="#8b4513"/>
  <rect x="830" y="1810" width="10" height="10" fill="#8b4513"/>
  <rect x="840" y="1820" width="10" height="10" fill="#8b4513"/>
  <rect x="850" y="1830" width="10" height="10" fill="#8b4513"/>
  <rect x="860" y="1840" width="10" height="10" fill="#8b4513"/>
  <rect x="870" y="1850" width="10" height="10" fill="#8b4513"/>
  <rect x="880" y="1860" width="10" height="10" fill="#8b4513"/>
  <rect x="890" y="1870" width="10" height="10" fill="#8b4513"/>
  <rect x="900" y="1880" width="10" height="10" fill="#8b4513"/>
  <rect x="910" y="1890" width="10" height="10" fill="#8b4513"/>
  <rect x="920" y="1900" width="10" height="10" fill="#8b4513"/>
  <rect x="930" y="1910" width="10" height="10" fill="#8b4513"/>
  <rect x="940" y="1920" width="10" height="10" fill="#8b4513"/>
  <rect x="950" y="1930" width="10" height="10" fill="#8b4513"/>
  <rect x="960" y="1940" width="10" height="10" fill="#8b4513"/>
  <rect x="970" y="1950" width="10" height="10" fill="#8b4513"/>
  <rect x="980" y="1960" width="10" height="10" fill="#8b4513"/>
  <rect x="990" y="1970" width="10" height="10" fill="#8b4513"/>
</svg>