<svg viewBox="0 0 1000 800" xmlns="http://www.w3.org/2000/svg">
  <rect width="100%" height="100%" fill="#f0f0f0"/>
  <rect x="0" y="700" width="1000" height="100" fill="#8b0000"/>
  <rect x="0" y="0" width="1000" height="400" fill="#e0e0e0"/>
  <rect x="0" y="400" width="1000" height="300" fill="#d2b48c"/>
  <rect x="50" y="600" width="900" height="100" fill="#696969"/>
  <rect x="100" y="650" width="800" height="50" fill="#4682b4"/>
  <rect x="200" y="660" width="600" height="30" fill="#ffffff"/>
  <rect x="250" y="670" width="500" height="10" fill="#000000"/>
  <rect x="300" y="675" width="400" height="5" fill="#ffffff"/>
  <rect x="350" y="677" width="300" height="3" fill="#000000"/>
  <rect x="400" y="678" width="200" height="2" fill="#ffffff"/>
  <rect x="450" y="679" width="100" height="1" fill="#000000"/>
  <rect x="500" y="680" width="50" height="1" fill="#ffffff"/>
  <rect x="525" y="681" width="25" height="1" fill="#000000"/>
  <rect x="537" y="682" width="13" height="1" fill="#ffffff"/>
  <rect x="543" y="683" width="6" height="1" fill="#000000"/>
  <rect x="546" y="684" width="3" height="1" fill="#ffffff"/>
  <rect x="547" y="685" width="2" height="1" fill="#000000"/>
  <rect x="548" y="686" width="1" height="1" fill="#ffffff"/>
  <rect x="549" y="687" width="1" height="1" fill="#000000"/>
  <rect x="550" y="688" width="1" height="1" fill="#ffffff"/>
  <rect x="551" y="689" width="1" height="1" fill="#000000"/>
  <rect x="552" y="690" width="1" height="1" fill="#ffffff"/>
  <rect x="553" y="691" width="1" height="1" fill="#000000"/>
  <rect x="554" y="692" width="1" height="1" fill="#ffffff"/>
  <rect x="555" y="693" width="1" height="1" fill="#000000"/>
  <rect x="556" y="694" width="1" height="1" fill="#ffffff"/>
  <rect x="557" y="695" width="1" height="1" fill="#000000"/>
  <rect x="558" y="696" width="1" height="1" fill="#ffffff"/>
  <rect x="559" y="697" width="1" height="1" fill="#000000"/>
  <rect x="560" y="698" width="1" height="1" fill="#ffffff"/>
  <rect x="561" y="699" width="1" height="1" fill="#000000"/>
  <rect x="562" y="700" width="1" height="1" fill="#ffffff"/>
  <rect x="563" y="701" width="1" height="1" fill="#000000"/>
  <rect x="564" y="702" width="1" height="1" fill="#ffffff"/>
  <rect x="565" y="703" width="1" height="1" fill="#000000"/>
  <rect x="566" y="704" width="1" height="1" fill="#ffffff"/>
  <rect x="567" y="705" width="1" height="1" fill="#000000"/>
  <rect x="568" y="706" width="1" height="1" fill="#ffffff"/>
  <rect x="569" y="707" width="1" height="1" fill="#000000"/>
  <rect x="570" y="708" width="1" height="1" fill="#ffffff"/>
  <rect x="571" y="709" width="1" height="1" fill="#000000"/>
  <rect x="572" y="710" width="1" height="1" fill="#ffffff"/>
  <rect x="573" y="711" width="1" height="1" fill="#000000"/>
  <rect x="574" y="712" width="1" height="1" fill="#ffffff"/>
  <rect x="575" y="713" width="1" height="1" fill="#000000"/>
  <rect x="576" y="714" width="1" height="1" fill="#ffffff"/>
  <rect x="577" y="715" width="1" height="1" fill="#000000"/>
  <rect x="578" y="716" width="1" height="1" fill="#ffffff"/>
  <rect x="579" y="717" width="1" height="1" fill="#000000"/>
  <rect x="580" y="718" width="1" height="1" fill="#ffffff"/>
  <rect x="581" y="719" width="1" height="1" fill="#000000"/>
  <rect x="582" y="720" width="1" height="1" fill="#ffffff"/>
  <rect x="583" y="721" width="1" height="1" fill="#000000"/>
  <rect x="584" y="722" width="1" height="1" fill="#ffffff"/>
  <rect x="585" y="723" width="1" height="1" fill="#000000"/>
  <rect x="586" y="724" width="1" height="1" fill="#ffffff"/>
  <rect x="587" y="725" width="1" height="1" fill="#000000"/>
  <rect x="588" y="726" width="1" height="1" fill="#ffffff"/>
  <rect x="589" y="727" width="1" height="1" fill="#000000"/>
  <rect x="590" y="728" width="1" height="1" fill="#ffffff"/>
  <rect x="591" y="729" width="1" height="1" fill="#000000"/>
  <rect x="592" y="730" width="1" height="1" fill="#ffffff"/>
  <rect x="593" y="731" width="1" height="1" fill="#000000"/>
  <rect x="594" y="732" width="1" height="1" fill="#ffffff"/>
  <rect x="595" y="733" width="1" height="1" fill="#000000"/>
  <rect x="596" y="734" width="1" height="1" fill="#ffffff"/>
  <rect x="597" y="735" width="1" height="1" fill="#000000"/>
  <rect x="598" y="736" width="1" height="1" fill="#ffffff"/>
  <rect x="599" y="737" width="1" height="1" fill="#000000"/>
  <rect x="600" y="738" width="1" height="1" fill="#ffffff"/>
  <rect x="601" y="739" width="1" height="1" fill="#000000"/>
  <rect x="602" y="740" width="1" height="1" fill="#ffffff"/>
  <rect x="603" y="741" width="1" height="1" fill="#000000"/>
  <rect x="604" y="742" width="1" height="1" fill="#ffffff"/>
  <rect x="605" y="743" width="1" height="1" fill="#000000"/>
  <rect x="606" y="744" width="1" height="1" fill="#ffffff"/>
  <rect x="607" y="745" width="1" height="1" fill="#000000"/>
  <rect x="608" y="746" width="1" height="1" fill="#ffffff"/>
  <rect x="609" y="747" width="1" height="1" fill="#000000"/>
  <rect x="610" y="748" width="1" height="1" fill="#ffffff"/>
  <rect x="611" y="749" width="1" height="1" fill="#000000"/>
  <rect x="612" y="750" width="1" height="1" fill="#ffffff"/>
  <rect x="613" y="751" width="1" height="1" fill="#000000"/>
  <rect x="614" y="752" width="1" height="1" fill="#ffffff"/>
  <rect x="615" y="753" width="1" height="1" fill="#000000"/>
  <rect x="616" y="754" width="1" height="1" fill="#ffffff"/>
  <rect x="617" y="755" width="1" height="1" fill="#000000"/>
  <rect x="618" y="756" width="1" height="1" fill="#ffffff"/>
  <rect x="619" y="757" width="1" height="1" fill="#000000"/>
  <rect x="620" y="758" width="1" height="1" fill="#ffffff"/>
  <rect x="621" y="759" width="1" height="1" fill="#000000"/>
  <rect x="622" y="760" width="1" height="1" fill="#ffffff"/>
  <rect x="623" y="761" width="1" height="1" fill="#000000"/>
  <rect x="624" y="762" width="1" height="1" fill="#ffffff"/>
  <rect x="625" y="763" width="1" height="1" fill="#000000"/>
  <rect x="626" y="764" width="1" height="1" fill="#ffffff"/>
  <rect x="627" y="765" width="1" height="1" fill="#000000"/>
  <rect x="628" y="766" width="1" height="1" fill="#ffffff"/>
  <rect x="629" y="767" width="1" height="1" fill="#000000"/>
  <rect x="630" y="768" width="1" height="1" fill="#ffffff"/>
  <rect x="631" y="769" width="1" height="1" fill="#000000"/>
  <rect x="632" y="770" width="1" height="1" fill="#ffffff"/>
  <rect x="633" y="771" width="1" height="1" fill="#000000"/>
  <rect x="634" y="772" width="1" height="1" fill="#ffffff"/>
  <rect x="635" y="773" width="1" height="1" fill="#000000"/>
  <rect x="636" y="774" width="1" height="1" fill="#ffffff"/>
  <rect x="637" y="775" width="1" height="1" fill="#000000"/>
  <rect x="638" y="776" width="1" height="1" fill="#ffffff"/>
  <rect x="639" y="777" width="1" height="1" fill="#000000"/>
  <rect x="640" y="778" width="1" height="1" fill="#ffffff"/>
  <rect x="641" y="779" width="1" height="1" fill="#000000"/>
  <rect x="642" y="780" width="1" height="1" fill="#ffffff"/>
  <rect x="643" y="781" width="1" height="1" fill="#000000"/>
  <rect x="644" y="782" width="1" height="1" fill="#ffffff"/>
  <rect x="645" y="783" width="1" height="1" fill="#000000"/>
  <rect x="646" y="784" width="1" height="1" fill="#ffffff"/>
  <rect x="647" y="785" width="1" height="1" fill="#000000"/>
  <rect x="648" y="786" width="1" height="1" fill="#ffffff"/>
  <rect x="649" y="787" width="1" height="1" fill="#000000"/>
  <rect x="650" y="788" width="1" height="1" fill="#ffffff"/>
  <rect x="651" y="789" width="1" height="1" fill="#000000"/>
  <rect x="652" y="790" width="1" height="1" fill="#ffffff"/>
  <rect x="653" y="791" width="1" height="1" fill="#000000"/>
  <rect x="654" y="792" width="1" height="1" fill="#ffffff"/>
  <rect x="655" y="793" width="1" height="1" fill="#000000"/>
  <rect x="656" y="794" width="1" height="1" fill="#ffffff"/>
  <rect x="657" y="795" width="1" height="1" fill="#000000"/>
  <rect x="658" y="796" width="1" height="1" fill="#ffffff"/>
  <rect x="659" y="797" width="1" height="1" fill="#000000"/>
  <rect x="660" y="798" width="1" height="1" fill="#ffffff"/>
  <rect x="661" y="799" width="1" height="1" fill="#000000"/>
</svg>