<svg viewBox="0 0 1000 1000" xmlns="http://www.w3.org/2000/svg">
    <rect x="0" y="0" width="1000" height="1000" fill="#fff"/>
    <rect x="0" y="560" width="1000" height="440" fill="#555"/>
    <line x1="380" y1="560" x2="380" y2="1000" stroke="#fff" stroke-width="4"/>
    <rect x="337" y="539" width="20" height="12" fill="red" stroke="white" stroke-width="1"/>
    <rect x="485" y="557" width="18" height="22" fill="blue" stroke="white" stroke-width="1"/>
    <rect x="50" y="548" width="25" height="45" fill="#888"/>
    <rect x="8" y="610" width="12" height="20" fill="#f44"/>
    <rect x="500" y="440" width="400" height="160" fill="#666"/>
    <rect x="850" y="410" width="150" height="30" fill="#fff"/>
    <text x="855" y="425" font-size="12" fill="#000">IN CAR PARK OUT</text>
    <rect x="300" y="0" width="150" height="560" fill="#ccc"/>
    <rect x="0" y="0" width="300" height="560" fill="#888"/>
    <rect x="450" y="0" width="550" height="560" fill="#444"/>
    <rect x="500" y="440" width="400" height="160" fill="#666"/>
    <rect x="850" y="410" width="150" height="30" fill="#fff"/>
    <text x="855" y="425" font-size="12" fill="#000">IN CAR PARK OUT</text>
</svg>