<svg viewBox="0 0 1000 700" xmlns="http://www.w3.org/2000/svg">
  <rect width="1000" height="700" fill="#4a7bbd"/>
  <rect x="0" y="0" width="500" height="160" fill="#f0f0f0"/>
  <rect x="0" y="160" width="200" height="300" fill="#d4b88c"/>
  <rect x="180" y="190" width="150" height="180" fill="#d4b88c"/>
  <rect x="200" y="200" width="120" height="80" fill="#f0f0f0"/>
  <rect x="210" y="210" width="100" height="60" fill="#d4b88c"/>
  <rect x="220" y="220" width="80" height="40" fill="#f0f0f0"/>
  <rect x="230" y="230" width="60" height="20" fill="#d4b88c"/>
  <rect x="240" y="240" width="40" height="10" fill="#f0f0f0"/>
  <rect x="250" y="250" width="20" height="5" fill="#d4b88c"/>
  <rect x="260" y="260" width="10" height="2.5" fill="#f0f0f0"/>
  <rect x="270" y="270" width="5" height="1.25" fill="#d4b88c"/>
  <rect x="280" y="280" width="2.5" height="0.625" fill="#f0f0f0"/>
  <rect x="290" y="290" width="1.25" height="0.3125" fill="#d4b88c"/>
  <rect x="300" y="300" width="0.625" height="0.15625" fill="#f0f0f0"/>
  <rect x="310" y="310" width="0.3125" height="0.078125" fill="#d4b88c"/>
  <rect x="320" y="320" width="0.15625" height="0.0390625" fill="#f0f0f0"/>
  <rect x="330" y="330" width="0.078125" height="0.01953125" fill="#d4b88c"/>
  <rect x="340" y="340" width="0.0390625" height="0.009765625" fill="#f0f0f0"/>
  <rect x="350" y="350" width="0.01953125" height="0.0048828125" fill="#d4b88c"/>
  <rect x="360" y="360" width="0.009765625" height="0.00244140625" fill="#f0f0f0"/>
  <rect x="370" y="370" width="0.0048828125" height="0.001220703125" fill="#d4b88c"/>
  <rect x="380" y="380" width="0.00244140625" height="0.0006103515625" fill="#f0f0f0"/>
  <rect x="390" y="390" width="0.001220703125" height="0.00030517578125" fill="#d4b88c"/>
  <rect x="400" y="400" width="0.0006103515625" height="0.000152587890625" fill="#f0f0f0"/>
  <rect x="410" y="410" width="0.00030517578125" height="0.0000762939453125" fill="#d4b88c"/>
  <rect x="420" y="420" width="0.000152587890625" height="0.00003814697265625" fill="#f0f0f0"/>
  <rect x="430" y="430" width="0.0000762939453125" height="0.000019073486328125" fill="#d4b88c"/>
  <rect x="440" y="440" width="0.00003814697265625" height="0.0000095367431640625" fill="#f0f0f0"/>
  <rect x="450" y="450" width="0.000019073486328125" height="0.00000476837158203125" fill="#d4b88c"/>
  <rect x="460" y="460" width="0.0000095367431640625" height="0.000002384185791015625" fill="#f0f0f0"/>
  <rect x="470" y="470" width="0.00000476837158203125" height="0.0000011920928955078125" fill="#d4b88c"/>
  <rect x="480" y="480" width="0.000002384185791015625" height="0.00000059604644775390625" fill="#f0f0f0"/>
  <rect x="490" y="490" width="0.0000011920928955078125" height="0.000000298023223876953125" fill="#d4b88c"/>
  <rect x="500" y="500" width="0.00000059604644775390625" height="0.0000001490116119384765625" fill="#f0f0f0"/>
  <rect x="510" y="510" width="0.000000298023223876953125" height="0.00000007450580596923828125" fill="#d4b88c"/>
  <rect x="520" y="520" width="0.0000001490116119384765625" height="0.000000037252902984619140625" fill="#f0f0f0"/>
  <rect x="530" y="530" width="0.00000007450580596923828125" height="0.0000000186264514923095703125" fill="#d4b88c"/>
  <rect x="540" y="540" width="0.000000037252902984619140625" height="0.00000000931322574615478515625" fill="#f0f0f0"/>
  <rect x="550" y="550" width="0.0000000186264514923095703125" height="0.000000004656612873077392578125" fill="#d4b88c"/>
  <rect x="560" y="560" width="0.00000000931322574615478515625" height="0.0000000023283064365386962890625" fill="#f0f0f0"/>
  <rect x="570" y="570" width="0.000000004656612873077392578125" height="0.000000001164153218269346142578125" fill="#d4b88c"/>
  <rect x="580" y="580" width="0.0000000023283064365386962890625" height="0.0000000005820766091346730712890625" fill="#f0f0f0"/>
  <rect x="590" y="590" width="0.000000001164153218269346142578125" height="0.00000000029103830456733653564453125" fill="#d4b88c"/>
  <rect x="600" y="600" width="0.0000000005820766091346730712890625" height="0.000000000145519152283668267822265625" fill="#f0f0f0"/>
  <rect x="610" y="610" width="0.00000000029103830456733653564453125" height="0.0000000000727595761418341339111328125" fill="#d4b88c"/>
  <rect x="620" y="620" width="0.000000000145519152283668267822265625" height="0.00000000003637978807091706695556640625" fill="#f0f0f0"/>
  <rect x="630" y="630" width="0.0000000000727595761418341339111328125" height="0.000000000018189894035458533477783203125" fill="#d4b88c"/>
  <rect x="640" y="640" width="0.00000000003637978807091706695556640625" height="0.0000000000090949470177292667388916015625" fill="#f0f0f0"/>
  <rect x="650" y="650" width="0.000000000018189894035458533477783203125" height="0.00000000000454747350886463336944580078125" fill="#d4b88c"/>
  <rect x="660" y="660" width="0.0000000000090949470177292667388916015625" height="0.000000000002273736754432316684722900390625" fill="#f0f0f0"/>
  <rect x="670" y="670" width="0.00000000000454747350886463336944580078125" height="0.0000000000011368683772161583423614501953125" fill="#d4b88c"/>
  <rect x="680" y="680" width="0.000000000002273736754432316684722900390625" height="0.00000000000056843418860807917118072509765625" fill="#f0f0f0"/>
  <rect x="690" y="690" width="0.0000000000011368683772161583423614501953125" height="0.000000000000284217094304039585590362548828125" fill="#d4b88c"/>
  <rect x="700" y="700" width="0.00000000000056843418860807917118072509765625" height="0.0000000000001421085471520197927951812744140625" fill="#f0f0f0"/>
  <rect x="710" y="710" width="0.000000000000284217094304039585590362548828125" height="0.00000000000007105427357600989639759063720703125" fill="#d4b88c"/>
  <rect x="720" y="720" width="0.0000000000001421085471520197927951812744140625" height="0.000000000000035527136788004948198795318603515625" fill="#f0f0f0"/>
  <rect x="730" y="730" width="0.00000000000007105427357600989639759063720703125" height="0.0000000000000177635683940024740993976593017578125" fill="#d4b88c"/>
  <rect x="740" y="740" width="0.000000000000035527136788004948198795318603515625" height="0.00000000000000888178419700123704969882965087890625" fill="#f0f0f0"/>
  <rect x="750" y="750" width="0.0000000000000177635683940024740993976593017578125" height="0.000000000000004440892098500618524849414825439453125" fill="#d4b88c"/>
  <rect x="760" y="760" width="0.00000000000000888178419700123704969882965087890625" height="0.0000000000000022204460492503092624247074127197265625" fill="#f0f0f0"/>
  <rect x="770" y="770" width="0.000000000000004440892098500618524849414825439453125" height="0.00000000000000111022302462515463121235370635986328125" fill="#d4b88c"/>
  <rect x="780" y="780" width="0.0000000000000022204460492503092624247074127197265625" height="0.000000000000000555111512312577315606176853179931640625" fill="#f0f0f0"/>
  <rect x="790" y="790" width="0.00000000000000111022302462515463121235370635986328125" height="0.0000000000000002775557561562886578030884265899658203125" fill="#d4b88c"/>
  <rect x="800" y="800" width="0.000000000000000555111512312577315606176853179931640625" height="0.00000000000000013877787807814432890154421329498291015625" fill="#f0f0f0"/>
  <rect x="810" y="810" width="0.0000000000000002775557561562886578030884265899658203125" height="0.000000000000000069388939039072164450772106647491455078125" fill="#d4b88c"/>
  <rect x="820" y="820" width="0.00000000000000013877787807814432890154421329498291015625" height="0.0000000000000000346944695195360822253860533237457275390625" fill="#f0f0f0"/>
  <rect x="830" y="830" width="0.000000000000000069388939039072164450772106647491455078125" height="0.00000000000000001734723475976804111269302666187286376953125" fill="#d4b88c"/>
  <rect x="840" y="840" width="0.0000000000000000346944695195360822253860533237457275390625" height="0.000000000000000008673617379884020556346513330936431884765625" fill="#f0f0f0"/>
  <rect x="850" y="850" width="0.00000000000000001734723475976804111269302666187286376953125" height="0.0000000000000000043368086899420102781732566654682159423828125" fill="#d4b88c"/>
  <rect x="860" y="860" width="0.000000000000000008673617379884020556346513330936431884765625" height="0.00000000000000000216840434497100513908662833273410797119140625" fill="#f0f0f0"/>
  <rect x="870" y="870" width="0.0000000000000000043368086899420102781732566654682159423828125" height="0.000000000000000001084202172485502569543314166367053985595703125" fill="#d4b88c"/>
  <rect x="880" y="880" width="0.00000000000000000216840434497100513908662833273410797119140625" height="0.0000000000000000005421010862427512847716570831835269927978515625" fill="#f0f0f0"/>
  <rect x="890" y="890" width="0.000000000000000001084202172485502569543314166367053985595703125" height="0.00000000000000000027105054312137564238582854159176349639892578125" fill="#d4b88c"/>
  <rect x="900" y="900" width="0.0000000000000000005421010862427512847716570831835269927978515625" height="0.000000000000000000135525271560687821192914270795881748199462890625" fill="#f0f0f0"/>
  <rect x="910" y="910" width="0.00000000000000000027105054312137564238582854159176349639892578125" height="0.0000000000000000000677626357803439105964571353979408740997314453125" fill="#d4b88c"/>
  <rect x="920" y="920" width="0.000000000000000000135525271560687821192914270795881748199462890625" height="0.00000000000000000003388131789017195529822856769897043704986572265625" fill="#f0f0f0"/>
  <rect x="930" y="930" width="0.0000000000000000000677626357803439105964571353979408740997314453125" height="0.000000000000000000016940658945085977649114283849485218524932861328125" fill="#d4b88c"/>
  <rect x="940" y="940" width="0.00000000000000000003388131789017195529822856769897043704986572265625" height="0.0000000000000000000084703294725429888245571419247426092624664306640625" fill="#f0f0f0"/>
  <rect x="950" y="950" width="0.000000000000000000016940658945085977649114283849485218524932861328125" height="0.00000000000000000000423516473627149441227857096237130463123321533203125" fill="#d4b88c"/>
  <rect x="960" y="960" width="0.0000000000000000000084703294725429888245571419247426092624664306640625" height="0.000000000000000000002117582368135747206139285481185652315616607666015625" fill="#f0f0f0"/>
  <rect x="970" y="970" width="0.00000000000000000000423516473627149441227857096237130463123321533203125" height="0.0000000000000000000010587911840678736030696427405928261578083038330078125" fill="#d4b88c"/>
  <rect x="980" y="980" width="0.000000000000000000002117582368135747206139285481185652315616607666015625" height="0.00000000000000000000052939559203393680153482137029641307890415191650390625" fill="#f0f0f0"/>
  <rect x="990" y="990" width="0.0000000000000000000010587911840678736030696427405928261578083038330078125" height="0.000000000000000000000264697796016968400767410685148206539452075958251953125" fill="#d4b88c"/>
  <rect x="1000" y="1000" width="0.00000000000000000000052939559203393680153482137029641307890415191650390625" height="0.0000000000000000000001323488980084842003837053425741032697260379791259765625" fill="#f0f0f0"/>
</svg>