<svg viewBox="0 0 1000 800" xmlns="http://www.w3.org/2000/svg">
  <rect x="0" y="0" width="1000" height="800" fill="#f0e6d2"/>
  <rect x="0" y="0" width="250" height="250" fill="#fff"/>
  <rect x="250" y="0" width="150" height="500" fill="#e0d0c0"/>
  <rect x="250" y="400" width="750" height="400" fill="#a06040"/>
  <rect x="550" y="600" width="350" height="100" fill="#fff"/>
  <rect x="800" y="450" width="150" height="150" fill="#806040"/>
  <rect x="700" y="450" width="50" height="50" fill="#c0a080"/>
  <rect x="600" y="450" width="50" height="50" fill="#c0a080"/>
  <rect x="500" y="450" width="100" height="50" fill="#e0d0c0"/>
  <rect x="500" y="500" width="100" height="20" fill="#fff"/>
  <rect x="300" y="500" width="50" height="50" fill="#e0d0c0"/>
  <rect x="300" y="600" width="50" height="50" fill="#e0d0c0"/>
  <rect x="300" y="700" width="50" height="50" fill="#e0d0c0"/>
  <rect x="400" y="500" width="50" height="50" fill="#e0d0c0"/>
  <rect x="400" y="600" width="50" height="50" fill="#e0d0c0"/>
  <rect x="400" y="700" width="50" height="50" fill="#e0d0c0"/>
  <rect x="50" y="350" width="200" height="400" fill="#f0e6d2"/>
  <rect x="50" y="350" width="200" height="50" fill="#a06040"/>
  <rect x="50" y="400" width="200" height="300" fill="#fff"/>
  <rect x="50" y="700" width="200" height="50" fill="#806040"/>
  <rect x="800" y="450" width="150" height="150" fill="#806040" stroke="blue" stroke-width="4"/>
  <rect x="50" y="350" width="200" height="400" fill="none" stroke="red" stroke-width="4"/>
</svg>