<svg viewBox="0 0 1000 800" xmlns="http://www.w3.org/2000/svg">
  <rect x="0" y="0" width="1000" height="800" fill="#f0e6e6"/>
  <rect x="50" y="370" width="250" height="150" fill="#4b2d2d"/>
  <rect x="50" y="520" width="250" height="100" fill="#4b2d2d"/>
  <rect x="250" y="300" width="900" height="500" fill="#4b2d2d"/>
  <rect x="680" y="200" width="320" height="300" fill="#4b2d2d"/>
  <rect x="280" y="400" width="680" height="350" fill="#f8f8f8"/>
  <rect x="700" y="350" width="300" height="150" fill="#f8f8f8"/>
  <rect x="300" y="370" width="200" height="50" fill="#1a75ff"/>
  <rect x="480" y="370" width="200" height="50" fill="#1a75ff"/>
  <rect x="500" y="550" width="450" height="250" fill="#1a75ff"/>
  <rect x="700" y="320" width="200" height="50" fill="#1a75ff"/>
  <rect x="800" y="300" width="100" height="50" fill="#1a75ff"/>
  <rect x="70" y="70" width="150" height="250" fill="#d4c8c8"/>
  <rect x="870" y="220" width="80" height="120" fill="#d4c8c8"/>
  <rect x="350" y="0" width="200" height="200" fill="#e8e8e8"/>
  <rect x="600" y="50" width="100" height="150" fill="#e8e8e8"/>
  <rect x="700" y="0" width="150" height="200" fill="#e8e8e8"/>
  <rect x="150" y="70" width="100" height="100" fill="#a0a0a0"/>
  <rect x="880" y="240" width="60" height="80" fill="#a0a0a0"/>
  <rect x="360" y="10" width="180" height="180" fill="#c8a0a0"/>
  <rect x="610" y="60" width="80" height="130" fill="#c8a0a0"/>
  <rect x="710" y="10" width="130" height="180" fill="#c8a0a0"/>
  <rect x="50" y="550" width="150" height="30" fill="#8b0000"/>
  <rect x="50" y="580" width="150" height="30" fill="#8b0000"/>
  <rect x="580" y="600" width="200" height="50" fill="#ffffff"/>
  <rect x="700" y="370" width="300" height="30" fill="#ffffff"/>
  <rect x="550" y="400" width="150" height="150" fill="#4b2d2d" stroke="blue" stroke-width="3"/>
  <rect x="840" y="200" width="100" height="100" fill="red" stroke="red" stroke-width="3"/>
</svg>