<svg viewBox="0 0 1000 800" xmlns="http://www.w3.org/2000/svg">
    <rect x="0" y="0" width="1000" height="800" fill="white"/>
    <rect x="0" y="516" width="100" height="40" fill="red"/>
    <rect x="650" y="596" width="100" height="80" fill="blue"/>
    <rect x="0" y="370" width="200" height="100" fill="black"/>
    <rect x="0" y="670" width="200" height="100" fill="black"/>
    <rect x="530" y="670" width="100" height="150" fill="black"/>
    <rect x="530" y="600" width="100" height="150" fill="black"/>
    <rect x="600" y="596" width="100" height="80" fill="black"/>
    <rect x="760" y="596" width="100" height="80" fill="black"/>
    <rect x="880" y="180" width="100" height="400" fill="black"/>
    <rect x="920" y="180" width="100" height="400" fill="black"/>
    <rect x="960" y="180" width="100" height="400" fill="black"/>
    <rect x="880" y="596" width="100" height="80" fill="black"/>
    <rect x="920" y="596" width="100" height="80" fill="black"/>
    <rect x="960" y="596" width="100" height="80" fill="black"/>
    <rect x="600" y="400" width="100" height="100" fill="white"/>
    <rect x="700" y="400" width="100" height="100" fill="white"/>
    <rect x="800" y="400" width="100" height="100" fill="white"/>
    <rect x="600" y="300" width="100" height="100" fill="white"/>
    <rect x="700" y="300" width="100" height="100" fill="white"/>
    <rect x="800" y="300" width="100" height="100" fill="white"/>
    <rect x="600" y="200" width="100" height="100" fill="white"/>
    <rect x="700" y="200" width="100" height="100" fill="white"/>
    <rect x="800" y="200" width="100" height="100" fill="white"/>
</svg>