<svg viewBox="0 0 1000 800" xmlns="http://www.w3.org/2000/svg">
  <rect width="100%" height="100%" fill="#e6e6e6"/>
  <rect x="0" y="0" width="100%" height="100%" fill="#f0f0f0"/>
  <rect x="0" y="650" width="100%" height="150" fill="#d4d4d4"/>
  <rect x="200" y="600" width="100" height="100" fill="#b0c4de"/>
  <rect x="400" y="600" width="50" height="50" fill="#87ceeb"/>
  <rect x="600" y="600" width="100" height="100" fill="#98fb98"/>
  <rect x="800" y="600" width="100" height="100" fill="#ffa500"/>
  <rect x="100" y="200" width="50" height="50" fill="#ff6347"/>
  <rect x="300" y="200" width="50" height="50" fill="#ff6347"/>
  <rect x="500" y="200" width="50" height="50" fill="#ff6347"/>
  <rect x="700" y="200" width="50" height="50" fill="#ff6347"/>
  <rect x="900" y="200" width="50" height="50" fill="#ff6347"/>
  <rect x="100" y="300" width="50" height="50" fill="#ff6347"/>
  <rect x="300" y="300" width="50" height="50" fill="#ff6347"/>
  <rect x="500" y="300" width="50" height="50" fill="#ff6347"/>
  <rect x="700" y="300" width="50" height="50" fill="#ff6347"/>
  <rect x="900" y="300" width="50" height="50" fill="#ff6347"/>
  <rect x="100" y="400" width="50" height="50" fill="#ff6347"/>
  <rect x="300" y="400" width="50" height="50" fill="#ff6347"/>
  <rect x="500" y="400" width="50" height="50" fill="#ff6347"/>
  <rect x="700" y="400" width="50" height="50" fill="#ff6347"/>
  <rect x="900" y="400" width="50" height="50" fill="#ff6347"/>
  <rect x="100" y="500" width="50" height="50" fill="#ff6347"/>
  <rect x="300" y="500" width="50" height="50" fill="#ff6347"/>
  <rect x="500" y="500" width="50" height="50" fill="#ff6347"/>
  <rect x="700" y="500" width="50" height="50" fill="#ff6347"/>
  <rect x="900" y="500" width="50" height="50" fill="#ff6347"/>
  <rect x="100" y="600" width="50" height="50" fill="#ff6347"/>
  <rect x="300" y="600" width="50" height="50" fill="#ff6347"/>
  <rect x="500" y="600" width="50" height="50" fill="#ff6347"/>
  <rect x="700" y="600" width="50" height="50" fill="#ff6347"/>
  <rect x="900" y="600" width="50" height="50" fill="#ff6347"/>
  <rect x="100" y="700" width="50" height="50" fill="#ff6347"/>
  <rect x="300" y="700" width="50" height="50" fill="#ff6347"/>
  <rect x="500" y="700" width="50" height="50" fill="#ff6347"/>
  <rect x="700" y="700" width="50" height="50" fill="#ff6347"/>
  <rect x="900" y="700" width="50" height="50" fill="#ff6347"/>
  <rect x="100" y="800" width="50" height="50" fill="#ff6347"/>
  <rect x="300" y="800" width="50" height="50" fill="#ff6347"/>
  <rect x="500" y="800" width="50" height="50" fill="#ff6347"/>
  <rect x="700" y="800" width="50" height="50" fill="#ff6347"/>
  <rect x="900" y="800" width="50" height="50" fill="#ff6347"/>
  <rect x="100" y="900" width="50" height="50" fill="#ff6347"/>
  <rect x="300" y="900" width="50" height="50" fill="#ff6347"/>
  <rect x="500" y="900" width="50" height="50" fill="#ff6347"/>
  <rect x="700" y="900" width="50" height="50" fill="#ff6347"/>
  <rect x="900" y="900" width="50" height="50" fill="#ff6347"/>
</svg>