<svg viewBox="0 0 1000 800" xmlns="http://www.w3.org/2000/svg">
  <rect x="0" y="0" width="1000" height="800" fill="#f0e6d2"/>
  <rect x="50" y="450" width="550" height="300" fill="#5c3a21"/>
  <rect x="700" y="380" width="250" height="250" fill="#3a2118"/>
  <rect x="360" y="390" width="200" height="120" fill="#5c3a21"/>
  <rect x="250" y="370" width="80" height="100" fill="#4a3a2a"/>
  <rect x="10" y="50" width="200" height="500" fill="#f5f5f5"/>
  <rect x="15" y="70" width="180" height="100" fill="#d0c0b0"/>
  <rect x="15" y="180" width="180" height="100" fill="#d0c0b0"/>
  <rect x="15" y="290" width="180" height="100" fill="#d0c0b0"/>
  <rect x="15" y="400" width="180" height="100" fill="#d0c0b0"/>
  <rect x="20" y="80" width="170" height="80" fill="#c0b0a0"/>
  <rect x="20" y="190" width="170" height="80" fill="#c0b0a0"/>
  <rect x="20" y="300" width="170" height="80" fill="#c0b0a0"/>
  <rect x="20" y="410" width="170" height="80" fill="#c0b0a0"/>
  <rect x="50" y="460" width="550" height="100" fill="#5c3a21"/>
  <rect x="100" y="470" width="450" height="80" fill="#3a2118"/>
  <rect x="450" y="300" width="100" height="80" fill="#2a2a2a"/>
  <rect x="460" y="310" width="80" height="60" fill="#1a1a1a"/>
  <rect x="750" y="100" width="200" height="200" fill="#808080"/>
  <rect x="550" y="150" width="100" height="100" fill="#808080"/>
  <rect x="370" y="160" width="100" height="100" fill="#808080"/>
  <rect x="230" y="200" width="40" height="60" fill="#808080"/>
  <rect x="0" y="600" width="700" height="200" fill="#804040"/>
  <rect x="100" y="680" width="500" height="120" fill="#8b5a2b"/>
  <rect x="200" y="720" width="400" height="80" fill="#8b5a2b"/>
  <rect x="300" y="760" width="200" height="40" fill="#8b5a2b"/>
  <rect x="70" y="370" width="120" height="100" fill="#a0a0a0"/>
  <rect x="80" y="380" width="100" height="80" fill="#c0c0c0"/>
  <rect x="90" y="390" width="80" height="60" fill="#e0e0e0"/>
  <rect x="100" y="400" width="60" height="40" fill="#ffffff"/>
  <rect x="110" y="410" width="40" height="20" fill="#d0d0d0"/>
  <rect x="120" y="420" width="20" height="10" fill="#c0c0c0"/>
  <rect x="470" y="320" width="60" height="40" fill="#f0f0f0"/>
  <rect x="480" y="330" width="40" height="20" fill="#e0e0e0"/>
  <rect x="490" y="340" width="20" height="10" fill="#d0d0d0"/>
  <rect x="770" y="330" width="40" height="20" fill="#a0a0a0"/>
  <rect x="810" y="330" width="40" height="20" fill="#a0a0a0"/>
  <rect x="850" y="330" width="40" height="20" fill="#a0a0a0"/>
  <rect x="780" y="310" width="20" height="20" fill="#808080"/>
  <rect x="820" y="310" width="20" height="20" fill="#808080"/>
  <rect x="860" y="310" width="20" height="20" fill="#808080"/>
  <rect x="970" y="380" width="20" height="100" fill="#000000"/>
  <rect x="980" y="480" width="10" height="50" fill="#000000"/>
  <rect x="990" y="490" width="5" height="30" fill="#000000"/>
  <rect x="995" y="500" width="5" height="10" fill="#000000"/>
  <rect x="990" y="510" width="5" height="10" fill="#000000"/>
  <rect x="985" y="520" width="5" height="10" fill="#000000"/>
  <rect x="980" y="530" width="5" height="10" fill="#000000"/>
  <rect x="975" y="540" width="5" height="10" fill="#000000"/>
  <rect x="970" y="550" width="5" height="10" fill="#000000"/>
  <rect x="965" y="560" width="5" height="10" fill="#000000"/>
  <rect x="960" y="570" width="5" height="10" fill="#000000"/>
  <rect x="955" y="580" width="5" height="10" fill="#000000"/>
  <rect x="950" y="590" width="5" height="10" fill="#000000"/>
  <rect x="945" y="600" width="5" height="10" fill="#000000"/>
  <rect x="940" y="610" width="5" height="10" fill="#000000"/>
  <rect x="935" y="620" width="5" height="10" fill="#000000"/>
  <rect x="930" y="630" width="5" height="10" fill="#000000"/>
  <rect x="925" y="640" width="5" height="10" fill="#000000"/>
  <rect x="920" y="650" width="5" height="10" fill="#000000"/>
  <rect x="915" y="660" width="5" height="10" fill="#000000"/>
  <rect x="910" y="670" width="5" height="10" fill="#000000"/>
  <rect x="905" y="680" width="5" height="10" fill="#000000"/>
  <rect x="900" y="690" width="5" height="10" fill="#000000"/>
  <rect x="895" y="700" width="5" height="10" fill="#000000"/>
  <rect x="890" y="710" width="5" height="10" fill="#000000"/>
  <rect x="885" y="720" width="5" height="10" fill="#000000"/>
  <rect x="880" y="730" width="5" height="10" fill="#000000"/>
  <rect x="875" y="740" width="5" height="10" fill="#000000"/>
  <rect x="870" y="750" width="5" height="10" fill="#000000"/>
  <rect x="865" y="760" width="5" height="10" fill="#000000"/>
  <rect x="860" y="770" width="5" height="10" fill="#000000"/>
  <rect x="855" y="780" width="5" height="10" fill="#000000"/>
  <rect x="850" y="790" width="5" height="10" fill="#000000"/>
  <rect x="845" y="800" width="5" height="10" fill="#000000"/>
  <rect x="840" y="810" width="5" height="10" fill="#000000"/>
  <rect x="835" y="820" width="5" height="10" fill="#000000"/>
  <rect x="830" y="830" width="5" height="10" fill="#000000"/>
  <rect x="825" y="840" width="5" height="10" fill="#000000"/>
  <rect x="820" y="850" width="5" height="10" fill="#000000"/>
  <rect x="815" y="860" width="5" height="10" fill="#000000"/>
  <rect x="810" y="870" width="5" height="10" fill="#000000"/>
  <rect x="805" y="880" width="5" height="10" fill="#000000"/>
  <rect x="800" y="890" width="5" height="10" fill="#000000"/>
  <rect x="795" y="900" width="5" height="10" fill="#000000"/>
  <rect x="790" y="910" width="5" height="10" fill="#000000"/>
  <rect x="785" y="920" width="5" height="10" fill="#000000"/>
  <rect x="780" y="930" width="5" height="10" fill="#000000"/>
  <rect x="775" y="940" width="5" height="10" fill="#000000"/>
  <rect x="770" y="950" width="5" height="10" fill="#000000"/>
  <rect x="765" y="960" width="5" height="10" fill="#000000"/>
  <rect x="760" y="970" width="5" height="10" fill="#000000"/>
  <rect x="755" y="980" width="5" height="10" fill="#000000"/>
  <rect x="750" y="990" width="5" height="10" fill="#000000"/>
  <rect x="745" y="1000" width="5" height="10" fill="#000000"/>
  <rect x="740" y="1010" width="5" height="10" fill="#000000"/>
  <rect x="735" y="1020" width="5" height="10" fill="#000000"/>
  <rect x="730" y="1030" width="5" height="10" fill="#000000"/>
  <rect x="725" y="1040" width="5" height="10" fill="#000000"/>
  <rect x="720" y="1050" width="5" height="10" fill="#000000"/>
  <rect x="715" y="1060" width="5" height="10" fill="#000000"/>
  <rect x="710" y="1070" width="5" height="10" fill="#000000"/>
  <rect x="705" y="1080" width="5" height="10" fill="#000000"/>
  <rect x="700" y="1090" width="5" height="10" fill="#000000"/>
  <rect x="695" y="1100" width="5" height="10" fill="#000000"/>
  <rect x="690" y="1110" width="5" height="10" fill="#000000"/>
  <rect x="685" y="1120" width="5" height="10" fill="#000000"/>
  <rect x="680" y="1130" width="5" height="10" fill="#000000"/>
  <rect x="675" y="1140" width="5" height="10" fill="#000000"/>
  <rect x="670" y="1150" width="5" height="10" fill="#000000"/>
  <rect x="665" y="1160" width="5" height="10" fill="#000000"/>
  <rect x="660" y="1170" width="5" height="10" fill="#000000"/>
  <rect x="655" y="1180" width="5" height="10" fill="#000000"/>
  <rect x="650" y="1190" width="5" height="10" fill="#000000"/>
  <rect x="645" y="1200" width="5" height="10" fill="#000000"/>
  <rect x="640" y="1210" width="5" height="10" fill="#000000"/>
  <rect x="635" y="1220" width="5" height="10" fill="#000000"/>
  <rect x="630" y="1230" width="5" height="10" fill="#000000"/>
  <rect x="625" y="1240" width="5" height="10" fill="#000000"/>
  <rect x="620" y="1250" width="5" height="10" fill="#000000"/>
  <rect x="615" y="1260" width="5" height="10" fill="#000000"/>
  <rect x="610" y="1270" width="5" height="10" fill="#000000"/>
  <rect x="605" y="1280" width="5" height="10" fill="#000000"/>
  <rect x="600" y="1290" width="5" height="10" fill="#000000"/>
  <rect x="595" y="1300" width="5" height="10" fill="#000000"/>
  <rect x="590" y="1310" width="5" height="10" fill="#000000"/>
  <rect x="585" y="1320" width="5" height="10" fill="#000000"/>
  <rect x="580" y="1330" width="5" height="10" fill="#000000"/>
  <rect x="575" y="1340" width="5" height="10" fill="#000000"/>
  <rect x="570" y="1350" width="5" height="10" fill="#000000"/>
  <rect x="565" y="1360" width="5" height="10" fill="#000000"/>
  <rect x="560" y="1370" width="5" height="10" fill="#000000"/>
  <rect x="555" y="1380" width="5" height="10" fill="#000000"/>
  <rect x="550" y="1390" width="5" height="10" fill="#000000"/>
  <rect x="545" y="1400" width="5" height="10" fill="#000000"/>
  <rect x="540" y="1410" width="5" height="10" fill="#000000"/>
  <rect x="535" y="1420" width="5" height="10" fill="#000000"/>
  <rect x="530" y="1430" width="5" height="10" fill="#000000"/>
  <rect x="525" y="1440" width="5" height="10" fill="#000000"/>
  <rect x="520" y="1450" width="5" height="10" fill="#000000"/>
  <rect x="515" y="1460" width="5" height="10" fill="#000000"/>
  <rect x="510" y="1470" width="5" height="10" fill="#000000"/>
  <rect x="505" y="1480" width="5" height="10" fill="#000000"/>
  <rect x="500" y="1490" width="5" height="10" fill="#000000"/>
  <rect x="495" y="1500" width="5" height="10" fill="#000000"/>
  <rect x="490" y="1510" width="5" height="10" fill="#000000"/>
  <rect x="485" y="1520" width="5" height="10" fill="#000000"/>
  <rect x="480" y="1530" width="5" height="10" fill="#000000"/>
  <rect x="475" y="1540" width="5" height="10" fill="#000000"/>
  <rect x="470" y="1550" width="5" height="10" fill="#000000"/>
  <rect x="465" y="1560" width="5" height="10" fill="#000000"/>
  <rect x="460" y="1570" width="5" height="10" fill="#000000"/>
  <rect x="455" y="1580" width="5" height="10" fill="#000000"/>
  <rect x="450" y="1590" width="5" height="10" fill="#000000"/>
  <rect x="445" y="1600" width="5" height="10" fill="#000000"/>
  <rect x="440" y="1610" width="5" height="10" fill="#000000"/>
  <rect x="435" y="1620" width="5" height="10" fill="#000000"/>
  <rect x="430" y="1630" width="5" height="10" fill="#000000"/>
  <rect x="425" y="1640" width="5" height="10" fill="#000000"/>
  <rect x="420" y="1650" width="5" height="10" fill="#000000"/>
  <rect x="415" y="1660" width="5" height="10" fill="#000000"/>
  <rect x="410" y="1670" width="5" height="10" fill="#000000"/>
  <rect x="405" y="1680" width="5" height="10" fill="#000000"/>
  <rect x="400" y="1690" width="5" height="10" fill="#000000"/>
  <rect x="395" y="1700" width="5" height="10" fill="#000000"/>
  <rect x="390" y="1710" width="5" height="10" fill="#000000"/>
  <rect x="385" y="1720" width="5" height="10" fill="#000000"/>
  <rect x="380" y="1730" width="5" height="10" fill="#000000"/>
  <rect x="375" y="1740" width="5" height="10" fill="#000000"/>
  <rect x="370" y="1750" width="5" height="10" fill="#000000"/>
  <rect x="365" y="1760" width="5" height="10" fill="#000000"/>
  <rect x="360" y="1770" width="5" height="10" fill="#000000"/>
  <rect x="355" y="1780" width="5" height="10" fill="#000000"/>
  <rect x="350" y="1790" width="5" height="10" fill="#000000"/>
  <rect x="345" y="1800" width="5" height="10" fill="#000000"/>
  <rect x="340" y="1810" width="5" height="10" fill="#000000"/>
  <rect x="335" y="1820" width="5" height="10" fill="#000000"/>
  <rect x="330" y="1830" width="5" height="10" fill="#000000"/>
  <rect x="325" y="1840" width="5" height="10" fill="#000000"/>
  <rect x="320" y="1850" width="5" height="10" fill="#000000"/>
  <rect x="315" y="1860" width="5" height="10" fill="#000000"/>
  <rect x="310" y="1870" width="5" height="10" fill="#000000"/>
  <rect x="305" y="1880" width="5" height="10" fill="#000000"/>
  <rect x="300" y="1890" width="5" height="10" fill="#000000"/>
  <rect x="295" y="1900" width="5" height="10" fill="#000000"/>
  <rect x="290" y="1910" width="5" height="10" fill="#000000"/>
  <rect x="285" y="1920" width="5" height="10" fill="#000000"/>
  <rect x="280" y="1930" width="5" height="10" fill="#000000"/>
  <rect x="275" y="1940" width="5" height="10" fill="#000000"/>
  <rect x="270" y="1950" width="5" height="10" fill="#000000"/>
  <rect x="265" y="1960" width="5" height="10" fill="#000000"/>
  <rect x="260" y="1970" width="5" height="10" fill="#000000"/>
  <rect x="255" y="1980" width="5" height="10" fill="#000000"/>
  <rect x="250" y="1990" width="5" height="10" fill="#000000"/>
  <rect x="245" y="2000" width="5" height="10" fill="#000000"/>
  <rect x="240" y="2010" width="5" height="10" fill="#000000"/>
  <rect x="235" y="2020" width="5" height="10" fill="#000000"/>
  <rect x="230" y="2030" width="5" height="10" fill="#000000"/>
  <rect x="225" y="2040" width="5" height="10" fill="#000000"/>
  <rect x="220" y="2050" width="5" height="10" fill="#000000"/>
  <rect x="215" y="2060" width="5" height="10" fill="#000000"/>
  <rect x="210" y="2070" width="5" height="10" fill="#000000"/>
  <rect x="205" y="2080" width="5" height="10" fill="#000000"/>
  <rect x="200" y="2090" width="5" height="10" fill="#000000"/>
  <rect x="195" y="2100" width="5" height="10" fill="#000000"/>
  <rect x="190" y="2110" width="5" height="10" fill="#000000"/>
  <rect x="185" y="2120" width="5" height="10" fill="#000000"/>
  <rect x="180" y="2130" width="5" height="10" fill="#000000"/>
  <rect x="175" y="2140" width="5" height="10" fill="#000000"/>
  <rect x="170" y="2150" width="5" height="10" fill="#000000"/>
  <rect x="165" y="2160" width="5" height="10" fill="#000000"/>
  <rect x="160" y="2170" width="5" height="10" fill="#000000"/>
  <rect x="155" y="2180" width="5" height="10" fill="#000000"/>
  <rect x="150" y="2190" width="5" height="10" fill="#000000"/>
  <rect x="145" y="2200" width="5" height="10" fill="#000000"/>
  <rect x="140" y="2210" width="5" height="10" fill="#000000"/>
  <rect x="135" y="2220" width="5" height="10" fill="#000000"/>
  <rect x="130" y="2230" width="5" height="10" fill="#000000"/>
  <rect x="125" y="2240" width="5" height="10" fill="#000000"/>
  <rect x="120" y="2250" width="5" height="10" fill="#000000"/>
  <rect x="115" y="2260" width="5" height="10" fill="#000000"/>
  <rect x="110" y="2270" width="5" height="10" fill="#000000"/>
  <rect x="105" y="2280" width="5" height="10" fill="#000000"/>
  <rect x="100" y="2290" width="5" height="10" fill="#000000"/>
  <rect x="95" y="2300" width="5" height="10" fill="#000000"/>
  <rect x="90" y="2310" width="5" height="10" fill="#000000"/>
  <rect x="85" y="2320" width="5" height="10" fill="#000000"/>
  <rect x="80" y="2330" width="5" height="10" fill="#000000"/>
  <rect x="75" y="2340" width="5" height="10" fill="#000000"/>
  <rect x="70" y="2350" width="5" height="10" fill="#000000"/>
  <rect x="65" y="2360" width="5" height="10" fill="#000000"/>
  <rect x="60" y="2370" width="5" height="10" fill="#000000"/>
  <rect x="55" y="2380" width="5" height="10" fill="#000000"/>
  <rect x="50" y="2390" width="5" height="10" fill="#000000"/>
  <rect x="45" y="2400" width="5" height="10" fill="#000000"/>
  <rect x="40" y="2410" width="5" height="10" fill="#000000"/>
  <rect x="35" y="2420" width="5" height="10" fill="#000000"/>
  <rect x="30" y="2430" width="5" height="10" fill="#000000"/>
  <rect x="25" y="2440" width="5" height="10" fill="#000000"/>
  <rect x="20" y="2450" width="5" height="10" fill="#000000"/>
  <rect x="15" y="2460" width="5" height="10" fill="#000000"/>
  <rect x="10" y="2470" width="5" height="10" fill="#000000"/>
  <rect x="5" y="2480" width="5" height="10" fill="#000000"/>
  <rect x="0" y="2490" width="5" height="10" fill="#000000"/>
</svg>