<svg viewBox="-2 0 1000 800" xmlns="http://www.w3.org/2000/svg">
  <rect width="100%" height="100%" fill="#f0f0f0"/>
  <rect x="0" y="500" width="400" height="200" fill="#8b4513"/>
  <rect x="100" y="600" width="200" height="100" fill="#a0522d"/>
  <rect x="200" y="650" width="100" height="50" fill="#654321"/>
  <rect x="150" y="670" width="50" height="30" fill="#000"/>
  <rect x="250" y="660" width="30" height="20" fill="#fff"/>
  <rect x="100" y="680" width="80" height="40" fill="#8b4513"/>
  <rect x="120" y="690" width="60" height="30" fill="#654321"/>
  <rect x="140" y="700" width="40" height="20" fill="#000"/>
  <rect x="150" y="710" width="20" height="10" fill="#fff"/>
  <rect x="160" y="720" width="10" height="5" fill="#8b4513"/>
  <rect x="170" y="725" width="5" height="5" fill="#654321"/>
  <rect x="175" y="730" width="5" height="5" fill="#000"/>
  <rect x="180" y="735" width="5" height="5" fill="#fff"/>
  <rect x="185" y="740" width="5" height="5" fill="#8b4513"/>
  <rect x="190" y="745" width="5" height="5" fill="#654321"/>
  <rect x="195" y="750" width="5" height="5" fill="#000"/>
  <rect x="200" y="755" width="5" height="5" fill="#fff"/>
  <rect x="205" y="760" width="5" height="5" fill="#8b4513"/>
  <rect x="210" y="765" width="5" height="5" fill="#654321"/>
  <rect x="215" y="770" width="5" height="5" fill="#000"/>
  <rect x="220" y="775" width="5" height="5" fill="#fff"/>
  <rect x="225" y="780" width="5" height="5" fill="#8b4513"/>
  <rect x="230" y="785" width="5" height="5" fill="#654321"/>
  <rect x="235" y="790" width="5" height="5" fill="#000"/>
  <rect x="240" y="795" width="5" height="5" fill="#fff"/>
  <rect x="245" y="800" width="5" height="5" fill="#8b4513"/>
  <rect x="250" y="805" width="5" height="5" fill="#654321"/>
  <rect x="255" y="810" width="5" height="5" fill="#000"/>
  <rect x="260" y="815" width="5" height="5" fill="#fff"/>
  <rect x="265" y="820" width="5" height="5" fill="#8b4513"/>
  <rect x="270" y="825" width="5" height="5" fill="#654321"/>
  <rect x="275" y="830" width="5" height="5" fill="#000"/>
  <rect x="280" y="835" width="5" height="5" fill="#fff"/>
  <rect x="285" y="840" width="5" height="5" fill="#8b4513"/>
  <rect x="290" y="845" width="5" height="5" fill="#654321"/>
  <rect x="295" y="850" width="5" height="5" fill="#000"/>
  <rect x="300" y="855" width="5" height="5" fill="#fff"/>
  <rect x="305" y="860" width="5" height="5" fill="#8b4513"/>
  <rect x="310" y="865" width="5" height="5" fill="#654321"/>
  <rect x="315" y="870" width="5" height="5" fill="#000"/>
  <rect x="320" y="875" width="5" height="5" fill="#fff"/>
  <rect x="325" y="880" width="5" height="5" fill="#8b4513"/>
  <rect x="330" y="885" width="5" height="5" fill="#654321"/>
  <rect x="335" y="890" width="5" height="5" fill="#000"/>
  <rect x="340" y="895" width="5" height="5" fill="#fff"/>
  <rect x="345" y="900" width="5" height="5" fill="#8b4513"/>
  <rect x="350" y="905" width="5" height="5" fill="#654321"/>
  <rect x="355" y="910" width="5" height="5" fill="#000"/>
  <rect x="360" y="915" width="5" height="5" fill="#fff"/>
  <rect x="365" y="920" width="5" height="5" fill="#8b4513"/>
  <rect x="370" y="925" width="5" height="5" fill="#654321"/>
  <rect x="375" y="930" width="5" height="5" fill="#000"/>
  <rect x="380" y="935" width="5" height="5" fill="#fff"/>
  <rect x="385" y="940" width="5" height="5" fill="#8b4513"/>
  <rect x="390" y="945" width="5" height="5" fill="#654321"/>
  <rect x="395" y="950" width="5" height="5" fill="#000"/>
  <rect x="400" y="955" width="5" height="5" fill="#fff"/>
  <rect x="405" y="960" width="5" height="5" fill="#8b4513"/>
  <rect x="410" y="965" width="5" height="5" fill="#654321"/>
  <rect x="415" y="970" width="5" height="5" fill="#000"/>
  <rect x="420" y="975" width="5" height="5" fill="#fff"/>
  <rect x="425" y="980" width="5" height="5" fill="#8b4513"/>
  <rect x="430" y="985" width="5" height="5" fill="#654321"/>
  <rect x="435" y="990" width="5" height="5" fill="#000"/>
  <rect x="440" y="995" width="5" height="5" fill="#fff"/>
  <rect x="445" y="1000" width="5" height="5" fill="#8b4513"/>
  <rect x="450" y="1005" width="5" height="5" fill="#654321"/>
  <rect x="455" y="1010" width="5" height="5" fill="#000"/>
  <rect x="460" y="1015" width="5" height="5" fill="#fff"/>
  <rect x="465" y="1020" width="5" height="5" fill="#8b4513"/>
  <rect x="470" y="1025" width="5" height="5" fill="#654321"/>
  <rect x="475" y="1030" width="5" height="5" fill="#000"/>
  <rect x="480" y="1035" width="5" height="5" fill="#fff"/>
  <rect x="485" y="1040" width="5" height="5" fill="#8b4513"/>
  <rect x="490" y="1045" width="5" height="5" fill="#654321"/>
  <rect x="495" y="1050" width="5" height="5" fill="#000"/>
  <rect x="500" y="1055" width="5" height="5" fill="#fff"/>
  <rect x="505" y="1060" width="5" height="5" fill="#8b4513"/>
  <rect x="510" y="1065" width="5" height="5" fill="#654321"/>
  <rect x="515" y="1070" width="5" height="5" fill="#000"/>
  <rect x="520" y="1075" width="5" height="5" fill="#fff"/>
  <rect x="525" y="1080" width="5" height="5" fill="#8b4513"/>
  <rect x="530" y="1085" width="5" height="5" fill="#654321"/>
  <rect x="535" y="1090" width="5" height="5" fill="#000"/>
  <rect x="540" y="1095" width="5" height="5" fill="#fff"/>
  <rect x="545" y="1100" width="5" height="5" fill="#8b4513"/>
  <rect x="550" y="1105" width="5" height="5" fill="#654321"/>
  <rect x="555" y="1110" width="5" height="5" fill="#000"/>
  <rect x="560" y="1115" width="5" height="5" fill="#fff"/>
  <rect x="565" y="1120" width="5" height="5" fill="#8b4513"/>
  <rect x="570" y="1125" width="5" height="5" fill="#654321"/>
  <rect x="575" y="1130" width="5" height="5" fill="#000"/>
  <rect x="580" y="1135" width="5" height="5" fill="#fff"/>
  <rect x="585" y="1140" width="5" height="5" fill="#8b4513"/>
  <rect x="590" y="1145" width="5" height="5" fill="#654321"/>
  <rect x="595" y="1150" width="5" height="5" fill="#000"/>
  <rect x="600" y="1155" width="5" height="5" fill="#fff"/>
  <rect x="605" y="1160" width="5" height="5" fill="#8b4513"/>
  <rect x="610" y="1165" width="5" height="5" fill="#654321"/>
  <rect x="615" y="1170" width="5" height="5" fill="#000"/>
  <rect x="620" y="1175" width="5" height="5" fill="#fff"/>
  <rect x="625" y="1180" width="5" height="5" fill="#8b4513"/>
  <rect x="630" y="1185" width="5" height="5" fill="#654321"/>
  <rect x="635" y="1190" width="5" height="5" fill="#000"/>
  <rect x="640" y="1195" width="5" height="5" fill="#fff"/>
  <rect x="645" y="1200" width="5" height="5" fill="#8b4513"/>
  <rect x="650" y="1205" width="5" height="5" fill="#654321"/>
  <rect x="655" y="1210" width="5" height="5" fill="#000"/>
  <rect x="660" y="1215" width="5" height="5" fill="#fff"/>
  <rect x="665" y="1220" width="5" height="5" fill="#8b4513"/>
  <rect x="670" y="1225" width="5" height="5" fill="#654321"/>
  <rect x="675" y="1230" width="5" height="5" fill="#000"/>
  <rect x="680" y="1235" width="5" height="5" fill="#fff"/>
  <rect x="685" y="1240" width="5" height="5" fill="#8b4513"/>
  <rect x="690" y="1245" width="5" height="5" fill="#654321"/>
  <rect x="695" y="1250" width="5" height="5" fill="#000"/>
  <rect x="700" y="1255" width="5" height="5" fill="#fff"/>
  <rect x="705" y="1260" width="5" height="5" fill="#8b4513"/>
  <rect x="710" y="1265" width="5" height="5" fill="#654321"/>
  <rect x="715" y="1270" width="5" height="5" fill="#000"/>
  <rect x="720" y="1275" width="5" height="5" fill="#fff"/>
  <rect x="725" y="1280" width="5" height="5" fill="#8b4513"/>
  <rect x="730" y="1285" width="5" height="5" fill="#654321"/>
  <rect x="735" y="1290" width="5" height="5" fill="#000"/>
  <rect x="740" y="1295" width="5" height="5" fill="#fff"/>
  <rect x="745" y="1300" width="5" height="5" fill="#8b4513"/>
  <rect x="750" y="1305" width="5" height="5" fill="#654321"/>
  <rect x="755" y="1310" width="5" height="5" fill="#000"/>
  <rect x="760" y="1315" width="5" height="5" fill="#fff"/>
  <rect x="765" y="1320" width="5" height="5" fill="#8b4513"/>
  <rect x="770" y="1325" width="5" height="5" fill="#654321"/>
  <rect x="775" y="1330" width="5" height="5" fill="#000"/>
  <rect x="780" y="1335" width="5" height="5" fill="#fff"/>
  <rect x="785" y="1340" width="5" height="5" fill="#8b4513"/>
  <rect x="790" y="1345" width="5" height="5" fill="#654321"/>
  <rect x="795" y="1350" width="5" height="5" fill="#000"/>
  <rect x="800" y="1355" width="5" height="5" fill="#fff"/>
  <rect x="805" y="1360" width="5" height="5" fill="#8b4513"/>
  <rect x="810" y="1365" width="5" height="5" fill="#654321"/>
  <rect x="815" y="1370" width="5" height="5" fill="#000"/>
  <rect x="820" y="1375" width="5" height="5" fill="#fff"/>
  <rect x="825" y="1380" width="5" height="5" fill="#8b4513"/>
  <rect x="830" y="1385" width="5" height="5" fill="#654321"/>
  <rect x="835" y="1390" width="5" height="5" fill="#000"/>
  <rect x="840" y="1395" width="5" height="5" fill="#fff"/>
  <rect x="845" y="1400" width="5" height="5" fill="#8b4513"/>
  <rect x="850" y="1405" width="5" height="5" fill="#654321"/>
  <rect x="855" y="1410" width="5" height="5" fill="#000"/>
  <rect x="860" y="1415" width="5" height="5" fill="#fff"/>
  <rect x="865" y="1420" width="5" height="5" fill="#8b4513"/>
  <rect x="870" y="1425" width="5" height="5" fill="#654321"/>
  <rect x="875" y="1430" width="5" height="5" fill="#000"/>
  <rect x="880" y="1435" width="5" height="5" fill="#fff"/>
  <rect x="885" y="1440" width="5" height="5" fill="#8b4513"/>
  <rect x="890" y="1445" width="5" height="5" fill="#654321"/>
  <rect x="895" y="1450" width="5" height="5" fill="#000"/>
  <rect x="900" y="1455" width="5" height="5" fill="#fff"/>
  <rect x="905" y="1460" width="5" height="5" fill="#8b4513"/>
  <rect x="910" y="1465" width="5" height="5" fill="#654321"/>
  <rect x="915" y="1470" width="5" height="5" fill="#000"/>
  <rect x="920" y="1475" width="5" height="5" fill="#fff"/>
  <rect x="925" y="1480" width="5" height="5" fill="#8b4513"/>
  <rect x="930" y="1485" width="5" height="5" fill="#654321"/>
  <rect x="935" y="1490" width="5" height="5" fill="#000"/>
  <rect x="940" y="1495" width="5" height="5" fill="#fff"/>
  <rect x="945" y="1500" width="5" height="5" fill="#8b4513"/>
  <rect x="950" y="1505" width="5" height="5" fill="#654321"/>
  <rect x="955" y="1510" width="5" height="5" fill="#000"/>
  <rect x="960" y="1515" width="5" height="5" fill="#fff"/>
  <rect x="965" y="1520" width="5" height="5" fill="#8b4513"/>
  <rect x="970" y="1525" width="5" height="5" fill="#654321"/>
  <rect x="975" y="1530" width="5" height="5" fill="#000"/>
  <rect x="980" y="1535" width="5" height="5" fill="#fff"/>
  <rect x="985" y="1540" width="5" height="5" fill="#8b4513"/>
  <rect x="990" y="1545" width="5" height="5" fill="#654321"/>
  <rect x="995" y="1550" width="5" height="5" fill="#000"/>
  <rect x="1000" y="1555" width="5" height="5" fill="#fff"/>
</svg>