<svg viewBox="0 0 1000 700" xmlns="http://www.w3.org/2000/svg">
  <rect x="0" y="0" width="1000" height="700" fill="#f5f5f5"/>
  <rect x="100" y="150" width="180" height="220" fill="#d3d3d3" stroke="red" stroke-width="4"/>
  <rect x="200" y="400" width="500" height="300" fill="#8b4513"/>
  <rect x="150" y="450" width="350" height="200" fill="#a9a9b0"/>
  <rect x="200" y="500" width="250" height="100" fill="#2f2f2f"/>
  <circle cx="250" y="650" r="40" fill="#fff"/>
  <rect x="550" y="600" width="120" height="60" fill="#333"/>
  <rect x="600" y="620" width="20" height="20" fill="#fff"/>
  <rect x="700" y="500" width="150" height="200" fill="#2c3e50"/>
  <rect x="300" y="100" width="600" height="400" fill="#7f7f7f"/>
  <rect x="400" y="150" width="500" height="300" fill="#ffffff"/>
  <rect x="500" y="200" width="400" height="200" fill="#d2b48c"/>
  <rect x="600" y="250" width="300" height="100" fill="#8b4513"/>
  <rect x="700" y="300" width="200" height="50" fill="#d2b48c"/>
  <rect x="800" y="350" width="100" height="30" fill="#8b4513"/>
  <rect x="900" y="380" width="50" height="20" fill="#d2b48c"/>
  <rect x="950" y="400" width="30" height="15" fill="#8b4513"/>
  <rect x="980" y="415" width="10" height="10" fill="#d2b48c"/>
  <rect x="990" y="425" width="5" height="5" fill="#8b4513"/>
  <rect x="995" y="430" width="2" height="2" fill="#d2b48c"/>
  <rect x="997" y="432" width="1" height="1" fill="#8b4513"/>
  <rect x="998" y="433" width="1" height="1" fill="#d2b48c"/>
  <rect x="999" y="434" width="1" height="1" fill="#8b4513"/>
  <rect x="1000" y="435" width="1" height="1" fill="#d2b48c"/>
  <rect x="1001" y="436" width="1" height="1" fill="#8b4513"/>
  <rect x="1002" y="437" width="1" height="1" fill="#d2b48c"/>
  <rect x="1003" y="438" width="1" height="1" fill="#8b4513"/>
  <rect x="1004" y="439" width="1" height="1" fill="#d2b48c"/>
  <rect x="1005" y="440" width="1" height="1" fill="#8b4513"/>
  <rect x="1006" y="441" width="1" height="1" fill="#d2b48c"/>
  <rect x="1007" y="442" width="1" height="1" fill="#8b4513"/>
  <rect x="1008" y="443" width="1" height="1" fill="#d2b48c"/>
  <rect x="1009" y="444" width="1" height="1" fill="#8b4513"/>
  <rect x="1010" y="445" width="1" height="1" fill="#d2b48c"/>
  <rect x="1011" y="446" width="1" height="1" fill="#8b4513"/>
  <rect x="1012" y="447" width="1" height="1" fill="#d2b48c"/>
  <rect x="1013" y="448" width="1" height="1" fill="#8b4513"/>
  <rect x="1014" y="449" width="1" height="1" fill="#d2b48c"/>
  <rect x="1015" y="450" width="1" height="1" fill="#8b4513"/>
  <rect x="1016" y="451" width="1" height="1" fill="#d2b48c"/>
  <rect x="1017" y="452" width="1" height="1" fill="#8b4513"/>
  <rect x="1018" y="453" width="1" height="1" fill="#d2b48c"/>
  <rect x="1019" y="454" width="1" height="1" fill="#8b4513"/>
  <rect x="1020" y="455" width="1" height="1" fill="#d2b48c"/>
  <rect x="1021" y="456" width="1" height="1" fill="#8b4513"/>
  <rect x="1022" y="457" width="1" height="1" fill="#d2b48c"/>
  <rect x="1023" y="458" width="1" height="1" fill="#8b4513"/>
  <rect x="1024" y="459" width="1" height="1" fill="#d2b48c"/>
  <rect x="1025" y="460" width="1" height="1" fill="#8b4513"/>
  <rect x="1026" y="461" width="1" height="1" fill="#d2b48c"/>
  <rect x="1027" y="462" width="1" height="1" fill="#8b4513"/>
  <rect x="1028" y="463" width="1" height="1" fill="#d2b48c"/>
  <rect x="1029" y="464" width="1" height="1" fill="#8b4513"/>
  <rect x="1030" y="465" width="1" height="1" fill="#d2b48c"/>
  <rect x="1031" y="466" width="1" height="1" fill="#8b4513"/>
  <rect x="1032" y="467" width="1" height="1" fill="#d2b48c"/>
  <rect x="1033" y="468" width="1" height="1" fill="#8b4513"/>
  <rect x="1034" y="469" width="1" height="1" fill="#d2b48c"/>
  <rect x="1035" y="470" width="1" height="1" fill="#8b4513"/>
  <rect x="1036" y="471" width="1" height="1" fill="#d2b48c"/>
  <rect x="1037" y="472" width="1" height="1" fill="#8b4513"/>
  <rect x="1038" y="473" width="1" height="1" fill="#d2b48c"/>
  <rect x="1039" y="474" width="1" height="1" fill="#8b4513"/>
  <rect x="1040" y="475" width="1" height="1" fill="#d2b48c"/>
  <rect x="1041" y="476" width="1" height="1" fill="#8b4513"/>
  <rect x="1042" y="477" width="1" height="1" fill="#d2b48c"/>
  <rect x="1043" y="478" width="1" height="1" fill="#8b4513"/>
  <rect x="1044" y="479" width="1" height="1" fill="#d2b48c"/>
  <rect x="1045" y="480" width="1" height="1" fill="#8b4513"/>
  <rect x="1046" y="481" width="1" height="1" fill="#d2b48c"/>
  <rect x="1047" y="482" width="1" height="1" fill="#8b4513"/>
  <rect x="1048" y="483" width="1" height="1" fill="#d2b48c"/>
  <rect x="1049" y="484" width="1" height="1" fill="#8b4513"/>
  <rect x="1050" y="485" width="1" height="1" fill="#d2b48c"/>
  <rect x="1051" y="486" width="1" height="1" fill="#8b4513"/>
  <rect x="1052" y="487" width="1" height="1" fill="#d2b48c"/>
  <rect x="1053" y="488" width="1" height="1" fill="#8b4513"/>
  <rect x="1054" y="489" width="1" height="1" fill="#d2b48c"/>
  <rect x="1055" y="490" width="1" height="1" fill="#8b4513"/>
  <rect x="1056" y="491" width="1" height="1" fill="#d2b48c"/>
  <rect x="1057" y="492" width="1" height="1" fill="#8b4513"/>
  <rect x="1058" y="493" width="1" height="1" fill="#d2b48c"/>
  <rect x="1059" y="494" width="1" height="1" fill="#8b4513"/>
  <rect x="1060" y="495" width="1" height="1" fill="#d2b48c"/>
  <rect x="1061" y="496" width="1" height="1" fill="#8b4513"/>
  <rect x="1062" y="497" width="1" height="1" fill="#d2b48c"/>
  <rect x="1063" y="498" width="1" height="1" fill="#8b4513"/>
  <rect x="1064" y="499" width="1" height="1" fill="#d2b48c"/>
  <rect x="1065" y="500" width="1" height="1" fill="#8b4513"/>
  <rect x="1066" y="501" width="1" height="1" fill="#d2b48c"/>
  <rect x="1067" y="502" width="1" height="1" fill="#8b4513"/>
  <rect x="1068" y="503" width="1" height="1" fill="#d2b48c"/>
  <rect x="1069" y="504" width="1" height="1" fill="#8b4513"/>
  <rect x="1070" y="505" width="1" height="1" fill="#d2b48c"/>
  <rect x="1071" y="506" width="1" height="1" fill="#8b4513"/>
  <rect x="1072" y="507" width="1" height="1" fill="#d2b48c"/>
  <rect x="1073" y="508" width="1" height="1" fill="#8b4513"/>
  <rect x="1074" y="509" width="1" height="1" fill="#d2b48c"/>
  <rect x="1075" y="510" width="1" height="1" fill="#8b4513"/>
  <rect x="1076" y="511" width="1" height="1" fill="#d2b48c"/>
  <rect x="1077" y="512" width="1" height="1" fill="#8b4513"/>
  <rect x="1078" y="513" width="1" height="1" fill="#d2b48c"/>
  <rect x="1079" y="514" width="1" height="1" fill="#8b4513"/>
  <rect x="1080" y="515" width="1" height="1" fill="#d2b48c"/>
  <rect x="1081" y="516" width="1" height="1" fill="#8b4513"/>
  <rect x="1082" y="517" width="1" height="1" fill="#d2b48c"/>
  <rect x="1083" y="518" width="1" height="1" fill="#8b4513"/>
  <rect x="1084" y="519" width="1" height="1" fill="#d2b48c"/>
  <rect x="1085" y="520" width="1" height="1" fill="#8b4513"/>
  <rect x="1086" y="521" width="1" height="1" fill="#d2b48c"/>
  <rect x="1087" y="522" width="1" height="1" fill="#8b4513"/>
  <rect x="1088" y="523" width="1" height="1" fill="#d2b48c"/>
  <rect x="1089" y="524" width="1" height="1" fill="#8b4513"/>
  <rect x="1090" y="525" width="1" height="1" fill="#d2b48c"/>
  <rect x="1091" y="526" width="1" height="1" fill="#8b4513"/>
  <rect x="1092" y="527" width="1" height="1" fill="#d2b48c"/>
  <rect x="1093" y="528" width="1" height="1" fill="#8b4513"/>
  <rect x="1094" y="529" width="1" height="1" fill="#d2b48c"/>
  <rect x="1095" y="530" width="1" height="1" fill="#8b4513"/>
  <rect x="1096" y="531" width="1" height="1" fill="#d2b48c"/>
  <rect x="1097" y="532" width="1" height="1" fill="#8b4513"/>
  <rect x="1098" y="533" width="1" height="1" fill="#d2b48c"/>
  <rect x="1099" y="534" width="1" height="1" fill="#8b4513"/>
  <rect x="1100" y="535" width="1" height="1" fill="#d2b48c"/>
  <rect x="1101" y="536" width="1" height="1" fill="#8b4513"/>
  <rect x="1102" y="537" width="1" height="1" fill="#d2b48c"/>
  <rect x="1103" y="538" width="1" height="1" fill="#8b4513"/>
  <rect x="1104" y="539" width="1" height="1" fill="#d2b48c"/>
  <rect x="1105" y="540" width="1" height="1" fill="#8b4513"/>
  <rect x="1106" y="541" width="1" height="1" fill="#d2b48c"/>
  <rect x="1107" y="542" width="1" height="1" fill="#8b4513"/>
  <rect x="1108" y="543" width="1" height="1" fill="#d2b48c"/>
  <rect x="1109" y="544" width="1" height="1" fill="#8b4513"/>
  <rect x="1110" y="545" width="1" height="1" fill="#d2b48c"/>
  <rect x="1111" y="546" width="1" height="1" fill="#8b4513"/>
  <rect x="1112" y="547" width="1" height="1" fill="#d2b48c"/>
  <rect x="1113" y="548" width="1" height="1" fill="#8b4513"/>
  <rect x="1114" y="549" width="1" height="1" fill="#d2b48c"/>
  <rect x="1115" y="550" width="1" height="1" fill="#8b4513"/>
  <rect x="1116" y="551" width="1" height="1" fill="#d2b48c"/>
  <rect x="1117" y="552" width="1" height="1" fill="#8b4513"/>
  <rect x="1118" y="553" width="1" height="1" fill="#d2b48c"/>
  <rect x="1119" y="554" width="1" height="1" fill="#8b4513"/>
  <rect x="1120" y="555" width="1" height="1" fill="#d2b48c"/>
  <rect x="1121" y="556" width="1" height="1" fill="#8b4513"/>
  <rect x="1122" y="557" width="1" height="1" fill="#d2b48c"/>
  <rect x="1123" y="558" width="1" height="1" fill="#8b4513"/>
  <rect x="1124" y="559" width="1" height="1" fill="#d2b48c"/>
  <rect x="1125" y="560" width="1" height="1" fill="#8b4513"/>
  <rect x="1126" y="561" width="1" height="1" fill="#d2b48c"/>
  <rect x="1127" y="562" width="1" height="1" fill="#8b4513"/>
  <rect x="1128" y="563" width="1" height="1" fill="#d2b48c"/>
  <rect x="1129" y="564" width="1" height="1" fill="#8b4513"/>
  <rect x="1130" y="565" width="1" height="1" fill="#d2b48c"/>
  <rect x="1131" y="566" width="1" height="1" fill="#8b4513"/>
  <rect x="1132" y="567" width="1" height="1" fill="#d2b48c"/>
  <rect x="1133" y="568" width="1" height="1" fill="#8b4513"/>
  <rect x="1134" y="569" width="1" height="1" fill="#d2b48c"/>
  <rect x="1135" y="570" width="1" height="1" fill="#8b4513"/>
  <rect x="1136" y="571" width="1" height="1" fill="#d2b48c"/>
  <rect x="1137" y="572" width="1" height="1" fill="#8b4513"/>
  <rect x="1138" y="573" width="1" height="1" fill="#d2b48c"/>
  <rect x="1139" y="574" width="1" height="1" fill="#8b4513"/>
  <rect x="1140" y="575" width="1" height="1" fill="#d2b48c"/>
  <rect x="1141" y="576" width="1" height="1" fill="#8b4513"/>
  <rect x="1142" y="577" width="1" height="1" fill="#d2b48c"/>
  <rect x="1143" y="578" width="1" height="1" fill="#8b4513"/>
  <rect x="1144" y="579" width="1" height="1" fill="#d2b48c"/>
  <rect x="1145" y="580" width="1" height="1" fill="#8b4513"/>
  <rect x="1146" y="581" width="1" height="1" fill="#d2b48c"/>
  <rect x="1147" y="582" width="1" height="1" fill="#8b4513"/>
  <rect x="1148" y="583" width="1" height="1" fill="#d2b48c"/>
  <rect x="1149" y="584" width="1" height="1" fill="#8b4513"/>
  <rect x="1150" y="585" width="1" height="1" fill="#d2b48c"/>
  <rect x="1151" y="586" width="1" height="1" fill="#8b4513"/>
  <rect x="1152" y="587" width="1" height="1" fill="#d2b48c"/>
  <rect x="1153" y="588" width="1" height="1" fill="#8b4513"/>
  <rect x="1154" y="589" width="1" height="1" fill="#d2b48c"/>
  <rect x="1155" y="590" width="1" height="1" fill="#8b4513"/>
  <rect x="1156" y="591" width="1" height="1" fill="#d2b48c"/>
  <rect x="1157" y="592" width="1" height="1" fill="#8b4513"/>
  <rect x="1158" y="593" width="1" height="1" fill="#d2b48c"/>
  <rect x="1159" y="594" width="1" height="1" fill="#8b4513"/>
  <rect x="1160" y="595" width="1" height="1" fill="#d2b48c"/>
  <rect x="1161" y="596" width="1" height="1" fill="#8b4513"/>
  <rect x="1162" y="597" width="1" height="1" fill="#d2b48c"/>
  <rect x="1163" y="598" width="1" height="1" fill="#8b4513"/>
  <rect x="1164" y="599" width="1" height="1" fill="#d2b48c"/>
  <rect x="1165" y="600" width="1" height="1" fill="#8b4513"/>
  <rect x="1166" y="601" width="1" height="1" fill="#d2b48c"/>
  <rect x="1167" y="602" width="1" height="1" fill="#8b4513"/>
  <rect x="1168" y="603" width="1" height="1" fill="#d2b48c"/>
  <rect x="1169" y="604" width="1" height="1" fill="#8b4513"/>
  <rect x="1170" y="605" width="1" height="1" fill="#d2b48c"/>
  <rect x="1171" y="606" width="1" height="1" fill="#8b4513"/>
  <rect x="1172" y="607" width="1" height="1" fill="#d2b48c"/>
  <rect x="1173" y="608" width="1" height="1" fill="#8b4513"/>
  <rect x="1174" y="609" width="1" height="1" fill="#d2b48c"/>
  <rect x="1175" y="610" width="1" height="1" fill="#8b4513"/>
  <rect x="1176" y="611" width="1" height="1" fill="#d2b48c"/>
  <rect x="1177" y="612" width="1" height="1" fill="#8b4513"/>
  <rect x="1178" y="613" width="1" height="1" fill="#d2b48c"/>
  <rect x="1179" y="614" width="1" height="1" fill="#8b4513"/>
  <rect x="1180" y="615" width="1" height="1" fill="#d2b48c"/>
  <rect x="1181" y="616" width="1" height="1" fill="#8b4513"/>
  <rect x="1182" y="617" width="1" height="1" fill="#d2b48c"/>
  <rect x="1183" y="618" width="1" height="1" fill="#8b4513"/>
  <rect x="1184" y="619" width="1" height="1" fill="#d2b48c"/>
  <rect x="1185" y="620" width="1" height="1" fill="#8b4513"/>
  <rect x="1186" y="621" width="1" height="1" fill="#d2b48c"/>
  <rect x="1187" y="622" width="1" height="1" fill="#8b4513"/>
  <rect x="1188" y="623" width="1" height="1" fill="#d2b48c"/>
  <rect x="1189" y="624" width="1" height="1" fill="#8b4513"/>
  <rect x="1190" y="625" width="1" height="1" fill="#d2b48c"/>
  <rect x="1191" y="626" width="1" height="1" fill="#8b4513"/>
  <rect x="1192" y="627" width="1" height="1" fill="#d2b48c"/>
  <rect x="1193" y="628" width="1" height="1" fill="#8b4513"/>
  <rect x="1194" y="629" width="1" height="1" fill="#d2b48c"/>
  <rect x="1195" y="630" width="1" height="1" fill="#8b4513"/>
  <rect x="1196" y="631" width="1" height="1" fill="#d2b48c"/>
  <rect x="1197" y="632" width="1" height="1" fill="#8b4513"/>
  <rect x="1198" y="633" width="1" height="1" fill="#d2b48c"/>
  <rect x="1199" y="634" width="1" height="1" fill="#8b4513"/>
  <rect x="1200" y="635" width="1" height="1" fill="#d2b48c"/>
  <rect x="1201" y="636" width="1" height="1" fill="#8b4513"/>
  <rect x="1202" y="637" width="1" height="1" fill="#d2b48c"/>
  <rect x="1203" y="638" width="1" height="1" fill="#8b4513"/>
  <rect x="1204" y="639" width="1" height="1" fill="#d2b48c"/>
  <rect x="1205" y="640" width="1" height="1" fill="#8b4513"/>
  <rect x="1206" y="641" width="1" height="1" fill="#d2b48c"/>
  <rect x="1207" y="642" width="1" height="1" fill="#8b4513"/>
  <rect x="1208" y="643" width="1" height="1" fill="#d2b48c"/>
  <rect x="1209" y="644" width="1" height="1" fill="#8b4513"/>
  <rect x="1210" y="645" width="1" height="1" fill="#d2b48c"/>
  <rect x="1211" y="646" width="1" height="1" fill="#8b4513"/>
  <rect x="1212" y="647" width="1" height="1" fill="#d2b48c"/>
  <rect x="1213" y="648" width="1" height="1" fill="#8b4513"/>
  <rect x="1214" y="649" width="1" height="1" fill="#d2b48c"/>
  <rect x="1215" y="650" width="1" height="1" fill="#8b4513"/>
  <rect x="1216" y="651" width="1" height="1" fill="#d2b48c"/>
  <rect x="1217" y="652" width="1" height="1" fill="#8b4513"/>
  <rect x="1218" y="653" width="1" height="1" fill="#d2b48c"/>
  <rect x="1219" y="654" width="1" height="1" fill="#8b4513"/>
  <rect x="1220" y="655" width="1" height="1" fill="#d2b48c"/>
  <rect x="1221" y="656" width="1" height="1" fill="#8b4513"/>
  <rect x="1222" y="657" width="1" height="1" fill="#d2b48c"/>
  <rect x="1223" y="658" width="1" height="1" fill="#8b4513"/>
  <rect x="1224" y="659" width="1" height="1" fill="#d2b48c"/>
  <rect x="1225" y="660" width="1" height="1" fill="#8b4513"/>
  <rect x="1226" y="661" width="1" height="1" fill="#d2b48c"/>
  <rect x="1227" y="662" width="1" height="1" fill="#8b4513"/>
  <rect x="1228" y="663" width="1" height="1" fill="#d2b48c"/>
  <rect x="1229" y="664" width="1" height="1" fill="#8b4513"/>
  <rect x="1230" y="665" width="1" height="1" fill="#d2b48c"/>
  <rect x="1231" y="666" width="1" height="1" fill="#8b4513"/>
  <rect x="1232" y="667" width="1" height="1" fill="#d2b48c"/>
  <rect x="1233" y="668" width="1" height="1" fill="#8b4513"/>
  <rect x="1234" y="669" width="1" height="1" fill="#d2b48c"/>
  <rect x="1235" y="670" width="1" height="1" fill="#8b4513"/>
  <rect x="1236" y="671" width="1" height="1" fill="#d2b48c"/>
  <rect x="1237" y="672" width="1" height="1" fill="#8b4513"/>
  <rect x="1238" y="673" width="1" height="1" fill="#d2b48c"/>
  <rect x="1239" y="674" width="1" height="1" fill="#8b4513"/>
  <rect x="1240" y="675" width="1" height="1" fill="#d2b48c"/>
  <rect x="1241" y="676" width="1" height="1" fill="#8b4513"/>
  <rect x="1242" y="677" width="1" height="1" fill="#d2b48c"/>
  <rect x="1243" y="678" width="1" height="1" fill="#8b4513"/>
  <rect x="1244" y="679" width="1" height="1" fill="#d2b48c"/>
  <rect x="1245" y="680" width="1" height="1" fill="#8b4513"/>
  <rect x="1246" y="681" width="1" height="1" fill="#d2b48c"/>
  <rect x="1247" y="682" width="1" height="1" fill="#8b4513"/>
  <rect x="1248" y="683" width="1" height="1" fill="#d2b48c"/>
  <rect x="1249" y="684" width="1" height="1" fill="#8b4513"/>
  <rect x="1250" y="685" width="1" height="1" fill="#d2b48c"/>
  <rect x="1251" y="686" width="1" height="1" fill="#8b4513"/>
  <rect x="1252" y="687" width="1" height="1" fill="#d2b48c"/>
  <rect x="1253" y="688" width="1" height="1" fill="#8b4513"/>
  <rect x="1254" y="689" width="1" height="1" fill="#d2b48c"/>
  <rect x="1255" y="690" width="1" height="1" fill="#8b4513"/>
  <rect x="1256" y="691" width="1" height="1" fill="#d2b48c"/>
  <rect x="1257" y="692" width="1" height="1" fill="#8b4513"/>
  <rect x="1258" y="693" width="1" height="1" fill="#d2b48c"/>
  <rect x="1259" y="694" width="1" height="1" fill="#8b4513"/>
  <rect x="1260" y="695" width="1" height="1" fill="#d2b48c"/>
  <rect x="1261" y="696" width="1" height="1" fill="#8b4513"/>
  <rect x="1262" y="697" width="1" height="1" fill="#d2b48c"/>
  <rect x="1263" y="698" width="1" height="1" fill="#8b4513"/>
  <rect x="1264" y="699" width="1" height="1" fill="#d2b48c"/>
</svg>